<svg height="504pt" viewBox="-76 0 504 504.0005" width="504pt" xmlns="http://www.w3.org/2000/svg"><path d="m4.003906 92.574219v134.152343c0 72.582032 30.292969 141.867188 83.574219 191.148438l88.785156 82.125 88.789063-82.125c53.28125-49.285156 83.574218-118.570312 83.574218-191.148438v-134.152343l-172.363281-88.574219zm0 0" fill="#fcc24c"/><path d="m24.003906 246.726562v-122.078124c0-7.425782 4.113282-14.242188 10.6875-17.699219l168.992188-88.910157-27.320313-14.039062-172.359375 88.574219v134.15625c0 72.578125 30.292969 141.863281 83.574219 191.144531l3.347656 3.101562c-42.882812-47.613281-66.921875-109.617187-66.921875-174.25zm0 0" fill="#fce06a"/><path d="m328.726562 82.292969v124.433593c0 72.582032-30.292968 141.867188-83.574218 191.148438l-88.789063 82.125-85.433593-79.027344c5.273437 5.855469 10.8125 11.503906 16.648437 16.902344l88.785156 82.125 88.789063-82.125c53.28125-49.285156 83.574218-118.570312 83.574218-191.148438v-134.152343zm0 0" fill="#dea42e"/><path d="m172.285156 216c-26.648437 0-43.300781-27.511719-29.976562-49.519531l29.976562-49.519531 29.976563 49.519531c13.320312 22.007812-3.332031 49.519531-29.976563 49.519531zm0 0" fill="#f4efed"/><path d="m172.285156 220c-14.421875 0-27.125-7.265625-33.984375-19.433594-6.429687-11.410156-6.210937-24.929687.585938-36.15625l29.976562-49.523437c.722657-1.195313 2.019531-1.925781 3.421875-1.925781 1.398438 0 2.695313.730468 3.421875 1.925781l29.972657 49.523437c6.796874 11.226563 7.019531 24.742188.585937 36.152344-6.859375 12.171875-19.5625 19.4375-33.980469 19.4375zm0-95.316406-26.554687 43.867187c-5.28125 8.726563-5.453125 19.226563-.457031 28.085938 5.421874 9.621093 15.519531 15.363281 27.011718 15.363281 11.492188 0 21.589844-5.742188 27.011719-15.363281 4.996094-8.859375 4.820313-19.359375-.457031-28.085938zm0 0" fill="#690589"/><path d="m224.667969 149.332031c-17.25 0-28.03125-17.808593-19.40625-32.058593l19.40625-32.0625 19.402343 32.0625c8.628907 14.246093-2.152343 32.058593-19.402343 32.058593zm0 0" fill="#f4efed"/><g fill="#690589"><path d="m224.667969 153.332031c-9.855469 0-18.539063-4.972656-23.230469-13.300781-4.417969-7.835938-4.265625-17.117188.402344-24.828125l19.40625-32.0625c.722656-1.195313 2.019531-1.925781 3.421875-1.925781 1.398437 0 2.695312.730468 3.421875 1.925781l19.40625 32.0625c4.667968 7.710937 4.816406 16.992187.398437 24.828125-4.691406 8.328125-13.375 13.300781-23.226562 13.300781zm0-60.394531-15.984375 26.40625c-3.203125 5.285156-3.300782 11.394531-.277344 16.757812 3.257812 5.777344 9.335938 9.230469 16.261719 9.230469 6.921875 0 13-3.453125 16.257812-9.230469 3.023438-5.363281 2.925781-11.472656-.277343-16.757812zm0 0"/><path d="m176.363281 504c-.972656 0-1.949219-.351562-2.714843-1.0625l-88.789063-82.128906c-53.929687-49.878906-84.859375-120.621094-84.859375-194.085938v-134.148437c0-1.5.839844-2.875 2.171875-3.558594l172.363281-88.574219c1.144532-.589844 2.507813-.589844 3.65625 0l172.359375 88.574219c1.335938.683594 2.171875 2.058594 2.171875 3.558594v134.152343c0 73.464844-30.929687 144.207032-84.855468 194.089844l-88.789063 82.125c-.765625.707032-1.738281 1.058594-2.714844 1.058594zm-168.359375-408.988281v131.714843c0 71.238282 29.992188 139.839844 82.289063 188.210938l86.070312 79.613281 86.070313-79.613281c52.296875-48.371094 82.289062-116.972656 82.289062-188.210938v-131.714843l-168.359375-86.515625zm0 0"/><path d="m20.003906 150.339844c-2.210937 0-4-1.792969-4-4v-24c0-2.210938 1.789063-4 4-4 2.207032 0 4 1.789062 4 4v24c0 2.207031-1.792968 4-4 4zm0 0"/></g><path d="m275.074219 226.445312-15.710938-23.175781-85.3125 57.835938-80.664062-54.320313 15.410156-18.21875-59.132813-1.304687 5.550782 29.046875 5.550781 29.050781 14.433594-17.066406 98.902343 66.605469zm0 0" fill="#ff4397"/><path d="m174.101562 298.898438c-.78125 0-1.558593-.230469-2.234374-.683594l-95.929688-64.601563-12.117188 14.328125c-.996093 1.175782-2.574218 1.675782-4.066406 1.285156-1.492187-.390624-2.628906-1.601562-2.914062-3.117187l-11.105469-58.097656c-.226563-1.183594.09375-2.410157.875-3.332031.777344-.921876 1.929687-1.4375 3.140625-1.417969l59.132812 1.304687c1.542969.03125 2.925782.949219 3.558594 2.355469.636719 1.40625.40625 3.046875-.589844 4.226563l-12.53125 14.8125 74.71875 50.316406 83.078126-56.320313c.878906-.59375 1.960937-.816406 3-.617187 1.042968.199218 1.960937.808594 2.554687 1.683594l15.710937 23.175781c1.238282 1.828125.761719 4.316406-1.066406 5.554687l-100.972656 68.453125c-.671875.460938-1.457031.691407-2.242188.691407zm-98.902343-74.605469c.773437 0 1.550781.222656 2.234375.679687l96.660156 65.097656 95.425781-64.695312-11.222656-16.550781-82.003906 55.589843c-1.347657.917969-3.121094.917969-4.476563.003907l-80.664062-54.316407c-.941406-.636718-1.570313-1.640624-1.726563-2.765624-.15625-1.128907.175781-2.265626.910157-3.136719l10-11.824219-45.8125-1.007812 8.601562 45.007812 9.019531-10.667969c.785157-.925781 1.914063-1.414062 3.054688-1.414062zm0 0" fill="#690589"/><path d="m51.199219 294h250.332031v40h-250.332031zm0 0" fill="#7bac51"/><path d="m281.53125 294h20v40h-20zm0 0" fill="#5d8e33"/><path d="m51.199219 294h20v40h-20zm0 0" fill="#99ca6f"/><path d="m301.53125 338h-250.335938c-2.207031 0-4-1.789062-4-4v-40c0-2.210938 1.792969-4 4-4h250.335938c2.207031 0 4 1.789062 4 4v40c0 2.210938-1.792969 4-4 4zm-246.335938-8h242.335938v-32h-242.335938zm0 0" fill="#690589"/></svg>