<svg id="Capa_1" enable-background="new 0 0 511.814 511.814" height="512" viewBox="0 0 511.814 511.814" width="512" xmlns="http://www.w3.org/2000/svg"><g><g><g><g><path d="m15.113 480.24s-9.615-26.903 5.655-42.173l157.257-159.257 51.338 52.792v2.467l-22.543 22.543-6.348 4.348-4.259 6.259-122.146 122.146c-5.81 5.81-12.994 9.406-20.506 10.795 0 0-28.916-2.729-38.448-19.92z" fill="#857e87"/><path d="m31.372 445.463 155.997-155.862-11.735-11.286-1.556.442-22.556 22.557-3.965 6.965-6.642 3.642-122.147 122.146c-15.27 15.27-15.27 40.028 0 55.298 9.46 9.46 22.561 13.056 34.792 10.795l-22.189-22.192c-8.975-8.976-8.975-23.529.001-32.505z" fill="#6f6571"/></g><g><path d="m152.603 373.027c1.835-1.835 3.377-4.57 3.377-4.57 1.054-4.421-.136-9.268-3.586-12.718s-8.297-4.64-12.718-3.586c0 0-2.919 1.422-4.754 3.257-5.285 5.285-5.95 13.182-.665 18.467s13.061 4.435 18.346-.85z" fill="#f9f8f9"/><path d="m143.257 364.877c-3.449-3.449-4.634-8.302-3.58-12.724-2.352.561-4.585 1.751-6.42 3.586-5.285 5.285-5.285 13.853 0 19.138s13.853 5.285 19.138 0c1.835-1.835 3.025-4.068 3.586-6.42-4.422 1.054-9.275-.131-12.724-3.58z" fill="#e8e8e8"/></g><g><path d="m112.201 413.428c1.835-1.835 3.377-4.57 3.377-4.57 1.054-4.421-.136-9.268-3.586-12.718s-8.297-4.64-12.718-3.586c0 0-2.919 1.422-4.754 3.257-5.285 5.285-5.95 13.182-.665 18.467s13.062 4.435 18.346-.85z" fill="#f9f8f9"/><path d="m102.855 405.278c-3.449-3.449-4.634-8.302-3.58-12.724-2.352.561-4.585 1.751-6.42 3.586-5.285 5.285-5.285 13.853 0 19.138s13.853 5.285 19.138 0c1.835-1.835 3.025-4.068 3.586-6.42-4.421 1.054-9.274-.13-12.724-3.58z" fill="#e8e8e8"/></g><g><path d="m71.8 453.83c1.835-1.835 3.377-4.57 3.377-4.57 1.054-4.421-.136-9.268-3.586-12.718s-8.297-4.64-12.718-3.586c0 0-2.919 1.422-4.754 3.257-5.285 5.285-5.95 13.182-.665 18.467s13.061 4.434 18.346-.85z" fill="#f9f8f9"/><path d="m62.454 445.679c-3.449-3.449-4.634-8.302-3.58-12.724-2.352.561-4.585 1.751-6.42 3.586-5.285 5.285-5.285 13.853 0 19.138s13.853 5.285 19.138 0c1.835-1.835 3.025-4.068 3.586-6.42-4.422 1.054-9.275-.13-12.724-3.58z" fill="#e8e8e8"/></g></g><g><path d="m287.624 307.984c69.861-67.156 157.051-190.211 182.553-283.234l8.939-3.091c7.86-3.614 16.247-7.237 16.247-7.237 5.863-2.098 5.863 3.519 5.863 3.519-19.218 86.298-66.359 184.403-133.389 256.564l-1.521 5.939c-5.236 5.479-10.595 10.872-16.076 16.141l-32.85 31.578c-2.843 2.733-7.35 2.688-10.138-.1-5.497-5.497-11.94-9.472-18.806-11.925z" fill="#f9f8f9"/><path d="m324.163 279.648c14.775-14.203 28.869-29.744 42.158-46.295 49.542-61.706 46.897-113.977 67.006-187.326 0 0-56.068 33.55-97.375 74.856l-157.926 157.926 8.071 12.019 43.267 43.241 6.005-6.005c14.353-14.353 35.154-18.328 53.078-11.925z" fill="#e8e8e8"/><path d="m349.951 126.883c9.261-9.261 18.873-18.131 28.809-26.596l.778-10.516-7.574-4.736c-13.949 11.193-27.315 23.149-40.014 35.847l-157.872 157.875 12.019 12.071z" fill="#dcdbdd"/></g><g><path d="m401.316 405.952c0-9.665-7.835-17.5-17.5-17.5-1.952 0-3.826.327-5.579.916 0 0-10.868 7.158-10.868 14.871 0 9.665 5.149 18.491 17.037 18.468 11.281-.022 15.993-11.176 15.993-11.176.59-1.752.917-3.627.917-5.579z" fill="#e27f86"/><path d="m394.816 412.452c-9.665 0-17.5-7.835-17.5-17.5 0-1.952.331-3.83.921-5.584-6.927 2.33-11.921 8.871-11.921 16.584 0 9.665 7.835 17.5 17.5 17.5 7.713 0 14.254-4.993 16.584-11.921-1.754.591-3.632.921-5.584.921z" fill="#df646e"/></g><g><path d="m498.363 11.423c-40.811 16.217-79.164 37.789-114.099 64.058-4.148 3.119-5.248 6.305-9.299 9.555 1.511 4.4 24.084 47.542 19.511 73.554 0 0 .659 8.882-14.78 33.624-5.783 9.268-10.38 24.024-10.376 41.139.001 1.89-1.005 93.11-1.005 93.11 0 9.864 5.966 16.811 15.904 16.479 2.46-.082 7.058-.697 7.058-.697 5.973-2.911 10.037-9.191 10.037-16.24v-69.085c0-9.612 7.792-17.404 17.404-17.404 9.687 0 19.395 3.761 19.289 13.447v1.575c-.106 9.686 6.405 18.595 16.092 18.595 2.689 0 6.815.292 6.815.292 5.853-2.803 9.9-8.773 9.9-15.696v-100.049c0-20.876 3.687-41.568 10.598-61.255l1.107-3.017c7.963-25.552 16.334-50.545 21.705-77.085.686-3.383-2.654-6.175-5.861-4.9z" fill="#e27f86"/><g fill="#df646e"><path d="m451.009 257.538v-.575c.106-9.686-7.602-17.447-17.289-17.447h-15c12.011.255 17.365 10.467 17.289 17.447v.575c-.106 9.686 7.716 17.595 17.403 17.595 2.689 0 5.231-.619 7.504-1.708-5.91-2.831-9.984-8.891-9.907-15.887z"/><path d="m381.316 326.463s0-32.459 0-62.394v-32.373c0-12.314 3.696-24.383 10.79-34.449 13.398-19.012 16.712-35.577 14.366-55.357-1.18-9.943-3.781-19.665-7.453-28.98l-14.752-37.428s-7.914 6.038-12.3 9.553c47.681 101.633-4.767 83.102-5.645 148.317l-.005 47.092v46.018c0 9.864 8.161 17.822 18.1 17.49 2.461-.083 4.777-.691 6.863-1.708-5.888-2.818-9.964-8.819-9.964-15.781z"/></g></g></g><g><path d="m507.564 6.368c-3.339-2.791-7.924-3.528-11.97-1.919-16.121 6.405-32.097 13.741-47.482 21.805-3.669 1.922-5.084 6.455-3.161 10.124s6.457 5.085 10.124 3.161c13.186-6.91 26.818-13.27 40.6-18.943-4.886 22.885-12.097 48.263-20.441 70.87-7.908 21.621-11.918 43.898-11.918 66.211v34.761c0 4.143 3.357 7.5 7.5 7.5s7.5-3.358 7.5-7.5v-34.761c0-20.531 3.697-41.056 10.987-61.005 9.034-24.506 16.978-52.567 22.274-78.865.864-4.266-.673-8.649-4.013-11.439z"/><path d="m383.816 380.952c-13.785 0-25 11.215-25 25s11.215 25 25 25 25-11.215 25-25c.001-13.785-11.215-25-25-25zm0 35c-5.514 0-10-4.486-10-10s4.486-10 10-10 10 4.486 10 10-4.486 10-10 10z"/><path d="m470.817 219.938c-4.143 0-7.5 3.358-7.5 7.5v30.288c0 5.461-4.444 9.904-9.905 9.904-4.142-.123-9.562-3.146-9.903-10.095.612-12.718-10.469-25.746-24.788-25.523-13.733 0-24.905 11.172-24.905 24.905v69.085c0 5.586-4.329 10.275-9.651 10.452-4.214.04-9.906-2.964-10.349-9.993v-102.056c0-9.509 2.851-18.262 8.245-25.312 10.954-14.318 16.744-30.955 16.744-48.113.495-21.342-7.222-43.527-17.861-63.5 14.101-11.058 28.806-21.345 44.04-30.773 3.521-2.18 4.61-6.802 2.43-10.324-2.179-3.522-6.802-4.612-10.324-2.43-32.767 20.278-63.196 44.376-90.442 71.622l-63.119 63.12c-2.929 2.93-2.929 7.678 0 10.608 1.465 1.464 3.385 2.196 5.304 2.196s3.839-.732 5.304-2.196l63.119-63.12c10.107-10.107 20.669-19.764 31.634-28.942 8.757 15.451 15.324 36.011 14.916 53.739 0 13.834-4.723 27.32-13.658 38.999-7.413 9.69-11.331 21.594-11.331 34.426v6.296c-12.757 15.723-72.895 76.817-72.895 76.817-4.716-1.211-9.614-1.844-14.611-1.844-15.082-.133-31.059 6.488-41.907 17.746l-44.692-44.692 64.575-64.575c2.929-2.93 2.929-7.678 0-10.608-2.93-2.928-7.678-2.928-10.607 0-45.437 45.436-178.019 178.019-225.216 225.218-17.541 16.758-18.358 48.306 0 65.907 17.615 17.643 47.448 18.448 65.906 0l49.555-49.555c2.929-2.93 2.929-7.678 0-10.608-2.93-2.928-7.678-2.928-10.607 0l-49.554 49.555c-12.322 12.323-32.37 12.322-44.693-.001-11.636-11.144-12.601-32.552.001-44.691l122.146-122.148 44.692 44.692-47.656 47.656c-2.929 2.93-2.929 7.678 0 10.607 2.93 2.927 7.678 2.929 10.608 0 .065-.065 82.136-82.139 86.812-86.812 8.184-8.184 19.064-12.691 30.638-12.691s22.455 4.507 30.639 12.692c5.637 5.635 14.895 5.726 20.639.203 7.344-7.081 30.069-28.857 36.229-34.861v27.753c-.211 12.789 11.34 25.649 25.85 24.986 13.316-.445 24.151-11.859 24.151-25.445v-69.085c0-5.461 4.443-9.904 9.904-9.904 4.283.085 9.88 3.458 9.788 10.441-.383 12.53 10.788 25.397 24.903 25.177 13.733 0 24.905-11.172 24.905-24.905v-30.288c-.003-4.142-3.361-7.5-7.503-7.5zm-269.3 131.369-44.692-44.692 17.279-17.279 44.693 44.693zm157.299-73.877c-4.497 4.652-46.441 45.149-46.441 45.149-3.491-3.461-7.345-6.424-11.471-8.862 0 0 48.357-48.726 57.912-59.706z"/><path d="m142.841 386.307c11.6 0 21-9.41 21-21.01s-9.4-21.01-21-21.01-21.01 9.41-21.01 21.01c0 3.052.666 5.943 1.837 8.56l-12.674 12.674c-2.616-1.171-5.508-1.837-8.56-1.837-11.6 0-21.01 9.41-21.01 21.01 0 3.052.666 5.944 1.837 8.561l-12.674 12.674c-2.616-1.172-5.508-1.837-8.561-1.837-11.6 0-21.01 9.41-21.01 21.01s9.41 21.01 21.01 21.01 21-9.41 21-21.01c0-3.052-.665-5.944-1.835-8.562l12.676-12.676c2.619 1.173 5.513 1.84 8.567 1.84 11.6 0 21-9.41 21-21.01 0-3.052-.665-5.945-1.835-8.562l12.675-12.675c2.618 1.173 5.512 1.84 8.567 1.84zm0-27.02c3.32 0 6.01 2.69 6.01 6.01s-2.69 6.01-6.01 6.01-6.01-2.69-6.01-6.01 2.69-6.01 6.01-6.01zm-80.815 92.834c-3.32 0-6.01-2.69-6.01-6.01s2.69-6.01 6.01-6.01 6.01 2.69 6.01 6.01-2.69 6.01-6.01 6.01zm40.407-40.407c-3.32 0-6.01-2.69-6.01-6.01s2.69-6.01 6.01-6.01 6.01 2.69 6.01 6.01-2.69 6.01-6.01 6.01z"/></g></g></svg>