<?xml version="1.0" encoding="iso-8859-1"?>
<!-- Generator: Adobe Illustrator 16.0.0, SVG Export Plug-In . SVG Version: 6.00 Build 0)  -->
<!DOCTYPE svg PUBLIC "-//W3C//DTD SVG 1.1//EN" "http://www.w3.org/Graphics/SVG/1.1/DTD/svg11.dtd">
<svg version="1.1" id="Capa_1" xmlns="http://www.w3.org/2000/svg" xmlns:xlink="http://www.w3.org/1999/xlink" x="0px" y="0px"
	 width="29.641px" height="29.642px" viewBox="0 0 29.641 29.642" style="enable-background:new 0 0 29.641 29.642;"
	 xml:space="preserve">
<g>
	<g>
		<g>
			<path d="M12.758,22.499c-5.376,0-9.75-4.374-9.75-9.75s4.374-9.75,9.75-9.75s9.75,4.374,9.75,9.75
				c0,1.966-0.589,3.794-1.595,5.328l1.394,1.393l1.309-0.067c1.192-1.939,1.895-4.213,1.895-6.652C25.51,5.72,19.79,0,12.76,0
				C5.73,0,0.01,5.72,0.01,12.75c0,7.029,5.72,12.75,12.75,12.75c2.439,0,4.713-0.701,6.652-1.895l0.067-1.308l-1.395-1.395
				C16.552,21.909,14.724,22.499,12.758,22.499z"/>
			<path d="M19.218,16.381c0.607-1.075,0.957-2.312,0.957-3.632c0-4.09-3.328-7.417-7.417-7.417S5.341,8.66,5.341,12.749
				s3.328,7.417,7.417,7.417c1.32,0,2.558-0.351,3.632-0.957l-2.277-2.278c-0.43,0.142-0.879,0.235-1.355,0.235
				c-2.436,0-4.417-1.981-4.417-4.417c0-2.436,1.981-4.417,4.417-4.417c2.437,0,4.417,1.981,4.417,4.417
				c0,0.476-0.096,0.925-0.234,1.354L19.218,16.381z"/>
			<path d="M13.758,11.749c0.401,0,0.784,0.117,1.11,0.336c-0.284-0.901-1.116-1.558-2.11-1.558c-1.227,0-2.222,0.995-2.222,2.222
				c0,0.995,0.659,1.828,1.561,2.11c-0.52-0.776-0.438-1.838,0.248-2.524C12.722,11.957,13.224,11.749,13.758,11.749z"/>
			<path d="M29.397,24.871l-4.281-4.282c-0.15-0.149-0.354-0.233-0.567-0.233c-0.015,0-0.028,0-0.042,0l-2.592,0.137l-7.451-7.45
				c-0.195-0.195-0.451-0.293-0.707-0.293s-0.512,0.098-0.707,0.293c-0.391,0.391-0.391,1.022,0,1.414l7.45,7.45l-0.137,2.591
				c-0.013,0.228,0.072,0.448,0.233,0.608l4.301,4.303c0.152,0.151,0.357,0.233,0.567,0.233c0.073,0,0.146-0.01,0.219-0.028
				c0.278-0.079,0.495-0.304,0.562-0.586l0.437-1.83c0.071-0.299,0.309-0.53,0.606-0.597l1.713-0.379
				c0.287-0.062,0.516-0.276,0.598-0.56C29.682,25.381,29.604,25.078,29.397,24.871z"/>
		</g>
	</g>
</g>
<g>
</g>
<g>
</g>
<g>
</g>
<g>
</g>
<g>
</g>
<g>
</g>
<g>
</g>
<g>
</g>
<g>
</g>
<g>
</g>
<g>
</g>
<g>
</g>
<g>
</g>
<g>
</g>
<g>
</g>
</svg>
