<svg id="Capa_1" enable-background="new 0 0 512 512" height="512" viewBox="0 0 512 512" width="512" xmlns="http://www.w3.org/2000/svg" xmlns:xlink="http://www.w3.org/1999/xlink"><linearGradient id="SVGID_1_" gradientUnits="userSpaceOnUse" x1="256" x2="256" y1="481" y2="31"><stop offset="0" stop-color="#fd5900"/><stop offset="1" stop-color="#ffde00"/></linearGradient><g><path d="m497 241h-106.076c-.532-3.703-1.253-7.346-2.163-10.915l42.562-17.629c7.653-3.17 11.288-11.945 8.118-19.599s-11.945-11.287-19.599-8.118l-42.598 17.645c-1.902-3.189-3.963-6.273-6.182-9.233l75.036-75.036c5.858-5.858 5.858-15.355 0-21.213-5.857-5.858-15.355-5.858-21.213 0l-75.036 75.036c-2.96-2.219-6.044-4.28-9.233-6.182l17.645-42.598c3.17-7.654-.465-16.428-8.118-19.599-7.655-3.168-16.429.464-19.599 8.118l-17.629 42.562c-3.569-.91-7.211-1.631-10.915-2.163v-106.076c0-8.284-6.716-15-15-15s-15 6.716-15 15v106.076c-3.703.532-7.346 1.253-10.915 2.163l-17.629-42.562c-3.17-7.654-11.943-11.287-19.599-8.118-7.653 3.17-11.288 11.945-8.118 19.599l17.645 42.598c-3.189 1.902-6.273 3.963-9.233 6.182l-75.036-75.036c-5.857-5.858-15.355-5.858-21.213 0s-5.858 15.355 0 21.213l75.036 75.036c-2.219 2.96-4.279 6.044-6.182 9.233l-42.598-17.645c-7.657-3.169-16.428.464-19.599 8.118-3.17 7.654.465 16.428 8.118 19.599l42.562 17.629c-.91 3.569-1.631 7.211-2.163 10.915h-168.076c-8.284 0-15 6.716-15 15s6.716 15 15 15h168.076c.532 3.703 1.253 7.346 2.163 10.915l-42.562 17.629c-7.653 3.17-11.288 11.945-8.118 19.599 2.393 5.777 7.978 9.264 13.864 9.264 1.913 0 3.857-.368 5.734-1.146l42.598-17.645c1.902 3.189 3.963 6.273 6.182 9.233l-75.036 75.036c-5.858 5.858-5.858 15.355 0 21.213 2.929 2.929 6.768 4.394 10.606 4.394s7.678-1.464 10.606-4.394l75.036-75.036c2.96 2.219 6.044 4.28 9.233 6.182l-17.645 42.598c-3.17 7.654.465 16.428 8.118 19.599 1.878.777 3.821 1.146 5.734 1.146 5.886 0 11.472-3.487 13.864-9.264l17.629-42.562c3.569.91 7.211 1.631 10.915 2.163v106.076c0 8.284 6.716 15 15 15s15-6.716 15-15v-106.076c3.703-.532 7.346-1.253 10.915-2.163l17.629 42.562c2.393 5.777 7.978 9.264 13.864 9.264 1.913 0 3.857-.368 5.734-1.146 7.653-3.17 11.288-11.945 8.118-19.599l-17.645-42.598c3.189-1.902 6.273-3.963 9.233-6.182l75.036 75.036c2.929 2.929 6.768 4.394 10.606 4.394s7.678-1.464 10.606-4.394c5.858-5.858 5.858-15.355 0-21.213l-75.036-75.036c2.219-2.96 4.279-6.044 6.182-9.233l42.598 17.645c1.878.777 3.821 1.146 5.734 1.146 5.886 0 11.472-3.487 13.864-9.264 3.17-7.654-.465-16.428-8.118-19.599l-42.562-17.629c.91-3.569 1.631-7.211 2.163-10.915h106.082c8.284 0 15-6.716 15-15s-6.716-15-15-15zm-252.42 30c6.192 17.458 22.865 30 42.42 30 24.813 0 45-20.187 45-45s-20.187-45-45-45c-19.555 0-36.228 12.542-42.42 30h-31.071c.928-4.554 2.285-8.952 4-13.167.08-.173.165-.341.238-.518.087-.209.149-.423.226-.634 7.595-17.813 21.889-32.108 39.701-39.705.214-.078.429-.141.641-.229.145-.06.278-.135.42-.199 8.729-3.566 18.268-5.548 28.265-5.548s19.536 1.982 28.265 5.548c.142.064.275.139.42.199.212.088.427.151.64.229 17.813 7.597 32.106 21.892 39.702 39.705.077.211.139.424.226.634.073.177.159.346.238.519 3.541 8.702 5.509 18.207 5.509 28.166 0 9.997-1.981 19.535-5.547 28.265-.064.142-.14.276-.2.421-.087.209-.149.423-.226.634-7.596 17.815-21.893 32.112-39.708 39.708-.211.077-.424.139-.633.226-.145.06-.278.135-.42.199-8.73 3.565-18.269 5.547-28.266 5.547s-19.536-1.982-28.265-5.548c-.142-.064-.275-.139-.42-.199-.209-.086-.421-.148-.632-.225-17.816-7.596-32.114-21.893-39.71-39.709-.077-.211-.139-.424-.226-.634-.06-.145-.136-.278-.2-.421-1.734-4.245-3.103-8.676-4.038-13.265h31.071zm27.42-15c0-8.271 6.729-15 15-15s15 6.729 15 15-6.729 15-15 15-15-6.729-15-15z" fill="url(#SVGID_1_)"/></g></svg>