<svg id="Flat" height="512" viewBox="0 0 512 512" width="512" xmlns="http://www.w3.org/2000/svg"><path d="m352 80h-192l-1.016-24c19.365-19.13 55.56-32 97.016-32 40.741 0 76.4 12.431 96 31.017z" fill="#808080"/><path d="m112 80h288v360h-288z" fill="#85bb40"/><path d="m158.984 72h194.032v48c-19.365 19.13-55.56 32-97.016 32s-77.651-12.87-97.016-32z" fill="#c3da5f"/><path d="m448 488v-40l-48-24h-288l-48 24v40z" fill="#4e4e4f"/><path d="m320 456h48v32h-48z" fill="#333"/><path d="m144 456h48v32h-48z" fill="#333"/><path d="m96 456h16v32h-16z" fill="#333"/><path d="m248 456h16v32h-16z" fill="#333"/><path d="m400 456h16v32h-16z" fill="#333"/><path d="m448 120v-40l-69.12-24h-245.76l-69.12 24v40z" fill="#4e4e4f"/><path d="m320 88h48v32h-48z" fill="#333"/><path d="m144 88h48v32h-48z" fill="#333"/><path d="m96 96h16v24h-16z" fill="#333"/><path d="m248 96h16v24h-16z" fill="#333"/><path d="m400 96h16v24h-16z" fill="#333"/><g fill="#c3da5f"><path d="m376 144a8 8 0 0 0 -8 8v16c0 1.5-4.957 8.431-29.208 14.9-20.128 5.368-46.445 8.522-74.792 9.024v-7.924a8 8 0 0 0 -8-8 8 8 0 0 0 -8 8v7.921c-27.063-.479-52.257-3.382-72-8.315v-15.606a8 8 0 0 0 -8-8 8 8 0 0 0 -8 8v10.682c-12.959-5-16-9.506-16-10.682v-16a8 8 0 0 0 -8-8 8 8 0 0 0 -8 8v240a8 8 0 0 0 8 8 8 8 0 0 0 8-8v-11.108q9.312 5.154 24 9.168v3.692a6.248 6.248 0 0 0 6.248 6.248h3.5a6.248 6.248 0 0 0 6.252-6.248c20.878 4.054 45.837 6.248 72 6.248 32.729 0 63.6-3.424 86.914-9.643q15.422-4.112 25.086-9.465v11.108a8 8 0 0 0 8 8 8 8 0 0 0 8-8v-240a8 8 0 0 0 -8-8zm-33.086 54.357q15.422-4.111 25.086-9.465v54.216q-9.312-5.154-24-9.168v-9.94a8 8 0 0 0 -8-8 8 8 0 0 0 -8 8v6.248c-18.737-3.639-40.766-5.771-64-6.171v-16.154c29.732-.511 57.507-3.857 78.914-9.566zm-22.914 121.643v4.818a402.473 402.473 0 0 0 -64-4.818c-10.949 0-21.68.392-32 1.135v-18.27c10.32.743 21.051 1.135 32 1.135 32.729 0 63.6-3.424 86.914-9.643q15.422-4.112 25.086-9.465v54.216q-9.657-5.344-25.086-9.465c-2.23-.595-4.55-1.156-6.914-1.7v-7.943a8 8 0 0 0 -8-8 8 8 0 0 0 -8 8zm-112 2.61a272.857 272.857 0 0 0 -38.914 7.033q-15.422 4.112-25.086 9.465v-54.216q9.657 5.344 25.086 9.465a272.857 272.857 0 0 0 38.914 7.033zm130.792-43.71c-22.012 5.868-51.415 9.1-82.792 9.1-10.99 0-21.727-.4-32-1.173v-6.827a8 8 0 0 0 -8-8 8 8 0 0 0 -8 8v5.286a253.157 253.157 0 0 1 -34.792-6.389c-24.251-6.466-29.208-13.397-29.208-14.897s4.957-8.431 29.208-14.9c20.128-5.368 46.445-8.522 74.792-9.024v15.924a8 8 0 0 0 8 8 8 8 0 0 0 8-8v-15.921c23.532.417 45.647 2.666 64 6.489v9.432a8 8 0 0 0 8 8 8 8 0 0 0 8-8v-5.412c19.758 6.007 24 12.025 24 13.412 0 1.5-4.957 8.431-29.208 14.9zm-178.792-83.241v12.341a8 8 0 0 0 8 8 8 8 0 0 0 8-8v-7.944c20.322 4.67 45.366 7.409 72 7.867v16.154c-29.732.511-57.507 3.857-78.914 9.566q-15.422 4.111-25.086 9.465v-54.216a94.483 94.483 0 0 0 16 6.767zm178.792 179.241c-22.012 5.868-51.415 9.1-82.792 9.1-26.5 0-51.578-2.314-72-6.568v-9.432a8 8 0 0 0 -8-8 8 8 0 0 0 -8 8v5.412c-19.758-6.007-24-12.025-24-13.412 0-1.5 4.957-8.431 29.208-14.9a253.157 253.157 0 0 1 34.792-6.386v13.286a8 8 0 0 0 8 8 8 8 0 0 0 8-8v-14.827c10.273-.768 21.01-1.173 32-1.173a380.941 380.941 0 0 1 64 5.038v10.962a8 8 0 0 0 8 8 8 8 0 0 0 8-8v-7.606c.937.234 1.88.465 2.792.709 24.251 6.466 29.208 13.397 29.208 14.897s-4.957 8.431-29.208 14.9z"/><rect height="16" rx="8" width="16" x="248" y="352"/><rect height="16" rx="8" width="16" x="288" y="256"/><rect height="16" rx="8" width="16" x="176" y="256"/><rect height="16" rx="8" width="16" x="320" y="160"/></g></svg>