<svg id="Capa_1" enable-background="new 0 0 512 512" height="512" viewBox="0 0 512 512" width="512" xmlns="http://www.w3.org/2000/svg"><g><g fill="#d0e4e7"><path d="m260.38 183.461c1.536-9.095-5.511-17.461-14.795-17.461h-79.585c-41.422 0-75 33.578-75 75v15 15c0 41.42 33.578 75 75 75h39.58c7.332 0 13.588-5.301 14.793-12.532l5.002-30.002c1.525-9.142-5.526-17.466-14.795-17.466h-44.58l-30-30 30-30h74.581c7.332 0 13.59-5.301 14.795-12.534z"/><path d="m346 166h-39.58c-7.332 0-13.588 5.299-14.793 12.53l-5.002 30.002c-1.525 9.144 5.526 17.468 14.795 17.468h44.58l30 30-30 30h-74.581c-7.332 0-13.59 5.301-14.795 12.532l-5.004 30.007c-1.536 9.095 5.511 17.461 14.795 17.461h79.585c41.422 0 75-33.58 75-75v-15-15c0-41.422-33.578-75-75-75z"/></g><path d="m166 346h39.58c7.332 0 13.588-5.301 14.793-12.532l5.002-30.002c1.525-9.142-5.526-17.466-14.795-17.466h-44.58l-30-30h-45v15c0 41.42 33.578 75 75 75z" fill="#a8d3d8"/><path d="m271.419 286c-7.332 0-13.59 5.301-14.795 12.532l-5.004 30.007c-1.536 9.095 5.511 17.461 14.795 17.461h79.585c41.422 0 75-33.58 75-75v-15h-45l-30 30z" fill="#a8d3d8"/><g><path d="m348.006 475.36-30-51.957c-4.146-7.179-1.686-16.347 5.494-20.493 7.133-4.176 16.346-1.701 20.492 5.493l30 51.957c4.146 7.179 1.686 16.347-5.492 20.493-7.153 4.131-16.345 1.692-20.494-5.493z" fill="#fabe2c"/></g><g><path d="m168.006 103.597-30-51.957c-4.146-7.179-1.686-16.347 5.494-20.493 7.148-4.146 16.331-1.701 20.492 5.493l30 51.957c4.146 7.179 1.686 16.347-5.492 20.493-7.153 4.134-16.345 1.692-20.494-5.493z" fill="#fed843"/></g><g><path d="m143.5 480.853c-7.18-4.146-9.64-13.314-5.494-20.493l30-51.957c4.131-7.194 13.314-9.669 20.494-5.493 7.178 4.146 9.638 13.314 5.492 20.493l-30 51.957c-4.155 7.197-13.352 9.618-20.492 5.493z" fill="#fabe2c"/></g><g><path d="m323.5 109.09c-7.18-4.146-9.64-13.314-5.494-20.493l30-51.957c4.146-7.194 13.302-9.639 20.494-5.493 7.178 4.146 9.638 13.314 5.492 20.493l-30 51.957c-4.155 7.197-13.352 9.618-20.492 5.493z" fill="#fed843"/></g><g><path d="m256 512c-8.293 0-15-6.708-15-15v-61c0-8.292 6.707-15 15-15 8.291 0 15 6.708 15 15v61c0 8.292-6.709 15-15 15z" fill="#fabe2c"/></g><g><path d="m256 91c-8.293 0-15-6.708-15-15v-61c0-8.292 6.707-15 15-15 8.291 0 15 6.708 15 15v61c0 8.292-6.709 15-15 15z" fill="#fed843"/></g><g fill="#edf5ff"><path d="m166 226h-151c-8.284 0-15 6.714-15 15v15 15c0 8.284 6.716 15 15 15h151c8.284 0 15-6.716 15-15v-15-15c0-8.286-6.716-15-15-15z"/><path d="m497 226h-151c-8.284 0-15 6.714-15 15v15 15c0 8.284 6.716 15 15 15h151c8.284 0 15-6.716 15-15v-15-15c0-8.286-6.716-15-15-15z"/></g><g fill="#d0e4e7"><path d="m15 286h151c8.284 0 15-6.716 15-15v-15h-181v15c0 8.284 6.716 15 15 15z"/><path d="m346 286h151c8.284 0 15-6.716 15-15v-15h-181v15c0 8.284 6.716 15 15 15z"/></g></g></svg>