<svg id="Capa_1" enable-background="new 0 0 512 512" height="512" viewBox="0 0 512 512" width="512" xmlns="http://www.w3.org/2000/svg"><g><path d="m346 302h-40c-20.084 0-38.067 9.16-50 23.518-11.933-14.358-29.916-23.518-50-23.518h-40c-8.284 0-15 6.716-15 15v60c0 8.284 6.716 15 15 15h90 90c8.284 0 15-6.716 15-15v-60c0-8.284-6.716-15-15-15z" fill="#0a617d"/><path d="m346 392c8.284 0 15-6.716 15-15v-60c0-8.284-6.716-15-15-15h-40c-20.084 0-38.067 9.16-50 23.518v66.482z" fill="#08475e"/><path d="m396.041 377.87-35.041-11.681h-67.937l-37.063 25.811-37.063-25.811h-67.937l-35.041 11.68c-38.854 12.951-64.959 49.17-64.959 90.126v29.005c0 8.284 6.716 15 15 15h104.333l85.667-17 85.667 17h104.333c8.284 0 15-6.716 15-15v-29.005c0-40.956-26.105-77.175-64.959-90.125z" fill="#08475e"/><path d="m341.667 512h104.333c8.284 0 15-6.716 15-15v-29.005c0-40.956-26.105-77.174-64.959-90.125l-35.041-11.681h-67.937l-37.063 25.811v103z" fill="#05303d"/><path d="m256 26-233.73 115.039c.54 1.227 1.247 2.4 2.132 3.478 1.052 1.282 26.231 31.738 67.005 62.463 54.713 41.228 111.629 63.02 164.593 63.02s109.88-21.792 164.594-63.021c40.774-30.725 65.953-61.181 67.005-62.463.885-1.078 1.592-2.251 2.132-3.478z" fill="#fff5f5"/><path d="m420.594 206.979c40.774-30.725 65.953-61.181 67.005-62.463.885-1.078 1.592-2.251 2.132-3.478l-233.731-115.038v244c52.964 0 109.88-21.792 164.594-63.021z" fill="#f7ecd9"/><g><path d="m142.951 60c-13.872 21.337-21.951 46.815-21.951 74.161 0 74.901 60.561 135.839 135 135.839s135-60.938 135-135.839c0-27.345-8.079-52.824-21.951-74.161z" fill="#ff7cec"/></g><path d="m256 60v210c74.439 0 135-60.938 135-135.839 0-27.345-8.079-52.824-21.951-74.161z" fill="#b473f1"/><g><path d="m256 195c-33.084 0-60-26.916-60-60s26.916-60 60-60 60 26.916 60 60-26.916 60-60 60z" fill="#0a617d"/></g><path d="m316 135c0-33.084-26.916-60-60-60v120c33.084 0 60-26.916 60-60z" fill="#08475e"/><g><g><g><path d="m218.937 366.189-48.604 145.811h171.334l-48.604-145.811z" fill="#fff5f5"/></g><path d="m256 512h85.667l-48.604-145.811h-37.063z" fill="#f7ecd9"/><circle cx="256" cy="442" fill="#0a617d" r="15"/><path d="m271 442c0-8.284-6.716-15-15-15v30c8.284 0 15-6.716 15-15z" fill="#08475e"/></g><g><path d="m489.73 141.039c2.23-5.07 1.524-11.102-2.132-15.555-1.052-1.282-26.231-31.738-67.005-62.463-54.713-41.229-111.629-63.021-164.593-63.021s-109.88 21.792-164.594 63.021c-40.774 30.725-65.953 61.181-67.005 62.463-3.655 4.454-4.362 10.486-2.132 15.555 24.765-11.292 120.008-51.039 233.731-51.039s208.966 39.747 233.73 51.039z" fill="#ffdecf"/></g><path d="m489.73 141.039c2.231-5.07 1.524-11.102-2.132-15.555-1.052-1.282-26.231-31.738-67.005-62.463-54.713-41.229-111.629-63.021-164.593-63.021v90c113.723 0 208.966 39.747 233.73 51.039z" fill="#ffcdbe"/></g></g></svg>