<svg id="Capa_1" enable-background="new 0 0 512 512" height="512" viewBox="0 0 512 512" width="512" xmlns="http://www.w3.org/2000/svg"><g><g><g><path d="m187.108 368.062-25.575 25.575c-7.955-6.069-15.668-12.83-23.007-20.169s-14.099-15.052-20.169-23.007l25.575-25.575c5.21-5.21 13.67-5.21 18.88 0l24.296 24.296c5.22 5.22 5.21 13.67 0 18.88z" fill="#b5adb6"/><g><path d="m30.948 389.912h134.4v47.873h-134.4z" fill="#fca62f" transform="matrix(.707 -.707 .707 .707 -263.888 190.615)"/><path d="m38.716 408.675h134.405v25.893h-134.405z" fill="#f98824" transform="matrix(.707 -.707 .707 .707 -267.109 198.386)"/><g><path d="m126.087 419.754-11.949 11.96-19.648-48.067 11.949-11.949z" fill="#ea741b"/></g><g><path d="m95.425 450.427-11.949 11.949-19.649-48.056 11.95-11.949z" fill="#ea741b"/></g><path d="m59.656 494.076-45.448 17.22c-8.437 3.197-16.697-5.062-13.501-13.5l17.215-45.455z" fill="#fca62f"/><path d="m59.656 494.076-13.127-13.127-45.459 17.221c-.185.067-.37.133-.555.185-2.643 8.24 5.434 16.066 13.682 12.942z" fill="#f98824"/><path d="m53.922 499.327-41.252-41.252c-3.31-3.31-3.31-8.677 0-11.987l13.752-13.752c3.31-3.31 8.677-3.31 11.987 0l41.252 41.252c3.31 3.31 3.31 8.677 0 11.987l-13.752 13.752c-3.31 3.31-8.677 3.31-11.987 0z" fill="#685e67"/><path d="m79.663 485.571-13.756 13.756c-3.31 3.31-8.677 3.31-11.987 0l-19.72-19.72c4.087 4.087 10.721 4.087 14.807 0l10.935-10.935c4.087-4.087 4.087-10.721 0-14.807l19.72 19.72c3.311 3.309 3.311 8.676.001 11.986z" fill="#554e55"/></g><path d="m487.823 34.443-197.326 292.576c-2.992 4.426-8.084 7.076-13.414 6.681-.551-.042-1.101-.073-1.652-.094l-.01-90.429c0-3.647-2.951-6.598-6.598-6.598l-90.439-.01c-.021-.561-.052-1.112-.093-1.662-.384-5.32 2.255-10.422 6.691-13.404l292.575-197.336c6.743-4.541 14.817 3.533 10.266 10.276z" fill="#b5dbfd"/><path d="m487.823 34.443-197.326 292.576c-2.982 4.426-8.094 7.076-13.414 6.681-.551-.042-1.101-.073-1.652-.094l-.01-41.562 162.756-241.309 39.38-26.569c6.743-4.54 14.817 3.544 10.266 10.277z" fill="#8dcafc"/><g><path d="m272.957 246.833c-1.994 0-3.989-.761-5.51-2.283-3.044-3.043-3.044-7.978 0-11.021l111.746-111.746c3.043-3.043 7.978-3.043 11.021 0 3.044 3.043 3.044 7.978 0 11.021l-111.747 111.746c-1.521 1.522-3.515 2.283-5.51 2.283z" fill="#31a7fb"/></g><path d="m285.449 331.754c-2.491 1.444-5.39 2.166-8.352 1.947-19.488-1.423-43.853 8.185-64.838 26.93l-60.892-60.892c18.745-20.985 28.363-45.339 26.93-64.838-.22-2.962.502-5.861 1.947-8.352l98.594.01c3.646 0 6.601 2.956 6.602 6.602z" fill="#64b9fc"/><path d="m285.449 331.759c-2.484 1.438-5.388 2.157-8.348 1.942-5.136-.373-10.617.028-16.275 1.148v-77.07c-.009-3.651-2.96-6.601-6.602-6.602h-77.07c1.13-5.649 1.522-11.139 1.148-16.275-.224-2.969.504-5.864 1.942-8.348l98.593.009c3.651-.009 6.601 2.941 6.602 6.602z" fill="#31a7fb"/><path d="m285.449 331.759c-2.484 1.438-5.388 2.157-8.348 1.942-19.496-1.419-43.857 8.189-64.839 26.929l-23.091-23.091c20.972-18.749 45.333-28.357 64.82-26.929 5.322.392 10.43-2.25 13.418-6.676l18.04-26.742z" fill="#31a7fb"/><g><path d="m232.785 381.167c-7.355 7.355-15.896 12.78-25.008 16.292-2.943 1.135-6.357.477-8.472-1.863-2.894-3.202-6.823-5.827-11.782-7.645-3.703-1.357-7.768-1.355-11.469.007-4.945 1.821-8.858 4.442-11.741 7.636-2.108 2.334-5.511 2.991-8.445 1.86-9.119-3.513-17.665-8.939-25.026-16.299-7.36-7.36-12.786-15.906-16.299-25.024-1.131-2.935-.474-6.339 1.86-8.447 3.194-2.884 5.816-6.798 7.636-11.744 1.363-3.703 1.364-7.768.005-11.472-1.819-4.957-4.444-8.883-7.645-11.776-2.339-2.114-2.997-5.527-1.863-8.469 3.513-9.113 8.937-17.654 16.293-25.01 7.399-7.399 16.004-12.852 25.187-16.358 2.891-1.104 6.206-.414 8.277 1.886 2.625 2.915 6.135 5.378 10.707 7.392 3.699 1.629 7.841 1.879 11.671.585 5.358-1.81 9.569-4.546 12.627-7.927 2.092-2.313 5.408-3.045 8.321-1.93 9.171 3.511 17.767 8.955 25.165 16.353s12.842 15.994 16.353 25.165c1.115 2.913.382 6.228-1.93 8.321-3.38 3.058-6.116 7.268-7.926 12.624-1.294 3.829-1.045 7.971.584 11.67 2.013 4.574 4.476 8.085 7.393 10.711 2.3 2.071 2.99 5.386 1.886 8.277-3.508 9.181-8.96 17.786-16.359 25.185z" fill="#cbc5cb"/></g><g><path d="m232.789 381.168c-7.355 7.355-15.895 12.776-25.009 16.293-2.951 1.132-6.361.474-8.471-1.866-2.898-3.204-6.827-5.833-11.789-7.646-3.7-1.361-7.76-1.353-11.461.008-4.954 1.82-8.861 4.442-11.751 7.638-2.102 2.332-5.512 2.989-8.441 1.866-9.121-3.525-17.661-8.945-25.024-16.308-3.708-3.708-6.919-7.714-9.641-11.935 4.159 2.691 8.548 4.909 13.074 6.652 2.936 1.132 6.338.466 8.441-1.865 2.89-3.196 6.805-5.811 11.751-7.638 3.7-1.361 7.768-1.361 11.461-.008 4.97 1.82 8.892 4.442 11.789 7.646 2.11 2.34 5.528 3.005 8.471 1.866 9.114-3.517 17.654-8.938 25.009-16.293 7.401-7.401 12.852-16.002 16.354-25.192 1.109-2.882.421-6.2-1.881-8.272-2.921-2.63-5.382-6.132-7.393-10.711-1.628-3.693-1.881-7.844-.581-11.667 1.804-5.352 4.541-9.572 7.921-12.63 2.317-2.087 3.05-5.405 1.927-8.318-1.751-4.58-3.983-9.014-6.697-13.227 4.22 2.737 8.227 5.948 11.935 9.656 7.401 7.401 12.845 15.994 16.354 25.162 1.124 2.913.39 6.231-1.927 8.318-3.379 3.058-6.124 7.271-7.928 12.623-1.292 3.83-1.047 7.974.589 11.675 2.003 4.572 4.473 8.081 7.393 10.711 2.294 2.064 2.982 5.383 1.881 8.273-3.511 9.18-8.955 17.789-16.356 25.189z" fill="#b5adb6"/></g><g><g><circle cx="181.84" cy="330.16" fill="#fca62f" r="21.81"/></g><g><path d="m197.261 345.578c-8.517 8.517-22.325 8.517-30.842 0-2.286-2.286-3.953-4.947-5-7.798 7.745 2.898 16.805 1.223 23.036-5.008s7.906-15.291 5.008-23.036c2.852 1.047 5.512 2.714 7.798 5 8.517 8.517 8.517 22.325 0 30.842z" fill="#f98824"/></g></g></g><g><g><g><path d="m475.383 175.403 8.615 6.032c5.039 3.528 6.327 10.439 2.899 15.546l-179.266 267.058c-3.525 5.251-10.674 6.585-15.855 2.957l-18.988-13.296c-5.181-3.628-6.373-10.802-2.644-15.91l189.639-259.794c3.626-4.968 10.561-6.121 15.6-2.593z" fill="#b5dbfd"/></g><g><path d="m433.874 451.923 77.154-174.338c2.489-5.625.02-12.207-5.555-14.807l-9.531-4.445c-5.575-2.599-12.204-.26-14.913 5.262l-84.114 171.487c-2.821 5.752-.303 12.706 5.553 15.304 5.504 2.442 11.011 4.876 16.521 7.304 5.701 2.515 12.363-.069 14.885-5.767z" fill="#8dcafc"/></g></g><g><g><path d="m336.594 36.614-6.032-8.614c-3.528-5.038-10.439-6.327-15.546-2.899l-267.057 179.265c-5.251 3.525-6.585 10.674-2.957 15.855l13.296 18.988c3.628 5.181 10.802 6.373 15.91 2.644l259.793-189.638c4.968-3.627 6.121-10.562 2.593-15.601z" fill="#b5dbfd"/></g><g><path d="m60.074 78.123 174.338-77.154c5.625-2.489 12.207-.02 14.807 5.555l4.445 9.531c2.599 5.575.26 12.204-5.262 14.913l-171.488 84.114c-5.752 2.821-12.706.303-15.304-5.553-2.442-5.504-4.876-11.011-7.304-16.521-2.514-5.702.07-12.364 5.768-14.885z" fill="#8dcafc"/></g></g></g></g><g><g><path d="m349.855 481.608c-1.365 0-2.747-.359-4.003-1.113-3.69-2.215-4.886-7.002-2.671-10.692l18.299-30.483c2.215-3.689 7.003-4.886 10.692-2.671 3.69 2.215 4.886 7.002 2.671 10.692l-18.299 30.483c-1.461 2.434-4.042 3.784-6.689 3.784z" fill="#eaf6ff"/></g><g><path d="m38.194 169.932c-2.647 0-5.228-1.349-6.689-3.783-2.215-3.69-1.02-8.477 2.67-10.692l30.483-18.299c3.69-2.216 8.478-1.02 10.692 2.67 2.215 3.69 1.02 8.477-2.67 10.692l-30.483 18.299c-1.255.754-2.638 1.113-4.003 1.113z" fill="#eaf6ff"/></g></g><g><g><path d="m76.871 291.092c-2.413 0-4.791-1.116-6.315-3.219-2.527-3.484-1.75-8.357 1.735-10.883l28.279-20.503c3.484-2.527 8.357-1.75 10.883 1.735 2.527 3.484 1.75 8.357-1.735 10.883l-28.279 20.503c-1.382 1.001-2.982 1.484-4.568 1.484z" fill="#eaf6ff"/></g><g><path d="m230.478 444.712c-1.585 0-3.186-.483-4.568-1.485-3.484-2.526-4.261-7.399-1.735-10.883l20.503-28.279c2.526-3.484 7.399-4.261 10.883-1.735s4.261 7.399 1.735 10.883l-20.503 28.279c-1.524 2.103-3.903 3.22-6.315 3.22z" fill="#eaf6ff"/></g></g><g><g><path d="m459.875 147.117c-1.365 0-2.747-.359-4.003-1.113-3.69-2.215-4.886-7.002-2.671-10.692l18.299-30.482c2.216-3.69 7.002-4.885 10.692-2.671 3.69 2.215 4.886 7.002 2.671 10.692l-18.299 30.483c-1.462 2.434-4.042 3.783-6.689 3.783z" fill="#eaf6ff"/></g><g><path d="m372.684 59.912c-2.647 0-5.228-1.349-6.689-3.783-2.215-3.69-1.02-8.477 2.671-10.692l30.483-18.299c3.689-2.216 8.477-1.02 10.692 2.671 2.215 3.69 1.02 8.477-2.671 10.692l-30.483 18.299c-1.255.753-2.638 1.112-4.003 1.112z" fill="#eaf6ff"/></g></g></g></svg>