<svg height="512pt" viewBox="-107 0 512 512.00025" width="512pt" xmlns="http://www.w3.org/2000/svg"><g fill-rule="evenodd"><path d="m96.316406 268.5625c-21.261718-43.738281-11.074218-87.355469 39.453125-115.855469-22.410156 53.074219 26.703125 81.597657 55.222657 47.761719 16.820312 16.964844 19.847656 42.59375 8.707031 66.925781 21.121093 9.539063 39.0625 24.878907 51.78125 43.992188 58.996093-52.089844 42.988281-160.679688-16.25-204.835938-4.984375-2.863281-11.347657-1.144531-14.214844 3.839844-7.863281 13.625-19.320313 22.703125-28.6875 28.34375 5.199219-86.808594-88.34375-125.40625-94.59375-127.890625-2.082031-.898438-4.46875-1.128906-6.828125-.496094-5.570312 1.488282-8.882812 7.210938-7.394531 12.78125 14.046875 52.414063-73.511719 128.925782-73.511719 203.886719 0 33.070313 12.382812 64.617187 33.898438 89.339844 12.355468-20.636719 30.601562-37.34375 52.417968-47.792969zm0 0" fill="#ffc059"/><path d="m135.769531 152.707031c-50.527343 28.5-60.714843 72.117188-39.453125 115.855469 16.027344-7.679688 33.984375-11.980469 52.945313-11.980469 17.976562 0 35.050781 3.867188 50.4375 10.8125 11.140625-24.332031 8.113281-49.960937-8.707031-66.925781-28.519532 33.835938-77.632813 5.3125-55.222657-47.761719zm0 0" fill="#ff9256"/><path d="m149.257812 256.582031c-18.957031 0-36.914062 4.300781-52.941406 11.980469-21.816406 10.449219-40.0625 27.15625-52.417968 47.792969-11.015626 18.402343-17.347657 39.929687-17.347657 62.9375 0 67.769531 54.9375 122.707031 122.707031 122.707031 67.769532 0 122.707032-54.941406 122.707032-122.707031 0-25.113281-7.539063-48.460938-20.484375-67.90625-12.722657-19.113281-30.660157-34.453125-51.785157-43.988281-15.382812-6.949219-32.457031-10.816407-50.4375-10.816407zm0 0" fill="#ff6977"/></g><path d="m298.371094 215.066406c-1.949219-47.050781-23.851563-91.703125-57.164063-116.53125-.316406-.238281-.648437-.453125-.996093-.652344-4.726563-2.714843-10.226563-3.429687-15.488282-2.007812-5.265625 1.421875-9.660156 4.808594-12.363281 9.519531-3.03125 5.25-6.71875 9.726563-10.535156 13.488281-3.410157-30.992187-19.023438-59.445312-45.871094-83.203124-24.15625-21.375-49.304687-32.042969-54.414063-34.082032-4.160156-1.75-8.84375-2.078125-13.214843-.910156-10.890625 2.914062-17.378907 14.140625-14.46875 25.03125 3.480469 12.992188-.621094 29.898438-13.300781 54.8125-2.503907 4.921875-.542969 10.941406 4.378906 13.445312 4.921875 2.503907 10.941406.546876 13.445312-4.375 10.785156-21.195312 20.980469-45.976562 14.796875-69.050781-.0625-.234375.078125-.476562.3125-.539062.074219-.019531.167969-.035157.285157.019531.089843.039062.179687.074219.269531.109375 2.632812 1.046875 26.347656 10.773437 48.65625 30.515625 28.285156 25.03125 41.625 54.464844 39.648437 87.484375-.222656 3.703125 1.628906 7.226563 4.804688 9.152344 3.171875 1.917969 7.152344 1.925781 10.335937.011719 13.804688-8.3125 24.9375-19.347657 32.203125-31.929688.023438-.050781.082032-.148438.246094-.191406.039062-.011719.074219-.015625.109375-.015625 28.15625 21.441406 46.652344 59.929687 48.339844 100.726562 1.324219 32.011719-7.765625 60.078125-25.765625 80.265625-11.039063-13.695312-24.730469-25.167968-40.300782-33.613281 8.433594-25.59375 3.316407-51.421875-14.226562-69.117187-1.976562-1.992188-4.675781-3.046876-7.507812-2.953126-2.804688.113282-5.433594 1.402344-7.242188 3.546876-9.28125 11.015624-21.734375 14.167968-31.734375 8.039062-9.464844-5.800781-16.878906-21.1875-6.628906-45.464844 1.664062-3.941406.640625-8.507812-2.554688-11.355468-3.191406-2.847657-7.84375-3.347657-11.570312-1.246094-49.183594 27.742187-66.464844 72.148437-47.429688 120.101562-15.636719 8.972656-29.28125 21.035156-40.101562 35.351563-15.113281-21.367188-23.324219-46.644531-23.324219-72.429688 0-19.039062 6.285156-40.449219 19.777344-67.378906 2.472656-4.9375.476562-10.945313-4.460938-13.421875-4.941406-2.472656-10.949218-.476562-13.421875 4.460938-14.9375 29.8125-21.894531 54.070312-21.894531 76.339843 0 32.601563 11.265625 64.460938 31.847656 90.472657-9.757812 18.46875-15.296875 39.496093-15.296875 61.800781 0 73.175781 59.53125 132.707031 132.707031 132.707031 73.175782 0 132.707032-59.53125 132.707032-132.707031 0-24.117188-6.46875-46.75-17.757813-66.261719 23.382813-24.164062 35.761719-59.351562 34.164063-97.964844zm-178.210938-39.183594c-.765625 20.304688 8.550782 35.601563 21 43.230469 15.425782 9.457031 33.941406 7.707031 48.804688-3.824219 6.65625 11.007813 8.070312 24.902344 3.957031 39.035157-13.964844-5.007813-29-7.742188-44.660156-7.742188-16.820313 0-32.914063 3.152344-47.734375 8.886719-11.796875-30.761719-5.273438-58.226562 18.632812-79.585938zm29.097656 316.117188c-62.144531 0-112.707031-50.5625-112.707031-112.707031 0-62.148438 50.5625-112.710938 112.707031-112.710938 62.148438 0 112.710938 50.5625 112.710938 112.710938 0 62.144531-50.5625 112.707031-112.710938 112.707031zm0 0"/><path d="m221.949219 381.578125c-.574219 18.765625-8.683594 37.027344-22.246094 50.101563-3.976563 3.835937-4.09375 10.164062-.261719 14.140624 1.964844 2.039063 4.582032 3.0625 7.203125 3.0625 2.496094 0 4.996094-.929687 6.9375-2.800781 17.292969-16.667969 27.625-39.957031 28.355469-63.894531.167969-5.519531-4.171875-10.128906-9.691406-10.296875-.101563-.003906-.207032-.007813-.308594-.007813-5.382812 0-9.824219 4.28125-9.988281 9.695313zm0 0"/><path d="m45.089844 128.742188c1.5625.894531 3.269531 1.316406 4.953125 1.316406 3.46875 0 6.84375-1.808594 8.691406-5.039063l.003906-.007812c2.738281-4.796875 1.070313-10.898438-3.726562-13.640625-4.792969-2.742188-10.902344-1.070313-13.644531 3.726562-2.738282 4.792969-1.074219 10.902344 3.722656 13.644532zm0 0"/><path d="m167.925781 449.5625-.007812.003906c-5.308594 1.515625-8.382813 7.050782-6.863281 12.359375 1.253906 4.394531 5.261718 7.253907 9.613281 7.253907.910156 0 1.832031-.125 2.75-.386719 5.3125-1.515625 8.386719-7.050781 6.871093-12.363281-1.515624-5.308594-7.050781-8.378907-12.363281-6.867188zm0 0"/></svg>