<svg id="Capa_1" enable-background="new 0 0 502.763 502.763" height="512" viewBox="0 0 502.763 502.763" width="512" xmlns="http://www.w3.org/2000/svg"><g><g><path d="m157.371 395.494c-97.178-52.792-117.536-183.547-41.008-263.384l77.266-80.607c2.891-3.016 7.881-2.347 9.876 1.324l6.511 11.983 43.594-53.938c3.439-4.255 9.831-4.525 13.617-.576l116.764 121.814c76.528 79.837 56.17 210.592-41.008 263.384l-57.881 28.113h-69.809z" fill="#fbe88c"/><path d="m144.167 241.94c0-103.008 60.346-189.346 141.535-212.369l-18.476-19.275c-3.786-3.949-10.178-3.679-13.617.576l-43.593 53.938-6.511-11.983c-1.995-3.671-6.985-4.34-9.876-1.324l-77.266 80.607c-76.528 79.837-56.17 210.592 41.008 263.384l57.922 28.113h11.079c-49.563-39.173-82.205-105.912-82.205-181.667z" fill="#fbe372"/><path d="m222.418 392.607-50.842-24.677c-37.429-20.566-62.643-56.523-69.218-98.756-6.61-42.456 6.651-84.595 36.384-115.613l50.186-52.356c1.763-1.839 4.805-1.431 6.021.807l7.382 13.585c1.243 2.288 4.414 2.578 6.051.552l49.181-60.852c2.393-2.96 6.841-3.149 9.475-.401l94.574 98.665c29.733 31.018 42.994 73.158 36.384 115.613-6.576 42.235-31.791 78.193-69.223 98.758l-50.801 24.675z" fill="#e79098"/><path d="m171.576 367.93 9.164 4.448c-22.984-36.402-36.573-81.526-36.573-130.439 0-51.394 15.004-98.615 40.142-135.916l-45.568 47.538c-29.732 31.018-42.994 73.158-36.384 115.613 6.577 42.233 31.791 78.191 69.219 98.756z" fill="#e17983"/><g><path d="m272.827 203.892c3.28-1.68 7-2.62 10.94-2.62h47.92c17.22 0 31.18 13.96 31.18 31.19v18.25c0 28.549-9.69 56.253-27.484 78.578l-21.586 27.082v125.299c0 7.506-6.085 13.591-13.591 13.591h-98.827c-7.506 0-13.591-6.085-13.591-13.591v-143.079l-6.04-8.06c-8.77-11.71-13.51-25.95-13.51-40.58v-53.22-32.84z" fill="#ffe0d1"/></g><g><path d="m228.884 473.965c-7.506 0-13.591-5.644-13.591-12.607v-124.574c0-5.267-1.806-10.375-5.116-14.472l-.924-1.144c-8.77-10.862-13.51-24.07-13.51-37.64v-49.365-30.271h-27.506v32.84 53.22c0 14.63 4.74 28.87 13.51 40.58l6.04 8.06v143.079c0 7.506 6.085 13.591 13.591 13.591h98.827c7.506 0 13.591-6.085 13.591-13.591v-7.706z" fill="#ffd1c2"/></g><g id="XMLID_131_"><g><path d="m230.789 235.739h1.384c18.621 0 34.05-13.887 36.5-31.846h-100.436v23.861c5.406 3.118 11.668 4.912 18.345 4.912h2.404c4.545 0 8.898-.83 12.92-2.344 3.66-1.377 7.768-1.005 11.194.88 5.253 2.889 11.281 4.537 17.689 4.537z" fill="#ffd1c2"/><path d="m271.647 330.462h62.802l.934-1.172c17.794-22.325 27.484-50.029 27.484-78.578v-18.25c0-17.23-13.96-31.19-31.18-31.19h-47.92c-3.94 0-7.66.94-10.94 2.62h-21.762c-4.186 6.335-6.438 13.758-6.438 21.53 0 13.248 6.615 24.979 16.716 32.064-10.602 12.75-16.716 29.035-16.716 45.956 0 14.923 12.097 27.02 27.02 27.02z" fill="#ffd1c2"/><path d="m297.027 166.038c0-12.067-9.782-21.849-21.849-21.849-12.067 0-21.849 9.782-21.849 21.849v45.58c0 12.067 9.782 21.849 21.849 21.849 12.067 0 21.849-9.782 21.849-21.849z" fill="#ffe0d1"/><path d="m318.876 150.216c-12.067 0-21.849 9.782-21.849 21.849v51.211h43.697v-51.211c.001-12.067-9.781-21.849-21.848-21.849z" fill="#ffe0d1"/><g fill="#ffd1c2"><path d="m331.687 186.272h-14.91c-4.009 0-7.258-3.25-7.258-7.258v-6.281c0-10.303 7.12-18.951 16.716-21.256-2.452-.879-5.091-1.316-7.861-1.256-11.941.259-21.346 10.332-21.346 22.275v50.779h6.72 5.772 31.206v-36.109c-2.925-.583-5.946-.894-9.039-.894z"/><path d="m265.552 213.89v-45.58c0-11.294 8.559-20.598 19.55-21.742-2.981-1.525-6.345-2.378-9.923-2.378-12.067 0-21.849 9.782-21.849 21.849v45.58c0 12.067 9.782 21.849 21.849 21.849.773 0 1.536-.041 2.288-.12-7.071-3.618-11.915-10.97-11.915-19.458z"/><path d="m283.767 186.272c-6.178 0-12.325 1.477-17.695 4.227-1.355.684-2.651 1.473-3.916 2.311v36.351c3.637 2.704 8.143 4.305 13.023 4.305 12.067 0 21.849-9.782 21.849-21.849v-25.346h-13.261z"/></g><path d="m294.117 249.562h-10.35c-13.33 0-24.14-10.81-24.14-24.14 0-6.67 2.7-12.71 7.07-17.08 1.79-1.79 3.85-3.3 6.13-4.45 3.28-1.68 7-2.62 10.94-2.62h47.92c17.22 0 31.18 13.96 31.18 31.19v18.25c0 28.54-9.68 56.24-27.47 78.56l-11.51 14.44h-64.26v-40.27c0-19.78 10.3-38.13 27.19-48.43l7.3-4.45z" fill="#ffe0d1"/></g></g><g><path d="m232.173 150.216h-1.384c-12.067 0-21.849 9.782-21.849 21.849v26.825c0 12.067 9.782 21.849 21.849 21.849h1.384c12.067 0 21.849-9.782 21.849-21.849v-26.825c0-12.067-9.782-21.849-21.849-21.849z" fill="#ffe0d1"/><path d="m223.592 197.967v-26.825c0-9.212 5.698-17.094 13.764-20.307-1.664-.406-3.394-.619-5.183-.619h-1.384c-12.067 0-21.849 9.782-21.849 21.849v26.825c0 12.067 9.782 21.849 21.849 21.849h1.384c2.854 0 5.578-.538 8.078-1.534-9.561-2.33-16.659-10.96-16.659-21.238z" fill="#ffd1c2"/><path d="m188.986 152.869h-2.404c-12.067 0-21.849 9.782-21.849 21.849v21.098c0 12.067 9.782 21.849 21.849 21.849h2.404c12.067 0 21.849-9.782 21.849-21.849v-21.098c0-12.067-9.782-21.849-21.849-21.849z" fill="#ffe0d1"/><path d="m179.055 196.026v-21.098c0-10.135 6.901-18.655 16.26-21.124-2.004-.606-4.128-.935-6.329-.935h-2.404c-12.067 0-21.849 9.782-21.849 21.849v21.098c0 12.067 9.782 21.849 21.849 21.849h2.404c1.932 0 3.805-.253 5.589-.724-8.98-2.715-15.52-11.049-15.52-20.915z" fill="#ffd1c2"/></g></g><g><path d="m356.765 309.403c1.82-3.72.28-8.212-3.44-10.033-3.718-1.819-8.212-.281-10.033 3.44-3.8 7.765-8.43 15.094-13.761 21.784l-21.601 27.103c-1.059 1.328-1.635 2.976-1.635 4.674v138.892c0 4.142 3.358 7.5 7.5 7.5s7.5-3.358 7.5-7.5v-136.269l19.966-25.052c6.009-7.54 11.226-15.796 15.504-24.539z"/><path d="m311.109 249.562c0-4.142-3.358-7.5-7.5-7.5h-19.839c-9.177 0-16.643-7.466-16.643-16.644s7.466-16.643 16.643-16.643h47.916c13.059 0 23.684 10.625 23.684 23.684v18.255c0 7.844-.805 15.785-2.394 23.601-.825 4.059 1.797 8.019 5.856 8.843.504.103 1.006.152 1.501.152 3.492 0 6.62-2.453 7.342-6.008 1.788-8.797 2.694-17.743 2.694-26.588v-18.255c0-15.415-9.066-28.749-22.145-34.961v-25.433c0-16.183-13.166-29.349-29.349-29.349-7.339 0-14.051 2.714-19.202 7.182-5.256-7.951-14.271-13.209-24.495-13.209-10.519 0-19.759 5.566-24.941 13.904-5.09-4.24-11.629-6.795-18.756-6.795-9.488 0-17.934 4.529-23.302 11.535-5.285-5.116-12.476-8.274-20.395-8.274-16.183 0-29.349 13.166-29.349 29.349v17.718c0 16.183 13.166 29.349 29.349 29.349 7.825 0 14.939-3.084 20.206-8.094 5.358 7.144 13.894 11.775 23.491 11.775 8.546 0 16.249-3.674 21.617-9.522-.633 2.492-.972 5.099-.972 7.785 0 13.943 9.069 25.801 21.615 30.005-13.537 12.073-21.615 29.623-21.615 48.022v5.444c0 4.142 3.358 7.5 7.5 7.5s7.5-3.358 7.5-7.5v-5.444c0-17.047 9.041-33.151 23.594-42.027l7.143-4.356h5.745c4.143-.001 7.501-3.359 7.501-7.501zm7.767-91.846c7.912 0 14.349 6.437 14.349 14.349v21.711h-28.697v-21.711c0-7.912 6.436-14.349 14.348-14.349zm-131.092 50.759c-7.912 0-14.349-6.437-14.349-14.349v-17.718c0-7.912 6.437-14.349 14.349-14.349s14.349 6.437 14.349 14.349v17.718c0 7.912-6.437 14.349-14.349 14.349zm43.697 3.681c-7.912 0-14.349-6.437-14.349-14.349v-24.66c0-7.912 6.437-14.349 14.349-14.349s14.349 6.437 14.349 14.349v24.66c0 7.913-6.437 14.349-14.349 14.349zm29.349-8.499v-37.62c0-7.912 6.437-14.349 14.349-14.349s14.349 6.437 14.349 14.349v27.738h-5.758c-9.024.001-17.17 3.803-22.94 9.882z"/><path d="m187.752 326.034c-7.745-10.345-12.011-23.159-12.011-36.082v-53.215c0-4.142-3.358-7.5-7.5-7.5s-7.5 3.358-7.5 7.5v53.215c0 16.143 5.328 32.149 15.003 45.072l4.539 6.062v66.628c0 4.142 3.358 7.5 7.5 7.5s7.5-3.358 7.5-7.5v-69.124c0-1.621-.525-3.198-1.497-4.495z"/><path d="m187.784 432.33c-4.142 0-7.5 3.358-7.5 7.5v55.433c0 4.142 3.358 7.5 7.5 7.5s7.5-3.358 7.5-7.5v-55.433c0-4.142-3.358-7.5-7.5-7.5z"/><path d="m132.606 147.68c-9.808 10.233-18.032 21.722-24.443 34.148-6.748 13.077-11.426 27.057-13.905 41.55-.698 4.083 2.045 7.959 6.128 8.657.428.073.854.108 1.273.108 3.587 0 6.759-2.582 7.384-6.236 2.22-12.976 6.409-25.493 12.45-37.202 5.75-11.144 13.132-21.455 21.942-30.646 2.866-2.99 2.766-7.738-.225-10.604-2.99-2.865-7.738-2.766-10.604.225z"/><path d="m251.545 73.084 10.944-13.541 50.973 53.178c1.473 1.537 3.442 2.31 5.416 2.31 1.866 0 3.735-.692 5.189-2.085 2.99-2.867 3.091-7.614.225-10.604l-56.867-59.327c-1.491-1.556-3.574-2.391-5.731-2.303-2.152.091-4.162 1.103-5.516 2.779l-16.297 20.165c-2.604 3.222-2.103 7.944 1.119 10.547s7.941 2.103 10.545-1.119z"/><path d="m411.062 106.16-25.538-26.642c-2.866-2.99-7.614-3.091-10.604-.224-2.99 2.866-3.091 7.614-.224 10.604l25.538 26.642c41.37 43.159 59.822 101.792 50.625 160.866-.637 4.093 2.164 7.927 6.257 8.564.391.061.779.09 1.163.09 3.633 0 6.825-2.645 7.401-6.347 9.923-63.732-9.984-126.99-54.618-173.553z"/><path d="m49.495 277.405c-.637-4.093-4.472-6.896-8.564-6.257-4.093.637-6.894 4.472-6.257 8.564 7.126 45.774 28.54 86.517 61.924 117.824 1.447 1.357 3.29 2.029 5.129 2.029 2 0 3.996-.795 5.472-2.37 2.833-3.021 2.681-7.768-.34-10.601-30.921-28.996-50.757-66.753-57.364-109.189z"/><path d="m272.641 5.106c-3.294-3.437-7.912-5.287-12.669-5.092-4.757.201-9.202 2.44-12.195 6.143l-36.533 45.202-1.149-2.113c-2.075-3.82-5.887-6.445-10.195-7.022-4.307-.579-8.677.951-11.685 4.089l-37.506 39.127c-2.866 2.99-2.766 7.738.225 10.604 2.99 2.866 7.738 2.766 10.604-.225l36.246-37.813 5.643 10.384c1.196 2.202 3.413 3.66 5.908 3.888 2.5.229 4.94-.806 6.515-2.754l43.593-53.938c.372-.459.837-.572 1.163-.586.323-.013.799.06 1.207.485l116.763 121.815c34.845 36.351 50.386 85.735 42.64 135.49s-37.566 92.077-81.813 116.114c-3.64 1.978-4.987 6.531-3.01 10.17 1.359 2.502 3.936 3.921 6.597 3.921 1.21 0 2.437-.293 3.574-.911 48.39-26.288 81.002-72.572 89.474-126.986s-8.524-108.422-46.632-148.178z"/><path d="m160.951 388.903c-44.247-24.037-74.066-66.358-81.813-116.113s7.795-99.139 42.64-135.49l17.615-18.377c2.866-2.99 2.766-7.738-.225-10.604-2.99-2.866-7.738-2.766-10.604.225l-17.614 18.377c-38.107 39.755-55.104 93.764-46.632 148.178s41.084 100.699 89.474 126.986c1.138.618 2.364.911 3.573.911 2.661 0 5.238-1.419 6.597-3.921 1.976-3.641.629-8.195-3.011-10.172z"/></g></g></svg>