<svg id="Layer_1" enable-background="new 0 0 512 512" height="512" viewBox="0 0 512 512" width="512" xmlns="http://www.w3.org/2000/svg"><g><g><path d="m335.976 37.32c0 14.91-2.96 27.28-2.96 27.28h-154.08s-2.96-12.37-2.96-27.28 2.96-24.73 2.96-24.73 28.45-5.09 77.04-5.09c21.63 0 39.27 1.01 52.18 2.12 16.1 1.4 24.86 2.97 24.86 2.97s2.96 9.82 2.96 24.73z" fill="#ea9f6c"/><path d="m335.976 37.32c0 14.91-2.96 27.28-2.96 27.28h-24.12c2.67-24.76.54-45.74-.74-54.98 16.1 1.4 24.86 2.97 24.86 2.97s2.96 9.82 2.96 24.73z" fill="#d37f50"/><g><path d="m255.976 504.5c-4.56 0-8.91-.19-13.06-.57-132.87-12.01-56.62-213.93-56.62-439.33h139.36c0 232.43 81.08 439.9-69.68 439.9z" fill="#e6eff4"/><path d="m255.976 504.5c-4.56 0-8.91-.19-13.06-.57 132.44-12.01 57.41-215.05 56.75-439.33h25.99c0 232.43 81.08 439.9-69.68 439.9z" fill="#d3dded"/></g><path d="m292.136 453.48c-2.46 2.72-9.95 11.02-36.16 11.02-5.11 0-9.51-.32-13.3-.85 0 0 0 0-.01 0-15.63-2.18-20.87-7.98-22.85-10.17-23.65-26.19-14.77-112.96-6.19-196.88.51-5.05 1.04-10.17 1.56-15.33 5.14 2.72 10.21 5.48 20.5 5.48 19.81 0 20.28-10.24 39.16-10.72.46-.01.93-.02 1.41-.02 10.31 0 15.38 2.77 20.54 5.5.51 5.09 1.03 10.12 1.53 15.09 8.59 83.92 17.46 170.69-6.19 196.88z" fill="#8e73ff"/><path d="m292.136 453.48c-2.46 2.72-9.95 11.02-36.16 11.02-5.11 0-9.51-.32-13.3-.85 17.3-2.31 23.06-8.68 25.22-11.08 25.35-28.07 16.15-126.41 6.95-216.54.46-.01.93-.02 1.41-.02 10.31 0 15.38 2.77 20.54 5.5.51 5.09 1.03 10.12 1.53 15.09 8.59 83.92 17.46 170.69-6.19 196.88z" fill="#6a51e5"/></g><g><path d="m358.397 60.977c-.594-4.099-4.409-6.942-8.497-6.347-.094.013-2.73.387-7.688.926.672-4.996 1.263-11.347 1.263-18.234 0-15.836-3.148-26.453-3.282-26.897-.816-2.703-3.08-4.719-5.859-5.216-.658-.118-16.442-2.902-44.515-4.356-4.099-.21-7.663 2.964-7.878 7.102-.214 4.137 2.966 7.664 7.103 7.878 18.265.947 31.254 2.494 37.802 3.405.746 3.945 1.63 10.267 1.63 18.084 0 7.813-.879 14.943-1.645 19.672-29.055 3.317-112.655 3.317-141.711 0-.766-4.728-1.645-11.859-1.645-19.672 0-7.821.884-14.144 1.63-18.085 9.95-1.385 34.815-4.237 70.87-4.237 4.143 0 7.5-3.358 7.5-7.5s-3.357-7.5-7.5-7.5c-48.699 0-77.17 4.996-78.358 5.208-2.779.498-5.043 2.514-5.859 5.216-.134.444-3.283 11.061-3.283 26.897 0 6.887.591 13.238 1.263 18.234-4.957-.538-7.594-.912-7.687-.926-9.875-1.084-11.922 13.083-2.153 14.845.611.089 7.109 1.014 18.869 2.058-.081 11.625-.364 23.708-.844 36.017-.162 4.139 3.063 7.625 7.202 7.786 4.108.171 7.634-3.058 7.786-7.202.472-12.096.756-23.981.847-35.442 29.235 2.486 95.198 2.486 124.434 0 .506 63.614 6.847 125.628 12.468 180.605 10.572 103.392 18.923 185.058-14.399 221.961-13.211 14.631-32.93 21.743-60.286 21.743-4.143 0-7.5 3.358-7.5 7.5s3.357 7.5 7.5 7.5c31.841 0 55.202-8.73 71.419-26.689 37.79-41.851 29.14-126.443 18.189-233.54-5.618-54.944-11.959-116.96-12.399-180.238 11.759-1.044 18.257-1.97 18.868-2.058 4.099-.596 6.939-4.399 6.345-8.498z"/><path d="m223.235 492.535c-75.443-23.075-47.59-159.363-41.947-239.239 3.639-35.566 7.399-72.342 9.86-111.061.263-4.134-2.875-7.698-7.009-7.96-4.126-.261-7.698 2.875-7.96 7.009-2.897 116.279-61.68 338.97 42.517 365.548 3.841 1.251 8.174-.895 9.418-4.878 1.253-3.948-.931-8.165-4.879-9.419z"/><path d="m230.975 115.267h50c9.931-.344 9.923-14.66 0-15h-50c-9.93.344-9.923 14.659 0 15z"/><path d="m230.975 145.235h23.055c9.931-.344 9.923-14.66 0-15h-23.055c-9.93.344-9.923 14.659 0 15z"/><path d="m230.975 205.17h23.055c9.931-.344 9.923-14.66 0-15h-23.055c-9.93.345-9.923 14.66 0 15z"/><path d="m230.975 175.203h50c9.931-.344 9.923-14.66 0-15h-50c-9.93.344-9.923 14.659 0 15z"/><path d="m218.692 234.637c-2.206-1.167-4.847-1.16-7.047.018s-3.67 3.373-3.922 5.855c-.523 5.166-1.046 10.277-1.563 15.33-9.15 89.484-17.792 174.006 8.085 202.665 13.497 18.11 70.12 18 83.462-.001 20.91-23.158 19.887-81.857 11.458-169.062-.397-4.123-4.062-7.14-8.187-6.744-4.123.398-7.142 4.064-6.743 8.187 4.549 47.063 13.016 134.666-7.661 157.565-8.592 11.458-52.61 11.455-61.197 0-21.41-23.711-12.317-112.632-4.295-191.085.172-1.682.345-3.371.518-5.065 13.331 4.101 28.566 1.469 37.88-4.291 4.747-2.512 8.498-4.496 16.779-4.496 6.31 0 9.988 1.151 13.481 2.811.376 3.691.751 7.353 1.122 10.985 1.198 9.763 15.536 8.141 14.922-1.526-.507-4.955-1.019-9.966-1.532-15.03-.253-2.496-1.737-4.701-3.955-5.874l-.242-.127c-13.578-8.34-34.048-8.32-47.591-.001-4.747 2.512-8.498 4.496-16.779 4.496-8.28 0-12.03-1.984-16.777-4.497z"/><path d="m244.505 277.052c-4.142 0-7.5 3.358-7.5 7.5.343 9.928 14.658 9.926 15 0 0-4.142-3.358-7.5-7.5-7.5z"/><path d="m263.554 380.591c0 4.142 3.358 7.5 7.5 7.5 9.928-.343 9.926-14.658 0-15-4.142 0-7.5 3.358-7.5 7.5z"/><path d="m242.505 413.832c-4.142 0-7.5 3.358-7.5 7.5.343 9.928 14.658 9.926 15 0 0-4.143-3.358-7.5-7.5-7.5z"/></g></g></svg>