<svg id="_x33_0" enable-background="new 0 0 64 64" height="512" viewBox="0 0 64 64" width="512" xmlns="http://www.w3.org/2000/svg"><g><g><g><path d="m22 38h20c-2.21 0-4 1.79-4 4h-4-4-4c0-2.21-1.79-4-4-4z" fill="#cf9e76"/></g><g><path d="m44.83 39.17c-.73-.72-1.73-1.17-2.83-1.17-2.21 0-4 1.79-4 4h-4-4-4c0-2.21-1.79-4-4-4-1.1 0-2.1.45-2.83 1.17-.72.73-1.17 1.73-1.17 2.83 0 .55.22 1.05.59 1.41.36.37.86.59 1.41.59s1.05-.22 1.41-.59c.37-.36.59-.86.59-1.41v7.53c1.23 1.1 2 2.7 2 4.47h2 2.07c.22-1.51.91-2.86 1.93-3.9 1.05-1.07 2.44-1.8 4-2.02.32-.06.66-.08 1-.08 1.07 0 2.09.24 3 .68 1.12.53 2.08 1.35 2.78 2.37.32-.57.73-1.08 1.22-1.52v-7.53c0 .55.22 1.05.59 1.41.36.37.86.59 1.41.59s1.05-.22 1.41-.59c.37-.36.59-.86.59-1.41 0-1.1-.45-2.1-1.17-2.83z" fill="#b27946"/></g><g><path d="m34 24h-4-4v6h4 4 4v-6z" fill="#b27946"/></g><g><path d="m43 2c-6.075 0-11 4.925-11 11 0-6.075-4.925-11-11-11s-11 4.925-11 11v8h6v2h32v-2h6v-8c0-6.075-4.925-11-11-11z" fill="#69d6f4"/></g><g><path d="m43 18c.55 0 1 .45 1 1 0 1.38-.56 2.63-1.46 3.54-.91.9-2.16 1.46-3.54 1.46h-1-4-4-4-1c-2.76 0-5-2.24-5-5 0-.55.45-1 1-1h7 8z" fill="#cf9e76"/></g><g><path d="m52 31v1c0 3.31-2.69 6-6 6h-4-20-4c-3.31 0-6-2.69-6-6v-1c0-.55.45-1 1-1h13 4 4 4 13c.55 0 1 .45 1 1z" fill="#cf9e76"/></g><g><path d="m28.07 54c.22-1.51.91-2.86 1.93-3.9 1.05-1.07 2.44-1.8 4-2.02.32-.06.66-.08 1-.08 1.07 0 2.09.24 3 .68 1.12.53 2.08 1.35 2.78 2.37.32-.57.73-1.08 1.22-1.52 1.06-.95 2.46-1.53 4-1.53 2.41 0 4.49 1.42 5.44 3.47l.02-.01c.91-.9 2.16-1.46 3.54-1.46 2.76 0 5 2.24 5 5 0 .39-.04.77-.13 1.13 1.24.37 2.13 1.51 2.13 2.87 0 1.66-1.34 3-3 3h-54c-1.66 0-3-1.34-3-3 0-1.36.89-2.5 2.13-2.87-.09-.36-.13-.74-.13-1.13 0-2.76 2.24-5 5-5 1.38 0 2.63.56 3.54 1.46l.02.01c.95-2.05 3.03-3.47 5.44-3.47 1.54 0 2.94.58 4 1.53 1.23 1.1 2 2.7 2 4.47h2z" fill="#b4dd7f"/></g></g><g><path d="m60.969 55.54c.017-.18.031-.36.031-.54 0-3.309-2.691-6-6-6-1.184 0-2.314.342-3.281.977-1.268-1.798-3.357-2.977-5.719-2.977-1.075 0-2.089.25-3 .685v-2.869c.314.112.648.184 1 .184 1.654 0 3-1.346 3-3 0-1.13-.391-2.162-1.026-3h.026c3.86 0 7-3.14 7-7v-1c0-1.103-.897-2-2-2h-12v-4c3.309 0 6-2.691 6-6 0-1.103-.897-2-2-2h-6v-3c0-2.757 2.243-5 5-5s5 2.243 5 5v1h2v-1c0-3.86-3.14-7-7-7s-7 3.14-7 7v3h-6v-3c0-3.86-3.14-7-7-7s-7 3.14-7 7v1h2v-1c0-2.757 2.243-5 5-5s5 2.243 5 5v3h-6c-1.103 0-2 .897-2 2 0 3.309 2.691 6 6 6v4h-12c-1.103 0-2 .897-2 2v1c0 3.86 3.14 7 7 7h.026c-.635.838-1.026 1.87-1.026 3 0 1.654 1.346 3 3 3 .352 0 .686-.072 1-.184v2.864c-.91-.434-1.926-.68-3-.68-2.362 0-4.451 1.179-5.719 2.977-.967-.635-2.097-.977-3.281-.977-3.309 0-6 2.691-6 6 0 .18.014.36.031.54-1.207.689-2.031 1.974-2.031 3.46 0 2.206 1.794 4 4 4h54c2.206 0 4-1.794 4-4 0-1.486-.824-2.771-2.031-3.46zm-15.969-13.54c0 .551-.449 1-1 1s-1-.449-1-1v-1h-2v8.11c-.099.101-.192.206-.284.313-.512-.525-1.088-.973-1.716-1.336v-6.087c0-1.654 1.346-3 3-3s3 1.346 3 3zm-18 11v-10h2v6.733c-.815.923-1.423 2.034-1.742 3.267zm10.101-12h-10.202c-.152-.743-.482-1.416-.924-2h12.051c-.443.584-.773 1.257-.925 2zm-6.101 2h2v4.262c-.707.185-1.379.463-2 .824zm4 0h2v4.258c-.646-.167-1.317-.258-2-.258zm2-14h-2v-4h2zm-4-4v4h-2v-4zm-12-6h22c0 2.206-1.794 4-4 4h-14c-2.206 0-4-1.794-4-4zm6 6h2v4h-2zm-14 7v-1h38v1c0 2.757-2.243 5-5 5h-28c-2.757 0-5-2.243-5-5zm10 9h-2v1c0 .551-.449 1-1 1s-1-.449-1-1c0-1.654 1.346-3 3-3s3 1.346 3 3v11h-.071c-.216-1.504-.914-2.853-1.929-3.891zm36 20h-54c-1.103 0-2-.897-2-2s.897-2 2-2 2 .897 2 2h2c0-2.206-1.794-4-4-4 0-2.206 1.794-4 4-4 .865 0 1.681.285 2.364.789-.233.696-.364 1.438-.364 2.211v1h2v-1c0-2.757 2.243-5 5-5s5 2.243 5 5v1h8v-2h-1.65c.834-2.343 3.084-4 5.65-4 1.79 0 3.469.804 4.605 2.166-.257.577-.434 1.196-.526 1.842-.027-.001-.052-.008-.079-.008-2.206 0-4 1.794-4 4h2c0-1.103.897-2 2-2s2 .897 2 2h2c0-1.457-.791-2.721-1.958-3.42.218-2.558 2.345-4.58 4.958-4.58 2.757 0 5 2.243 5 5h2c0-.773-.131-1.515-.364-2.211.683-.504 1.499-.789 2.364-.789 2.206 0 4 1.794 4 4-2.206 0-4 1.794-4 4h2c0-1.103.897-2 2-2s2 .897 2 2-.897 2-2 2z"/><path d="m11 57h2v2h-2z"/><path d="m17 53h2v2h-2z"/><path d="m21 57h2v2h-2z"/><path d="m31 57h2v2h-2z"/><path d="m45 51h2v2h-2z"/><path d="m49 57h2v2h-2z"/><path d="m15 17h2v2h-2z"/><path d="m15 21h2v2h-2z"/><path d="m11 13c0-5.514 4.486-10 10-10s10 4.486 10 10v2h2v-2c0-5.514 4.486-10 10-10s10 4.486 10 10v4h2v-4c0-6.617-5.383-12-12-12-4.917 0-9.148 2.976-11 7.219-1.852-4.243-6.083-7.219-11-7.219-6.617 0-12 5.383-12 12v4h2z"/><path d="m9 19h2v2h-2z"/><path d="m47 17h2v2h-2z"/><path d="m47 21h2v2h-2z"/><path d="m53 19h2v2h-2z"/></g></g></svg>