<svg id="Capa_1" enable-background="new 0 0 511.54 511.54" height="512" viewBox="0 0 511.54 511.54" width="512" xmlns="http://www.w3.org/2000/svg"><g><path d="m464.167 180.374-106.5-106.5c-5.857-5.857-15.355-5.857-21.213 0l-175.37 175.37c-5.858 5.857-5.858 15.355 0 21.213l106.5 106.5c2.929 2.929 6.768 4.394 10.606 4.394s7.678-1.465 10.606-4.394l175.37-175.37c5.858-5.858 5.858-15.356.001-21.213z" fill="#ff7b4a"/><path d="m267.583 376.957c2.929 2.929 6.768 4.394 10.606 4.394s7.678-1.465 10.606-4.394l175.37-175.37c5.858-5.857 5.858-15.355 0-21.213l-53.25-53.25-196.581 196.583z" fill="#e63950"/><path d="m267.584 376.958 42.99 42.98c2.929 2.929 6.767 4.393 10.605 4.393s7.677-1.465 10.606-4.393l130.112-130.103 45.25-45.26c5.856-5.857 5.856-15.354 0-21.211l-42.98-42.99z" fill="#ff9100"/><path d="m357.667 73.874-42.85-42.851c-2.813-2.813-6.629-4.394-10.607-4.394s-7.794 1.581-10.607 4.395l-175.359 175.38c-5.857 5.858-5.857 15.355 0 21.213l42.84 42.84z" fill="#fed843"/><path d="m331.79 419.94-46.53 46.53-167.42-11.56-113.45-113.45c-2.81-2.82-4.39-6.63-4.39-10.61s1.58-7.79 4.39-10.61l113.85-113.84z" fill="#edf5ff"/><path d="m117.84 454.91 167.42 11.56 46.53-46.53-106.847-106.842-124.458 124.457z" fill="#d5e8fe"/><path d="m430.77 469.91c0 8.28-6.72 15-15 15h-261.71c-.22 0-.47 0-.74-.02-3.71-.18-7.23-1.74-9.87-4.37l-25.61-25.61h297.93c8.28 0 15 6.72 15 15z" fill="#453d83"/></g></svg>