<svg height="512pt" viewBox="-11 0 512 512" width="512pt" xmlns="http://www.w3.org/2000/svg"><path d="m489.332031 232.769531-55.730469 67.207031h-377.875l-55.726562-67.207031 51.917969-62.636719-5.199219-81.207031 78.855469-20.097656 43.46875-68.828125 75.617187 30.148438 75.628906-30.148438 43.464844 68.828125 78.859375 20.097656-5.210937 81.207031zm0 0" fill="#ff501a"/><path d="m489.332031 232.769531-55.730469 67.207031h-188.941406v-269.828124l75.628906-30.148438 43.464844 68.828125 78.859375 20.097656-5.210937 81.207031zm0 0" fill="#c91d00"/><path d="m360.679688 445.121094v66.878906h-213.367188v-59.828125c-22.433594-13.960937-37.390625-38.835937-37.390625-67.148437v-126.984376h13.238281v-25.625h224.285156v212.707032zm0 0" fill="#ffc172"/><path d="m379.398438 155.667969v102.371093c0 24.046876-19.566407 43.609376-43.613282 43.609376-11.796875 0-22.507812-4.710938-30.371094-12.351563-7.863281 7.640625-18.578124 12.351563-30.375 12.351563-11.796874 0-22.519531-4.710938-30.375-12.351563-7.859374 7.640625-18.574218 12.351563-30.371093 12.351563-11.808594 0-22.519531-4.710938-30.375-12.351563-7.863281 7.640625-18.574219 12.351563-30.382813 12.351563-24.046875 0-43.609375-19.5625-43.609375-43.609376v-81.988281c0-24.046875 19.5625-43.609375 43.609375-43.609375 7.597656 0 14.746094 1.957032 20.976563 5.390625 6.828125-15.179687 22.085937-25.777343 39.78125-25.777343 8.382812 0 16.21875 2.382812 22.871093 6.496093 2.039063-3.574219 4.574219-6.832031 7.503907-9.671875 7.851562-7.652344 18.574219-12.363281 30.371093-12.363281 16.203126 0 30.359376 8.886719 37.875 22.035156 6.65625-4.113281 14.488282-6.496093 22.875-6.496093 24.042969 0 43.609376 19.566406 43.609376 43.613281zm0 0" fill="#ffd8a6"/><path d="m360.679688 445.121094v66.878906h-116.015626v-279.585938h102.78125v212.707032zm0 0" fill="#ffa920"/><path d="m379.398438 155.667969v102.371093c0 24.046876-19.566407 43.609376-43.613282 43.609376-11.796875 0-22.507812-4.710938-30.371094-12.351563-7.863281 7.640625-18.578124 12.351563-30.375 12.351563-11.796874 0-22.519531-4.710938-30.375-12.351563v-180.417969c7.855469-7.648437 18.578126-12.363281 30.375-12.363281 16.203126 0 30.355469 8.886719 37.875 22.035156 6.652344-4.109375 14.488282-6.496093 22.871094-6.496093 24.046875 0 43.613282 19.566406 43.613282 43.613281zm0 0" fill="#ffc172"/><path d="m415.355469 257.34375v108.046875c0 27.25-11.046875 51.925781-28.90625 69.773437-17.863281 17.863282-42.535157 28.910157-69.785157 28.910157-23.042968 0-41.714843-18.679688-41.714843-41.722657v-41.359374c0-29.296876 21.269531-50.960938 33.730469-61.128907h-39.148438c-8.9375 0-17.390625-2.144531-24.867188-5.945312-17.734374-9.019531-29.957031-27.375-30.160156-48.554688-.183594-18.777343 12.769532-34.695312 30.160156-39.3125 3.328126-.890625 6.8125-1.359375 10.40625-1.359375h127.628907c18.035156 0 32.65625 14.625 32.65625 32.652344zm0 0" fill="#fff4ca"/><path d="m415.355469 257.34375v108.046875c0 27.25-11.046875 51.925781-28.90625 69.773437-17.863281 17.863282-42.535157 28.910157-69.785157 28.910157-23.042968 0-41.714843-18.679688-41.714843-41.722657v-41.359374c0-29.296876 21.269531-50.960938 33.730469-61.128907h-39.148438c-8.9375 0-17.390625-2.144531-24.867188-5.945312v-87.867188c3.328126-.890625 6.8125-1.359375 10.40625-1.359375h127.628907c18.035156 0 32.65625 14.625 32.65625 32.652344zm0 0" fill="#ffd8a6"/></svg>