<svg id="Capa_1" enable-background="new 0 0 512 512" height="512" viewBox="0 0 512 512" width="512" xmlns="http://www.w3.org/2000/svg"><g id="XMLID_93_"><path id="XMLID_3721_" d="m298.653 268.666h-85.306l-59.133 242.634h203.572z" fill="#ffe898"/><path id="XMLID_3655_" d="m350.188 281.141h30v107.906h-30z" fill="#ffd17b" transform="matrix(.953 -.302 .302 .953 -84.225 126.101)"/><path id="XMLID_3654_" d="m92.859 320.094h107.906v30h-107.906z" fill="#ffe898" transform="matrix(.302 -.953 .953 .302 -216.987 373.72)"/><path id="XMLID_3648_" d="m241 415.7h30v95.601h-30z" fill="#ffd17b"/><path id="XMLID_3690_" d="m389.322 142.261c-9.123-19.197-28.647-31.903-50.518-31.903-5.66 0-11.243.854-16.58 2.511-17.981-22.584-45.59-36.169-74.844-36.169-42.094 0-78.423 27.374-90.921 66.083-5.898-1.393-11.967-2.094-18.163-2.094-43.555 0-78.988 35.434-78.988 78.989s35.434 78.989 78.988 78.989h235.408c43.555 0 78.988-35.434 78.988-78.989 0-37.833-27.133-70.103-63.37-77.417z" fill="#e3e3ec"/><path id="XMLID_3653_" d="m369.883 42.902h79.331v30h-79.331z" fill="#ffd17b" transform="matrix(.707 -.707 .707 .707 79.012 306.554)"/><path id="XMLID_3652_" d="m92.75 18.236h30v79.331h-30z" fill="#ffe898" transform="matrix(.707 -.707 .707 .707 -9.383 93.15)"/><path id="XMLID_3651_" d="m241 .7h30v43h-30z" fill="#ffe898"/><path id="XMLID_3650_" d="m483 210.033h29v30h-29z" fill="#ffd17b"/><path id="XMLID_3649_" d="m0 210.033h29v30h-29z" fill="#ffe898"/><path id="XMLID_3140_" d="m256 .7h15v43h-15z" fill="#ffd17b"/><path id="XMLID_3139_" d="m256 511.3h101.786l-59.133-242.634h-42.653z" fill="#ffd17b"/><path id="XMLID_3138_" d="m389.322 142.261c-9.123-19.197-28.647-31.903-50.518-31.903-5.66 0-11.243.854-16.58 2.511-16.203-20.351-40.226-33.39-66.224-35.77v221.567h117.704c43.555 0 78.988-35.434 78.988-78.989 0-37.832-27.133-70.102-63.37-77.416z" fill="#d0d0df"/><path id="XMLID_3756_" d="m256 415.7h15v95.601h-15z" fill="#ffb64c"/></g></svg>