<svg height="512pt" viewBox="-31 0 511 512" width="512pt" xmlns="http://www.w3.org/2000/svg"><g fill="#c68a65"><path d="m252.503906 263.871094h100v39.980468h-100zm0 0"/><path d="m350.46875 502.003906h-39.964844v-122.097656c0-47.917969 22.652344-88.875 44.5625-128.488281 19.269532-34.839844 37.472656-67.746094 37.472656-101.1875v-40.03125h39.960938v40.03125c0 43.789062-21.59375 82.832031-42.476562 120.589843-20.34375 36.777344-39.558594 71.519532-39.558594 109.089844v122.09375zm0 0"/><path d="m389.5 9.996094h40v39.980468h-40zm0 0"/></g><path d="m359.503906 119.941406h-94.695312c-8.007813 0-15.789063-2.480468-22.425782-6.957031-13.144531-8.855469-24.816406-23.03125-92.875-23.03125-99 0-138.996093 29.988281-138.996093 29.988281 37.769531-50.335937 123.996093-89.957031 229.992187-89.957031l119 9.996094zm0 0" fill="#e8e7e9"/><path d="m359.503906 49.976562h79.996094v59.96875h-79.996094zm0 0" fill="#b5bcc9"/><path d="m439.5 39.980469v-29.984375c0-5.519532-4.476562-9.996094-10-9.996094h-40c-5.523438 0-10 4.476562-10 9.996094v29.984375h-10c0-5.195313-3.980469-9.527344-9.160156-9.960938l-118.996094-9.996093c-.28125-.019532-.558594-.035157-.839844-.035157-101.75 0-195.167968 36.878907-237.992187 93.957031-2.988281 3.976563-2.617188 9.566407.902343 13.082032 1.945313 1.941406 4.503907 2.9375 7.078126 2.9375 2.089843 0 4.1875-.65625 5.96875-1.992188.382812-.28125 39.410156-28.023437 133.046874-28.023437 57.738282 0 71.683594 10.101562 82.886719 18.21875 1.417969 1.027343 2.886719 2.089843 4.394531 3.105469 8.410157 5.667968 18.097657 8.664062 28.019532 8.664062h94.691406c5.523438 0 10-4.476562 10-9.996094h13.035156v30.289063c0 30.863281-17.59375 62.671875-36.226562 96.359375-1.339844 2.425781-2.683594 4.851562-4.023438 7.285156h-89.78125c-5.523437 0-10 4.476562-10 9.996094v39.980468c0 5.519532 4.476563 9.996094 10 9.996094h60.820313c-7.726563 20.660156-12.824219 42.441406-12.824219 66.058594v122.097656c0 5.519532 4.476562 9.996094 10 9.996094h39.964844c5.523437 0 10-4.476562 10-9.996094v-122.097656c0-34.992188 18.605468-68.632812 38.308594-104.253906 21.496093-38.867188 43.726562-79.058594 43.726562-125.421875v-30.75c4.054688-1.273438 7-5.058594 7-9.535157v-59.96875c0-5.519531-4.476562-9.996093-10-9.996093zm-89.996094 9.996093v19.988282h-20c-5.511718 0-10 4.488281-10 9.996094 0 5.507812 4.488282 9.992187 10 9.992187h20v19.992187h-84.695312c-5.921875 0-11.742188-1.816406-16.835938-5.246093-1.226562-.828125-2.496094-1.746094-3.839844-2.71875-12.828124-9.292969-30.398437-22.019531-94.625-22.019531-40.011718 0-70.785156 4.800781-93.472656 10.679687 45.4375-31.550781 112.335938-50.585937 184.054688-50.660156l109.414062 9.191406zm49.996094-29.988281h20v19.992188h-20zm-136.996094 273.867188v-19.992188h69.023438c-3.425782 6.582031-6.734375 13.238281-9.835938 19.992188zm159.996094-143.625c0 41.207031-20.957031 79.101562-41.230469 115.753906-20.980469 37.9375-40.800781 73.773437-40.800781 113.921875v112.105469h-19.964844v-112.105469c0-45.335938 22.015625-85.144531 43.3125-123.652344 19.910156-36 38.71875-70.003906 38.71875-106.023437v-30.039063h19.964844zm7-50.28125h-60v-39.980469h60zm0 0"/><path d="m289.503906 89.957031c5.511719 0 10-4.488281 10-9.996093 0-5.507813-4.488281-9.996094-10-9.996094-5.507812 0-10 4.488281-10 9.996094 0 5.507812 4.488282 9.996093 10 9.996093zm0 0"/></svg>