<svg id="Capa_1" enable-background="new 0 0 512.002 512.002" height="512" viewBox="0 0 512.002 512.002" width="512" xmlns="http://www.w3.org/2000/svg"><g><g><path d="m262.456 7.667c-58.499 10.585-102.873 61.757-102.873 123.307 0 39.523 18.312 74.75 46.895 97.72h109.968l7.093 5.296c33.591-22.029 55.781-60.01 55.781-103.181 0-65.94-51.759-119.79-116.864-123.142z" fill="#ffc365"/><g><path d="m161.369 130.808c0-63.252 47.628-115.372 108.975-122.475-4.703-.544-9.484-.833-14.333-.833-68.101 0-123.308 55.207-123.308 123.308 0 43.171 22.19 81.152 55.781 103.181l4.629-5.297h16.601c-29.386-22.536-48.345-57.989-48.345-97.884z" fill="#ffa90f"/></g><path d="m307.098 58.657c-12.275-12.651-30.395-13.886-44.038-3.307l-3.173 2.46c-2.348 1.821-5.405 1.821-7.753 0l-3.173-2.461c-2.929-2.272-6.066-3.995-9.306-5.181-3.19 1.7-6.21 3.945-8.941 6.76-49.673 51.195-21.204 155.11-15.772 183.597.46 2.411.726 4.728.861 6.97l.376.364h103.266l3.663-11.8c6.398-31.301 31.26-128.683-16.01-177.402z" fill="#dd8858"/><g><path d="m215.451 238.772c-5.33-27.946-33.258-129.89 15.473-180.115 3.256-3.355 6.925-5.899 10.81-7.641-12.355-5.497-26.603-2.879-36.81 7.641-48.731 50.224-20.802 152.169-15.473 180.115.451 2.365.713 4.638.845 6.838l2.325 2.25h26l-2.325-2.25c-.132-2.2-.394-4.473-.845-6.838z" fill="#cb6c35"/></g><path d="m496.742 397.558-20.636-10.504c-3.072-1.564-3.34-5.851-.486-7.784l7.155-4.847c5.022-3.402 7.03-9.821 4.843-15.478-3.001-7.763-12.415-10.757-19.349-6.153l-16.386 10.878c-4.379 2.907-9.74 3.752-14.715 2.451l-2.889 1.155-11.25 34.25 1.169 5.01c2.634 1.732 5.148 3.648 7.507 5.758 8.741 7.82 23.981 19.997 37.969 23.943 17.921 5.055 28.142-10.042 33.185-21.595 2.802-6.419.126-13.906-6.117-17.084z" fill="#ffdecf"/><g><path d="m474.341 413.238c-13.988-3.946-29.227-16.123-37.969-23.943-2.341-2.094-4.835-3.996-7.447-5.717l-5.896 17.949 1.169 5.01c2.634 1.732 5.148 3.648 7.507 5.758 8.741 7.82 23.981 19.997 37.969 23.943 17.921 5.055 28.142-10.042 33.185-21.595 1.859-4.259 1.295-8.981-1.11-12.61-5.864 8.235-14.697 14.79-27.408 11.205z" fill="#ffcebe"/></g><path d="m74.853 366.122c-4.975 1.301-10.336.456-14.715-2.451l-16.386-10.878c-6.934-4.603-16.348-1.61-19.349 6.153-2.187 5.658-.179 12.076 4.843 15.478l7.155 4.847c2.854 1.933 2.587 6.22-.486 7.784l-20.635 10.503c-6.243 3.177-8.919 10.664-6.117 17.084 5.043 11.553 15.264 26.65 33.185 21.595 13.988-3.946 29.227-16.123 37.969-23.943 2.359-2.11 4.873-4.026 7.507-5.758v-7.343l-9.544-29z" fill="#ffdecf"/><path d="m34.72 419.643c-2.802-6.42-.126-13.907 6.117-17.084l20.636-10.504c3.073-1.564 3.34-5.85.486-7.784l-7.155-4.847c-5.022-3.402-7.03-9.821-4.843-15.478.745-1.926 1.885-3.556 3.283-4.852l-9.492-6.301c-6.934-4.603-16.348-1.61-19.349 6.153-2.187 5.658-.179 12.076 4.843 15.478l7.155 4.847c2.854 1.933 2.587 6.22-.486 7.784l-20.635 10.503c-6.243 3.177-8.919 10.664-6.117 17.084 5.043 11.553 15.264 26.65 33.185 21.595.9-.254 1.805-.544 2.713-.863-4.676-4.491-8.046-10.475-10.341-15.731z" fill="#ffcebe"/><path d="m433.238 343.617c-52.683-25.554-76.535-55.82-90.033-72.245-2.773-3.374-5.247-6.991-7.274-10.859-1.66-3.168-3.763-6.066-6.223-8.617l-3.179 4.13-28-10.417-3.862-5.151c-16.345 0-55.581 0-77.194 0-7.412 4.369-13.206 11.072-16.427 19.028-1.683 4.157-3.926 8.064-6.445 11.775-12.485 18.396-34.428 52.188-86.835 83.832-3.377 2.039-5.206 5.893-4.639 9.797 1.876 12.92 7.921 42.042 25.694 61.961 12.387-4.663 29.999-13.753 45.066-30.863 1.306-1.482 3.737-.448 3.594 1.522-1.002 13.822-3.688 28.526-7.005 42.47l6.469 2.045 51.724 58.167v4.309h.003c-.001 0-.002 0-.003 0h125.958c3.485 0 5.903-3.477 4.682-6.741-6.286-16.797-21.994-61.922-24.77-100.246-.143-1.972 2.285-3.012 3.592-1.528 21.303 24.193 47.71 32.366 57.216 34.636 2.306.551 4.747.234 6.792-.966 30.36-17.814 35.519-60.875 36.374-77.116.198-3.766-1.881-7.277-5.275-8.923z" fill="#dbedff"/><g><path d="m104.675 364.504c-.559-3.852 1.246-7.655 4.578-9.667 51.712-31.224 73.364-64.568 85.684-82.72 2.485-3.661 4.698-7.517 6.359-11.619 3.505-8.658 10.091-15.821 18.508-20.039-4.145 0-7.759 0-10.588 0-14.479 0-27.026 8.233-33.237 20.271-1.966 3.811-4.444 7.336-7.167 10.65-13.499 16.427-37.352 46.688-90.027 72.238-3.394 1.646-5.473 5.157-5.275 8.924.855 16.241 6.013 59.302 36.374 77.116 2.045 1.2 4.486 1.516 6.792.966 3.084-.736 7.953-2.1 13.843-4.424-17.923-19.667-23.975-48.828-25.844-61.696z" fill="#b5dcff"/></g><path d="m329.23 243.185c-.13-1.912-1.066-3.694-2.593-4.853-2.457-1.863-6.856-4.479-13.384-5.869l-2.973 3.23-39.504 114.921-103.997 129.412v16.5l8.066 7.976h53.824c3.358 0 6.588-1.294 9.002-3.627 19.164-18.517 101.733-107.523 91.559-257.69z" fill="#f27182"/><path d="m173.837 493.159c-.647-7.278 2.532-14.363 8.379-18.745 116.022-86.97 129.477-214.381 131.036-241.95-2.749-.585-5.866-.958-9.388-.958h-4.294c-2.056 0-3.797 1.511-4.076 3.548-3.041 22.226-24.749 143.71-142.89 216.887-5.832 3.613-9.395 9.975-9.395 16.835v27.533c0 4.525 3.668 8.193 8.193 8.193h23.444z" fill="#ed5469"/><path d="m275.904 214.776h-17.999l-2.269 2.637v24.199c0 8.437 4.46 15.819 11.141 19.959 7.124-3.838 11.967-11.366 11.967-20.025v-23.427z" fill="#ffcebe"/><path d="m256.011 241.545v-23.427l2.876-3.342h-22.733l-2.876 3.342v23.427c0 12.555 10.178 22.733 22.733 22.733 4.142 0 8.022-1.113 11.367-3.049-6.793-3.931-11.367-11.271-11.367-19.684z" fill="#ffb1a0"/><path d="m313.169 131.716v32.004c8.403-.481 15.134-7.484 15.134-16.002 0-8.517-6.731-15.521-15.134-16.002z" fill="#ffcebe"/><path d="m210.792 131.74c-7.216 1.738-12.628 8.248-12.628 15.978 0 7.74 5.424 14.261 12.655 15.988l1.96-1.431v-28z" fill="#ffcebe"/><path d="m314.169 131.796c-.629-.076-1.266-.126-1.915-.126h-10.969l-1.881 2.241v27.241l1.881 2.616h10.969c.649 0 1.286-.05 1.915-.126z" fill="#ffb1a0"/><path d="m198.484 147.719c0-7.629 5.399-14.049 12.563-15.653l-.31-.395h-10.969c-8.827 0-16.049 7.222-16.049 16.049 0 8.827 7.222 16.049 16.049 16.049h10.969l.481-.351c-7.25-1.54-12.734-8.009-12.734-15.699z" fill="#ffb1a0"/><path d="m294.389 117.437c-9.431.137-26.237-2.347-35.524-20.015-1.214-2.31-4.495-2.31-5.709 0-4.486 8.535-10.727 13.52-17.044 16.384l-2.835 4.553v57.5l7.835 23.667h37.631l17.869-22 4.672-6.393v-46.913c.001-3.793-3.102-6.838-6.895-6.783z" fill="#ffdecf"/><path d="m217.633 117.437c-3.792-.055-6.896 2.99-6.896 6.783v46.913l3.876 6.56 22.075 18.188 3.56-2.093-.706-2.065c-2.271-6.641-3.429-13.611-3.429-20.629v-57.287c-6.76 3.065-13.605 3.701-18.48 3.63z" fill="#ffcebe"/><path d="m300.319 171.573c-8.502 3.876-15.835 9.809-21.818 16.986-2.205 2.645-4.961 4.974-8.138 5.658-5.703 1.228-9.304.05-11.474-1.419-1.758-1.19-3.999-1.19-5.757 0-2.169 1.469-5.771 2.647-11.474 1.419-.481-.104-.949-.256-1.411-.431l-1.094 2.239 9.283 17.5 14.967 8.5 6.115.168c18.406-5.747 31.765-22.924 31.765-43.223v-7.838z" fill="#cb6c35"/><g><path d="m240.248 193.787c-2.585-.978-4.856-2.984-6.727-5.228-5.983-7.177-13.316-13.11-21.818-16.986l-.966-.44v7.838c0 25.004 20.27 45.274 45.274 45.274 4.705 0 9.243-.719 13.509-2.051-13.699-4.277-24.591-14.891-29.272-28.407z" fill="#ae5e2e"/></g></g><g><path d="m500.134 390.875-16.147-8.22 2.983-2.021c7.963-5.393 11.102-15.423 7.633-24.392-4.734-12.247-19.577-16.947-30.492-9.697-17.869 11.862-16.978 11.38-18.515 11.964.181-2.043.31-3.918.396-5.573.357-6.791-3.368-13.098-9.491-16.066-49.644-24.08-72.579-52.049-86.282-68.76-8.12-9.89-7.35-12.377-13.146-19.231-.179-3.458-.37-6.201-.37-6.201-.174-2.565-1.032-4.998-2.444-7.063 28.264-21.115 46.868-52.665 51.443-87.735.536-4.107-2.359-7.872-6.466-8.407-4.111-.541-7.871 2.358-8.407 6.467-3.495 26.79-16.24 51.267-35.76 69.488 10.751-54.388 16.033-122.177-22.598-161.993-13.026-13.426-31.655-16.487-47.474-8.221-3.924 2.05-6.266 3.996-8.996 6.112l-2.453-1.902c-16.841-13.06-39.053-11.412-54.018 4.011-38.597 39.787-33.364 107.658-22.596 162.003-23.287-21.721-36.742-52.165-36.742-84.629.001-63.858 51.952-115.809 115.808-115.809 56.652 0 105.857 42.152 114.455 98.05.63 4.094 4.465 6.905 8.554 6.272 4.094-.63 6.902-4.459 6.272-8.554-4.699-30.552-20.227-58.576-43.722-78.909-23.738-20.545-54.124-31.859-85.559-31.859-72.128 0-130.808 58.681-130.808 130.809 0 43.184 21.083 83.193 56.548 107.676.472 2.35.413 2.146.605 3.432-11.438 8.551-11.831 15.57-19.193 24.522-13.764 16.767-36.557 45.646-87.652 70.431-6.124 2.969-9.85 9.275-9.492 16.066.087 1.655.216 3.53.396 5.573-1.536-.583-.481.008-18.515-11.964-10.94-7.261-25.766-2.528-30.492 9.696-3.469 8.97-.33 19 7.632 24.392l2.984 2.022-16.146 8.219c-9.761 4.967-13.973 16.725-9.59 26.769 8.107 18.569 22.533 31.331 42.095 25.813 15.752-4.444 30.792-16.767 41.491-26.051 5.25 7.307 11.868 13.824 20.216 18.722 3.699 2.17 8.08 2.803 12.333 1.789 9.422-2.251 30.223-8.816 49.884-25.845-1.083 7.327-2.586 15.167-4.496 23.466-4.863 3.43-9.91 6.778-15.156 10.028-8.106 5.021-12.946 13.697-12.946 23.212v27.532c0 8.653 7.04 15.693 15.693 15.693h132.383c4.143 0 7.5-3.357 7.5-7.5s-3.357-7.5-7.5-7.5h-31.906c48.6-52.969 83.859-131.824 85.639-220.738 24.891 30.315 49.614 53.325 92.448 74.101.683.331 1.098 1.03 1.059 1.781-.662 12.556-4.973 54.786-32.683 71.043-.338.196-.795.249-1.258.137-7.951-1.9-35.001-9.962-55.518-34.89l-.478-9.144c-.216-4.138-3.764-7.302-7.881-7.1-4.137.217-7.315 3.745-7.1 7.881 1.026 19.643 1.434 52.699 24.925 116.929h-32.248c-4.143 0-7.5 3.357-7.5 7.5s3.357 7.5 7.5 7.5h35.842c4.097 0 7.937-2.01 10.271-5.376 2.333-3.364 2.87-7.661 1.436-11.496-5.728-15.305-17.79-50.058-22.637-83.075 19.663 17.037 40.477 23.609 49.902 25.861 4.254 1.017 8.634.381 12.332-1.789 8.348-4.897 14.966-11.415 20.216-18.722 11.014 9.579 25.901 21.653 41.49 26.05 19.539 5.517 33.981-7.222 42.096-25.812 4.385-10.044.173-21.802-9.587-26.768zm-459.833 38.145c-9.861 2.782-18.027-3.065-24.274-17.377-1.213-2.777-.051-6.028 2.646-7.4l20.635-10.503c8.157-4.152 8.881-15.537 1.29-20.678l-7.155-4.848c-2.142-1.45-2.985-4.149-2.053-6.563 1.263-3.265 5.232-4.584 8.205-2.609 17.013 11.295 20.357 14.565 28.983 15.119 1.793 9.421 4.75 20.027 9.587 30.126-3.546 2.84-21.687 20.169-37.864 24.733zm74.629-5.694c-.464.107-.924.06-1.26-.137-27.71-16.257-32.021-58.487-32.683-71.043-.039-.751.376-1.45 1.06-1.781 42.329-20.532 67.115-43.226 92.692-74.4 9.364-11.389 12.391-28.006 34.465-28.006h17.247c2.998 13.858 15.352 23.819 29.549 23.819 14.403 0 26.602-10.197 29.549-23.819h.069c-7.055 34.083-30.647 113.222-103.681 173.693 2.842-16.192 2.991-22.911 4.043-43.062.216-4.137-2.963-7.665-7.1-7.881-4.097-.193-7.664 2.962-7.881 7.1l-.555 10.628c-20.518 24.931-47.566 32.99-55.514 34.889zm88.297-252.058v7.704c0 17.669 8.849 33.638 22.54 43.243v10.744h-16.562c-4.484 0-8.947.709-12.894 1.895-.896-4.399-2.164-10.139-3.451-16.367-1.011-.885-6.694-36.42-7.926-52.483 7.017 5.75 14.231 5.264 18.293 5.264zm-12.019-23.549c0-4.714 3.835-8.549 8.549-8.549h3.47v17.098h-3.47c-4.714 0-8.549-3.835-8.549-8.549zm64.792 69.026c-18.639 0-34.561-13.689-37.345-32.227 3.244 2.519 6.284 5.472 9.094 8.843 3.732 4.478 7.877 7.232 12.319 8.188 7.402 1.595 12.603.116 15.933-1.728 3.327 1.844 8.526 3.319 15.93 1.728 4.444-.956 8.589-3.711 12.32-8.188 2.81-3.371 5.851-6.324 9.095-8.844-2.794 18.61-18.768 32.228-37.346 32.228zm15.234 12.752v12.048c0 8.399-6.834 15.233-15.233 15.233s-15.233-6.834-15.233-15.233c0-1.882 0-11.182 0-12.048 10.245 3.089 20.886 2.89 30.466 0zm1.495-45.739c-2.146 2.574-3.568 3.045-3.954 3.128-2.533.545-4.606.437-5.69-.297-4.303-2.914-9.864-2.915-14.167 0-1.085.734-3.161.842-5.69.297-.386-.083-1.809-.554-3.955-3.129-6.13-7.353-13.196-13.166-21.045-17.323 0-15.553 0-25.939 0-41.492h.109c9.947 0 26.473-2.611 37.664-17.935 8.863 12.132 22.37 17.869 37.419 17.932.081 0 .166.002.246.002h.002.107v41.492c-7.849 4.158-14.915 9.972-21.046 17.325zm-37.702 309.174c-2.508 2.536-3.69 4.07-6.366 4.07h-77.269c-.383 0-.693-.312-.693-.693v-27.532c0-4.283 2.185-8.193 5.845-10.46 82.564-51.141 133.287-137.026 145.944-219.311 6.699 0 13.635.972 19.274 5.057 6.717 100.638-30.799 192.145-86.735 248.869zm82.572-267.118c-7.295-2.022-12.772-1.809-18.039-1.809-5.448 0-10.106 3.857-11.307 8.953h-2.02v-10.744c13.689-9.593 22.541-25.607 22.541-43.243v-7.704h3.47c5.174 0 10.374-1.688 14.823-5.264-1.809 21.554-4.792 37.899-9.468 59.811zm-8.824-69.546v-17.098h3.47c4.713 0 8.548 3.835 8.548 8.549s-3.835 8.549-8.548 8.549zm3.47-32.098h-3.47c-.014-3.715-1.459-7.364-4.255-10.12-2.748-2.707-6.384-4.188-10.249-4.111-9.256.135-21.696-2.534-28.776-16.004-3.938-7.5-14.888-7.8-18.987-.001-5.676 10.799-15.601 15.936-27.903 16.008-10.19.059-15.351 7.184-15.377 14.228-3.613 0-11.349-.6-18.504 5.437 1.89-24.197 8.818-48.453 25.573-65.727 9.608-9.904 23.296-10.95 34.06-2.603l3.171 2.459c5.069 3.933 11.879 3.932 16.946.001 3.307-2.563 4.715-3.769 7.333-5.151 10.372-5.472 22.001-2.998 29.942 5.34 16.787 17.327 23.598 41.536 25.531 65.681-4.065-3.403-9.422-5.437-15.035-5.437zm183.73 287.473c-6.246 14.312-14.416 20.16-24.275 17.376-16.391-4.623-35.417-22.772-37.862-24.733 4.837-10.099 7.794-20.705 9.587-30.126 8.481-.545 11.453-3.481 28.983-15.119 2.944-1.955 6.93-.687 8.205 2.61.933 2.413.089 5.112-2.054 6.563l-7.154 4.846c-7.591 5.143-6.866 16.527 1.289 20.678l20.637 10.505c2.695 1.371 3.857 4.622 2.644 7.4z"/></g></g></svg>