<svg height="512pt" viewBox="0 0 512 512" width="512pt" xmlns="http://www.w3.org/2000/svg"><path d="m62.621094 384.164062-62.621094 127.835938 127.824219-62.617188 119.335937-119.011718-22.160156-43.371094-43.214844-22zm0 0" fill="#f4f5f7"/><path d="m0 512 127.824219-62.617188 119.335937-119.011718-22.160156-43.371094zm0 0" fill="#c8d6f2"/><path d="m203 243.785156 22 43.214844 43.402344 22.1875 40.078125-39.953125-22.480469-43.234375-42.984375-22.230469zm0 0" fill="#3f52e9"/><path d="m286 226-61 61 43.402344 22.1875 40.078125-39.953125zm0 0" fill="#2e3192"/><path d="m512 0-127.835938 62.621094-119.933593 119.9375 21.769531 43.441406 43.730469 22.058594 119.667969-119.238282zm0 0" fill="#f4f5f7"/><path d="m286 226 43.730469 22.058594 119.667969-119.238282 62.601562-128.820312zm0 0" fill="#c8d6f2"/><path d="m243.015625 203.769531 65.464844 65.464844 21.25-21.175781-65.5-65.5zm0 0" fill="#38eecf"/><path d="m181.785156 265 65.375 65.371094 21.242188-21.183594-65.402344-65.402344zm0 0" fill="#38eecf"/><g fill="#0fb397"><path d="m275.621094 236.378906 32.859375 32.855469 21.25-21.175781-32.894531-32.894532zm0 0"/><path d="m247.160156 330.371094 21.242188-21.183594-32.796875-32.792969-21.210938 21.210938zm0 0"/></g></svg>