<svg height="512pt" viewBox="-11 0 512 512" width="512pt" xmlns="http://www.w3.org/2000/svg"><path d="m437.558594 225.101562-34.980469 30.898438h67.476563l17.5-15.457031c7.109374-6.28125 2.667968-18.023438-6.820313-18.023438h-36.355469c-2.511718 0-4.9375.917969-6.820312 2.582031zm0 0" fill="#ff756e"/><path d="m470.054688 256 17.5 15.457031c7.109374 6.28125 2.667968 18.023438-6.820313 18.023438h-36.355469c-2.511718 0-4.9375-.917969-6.820312-2.582031l-34.980469-30.898438zm0 0" fill="#fc4830"/><path d="m248.917969 500.824219c.484375 6.027343-4.316407 11.175781-10.375 11.175781h-5.214844c-5.386719 0-9.878906-4.109375-10.339844-9.476562-1.9375-22.914063-10.878906-45.226563-25.664062-63.667969-12.949219-16.171875-24.085938-33.542969-33.285157-51.910157-5.242187-10.476562-9.867187-21.285156-13.835937-32.367187-.566406-1.574219-1.113281-3.140625-1.636719-4.730469-10.207031-30.140625-15.378906-61.695312-15.378906-93.847656s5.167969-63.707031 15.378906-93.851562c.523438-1.585938 1.070313-3.152344 1.636719-4.726563 3.96875-11.085937 8.59375-21.890625 13.835937-32.367187 9.199219-18.371094 20.335938-35.738282 33.285157-51.914063 14.785156-18.4375 23.726562-40.753906 25.664062-63.664063.460938-5.367187 4.953125-9.476562 10.34375-9.476562h5.210938c6.058593 0 10.859375 5.152344 10.375 11.175781-2.296875 28.195313-13.21875 55.609375-31.316407 78.203125-11.589843 14.472656-21.582031 30-29.867187 46.386719-4.976563 9.839844-9.34375 19.976563-13.070313 30.402344-.804687 2.234375-1.566406 4.492187-2.308593 6.746093-8.757813 26.726563-13.199219 54.644532-13.199219 83.085938s4.441406 56.359375 13.199219 83.085938c.742187 2.253906 1.503906 4.511718 2.308593 6.746093 3.726563 10.425781 8.09375 20.5625 13.070313 30.402344 8.285156 16.386719 18.277344 31.914063 29.867187 46.378906 18.097657 22.601563 29.019532 50.011719 31.316407 78.210938zm0 0" fill="#cf8671"/><path d="m63.515625 232.175781 6.761719-5.011719c1.234375-.914062 2.988281-.597656 3.824218.6875l10.246094 15.753907 7.113282 10.941406c.574218.882813.574218 2.023437 0 2.90625l-7.113282 10.9375-10.246094 15.753906c-.835937 1.289063-2.589843 1.605469-3.824218.6875l-6.761719-5.011719c-1.234375-.914062-2.984375-.597656-3.824219.691407l-2.363281 3.632812c-.835937 1.289063-2.585937 1.601563-3.824219.6875l-6.511718-4.824219c-1.234376-.914062-2.984376-.601562-3.824219.691407l-2.238281 3.445312c-.839844 1.289063-2.59375 1.601563-3.828126.6875l-36.019531-26.691406c-1.441406-1.066406-1.441406-3.21875 0-4.285156l36.019531-26.691407c1.234376-.917968 2.988282-.601562 3.828126.6875l2.238281 3.445313c.839843 1.289063 2.589843 1.605469 3.824219.691406l6.511718-4.824219c1.238282-.917968 2.988282-.601562 3.824219.6875l2.363281 3.628907c.839844 1.292969 2.589844 1.609375 3.824219.695312zm0 0" fill="#82807f"/><path d="m471.273438 263.726562h-425.328126c-4.265624 0-7.726562-3.460937-7.726562-7.726562s3.460938-7.726562 7.726562-7.726562h425.332032c4.265625 0 7.722656 3.460937 7.722656 7.726562s-3.457031 7.726562-7.726562 7.726562zm0 0" fill="#dad0cd"/><path d="m240.699219 478.222656c-1.621094 0-3.253907-.507812-4.648438-1.558594-3.40625-2.570312-4.082031-7.417968-1.511719-10.820312l158.335938-209.8125-112.386719-146.851562c-2.59375-3.390626-1.949219-8.238282 1.441407-10.832032 3.390624-2.59375 8.238281-1.949218 10.832031 1.441406l115.953125 151.515626c2.109375 2.757812 2.121094 6.582031.03125 9.351562l-161.875 214.492188c-1.515625 2.015624-3.832032 3.074218-6.171875 3.074218zm0 0" fill="#82807f"/><path d="m264.351562 81.652344c-2.382812 0-4.734374-1.097656-6.25-3.171875l-23.640624-32.425781c-2.511719-3.449219-1.757813-8.28125 1.691406-10.792969 3.449218-2.515625 8.28125-1.757813 10.796875 1.6875l23.640625 32.425781c2.511718 3.449219 1.757812 8.28125-1.691406 10.796875-1.375 1-2.96875 1.480469-4.546876 1.480469zm0 0" fill="#82807f"/><g fill="#00fbaa"><path d="m251.847656 29.875h-40.691406c-4.269531 0-7.726562-3.460938-7.726562-7.726562 0-4.265626 3.457031-7.726563 7.726562-7.726563h40.691406c4.265625 0 7.726563 3.460937 7.726563 7.726563 0 4.265624-3.460938 7.726562-7.726563 7.726562zm0 0"/><path d="m251.847656 49.230469h-40.691406c-4.269531 0-7.726562-3.460938-7.726562-7.726563s3.457031-7.726562 7.726562-7.726562h40.691406c4.265625 0 7.726563 3.460937 7.726563 7.726562s-3.460938 7.726563-7.726563 7.726563zm0 0"/><path d="m251.847656 478.222656h-40.691406c-4.269531 0-7.726562-3.460937-7.726562-7.726562s3.457031-7.726563 7.726562-7.726563h40.691406c4.265625 0 7.726563 3.460938 7.726563 7.726563s-3.460938 7.726562-7.726563 7.726562zm0 0"/><path d="m251.847656 497.578125h-40.691406c-4.269531 0-7.726562-3.460937-7.726562-7.726563 0-4.265624 3.457031-7.726562 7.726562-7.726562h40.691406c4.265625 0 7.726563 3.460938 7.726563 7.726562 0 4.265626-3.460938 7.726563-7.726563 7.726563zm0 0"/><path d="m166.460938 315.40625h-38.460938c-7.015625 0-12.703125-5.6875-12.703125-12.707031v-12.359375c0-7.019532 5.6875-12.707032 12.703125-12.707032h38.460938c7.019531 0 12.707031 5.6875 12.707031 12.707032v12.359375c0 7.019531-5.6875 12.707031-12.707031 12.707031zm0 0"/><path d="m166.460938 234.367188h-38.460938c-7.015625 0-12.703125-5.6875-12.703125-12.707032v-12.363281c0-7.015625 5.6875-12.703125 12.703125-12.703125h38.460938c7.019531 0 12.707031 5.6875 12.707031 12.703125v12.363281c0 7.019532-5.6875 12.707032-12.707031 12.707032zm0 0"/></g><path d="m187.734375 376.230469-23.695313 10.714843c-5.242187-10.476562-9.867187-21.285156-13.832031-32.367187-.566406-1.574219-1.113281-3.140625-1.640625-4.730469l23.789063-10.761718c.742187 2.253906 1.503906 4.511718 2.308593 6.746093 3.726563 10.425781 8.09375 20.5625 13.070313 30.398438zm0 0" fill="#be7560"/><path d="m152.292969 377.941406c-2.941407 0-5.75-1.691406-7.042969-4.542968-1.757812-3.890626-.035156-8.464844 3.855469-10.226563l32.25-14.59375c3.890625-1.757813 8.46875-.03125 10.226562 3.855469 1.757813 3.886718.03125 8.464844-3.855469 10.222656l-32.25 14.59375c-1.035156.46875-2.117187.691406-3.183593.691406zm0 0" fill="#fc4830"/><path d="m187.734375 135.769531c-4.976563 9.835938-9.34375 19.972657-13.074219 30.398438-.800781 2.234375-1.5625 4.492187-2.304687 6.75l-23.789063-10.765625c.523438-1.585938 1.070313-3.152344 1.636719-4.730469 3.96875-11.082031 8.59375-21.890625 13.835937-32.367187zm0 0" fill="#be7560"/><path d="m184.539062 164.109375c-1.066406 0-2.148437-.21875-3.183593-.6875l-32.25-14.59375c-3.890625-1.757813-5.613281-6.335937-3.855469-10.222656 1.757812-3.890625 6.335938-5.617188 10.226562-3.855469l32.25 14.59375c3.886719 1.757812 5.613282 6.335938 3.851563 10.222656-1.289063 2.855469-4.097656 4.542969-7.039063 4.542969zm0 0" fill="#fc4830"/><path d="m275.3125 114.703125c-13.628906 0-24.714844-11.089844-24.714844-24.71875s11.085938-24.714844 24.714844-24.714844 24.71875 11.085938 24.71875 24.714844-11.089844 24.71875-24.71875 24.71875zm0-33.980469c-5.105469 0-9.261719 4.15625-9.261719 9.261719 0 5.109375 4.15625 9.265625 9.261719 9.265625 5.109375 0 9.265625-4.15625 9.265625-9.265625 0-5.105469-4.15625-9.261719-9.265625-9.261719zm0 0" fill="#dad0cd"/><path d="m177.671875 223.207031h-61.3125c-4.265625 0-7.726563-3.460937-7.726563-7.726562s3.460938-7.726563 7.726563-7.726563h61.3125c4.269531 0 7.726563 3.460938 7.726563 7.726563s-3.457032 7.726562-7.726563 7.726562zm0 0" fill="#00b579"/><path d="m177.671875 304.246094h-61.3125c-4.265625 0-7.726563-3.457032-7.726563-7.726563 0-4.265625 3.460938-7.722656 7.726563-7.722656h61.3125c4.269531 0 7.726563 3.457031 7.726563 7.722656 0 4.269531-3.457032 7.726563-7.726563 7.726563zm0 0" fill="#00b579"/></svg>