<svg height="512pt" viewBox="0 0 511 512" width="512pt" xmlns="http://www.w3.org/2000/svg"><path d="m250.789062 462.234375 100.925782 37.628906c16.945312 6.316407 35.84375-1.941406 42.71875-18.664062 6.773437-16.46875-.507813-35.351563-16.578125-43.015625l-59.878907-28.546875c-11.007812-5.246094-18.007812-16.367188-17.980468-28.558594l.125-54.894531c.03125-12.570313 5.070312-24.613282 14.003906-33.457032l33.902344-33.554687c14.472656-14.269531 22.773437-34.105469 22.773437-54.429687 0-23.664063-11.222656-46.367188-30.027343-60.734376 0 0-44.382813-33.863281-68.746094-52.394531-6.378906-4.855469-15.554688-.300781-15.554688 7.71875 0-8.019531-9.171875-12.574219-15.554687-7.71875-24.359375 18.53125-68.746094 52.394531-68.746094 52.394531-18.804687 14.367188-30.027344 37.070313-30.027344 60.734376 0 20.324218 8.300781 40.160156 22.773438 54.429687l34.050781 33.746094c8.9375 8.855469 13.96875 20.914062 13.984375 33.496093l.054687 54.691407c.015626 12.179687-6.984374 23.277343-17.976562 28.519531l-60.457031 28.824219c-15.761719 7.511719-22.902344 26.035156-16.261719 42.183593 6.929688 16.851563 26.242188 24.855469 43.0625 17.84375l111.855469-46.632812h32.699219" fill="#feda9b"/><path d="m320.769531 231.515625-14.648437 14.4375c-13.230469 13.042969-31.066406 20.355469-49.648438 20.355469-18.578125 0-36.414062-7.3125-49.644531-20.355469l-14.648437-14.4375c-7.117188-7.019531-11.203126-16.777344-11.203126-26.773437 0-11.640626 5.523438-22.808594 14.773438-29.875l44.050781-33.660157c10.507813-8.03125 16.675781-20.5 16.675781-33.722656 0 13.222656 6.164063 25.695313 16.671876 33.722656l44.050781 33.660157c9.25 7.066406 14.773437 18.234374 14.773437 29.875 0 9.996093-4.085937 19.753906-11.203125 26.773437zm0 0" fill="#fff"/><path d="m256.492188 264.109375c-20.507813 0-37.132813-16.625-37.132813-37.128906v-6.257813c0-20.507812 16.625-37.132812 37.132813-37.132812 20.507812 0 37.132812 16.625 37.132812 37.132812v6.257813c0 20.503906-16.625 37.128906-37.132812 37.128906zm0 0" fill="#feda9b"/><path d="m509.539062 494.929688c-1.859374-1.859376-4.4375-2.929688-7.070312-2.929688-2.628906 0-5.207031 1.070312-7.070312 2.929688-1.859376 1.859374-2.929688 4.441406-2.929688 7.070312s1.070312 5.210938 2.929688 7.070312c1.863281 1.859376 4.441406 2.929688 7.070312 2.929688 2.632812 0 5.210938-1.070312 7.070312-2.929688 1.859376-1.859374 2.929688-4.441406 2.929688-7.070312s-1.070312-5.210938-2.929688-7.070312zm0 0"/><path d="m465.5 492h-65.453125c1.390625-2.183594 2.617187-4.515625 3.636719-7 8.789062-21.367188-.667969-45.898438-21.523438-55.84375l-59.882812-28.542969c-7.476563-3.566406-12.300782-11.226562-12.28125-19.511719l.125-54.890624c.023437-9.839844 4.050781-19.453126 11.039062-26.375l33.890625-33.542969c16.367188-16.132813 25.753907-38.566407 25.753907-61.550781 0-26.757813-12.695313-52.433594-33.960938-68.683594 0 0-44.394531-33.867188-68.757812-52.402344-5.996094-4.5625-13.914063-5.316406-20.664063-1.972656-.320313.160156-.636719.328125-.945313.503906-.3125-.175781-.625-.34375-.949218-.503906-6.746094-3.34375-14.664063-2.589844-20.664063 1.972656-24.359375 18.535156-68.753906 52.402344-68.761719 52.40625-21.261718 16.246094-33.957031 41.921875-33.957031 68.679688 0 22.980468 9.386719 45.417968 25.734375 61.53125l34.054688 33.75c6.992187 6.929687 11.011718 16.554687 11.019531 26.402343l.058594 54.6875c.007812 8.277344-4.8125 15.925781-12.285157 19.484375l-60.457031 28.824219c-20.546875 9.796875-29.859375 33.960937-21.203125 55.011719 1.101563 2.679687 2.453125 5.210937 4.023438 7.566406h-102.589844c-5.523438 0-10 4.476562-10 10s4.476562 10 10 10h455c5.523438 0 10-4.476562 10-10s-4.476562-10-10-10zm-151.753906-267.605469-10.832032 10.675781c.457032-2.628906.710938-5.332031.710938-8.089843v-6.257813c0-25.988281-21.144531-47.132812-47.132812-47.132812-25.988282 0-47.132813 21.144531-47.132813 47.132812v6.257813c0 2.773437.253906 5.492187.71875 8.136719l-10.878906-10.722657c-5.226563-5.152343-8.222657-12.316406-8.222657-19.652343 0-8.546876 4.054688-16.742188 10.84375-21.929688l44.050782-33.660156c4.082031-3.117188 7.640625-6.808594 10.601562-10.914063 2.964844 4.105469 6.523438 7.792969 10.605469 10.914063l44.050781 33.660156c6.789063 5.183594 10.84375 13.382812 10.84375 21.925781 0 7.339844-3 14.503907-8.226562 19.65625zm-30.121094 2.585938c0 14.957031-12.171875 27.128906-27.132812 27.128906-14.960938 0-27.132813-12.167969-27.132813-27.128906v-6.257813c0-14.960937 12.171875-27.132812 27.132813-27.132812 14.960937 0 27.132812 12.171875 27.132812 27.132812zm-144.746094 220.496093 60.453125-28.824218c14.398438-6.863282 23.695313-21.605469 23.679688-37.558594l-.058594-54.691406c-.015625-15.136719-6.191406-29.929688-16.945313-40.585938l-34.070312-33.765625c-12.578125-12.402343-19.792969-29.644531-19.792969-47.308593 0-20.566407 9.757813-40.300782 26.09375-52.78125 0 0 43.777344-33.402344 68.253907-52.023438.074218 1.230469.375 2.398438.855468 3.46875-.558594 1.246094-.875 2.621094-.875 4.074219 0 10.046875-4.761718 19.683593-12.742187 25.78125l-44.054688 33.660156c-11.707031 8.945313-18.699219 23.082031-18.699219 37.820313 0 12.65625 5.171876 25.011718 14.183594 33.894531l14.648438 14.4375c15.199218 14.984375 35.324218 23.234375 56.664062 23.234375 21.34375 0 41.46875-8.25 56.667969-23.234375l14.648437-14.4375c9.011719-8.882813 14.183594-21.238281 14.183594-33.894531 0-14.738282-6.992187-28.875-18.703125-37.820313l-44.050781-33.660156c-7.980469-6.101563-12.746094-15.734375-12.746094-25.78125 0-1.453125-.316406-2.828125-.871094-4.074219.476563-1.070312.78125-2.238281.855469-3.46875 24.453125 18.601562 68.253907 52.019531 68.246094 52.015625 16.34375 12.488281 26.101563 32.21875 26.101563 52.789063 0 17.664062-7.214844 34.90625-19.808594 47.320312l-33.902344 33.558594c-10.75 10.636718-16.9375 25.414062-16.972656 40.539062l-.125 54.894532c-.035156 15.972656 9.257812 30.734374 23.675781 37.609374l59.878906 28.546876c11.273438 5.375 16.386719 18.632812 11.636719 30.183593-4.851562 11.800781-18.019531 17.554688-29.976562 13.097657l-76.847657-28.648438h27.5625c5.523438 0 10-4.480469 10-10 0-5.523438-4.476562-10-10-10h-32.695312c-1.320313 0-2.628907.261719-3.847657.769531l-111.855468 46.632813c-5.660156 2.359375-11.898438 2.367187-17.5625.019531-5.667969-2.351563-10.070313-6.765625-12.402344-12.4375-4.621094-11.230469.347656-24.125 11.316406-29.351563zm110.804688 25.019532 52.316406 19.503906h-99.101562zm0 0"/><path d="m256.5 67c5.523438 0 10-4.476562 10-10v-47c0-5.523438-4.476562-10-10-10s-10 4.476562-10 10v47c0 5.523438 4.476562 10 10 10zm0 0"/><path d="m132.554688 93.363281c1.953124 1.953125 4.511718 2.929688 7.070312 2.929688s5.117188-.976563 7.070312-2.929688c3.90625-3.90625 3.90625-10.238281 0-14.140625l-36.707031-36.710937c-3.90625-3.902344-10.234375-3.902344-14.144531 0-3.90625 3.90625-3.90625 10.238281 0 14.144531zm0 0"/><path d="m78.289062 34.960938c2.640626 0 5.210938-1.070313 7.070313-2.929688 1.871094-1.859375 2.929687-4.441406 2.929687-7.070312 0-2.632813-1.058593-5.210938-2.929687-7.070313-1.859375-1.859375-4.429687-2.929687-7.070313-2.929687-2.628906 0-5.210937 1.070312-7.070312 2.929687s-2.929688 4.4375-2.929688 7.070313c0 2.640624 1.070313 5.210937 2.929688 7.070312 1.863281 1.859375 4.441406 2.929688 7.070312 2.929688zm0 0"/><path d="m369.59375 100.074219c2.558594 0 5.121094-.976563 7.070312-2.929688l53.441407-53.441406c3.90625-3.902344 3.90625-10.234375 0-14.140625s-10.238281-3.90625-14.144531 0l-53.4375 53.441406c-3.90625 3.902344-3.90625 10.234375 0 14.140625 1.953124 1.953125 4.511718 2.929688 7.070312 2.929688zm0 0"/><path d="m31.914062 213.167969h65.171876c5.519531 0 10-4.476563 10-10 0-5.523438-4.480469-10-10-10h-65.171876c-5.519531 0-10 4.476562-10 10 0 5.523437 4.480469 10 10 10zm0 0"/><path d="m481.085938 193.167969h-65.171876c-5.519531 0-10 4.476562-10 10 0 5.523437 4.480469 10 10 10h65.171876c5.519531 0 10-4.476563 10-10 0-5.523438-4.480469-10-10-10zm0 0"/></svg>