<svg id="Capa_1" enable-background="new 0 0 512 512" height="512" viewBox="0 0 512 512" width="512" xmlns="http://www.w3.org/2000/svg"><g><path d="m363.558 177c-14.57 25.39-26.87 56.05-33.27 87.75-1.88 9.27-3.25 18.62-4.03 27.96-.45 5.45-1.09 10.29-1.88 14.61-2.46 13.45-6.4 21.88-10.81 27.88-11.04 15.06-24.97 14.78-25.61 39.82v129.48h-110.25v-129.48c-.89-11.91-19.87-21.98-27.1-31.41-3.56-4.64-6.13-9.69-7.71-14.93-1.29-4.28-1.94-8.68-1.94-13.11v-216.19c0-10.15 8.22-18.37 18.37-18.37 5.07 0 9.67 2.05 13 5.38 3.32 3.32 5.38 7.91 5.38 12.99v-55.13c0-10.15 8.23-18.37 18.37-18.37 5.08 0 9.67 2.06 13 5.38 3.32 3.32 5.38 7.92 5.38 12.99v-18.37c0-10.15 8.23-18.38 18.38-18.38 5.07 0 9.66 2.06 12.99 5.38 3.32 3.33 5.38 7.92 5.38 13v36.75c0-5.07 2.06-9.67 5.38-13 3.33-3.32 7.93-5.38 13-5.38s9.67 2.06 12.99 5.38c3.32 3.33 5.38 7.93 5.38 13l-.007 131.73c.05 8.27 11.037 10.96 15.237 3.83 11.68-19.85 23.93-40.81 45.43-52.87 17.02-9.55 32 1.96 14.94 31.68z" fill="#fed2a4"/><g fill="#ffbd86"><path d="m206.088 28.84c-5.04 3.27-8.38 8.95-8.38 15.41v137.01c0 5.523-4.477 10-10 10-5.523 0-10-4.477-10-10v-137.01c0-10.15 8.23-18.37 18.37-18.37 3.7 0 7.13 1.09 10.01 2.96z"/><path d="m279.588 47.21c-5.04 3.27-8.38 8.96-8.38 15.42v118.63c0 5.523-4.477 10-10 10-5.523 0-10-4.477-10-10v-118.153c0-10.117 7.972-18.697 18.088-18.854 3.8-.06 7.346 1.038 10.292 2.957z"/><path d="m242.838 10.46c-5.04 3.27-8.38 8.96-8.38 15.42v155.38c0 5.523-4.477 10-10 10-5.523 0-10-4.477-10-10v-154.906c0-10.146 8.019-18.737 18.165-18.853 3.771-.043 7.279 1.053 10.215 2.959z"/><path d="m197.708 375.02v129.48h-20v-129.48c-.89-11.91-19.87-21.98-27.1-31.41-3.56-4.64-6.13-9.69-7.71-14.93-1.29-4.28-1.94-8.68-1.94-13.11v-216.19c0-10.15 8.22-18.37 18.37-18.37 3.69 0 7.13 1.08 10 2.96-5.04 3.27-8.37 8.95-8.37 15.41v216.19c0 1.04.04 2.09.11 3.13.23 3.37.84 6.71 1.83 9.98 1.58 5.24 4.15 10.29 7.71 14.93 6.07 7.91 20.43 16.28 25.39 25.82.04.07.08.13.11.2.89 1.75 1.46 3.55 1.6 5.39z"/><path d="m368.188 145.57c-21.24 12.09-33.4 32.9-45 52.62-4.2 7.13-15.161 4.752-15.211-3.518l-.019-4.542c10.38-17.27 22.06-34.37 40.66-44.81 8.03-4.51 15.61-4.32 19.57.25z"/></g><path d="m177.706 444.833 110.255 33.834-.003-30.147-110.25-36.75z" fill="#f2fbff"/><path d="m197.708 418.44v32.53l-20-6.14v-33.06z" fill="#dff6fd"/><path d="m324.378 307.32c-2.46 13.45-6.4 21.88-10.81 27.88l-135.86 39.82c-.89-11.91-19.87-21.98-27.1-31.41-3.56-4.64-6.13-9.69-7.71-14.93l66.53-36.53z" fill="#f2fbff"/><path d="m196.108 369.63-18.4 5.39c-.89-11.91-19.87-21.98-27.1-31.41-3.56-4.64-6.13-9.69-7.71-14.93l18.17-9.98c.23 3.37.84 6.71 1.83 9.98 1.58 5.24 4.15 10.29 7.71 14.93 6.11 7.97 20.63 16.4 25.5 26.02z" fill="#dff6fd"/><path d="m313.568 335.2c-11.04 15.06-24.97 14.78-25.61 39.82v73.5l-110.25-36.75v-36.75z" fill="#c8effe"/><path d="m197.708 375.02v43.42l-20-6.67v-36.75l18.29-5.59c.04.07.08.13.11.2.89 1.75 1.46 3.55 1.6 5.39z" fill="#99e6fc"/><path d="m209.428 292.15-66.53 36.53c-1.29-4.28-1.94-8.68-1.94-13.11v-32.43z" fill="#c8effe"/><path d="m161.068 318.7-18.17 9.98c-1.29-4.28-1.94-8.68-1.94-13.11v-32.43l20 2.63v29.8c0 1.04.04 2.09.11 3.13z" fill="#99e6fc"/><path d="m330.288 264.75c-1.88 9.27-3.25 18.62-4.03 27.96-.45 5.45-1.09 10.29-1.88 14.61l-1.47-.23-181.95-23.95h-.01v-36.75h.01l154.21-42.48c-27.35 14.41-45.39 29.83-43.96 60.84z" fill="#f2fbff"/><path d="m160.958 240.88v44.89l-20-2.63h-.01v-36.75h.01z" fill="#dff6fd"/><g><path d="m373.093 139.824c-6.612-6.675-17.396-7.077-28.174-1.028-21.753 12.352-34.825 34.232-47.756 54.846-.878 1.4-1.837 1.067-1.705-.782v-58.76c0-4.143-3.357-7.5-7.5-7.5s-7.5 3.357-7.5 7.5v60.261c.187 1.872.571 3.706 1.15 5.502l-133.15 36.681v-28.944c0-4.143-3.358-7.5-7.5-7.5s-7.5 3.357-7.5 7.5v107.97c.16 36.18 36.66 47.93 36.75 59.795v129.135c0 4.143 3.358 7.5 7.5 7.5s7.5-3.357 7.5-7.5v-49.52l45.102 13.841-30.587 30.356c-2.94 2.918-2.958 7.666-.04 10.606 3.53 2.942 7.065 2.956 10.606.04l36.286-36.011 33.883 10.398v20.29c0 4.143 3.357 7.5 7.5 7.5s7.5-3.357 7.5-7.5v-129.382c.362-13.377 4.639-16.956 11.711-22.877 10.376-8.686 23.288-19.494 26.563-58.91 3.044-36.632 16.286-77.672 36.331-112.598 14.42-25.122 6.922-36.978 3.03-40.909zm-115.448 82.198c-9.14 10.679-14.793 24.334-13.928 43.081.184 3.99 3.61 7.243 7.662 7.15h69.888c-1.253 8.858-2.316 17.737-3.189 26.638l-169.621-22.329v-24.462zm-109.187 69.67 37.29 4.909-37.259 20.457c-.02-.495-.031-25.366-.031-25.366zm3.809 40.404 58.62-32.186 104.413 13.745c-2.14 7.637-5.515 13.303-6.233 13.372l-62.44 19.08c-3.961 1.211-6.191 5.403-4.98 9.364 2.433 4.422 5.554 6.082 9.364 4.981l38.035-11.623c-4.605 5.54-8.256 13.188-8.584 25.997-.002.064-.003.128-.003.192v63.094l-95.25-31.746v-25.799l34.542-10.557c3.961-1.211 6.191-5.403 4.98-9.365-1.21-3.96-5.403-6.189-9.365-4.98l-32.862 10.044c-8.136-13.709-23.386-16.709-30.237-33.613zm32.941 107.194v-17.114l95.25 31.75v14.594zm171.846-266.023c-15.186 26.46-26.432 55.38-32.857 83.987h-65.418c1.639-22.964 17.266-35.316 44.408-49.037 2.669-1.35 5.196-4.611 6.902-6.964 3.545-6.021 7.21-12.245 11.119-18.127 9.616-14.499 18.648-23.819 29.31-30.232.597-.362 1.194-.705 1.771-1.032 4.901-2.751 8.815-2.825 10.146-1.482 1.973 1.992 2.169 9.732-5.381 22.887z"/><path d="m140.958 182.42c4.142 0 7.5-3.357 7.5-7.5v-75.54c.623-6.627 4.246-10.251 10.87-10.87 5.994 0 10.871 4.868 10.879 10.856 0 .005-.001.01-.001.015v91.879c0 4.143 3.358 7.5 7.5 7.5s7.5-3.357 7.5-7.5v-91.851c0-.01.001-.019.001-.029v-55.13c.62-6.624 4.243-10.247 10.87-10.87 5.999 0 10.88 4.876 10.88 10.87v.002s0 .001 0 .002v147.006c0 4.143 3.358 7.5 7.5 7.5s7.5-3.357 7.5-7.5v-147.006c0-.001 0-.001 0-.002s0-.001 0-.002v-18.37c.616-6.634 4.243-10.261 10.88-10.88 5.994 0 10.87 4.881 10.87 10.88v36.75c0 .01.001.019.001.029v128.601c0 4.143 3.358 7.5 7.5 7.5s7.501-3.357 7.501-7.5v-128.631c0-5.501 5.5-10.879 10.878-10.879 5.994 0 10.87 4.881 10.87 10.88v38.78c0 4.143 3.357 7.5 7.5 7.5s7.5-3.357 7.5-7.5v-38.78c0-14.271-11.605-25.88-25.87-25.88-3.817 0-7.511.822-10.88 2.385v-13.255c0-14.271-11.605-25.88-25.87-25.88-13.788 1.156-22.262 8.155-25.423 20.997-15.591-7.627-37.208 5.292-37.208 23.253v31.658c-15.538-7.227-36.75 5.748-36.75 23.472v75.54c.002 4.143 3.36 7.5 7.502 7.5z"/></g></g></svg>