<svg id="Capa_1" enable-background="new 0 0 512 512" height="512" viewBox="0 0 512 512" width="512" xmlns="http://www.w3.org/2000/svg"><g><path d="m481.656 444.869h-15.283c-38.833 0-58.675-26.203-73.164-45.337-13.55-17.892-21.337-27.229-36.738-27.229-15.403 0-23.19 9.337-36.74 27.229-14.489 19.134-34.332 45.337-73.163 45.337h-35.644c-12.617 0-22.845-10.228-22.845-22.845s10.228-22.845 22.845-22.845h35.644c15.401 0 23.189-9.337 36.738-27.229 14.489-19.134 34.332-45.337 73.164-45.337s58.674 26.203 73.163 45.337c13.55 17.892 21.337 27.229 36.74 27.229h15.283c12.617 0 22.845 10.228 22.845 22.845-.001 12.617-10.229 22.845-22.845 22.845z" fill="#eaaadd"/><path d="m335.027 372.303c-15.403 0-23.19 9.337-36.74 27.229-14.489 19.133-34.332 45.337-73.163 45.337h21.443c38.832 0 58.674-26.203 73.163-45.337 10.018-13.229 16.893-21.766 26.018-25.325-3.217-1.254-6.707-1.904-10.721-1.904z" fill="#dd4fb1"/><path d="m481.656 399.18h-15.283c-15.403 0-23.19-9.337-36.74-27.229-14.489-19.133-34.332-45.337-73.163-45.337-3.748 0-7.315.249-10.722.708 31.887 4.29 49.351 27.342 62.442 44.629 13.55 17.892 21.337 27.229 36.74 27.229h15.283c12.617 0 22.845 10.228 22.845 22.845 0 11.907-9.113 21.677-20.744 22.738 1.331.065 2.68.106 4.059.106h15.283c12.617 0 22.845-10.228 22.845-22.845-.001-12.616-10.229-22.844-22.845-22.844z" fill="#dd4fb1"/><g><g><path d="m297.151 467.994h-219.924c-21.806 0-39.483-17.677-39.483-39.483v-337.789h298.891v337.788c0 21.806-17.678 39.484-39.484 39.484z" fill="#e4f6ff"/></g><path d="m315.727 90.722h-277.984v40.875h245.636c17.865 0 32.348 14.483 32.348 32.348v264.565c0 21.806-17.677 39.483-39.483 39.483h20.908c21.806 0 39.483-17.677 39.483-39.483v-296.913-40.875z" fill="#bed8fb"/></g><path d="m351.169 44.007h-327.96c-8.676 0-15.709 7.033-15.709 15.709v35.298c0 8.676 7.033 15.709 15.709 15.709h327.96c8.676 0 15.709-7.033 15.709-15.709v-35.298c0-8.676-7.033-15.709-15.709-15.709z" fill="#80b4fb"/><path d="m351.169 44.007h-20.908c8.676 0 15.709 7.033 15.709 15.709v35.298c0 8.676-7.033 15.709-15.709 15.709h20.908c8.676 0 15.709-7.033 15.709-15.709v-35.298c0-8.676-7.033-15.709-15.709-15.709z" fill="#61a2f9"/><path d="m245.503 261.323h-26.125c-2.294 0-4.154-1.86-4.154-4.154v-26.125c0-5.558-4.506-10.063-10.063-10.063h-35.943c-5.558 0-10.064 4.506-10.064 10.064v26.125c0 2.294-1.86 4.154-4.154 4.154h-26.125c-5.558 0-10.064 4.506-10.064 10.064v35.943c0 5.558 4.506 10.063 10.063 10.063h26.126c2.294 0 4.154 1.86 4.154 4.154v26.125c0 5.558 4.506 10.064 10.064 10.064h35.943c5.558 0 10.064-4.506 10.064-10.064v-26.125c0-2.294 1.86-4.154 4.154-4.154h26.125c5.558 0 10.064-4.506 10.064-10.064v-35.943c-.001-5.559-4.507-10.064-10.065-10.064z" fill="#80b4fb"/><path d="m445.843 467.994h-15.283c-38.833 0-58.675-26.203-73.164-45.337-13.55-17.892-21.337-27.229-36.738-27.229-15.403 0-23.19 9.337-36.74 27.229-14.489 19.134-34.332 45.337-73.163 45.337h-35.645c-12.617 0-22.845-10.228-22.845-22.845s10.228-22.845 22.845-22.845h35.644c15.401 0 23.189-9.337 36.738-27.229 14.489-19.134 34.332-45.337 73.164-45.337s58.674 26.203 73.163 45.337c13.55 17.892 21.337 27.229 36.74 27.229h15.283c12.617 0 22.845 10.228 22.845 22.845s-10.228 22.845-22.844 22.845z" fill="#eaaadd"/><path d="m299.214 395.428c-15.403 0-23.19 9.337-36.74 27.229-14.489 19.133-34.332 45.337-73.163 45.337h21.443c38.832 0 58.674-26.203 73.163-45.337 10.018-13.229 16.893-21.766 26.018-25.325-3.217-1.255-6.707-1.904-10.721-1.904z" fill="#dd4fb1"/><path d="m445.843 422.304h-15.283c-15.403 0-23.19-9.337-36.74-27.229-14.489-19.133-34.332-45.337-73.163-45.337-3.748 0-7.315.249-10.722.708 31.887 4.29 49.351 27.342 62.442 44.629 13.55 17.892 21.337 27.229 36.74 27.229h15.283c12.617 0 22.845 10.228 22.845 22.845 0 11.907-9.113 21.677-20.744 22.738 1.331.065 2.68.106 4.059.106h15.283c12.617 0 22.845-10.228 22.845-22.845s-10.229-22.844-22.845-22.844z" fill="#dd4fb1"/><g><path d="m33.335 70.107v14.515c0 4.143 3.357 7.5 7.5 7.5s7.5-3.357 7.5-7.5v-14.515c0-4.143-3.357-7.5-7.5-7.5s-7.5 3.358-7.5 7.5z"/><path d="m90.15 84.622v-14.515c0-4.143-3.357-7.5-7.5-7.5s-7.5 3.357-7.5 7.5v14.515c0 4.143 3.357 7.5 7.5 7.5s7.5-3.357 7.5-7.5z"/><path d="m131.966 84.622v-14.515c0-4.143-3.357-7.5-7.5-7.5s-7.5 3.357-7.5 7.5v14.515c0 4.143 3.357 7.5 7.5 7.5s7.5-3.357 7.5-7.5z"/><path d="m173.781 84.622v-14.515c0-4.143-3.357-7.5-7.5-7.5s-7.5 3.357-7.5 7.5v14.515c0 4.143 3.357 7.5 7.5 7.5s7.5-3.357 7.5-7.5z"/><path d="m215.597 84.622v-14.515c0-4.143-3.357-7.5-7.5-7.5s-7.5 3.357-7.5 7.5v14.515c0 4.143 3.357 7.5 7.5 7.5s7.5-3.357 7.5-7.5z"/><path d="m257.412 84.622v-14.515c0-4.143-3.357-7.5-7.5-7.5s-7.5 3.357-7.5 7.5v14.515c0 4.143 3.357 7.5 7.5 7.5s7.5-3.357 7.5-7.5z"/><path d="m299.229 84.622v-14.515c0-4.143-3.357-7.5-7.5-7.5s-7.5 3.357-7.5 7.5v14.515c0 4.143 3.357 7.5 7.5 7.5s7.5-3.357 7.5-7.5z"/><path d="m341.044 84.622v-14.515c0-4.143-3.357-7.5-7.5-7.5s-7.5 3.357-7.5 7.5v14.515c0 4.143 3.357 7.5 7.5 7.5s7.5-3.357 7.5-7.5z"/><path d="m205.161 213.48h-35.943c-9.685 0-17.563 7.879-17.563 17.563v22.778h-22.779c-9.686 0-17.564 7.879-17.564 17.564v35.942c0 9.685 7.879 17.563 17.563 17.563h22.78v22.779c0 9.686 7.879 17.564 17.563 17.564h35.942c9.686 0 17.564-7.879 17.564-17.564v-22.779h22.778c9.686 0 17.564-7.879 17.564-17.563v-35.942c0-9.686-7.879-17.564-17.564-17.564h-22.778v-22.779c.001-9.683-7.878-17.562-17.563-17.562zm40.342 55.342c1.414 0 2.564 1.15 2.564 2.564v35.942c0 1.413-1.15 2.563-2.564 2.563h-26.124c-6.426 0-11.654 5.229-11.654 11.654v26.125c0 1.414-1.15 2.564-2.564 2.564h-35.942c-1.413 0-2.563-1.15-2.563-2.564v-26.125c0-6.426-5.229-11.654-11.654-11.654h-26.126c-1.413 0-2.563-1.15-2.563-2.563v-35.942c0-1.414 1.15-2.564 2.564-2.564h26.123c6.426 0 11.654-5.229 11.654-11.654v-26.124c0-1.413 1.15-2.563 2.563-2.563h35.943c1.413 0 2.563 1.149 2.563 2.562v26.125c0 6.426 5.229 11.654 11.654 11.654z"/><path d="m481.655 391.68h-15.283c-11.376 0-17.152-6.288-30.76-24.257-22.134-29.228-42.261-48.31-79.143-48.31-4.194 0-8.315.299-12.335.872v-201.762h7.034c12.798 0 23.209-10.411 23.209-23.209v-35.298c0-12.798-10.411-23.209-23.209-23.209h-270.259c-4.143 0-7.5 3.357-7.5 7.5s3.357 7.5 7.5 7.5h270.26c4.526 0 8.209 3.683 8.209 8.209v35.298c0 4.526-3.683 8.209-8.209 8.209h-327.96c-4.526 0-8.209-3.683-8.209-8.209v-35.298c0-4.526 3.683-8.209 8.209-8.209h27.714c4.143 0 7.5-3.357 7.5-7.5s-3.357-7.5-7.5-7.5h-27.714c-12.798 0-23.209 10.411-23.209 23.209v35.298c0 12.798 10.411 23.209 23.209 23.209h7.034v239.087c0 4.143 3.357 7.5 7.5 7.5s7.5-3.357 7.5-7.5v-239.087h283.892v210.917 13.509c-2.735-.262-5.553-.411-8.478-.411-37.414 0-58.399 20.914-79.145 48.31-13.607 17.969-19.384 24.257-30.759 24.257h-35.643c-16.732 0-30.345 13.612-30.345 30.345 0 5.596 1.529 10.839 4.182 15.345h-71.72c-17.636 0-31.984-14.348-31.984-31.983v-41.213c0-4.143-3.357-7.5-7.5-7.5s-7.5 3.357-7.5 7.5v41.213c0 25.907 21.077 46.983 46.984 46.983h219.924c25.906 0 46.983-21.076 46.983-46.983v-10.683c2.19 2.689 4.58 5.79 7.282 9.358 24.266 32.043 34.382 35.904 51.521 43.694 4.238 1.87 15.792 4.613 27.622 4.613h.531c4.143 0 7.5-3.357 7.5-7.5s-3.357-7.5-7.5-7.5h-.531c-5.09 0-9.806-.507-14.21-1.409l12.949-29.307c1.824.053-.362.012 16.545.027 8.461 0 15.345 6.884 15.345 15.345 0 4.354-1.864 8.521-5.113 11.433-3.086 2.764-3.346 7.505-.582 10.59 2.764 3.087 7.507 3.348 10.59.582 4.592-4.113 7.774-9.5 9.22-15.384h6.353c16.732 0 30.345-13.612 30.345-30.345s-13.613-30.346-30.346-30.346zm-31.371 11.413-5.174 11.711h-14.55c-10.149 0-15.846-5.012-26.616-18.848l13.718-27.273c2.082 2.636 4.07 5.257 5.991 7.795 8.797 11.616 16.322 21.55 26.631 26.615zm-43.253-46.656-13.232 26.307c-5.558-7.032-11.303-13.546-18.081-19.469l5.349-24.688c10.441 4.085 18.831 10.578 25.964 17.85zm-62.896-21.277c3.976-.696 8.104-1.047 12.335-1.047 3.529 0 6.875.248 10.068.694l-4.066 18.767c-5.499-3.295-11.582-6.07-18.336-8.052v-10.362zm-30.978 22.466v31.008c-12.355 2.412-20.663 10.838-29.331 21.822l-19.472-24.609c11.534-13.451 26.291-25.929 48.803-28.221zm-58.394 40.272 19.66 24.846c-10.398 13.524-23.028 28.184-42.542 34.524l-10.816-28.834c14.343-4.06 23.391-16.953 33.698-30.536zm-79.653 62.595c-8.461 0-15.345-6.884-15.345-15.345s6.884-15.345 15.345-15.345h30.446l11.415 30.432c-2.011.167-4.081.258-6.218.258zm122.041 0h-38.968c14.024-9.958 23.932-23.034 31.712-33.309 13.608-17.969 19.386-24.257 30.762-24.257 3.162 0 5.892.488 8.478 1.576v24.006c0 17.637-14.348 31.984-31.984 31.984zm31.006-71.859v-31.008c2.378.242 4.671.596 6.882 1.055.064.014.128.026.192.038 10.762 2.268 19.596 6.972 27.118 12.86.273.252.562.488.873.699 2.826 2.277 5.471 4.711 7.958 7.246l-15.057 29.227c-8.187-10.145-16.26-17.832-27.966-20.117zm73.887 65.709c-15.803-7.446-26.652-20.481-35.815-32.458l15.544-30.173c2.109 2.668 4.121 5.322 6.066 7.89 8.797 11.616 16.322 21.55 26.632 26.614zm79.611-16.974h-6.483c-2.194-8.266-7.798-15.154-15.208-19.067l5.146-11.649c1.824.053-.362.012 16.545.027 8.461 0 15.345 6.884 15.345 15.345s-6.884 15.344-15.345 15.344z"/></g></g></svg>