<svg id="Layer_1" height="512" viewBox="0 0 512 512" width="512" xmlns="http://www.w3.org/2000/svg" data-name="Layer 1"><path d="m385.637 250h64.369v12h-64.369z" fill="#b0b5ca"/><path d="m444.609 354.448h-11.383a30.5 30.5 0 0 1 -30.464-30.463 18.485 18.485 0 0 0 -18.462-18.463h-5.552v-12h5.552a30.5 30.5 0 0 1 30.463 30.463 18.484 18.484 0 0 0 18.464 18.463h11.383z" fill="#b0b5ca"/><path d="m384.3 218.478h-6.452v-12h6.452a18.485 18.485 0 0 0 18.463-18.463 30.5 30.5 0 0 1 30.464-30.463h11.383v12h-11.384a18.484 18.484 0 0 0 -18.464 18.463 30.5 30.5 0 0 1 -30.462 30.463z" fill="#b0b5ca"/><path d="m495.208 234.774a30.018 30.018 0 1 0 -42.452 42.452 30.018 30.018 0 1 0 42.451-42.452z" fill="#f3ce7d"/><path d="m468.585 318.431a30.018 30.018 0 1 0 21.226 8.792 29.817 29.817 0 0 0 -21.226-8.792z" fill="#5fcda4"/><path d="m468.585 193.569a30.018 30.018 0 1 0 -21.226-8.792 29.823 29.823 0 0 0 21.226 8.792z" fill="#5fcda4"/><path d="m61.994 250h64.444v12h-64.444z" fill="#b0b5ca"/><path d="m78.774 354.448h-11.383v-12h11.383a18.484 18.484 0 0 0 18.464-18.463 30.5 30.5 0 0 1 30.462-30.463h6.552v12h-6.552a18.485 18.485 0 0 0 -18.463 18.463 30.5 30.5 0 0 1 -30.463 30.463z" fill="#b0b5ca"/><path d="m134.153 218.478h-6.453a30.5 30.5 0 0 1 -30.463-30.463 18.484 18.484 0 0 0 -18.464-18.463h-11.382v-12h11.383a30.5 30.5 0 0 1 30.464 30.463 18.485 18.485 0 0 0 18.462 18.463h6.452z" fill="#b0b5ca"/><path d="m16.791 234.774a30.018 30.018 0 0 0 42.452 42.452 30.018 30.018 0 0 0 -42.453-42.452z" fill="#f3ce7d"/><path d="m43.415 318.431a30.018 30.018 0 1 0 21.226 8.792 29.823 29.823 0 0 0 -21.226-8.792z" fill="#5fcda4"/><path d="m43.415 133.534a30.018 30.018 0 1 0 21.226 8.792 29.823 29.823 0 0 0 -21.226-8.792z" fill="#5fcda4"/><path d="m268.95 124.65a131.987 131.987 0 1 1 -144.3 118.4 131.976 131.976 0 0 1 144.3-118.4z" fill="#6994fe"/><path d="m294.16 194.97a26.364 26.364 0 0 1 37.04 32.88 18.835 18.835 0 0 1 4.36 34.3 26.343 26.343 0 0 1 -6.47 47.82v9.57a19.746 19.746 0 0 1 -31.46 15.91 19.759 19.759 0 0 1 -34.39-13.27v-135.65a16.465 16.465 0 1 1 30.77 8.16z" fill="#e87187"/><path d="m182.91 309.97a26.343 26.343 0 0 1 -6.47-47.82 18.848 18.848 0 0 1 4.36-34.3 26.356 26.356 0 0 1 37.04-32.88l.15-.28a16.466 16.466 0 1 1 30.77-8.16v135.65a19.759 19.759 0 0 1 -34.39 13.27 19.746 19.746 0 0 1 -31.46-15.91z" fill="#e87187"/><path d="m154.65 243.05a132.02 132.02 0 0 1 116.216-118.187c-.638-.072-1.274-.15-1.916-.213a131.987 131.987 0 1 0 2.184 262.487 131.97 131.97 0 0 1 -116.484-144.087z" fill="#597ec6"/><g fill="#af586a"><path d="m287.01 267.944a6.74 6.74 0 0 1 3.652 6.88 6 6 0 0 0 11.9 1.565 18.7 18.7 0 0 0 -9.626-18.864 6.629 6.629 0 0 1 1.254-5.8 6 6 0 1 0 -9.361-7.507 18.562 18.562 0 0 0 -3.635 7.517 18.784 18.784 0 0 0 -.457 3.794 19.159 19.159 0 0 0 -2.632.644 18.723 18.723 0 0 0 -5.069 2.584 6 6 0 1 0 7.012 9.738 6.75 6.75 0 0 1 1.826-.929 6.677 6.677 0 0 1 5.136.378z"/><path d="m282.751 223.6a15.841 15.841 0 0 0 2.1.585c.05.41.1.82.184 1.231a15.912 15.912 0 0 0 1.662 4.538 6 6 0 1 0 10.51-5.79 3.919 3.919 0 0 1 2.653-5.726 3.857 3.857 0 0 1 1.74.043 6 6 0 0 0 2.98-11.624 15.865 15.865 0 0 0 -16.515 5.691 3.918 3.918 0 0 1 -1.244-.235 3.872 3.872 0 0 1 -1.463-.936 6 6 0 1 0 -8.582 8.387 15.761 15.761 0 0 0 5.975 3.836z"/><path d="m310.13 307.265a9.428 9.428 0 0 1 2.081-10.227 6 6 0 1 0 -8.481-8.49 21.448 21.448 0 0 0 -4.55 6.714 9.441 9.441 0 0 1 -8.744-1.084 6 6 0 1 0 -6.881 9.831 21.26 21.26 0 0 0 8.858 3.591 21.494 21.494 0 0 0 3.436.276c.665 0 1.328-.042 1.988-.1a21.28 21.28 0 0 0 4.5 9.6 6 6 0 1 0 9.256-7.638 9.382 9.382 0 0 1 -1.463-2.473z"/><path d="m238.965 258.758a18.745 18.745 0 0 0 -5.07-2.585 19 19 0 0 0 -2.631-.643 18.765 18.765 0 0 0 -.457-3.792 18.557 18.557 0 0 0 -3.635-7.519 6 6 0 1 0 -9.361 7.507 6.633 6.633 0 0 1 1.254 5.8 18.7 18.7 0 0 0 -9.626 18.864 6 6 0 0 0 11.9-1.565 6.732 6.732 0 0 1 8.787-7.258 6.765 6.765 0 0 1 1.828.93 6 6 0 1 0 7.012-9.738z"/><path d="m208.4 219.476a3.846 3.846 0 0 1 1.741-.042 3.918 3.918 0 0 1 2.652 5.725 6 6 0 1 0 10.51 5.79 15.907 15.907 0 0 0 1.662-4.539c.083-.411.134-.821.184-1.23a15.584 15.584 0 0 0 8.075-4.421 6 6 0 1 0 -8.582-8.387 3.943 3.943 0 0 1 -2.707 1.17 15.865 15.865 0 0 0 -16.515-5.69 6 6 0 0 0 2.98 11.624z"/><path d="m222.564 294.178a9.441 9.441 0 0 1 -8.744 1.084 21.448 21.448 0 0 0 -4.55-6.714 6 6 0 1 0 -8.481 8.49 9.457 9.457 0 0 1 .616 12.694 6 6 0 0 0 9.256 7.638 21.28 21.28 0 0 0 4.5-9.6c.661.062 1.323.1 1.989.1a21.491 21.491 0 0 0 3.435-.276 21.26 21.26 0 0 0 8.858-3.591 6 6 0 1 0 -6.881-9.831z"/></g><path d="m232.975 153.917a6 6 0 0 1 -1.186-11.881c1.966-.4 3.976-.752 5.971-1.049a6 6 0 1 1 1.771 11.868c-1.792.268-3.594.584-5.359.942a6.052 6.052 0 0 1 -1.197.12z" fill="#f4f8fc"/><path d="m164.756 198.064a6 6 0 0 1 -4.864-9.506 117.663 117.663 0 0 1 49.389-39.533 6 6 0 0 1 4.7 11.042 105.671 105.671 0 0 0 -44.35 35.5 5.993 5.993 0 0 1 -4.875 2.497z" fill="#f4f8fc"/></svg>