<svg id="Capa_1" enable-background="new 0 0 512 512" height="512" viewBox="0 0 512 512" width="512" xmlns="http://www.w3.org/2000/svg"><g><path d="m256 471.027c8.376 8.292 18.481 13.11 27.346 17.329 14.597 6.947 22.371 11.154 25.718 23.645l28.978-7.764c-3.346-12.487 1.291-20.022 10.474-33.346 5.572-8.083 11.916-17.304 14.997-28.672l-14.785-115.609-92.728-70.61-30 107.5z" fill="#0bcc63"/><path d="m363.513 442.219c11.4 2.993 22.559 2.113 32.347 1.334 16.115-1.282 24.951-1.526 34.095 7.618l21.213-21.213c-9.141-9.141-8.893-17.985-7.602-34.115.784-9.786 1.668-20.944-1.348-32.329l-70.609-92.728-115.609-14.786z" fill="#1aaa6c"/><path d="m442.219 363.513c11.369-3.108 20.594-9.45 28.68-15.018 13.315-9.168 20.845-13.797 33.336-10.45l7.765-28.978c-12.487-3.346-16.694-11.129-23.641-25.744-4.215-8.867-9.028-18.972-17.332-27.324l-107.513-45-107.514 45.001z" fill="#0bcc63"/><path d="m471.027 256c8.292-8.376 13.11-18.481 17.329-27.346 6.947-14.597 11.154-22.371 23.645-25.718l-7.764-28.978c-12.487 3.346-20.022-1.291-33.346-10.474-8.083-5.572-17.304-11.916-28.672-14.997l-115.609 14.785-70.61 92.728z" fill="#1aaa6c"/><path d="m442.219 148.487c2.993-11.4 2.113-22.559 1.334-32.347-1.282-16.115-1.526-24.951 7.618-34.095l-21.213-21.213c-9.141 9.141-17.985 8.893-34.115 7.602-9.786-.784-20.944-1.668-32.329 1.348l-92.728 70.609-14.786 115.609z" fill="#0bcc63"/><path d="m363.513 69.782c-3.108-11.369-9.45-20.594-15.018-28.68-9.168-13.315-13.797-20.845-10.45-33.336l-28.978-7.765c-3.346 12.487-11.129 16.694-25.744 23.641-8.867 4.215-18.972 9.028-27.324 17.332l-45 107.513 45.001 107.513z" fill="#1aaa6c"/><path d="m256 40.974c-8.376-8.292-18.481-13.11-27.346-17.329-14.597-6.947-22.371-11.154-25.718-23.645l-28.978 7.765c3.346 12.487-1.291 20.022-10.474 33.346-5.572 8.083-11.916 17.304-14.997 28.672l14.785 115.609 92.728 70.608z" fill="#0bcc63"/><path d="m148.487 69.782c-11.4-2.993-22.559-2.113-32.347-1.334-16.115 1.282-24.951 1.526-34.095-7.618l-21.213 21.213c9.141 9.141 8.893 17.985 7.602 34.115-.784 9.786-1.668 20.944 1.348 32.329l70.609 92.728 115.609 14.785z" fill="#39e66d"/><path d="m69.782 148.487c-11.369 3.108-20.594 9.45-28.68 15.018-13.315 9.168-20.845 13.797-33.336 10.45l-7.765 28.978c12.487 3.346 16.694 11.129 23.641 25.744 4.215 8.867 9.028 18.972 17.332 27.324l107.513 45 107.513-45.001z" fill="#0bcc63"/><path d="m40.974 256c-8.292 8.376-13.11 18.481-17.329 27.346-6.947 14.597-11.154 22.371-23.645 25.718l7.765 28.978c12.487-3.346 20.022 1.291 33.346 10.474 8.083 5.572 17.304 11.916 28.672 14.997l115.609-14.785 70.608-92.728z" fill="#39e66d"/><path d="m69.782 363.513c-2.993 11.4-2.113 22.559-1.334 32.347 1.282 16.115 1.526 24.951-7.618 34.095l21.213 21.213c9.141-9.141 17.985-8.893 34.115-7.602 9.786.784 20.944 1.668 32.329-1.348l92.728-70.609 14.785-115.609z" fill="#0bcc63"/><path d="m148.487 442.219c3.108 11.369 9.45 20.594 15.018 28.68 9.168 13.315 13.797 20.845 10.45 33.336l28.978 7.765c3.346-12.487 11.129-16.694 25.744-23.641 8.867-4.215 18.972-9.028 27.324-17.332v-215.027z" fill="#39e66d"/><path d="m256 55.5-100.25 200.5 100.25 200.5c110.733 0 200.5-89.767 200.5-200.5s-89.767-200.5-200.5-200.5z" fill="#39e66d"/><path d="m55.5 256c0 110.733 89.767 200.5 200.5 200.5v-401c-110.733 0-200.5 89.767-200.5 200.5z" fill="#67ff77"/><path d="m429.638 155.75h-145.758v100.25h87.879z" fill="#67ff77"/><path d="m82.362 155.75 57.879 100.25h87.88v-100.25z" fill="#b3ffbb"/><path d="m371.759 256h-57.879v100.25h115.758z" fill="#67ff77"/><path d="m82.362 356.25h145.759v-100.25h-87.88z" fill="#b3ffbb"/><path d="m256 456.5 57.88-100.25-87.88-45z" fill="#67ff77"/><path d="m198.121 356.25 57.879 100.25v-145.25z" fill="#b3ffbb"/><path d="m313.88 155.75-57.88-100.25-30 145.25z" fill="#67ff77"/><path d="m256 55.5-57.879 100.25 57.879 45z" fill="#b3ffbb"/><path d="m313.88 155.75h-57.88l-45 100.25 45 100.25h57.88l57.879-100.25z" fill="#fffdcb"/><path d="m256 155.75h-57.879l-57.88 100.25 57.88 100.25h57.879z" fill="#fff"/></g></svg>