<?xml version="1.0" encoding="iso-8859-1"?>
<!-- Generator: Adobe Illustrator 19.0.0, SVG Export Plug-In . SVG Version: 6.00 Build 0)  -->
<svg version="1.1" id="Capa_1" xmlns="http://www.w3.org/2000/svg" xmlns:xlink="http://www.w3.org/1999/xlink" x="0px" y="0px"
	 viewBox="0 0 512.001 512.001" style="enable-background:new 0 0 512.001 512.001;" xml:space="preserve">
<path style="fill:#9A4C0E;" d="M15,512.001c-3.839,0-7.678-1.465-10.606-4.394c-5.858-5.857-5.858-15.355,0-21.213L310.467,180.32
	c5.857-5.857,15.355-5.857,21.213,0c5.858,5.858,5.858,15.355,0,21.213L25.607,507.607C22.678,510.536,18.839,512.001,15,512.001z"
	/>
<path style="fill:#713709;" d="M4.394,507.607c2.929,2.929,6.767,4.394,10.606,4.394s7.678-1.465,10.606-4.394L331.68,201.533
	c5.858-5.858,5.858-15.354,0.001-21.213L4.394,507.607z"/>
<path style="fill:#EBE5DD;" d="M507.607,4.394c-4.413-4.413-11.098-5.633-16.785-3.062L314.895,80.858
	c-5.37,2.428-8.821,7.775-8.821,13.669v96.401c0,8.284,6.716,15,15,15h96.401c5.894,0,11.241-3.451,13.668-8.821l79.525-175.926
	C513.24,15.492,512.02,8.807,507.607,4.394z"/>
<path style="fill:#C0AB91;" d="M310.467,201.534c2.715,2.714,6.464,4.393,10.606,4.393h96.401c5.894,0,11.241-3.451,13.668-8.821
	L510.667,21.18c2.571-5.687,1.352-12.372-3.062-16.785L310.467,201.534z"/>
<g>
</g>
<g>
</g>
<g>
</g>
<g>
</g>
<g>
</g>
<g>
</g>
<g>
</g>
<g>
</g>
<g>
</g>
<g>
</g>
<g>
</g>
<g>
</g>
<g>
</g>
<g>
</g>
<g>
</g>
</svg>
