<svg id="Layer_1" enable-background="new 0 0 512 512" height="512" viewBox="0 0 512 512" width="512" xmlns="http://www.w3.org/2000/svg"><g><g><g><g><g><g id="XMLID_1542_"><g id="XMLID_1543_"><g id="XMLID_1544_"><g id="XMLID_1545_"><g id="XMLID_1546_"><g id="XMLID_1562_"><g id="XMLID_1563_"><g id="XMLID_1564_"><g id="XMLID_1565_"><g id="XMLID_1566_"><g id="XMLID_1567_"><g id="XMLID_1568_"><g id="XMLID_1569_"><g id="XMLID_1570_"><g id="XMLID_1586_"><circle cx="256" cy="256" fill="#41f2f2" r="256"/></g></g></g></g></g></g></g></g></g></g></g></g></g></g></g></g></g></g></g><path d="m512 256c0-35.956-7.413-70.181-20.794-101.23l-93.385-93.385-278.907 375.191 65.191 65.191c22.809 6.66 46.935 10.233 71.895 10.233 141.385 0 256-114.615 256-256z" fill="#11c5ce"/><g><path d="m156.167 332.764-8.447-171.719 9.932-99.66h240.169v268.272z" fill="#633409"/><path d="m397.82 61.39v268.27l-6.46 23.15-2.06 7.36-10.53 37.72 11.62 22.21.14.27-114.98 4.3v-363.28z" fill="#422005"/><path d="m97.114 106.603v283.533l60.538-14.5v-314.251h-15.321c-24.973 0-45.217 20.245-45.217 45.218z" fill="#7f470e"/><path d="m120.445 352.81h277.376v76.854h-277.376z" fill="#fff"/><path d="m275.55 352.81h122.27v76.85h-122.27z" fill="#dbdbdb"/><g><g><g><g><path d="m157.652 360.171h240.169v-30.514h-240.169c-33.38 0-60.538 27.137-60.538 60.479s27.158 60.479 60.538 60.479h240.169v-30.514h-240.169c-16.537 0-29.989-13.447-29.989-29.965s13.452-29.965 29.989-29.965z" fill="#422005"/></g></g></g></g><g><g><path d="m275.55 420.1v30.51h122.27v-30.51zm0-90.44v30.51h122.27v-30.51z" fill="#1c0c01"/></g></g></g><path d="m332.739 161.045h-37.762v-41.102h-38.853v41.102h-37.763v38.853h37.763v73.367h38.853v-73.367h37.762z" fill="#ffc91f"/><path d="m275.55 119.943v153.322h19.427v-73.367h37.762v-38.853h-37.762v-41.102z" fill="#ea9603"/></g></svg>