<?xml version="1.0" encoding="iso-8859-1"?>
<!-- Generator: Adobe Illustrator 19.0.0, SVG Export Plug-In . SVG Version: 6.00 Build 0)  -->
<svg version="1.1" id="Capa_1" xmlns="http://www.w3.org/2000/svg" xmlns:xlink="http://www.w3.org/1999/xlink" x="0px" y="0px"
	 viewBox="0 0 512.102 512.102" style="enable-background:new 0 0 512.102 512.102;" xml:space="preserve">
<g transform="translate(0 -2)">
	<path style="fill:#90BAE1;" d="M360.636,243.982c39.215,83.244,12.897,182.63-62.376,235.557s-177.702,44.067-242.769-21
		s-73.927-167.496-21-242.769s152.313-101.591,235.557-62.376L360.636,243.982z"/>
	<g>
		<path style="fill:#B0D3F0;" d="M437.268,173.246c0,0-53.186,7.601-76.067,75.917c-0.304-0.095-0.6-0.216-0.883-0.362
			c-0.45-0.177-0.997-0.45-1.536-0.724c-19.939-9.978-38.052-23.25-53.575-39.256c-16.004-15.515-29.275-33.618-39.256-53.548
			c-0.177-0.45-0.45-0.998-0.636-1.448c-0.186-0.315-0.337-0.649-0.45-0.998c68.29-22.837,75.917-76.067,75.917-76.067
			L437.268,173.246z"/>
		<path style="fill:#B0D3F0;" d="M269.015,151.001c0.11,0.339,0.258,0.665,0.441,0.971l-0.794-0.794
			C268.794,151.155,268.917,151.094,269.015,151.001z"/>
		<path style="fill:#B0D3F0;" d="M363.028,245.015c-0.093,0.097-0.154,0.22-0.177,0.353l-0.706-0.706
			C362.43,244.802,362.725,244.92,363.028,245.015z"/>
	</g>
	<ellipse style="fill:#955BA5;" cx="189.831" cy="328.612" rx="189.793" ry="61.793"/>
	<path style="fill:#894B9D;" d="M378.3,335.851c-5.91,101.242-90.562,179.837-191.964,178.227S2.82,431.226,0.126,329.848
		c1.942,33.633,86.157,60.557,189.705,60.557C287.111,390.405,367.354,366.571,378.3,335.851z"/>
	<g>
		<path style="fill:#955BA5;" d="M70.659,425.715c-0.592-0.015-1.182-0.074-1.766-0.177c-0.553-0.096-1.089-0.275-1.589-0.53
			c-0.565-0.195-1.102-0.462-1.598-0.794c-0.458-0.328-0.897-0.682-1.315-1.059c-0.38-0.419-0.733-0.862-1.059-1.324
			c-0.334-0.492-0.602-1.026-0.794-1.589c-0.255-0.5-0.434-1.036-0.53-1.589c-0.102-0.583-0.161-1.173-0.177-1.766
			c0.03-2.338,0.945-4.577,2.56-6.268c0.418-0.378,0.857-0.731,1.315-1.059c0.496-0.333,1.033-0.6,1.598-0.794
			c0.5-0.255,1.036-0.434,1.589-0.53c2.905-0.548,5.897,0.339,8.033,2.383c0.38,0.419,0.733,0.862,1.059,1.324
			c0.331,0.494,0.598,1.028,0.794,1.589c0.257,0.499,0.432,1.035,0.521,1.589c0.105,0.583,0.167,1.173,0.185,1.766
			c-0.014,0.593-0.076,1.183-0.185,1.766c-0.088,0.554-0.264,1.09-0.521,1.589c-0.197,0.561-0.464,1.095-0.794,1.589
			c-0.326,0.462-0.68,0.905-1.059,1.324C75.234,424.767,72.996,425.681,70.659,425.715z"/>
		<path style="fill:#955BA5;" d="M123.624,434.543c-0.592-0.015-1.182-0.074-1.766-0.177c-0.553-0.096-1.089-0.275-1.589-0.53
			c-0.565-0.195-1.102-0.462-1.598-0.794c-0.458-0.328-0.897-0.682-1.315-1.059c-0.38-0.419-0.733-0.862-1.059-1.324
			c-0.334-0.492-0.602-1.026-0.794-1.589c-0.255-0.5-0.434-1.036-0.53-1.589c-0.102-0.583-0.161-1.173-0.177-1.766
			c0.03-2.338,0.945-4.577,2.56-6.268c0.418-0.378,0.857-0.731,1.315-1.059c0.496-0.333,1.033-0.6,1.598-0.794
			c0.5-0.255,1.036-0.434,1.589-0.53c2.905-0.548,5.897,0.339,8.033,2.383c0.38,0.419,0.733,0.862,1.059,1.324
			c0.331,0.494,0.598,1.028,0.794,1.589c0.257,0.499,0.432,1.035,0.521,1.589c0.105,0.583,0.167,1.173,0.185,1.766
			c-0.014,0.593-0.076,1.183-0.185,1.766c-0.088,0.554-0.264,1.09-0.521,1.589c-0.197,0.561-0.464,1.095-0.794,1.589
			c-0.326,0.462-0.68,0.905-1.059,1.324C128.199,433.595,125.961,434.509,123.624,434.543z"/>
		<path style="fill:#955BA5;" d="M141.28,478.681c-0.592-0.015-1.182-0.074-1.766-0.177c-0.553-0.096-1.089-0.275-1.589-0.53
			c-0.565-0.195-1.102-0.462-1.598-0.794c-0.458-0.328-0.897-0.682-1.315-1.059c-0.38-0.419-0.733-0.862-1.059-1.324
			c-0.334-0.492-0.602-1.026-0.794-1.589c-0.255-0.5-0.434-1.036-0.53-1.589c-0.102-0.583-0.161-1.173-0.177-1.766
			c0.03-2.338,0.945-4.577,2.56-6.268c0.418-0.378,0.857-0.731,1.315-1.059c0.496-0.333,1.033-0.6,1.598-0.794
			c0.5-0.255,1.036-0.434,1.589-0.53c2.905-0.548,5.897,0.339,8.033,2.383c0.38,0.419,0.733,0.862,1.059,1.324
			c0.331,0.494,0.598,1.028,0.794,1.589c0.257,0.499,0.432,1.035,0.521,1.589c0.105,0.583,0.167,1.173,0.185,1.766
			c-0.014,0.593-0.076,1.183-0.185,1.766c-0.088,0.554-0.264,1.09-0.521,1.589c-0.197,0.561-0.464,1.095-0.794,1.589
			c-0.326,0.462-0.68,0.905-1.059,1.324C145.854,477.733,143.616,478.647,141.28,478.681z"/>
		<path style="fill:#955BA5;" d="M185.417,434.543c-0.592-0.015-1.182-0.074-1.766-0.177c-0.553-0.096-1.089-0.275-1.589-0.53
			c-0.565-0.195-1.102-0.462-1.598-0.794c-0.458-0.328-0.897-0.682-1.315-1.059c-0.38-0.419-0.733-0.862-1.059-1.324
			c-0.334-0.492-0.602-1.026-0.794-1.589c-0.255-0.5-0.434-1.036-0.53-1.589c-0.102-0.583-0.162-1.173-0.177-1.766
			c0.03-2.338,0.945-4.577,2.56-6.268c0.418-0.378,0.857-0.731,1.315-1.059c0.496-0.333,1.033-0.6,1.598-0.794
			c0.5-0.255,1.036-0.434,1.589-0.53c2.905-0.548,5.897,0.339,8.033,2.383c0.38,0.419,0.733,0.862,1.059,1.324
			c0.331,0.494,0.598,1.028,0.794,1.589c0.257,0.499,0.432,1.035,0.521,1.589c0.105,0.583,0.167,1.173,0.185,1.766
			c-0.014,0.593-0.076,1.183-0.185,1.766c-0.088,0.554-0.264,1.09-0.521,1.589c-0.197,0.561-0.464,1.095-0.794,1.589
			c-0.326,0.462-0.68,0.905-1.059,1.324C189.992,433.595,187.754,434.509,185.417,434.543z"/>
		<path style="fill:#955BA5;" d="M195.304,490.66c-0.592-0.015-1.182-0.074-1.766-0.177c-0.553-0.096-1.089-0.275-1.589-0.53
			c-0.563-0.193-1.097-0.46-1.589-0.794c-0.961-0.608-1.775-1.422-2.383-2.383c-0.334-0.492-0.602-1.026-0.794-1.589
			c-0.255-0.5-0.434-1.036-0.53-1.589c-0.102-0.583-0.161-1.173-0.177-1.766c0.03-2.338,0.945-4.577,2.56-6.268
			c0.419-0.38,0.862-0.733,1.324-1.059c0.492-0.334,1.026-0.602,1.589-0.794c0.5-0.255,1.036-0.434,1.589-0.53
			c2.906-0.55,5.898,0.338,8.033,2.383c0.38,0.419,0.733,0.862,1.059,1.324c0.334,0.492,0.602,1.026,0.794,1.589
			c0.255,0.5,0.434,1.036,0.53,1.589c0.098,0.584,0.157,1.174,0.177,1.766c-0.015,0.592-0.074,1.182-0.177,1.766
			c-0.096,0.553-0.275,1.089-0.53,1.589c-0.193,0.563-0.46,1.097-0.794,1.589c-0.326,0.463-0.68,0.905-1.059,1.324
			C199.879,489.712,197.641,490.626,195.304,490.66z"/>
		<path style="fill:#955BA5;" d="M229.555,452.198c-0.592-0.015-1.182-0.074-1.766-0.177c-0.553-0.096-1.089-0.275-1.589-0.53
			c-0.565-0.195-1.102-0.462-1.598-0.794c-0.458-0.328-0.897-0.682-1.315-1.059c-0.38-0.419-0.733-0.862-1.059-1.324
			c-0.334-0.492-0.602-1.026-0.794-1.589c-0.255-0.5-0.434-1.036-0.53-1.589c-0.102-0.583-0.161-1.173-0.177-1.766
			c0.03-2.338,0.945-4.577,2.56-6.268c0.418-0.378,0.857-0.731,1.315-1.059c0.496-0.333,1.033-0.6,1.598-0.794
			c0.5-0.255,1.036-0.434,1.589-0.53c2.905-0.548,5.897,0.339,8.033,2.383c0.38,0.419,0.733,0.862,1.059,1.324
			c0.331,0.494,0.598,1.028,0.794,1.589c0.257,0.499,0.432,1.035,0.521,1.589c0.105,0.583,0.167,1.173,0.185,1.766
			c-0.014,0.593-0.076,1.183-0.185,1.766c-0.088,0.554-0.264,1.09-0.521,1.589c-0.197,0.561-0.464,1.095-0.794,1.589
			c-0.326,0.462-0.68,0.905-1.059,1.324C234.13,451.25,231.892,452.164,229.555,452.198z"/>
		<path style="fill:#955BA5;" d="M264.866,434.543c-0.592-0.015-1.182-0.074-1.766-0.177c-0.553-0.096-1.089-0.275-1.589-0.53
			c-0.565-0.195-1.102-0.462-1.598-0.794c-0.458-0.328-0.897-0.682-1.315-1.059c-0.38-0.419-0.733-0.862-1.059-1.324
			c-0.334-0.492-0.602-1.026-0.794-1.589c-0.255-0.5-0.434-1.036-0.53-1.589c-0.102-0.583-0.161-1.173-0.177-1.766
			c0.03-2.338,0.945-4.577,2.56-6.268c0.418-0.378,0.857-0.731,1.315-1.059c0.496-0.333,1.033-0.6,1.598-0.794
			c0.5-0.255,1.036-0.434,1.589-0.53c2.905-0.548,5.897,0.339,8.033,2.383c0.38,0.419,0.733,0.862,1.059,1.324
			c0.331,0.494,0.598,1.028,0.794,1.589c0.257,0.499,0.432,1.035,0.521,1.589c0.105,0.583,0.167,1.173,0.185,1.766
			c-0.014,0.593-0.076,1.183-0.185,1.766c-0.088,0.554-0.264,1.09-0.521,1.589c-0.197,0.561-0.464,1.095-0.794,1.589
			c-0.326,0.462-0.68,0.905-1.059,1.324C269.441,433.595,267.203,434.509,264.866,434.543z"/>
		<path style="fill:#955BA5;" d="M273.693,469.853c-0.592-0.015-1.182-0.074-1.766-0.177c-0.553-0.096-1.089-0.275-1.589-0.53
			c-0.565-0.195-1.102-0.462-1.598-0.794c-0.458-0.328-0.897-0.682-1.315-1.059c-0.38-0.419-0.733-0.862-1.059-1.324
			c-0.334-0.492-0.602-1.026-0.794-1.589c-0.255-0.5-0.434-1.036-0.53-1.589c-0.103-0.583-0.161-1.173-0.177-1.766
			c0.03-2.338,0.945-4.577,2.56-6.268c0.418-0.378,0.857-0.731,1.315-1.059c0.496-0.333,1.033-0.6,1.598-0.794
			c0.5-0.255,1.036-0.434,1.589-0.53c2.905-0.548,5.897,0.339,8.033,2.383c0.38,0.419,0.733,0.862,1.059,1.324
			c0.331,0.494,0.598,1.028,0.794,1.589c0.257,0.499,0.432,1.035,0.521,1.589c0.105,0.583,0.167,1.173,0.185,1.766
			c-0.014,0.593-0.076,1.183-0.185,1.766c-0.088,0.554-0.264,1.09-0.521,1.589c-0.197,0.561-0.464,1.095-0.794,1.589
			c-0.326,0.462-0.68,0.905-1.059,1.324C278.268,468.905,276.03,469.819,273.693,469.853z"/>
		<path style="fill:#955BA5;" d="M309.004,425.715c-0.592-0.015-1.182-0.074-1.766-0.177c-0.553-0.096-1.089-0.275-1.589-0.53
			c-0.565-0.195-1.102-0.462-1.598-0.794c-0.458-0.328-0.897-0.682-1.315-1.059c-0.38-0.419-0.733-0.862-1.059-1.324
			c-0.334-0.492-0.602-1.026-0.794-1.589c-0.255-0.5-0.434-1.036-0.53-1.589c-0.102-0.583-0.161-1.173-0.177-1.766
			c0.03-2.338,0.945-4.577,2.56-6.268c0.418-0.378,0.857-0.731,1.315-1.059c0.496-0.333,1.033-0.6,1.598-0.794
			c0.5-0.255,1.036-0.434,1.589-0.53c2.905-0.548,5.897,0.339,8.033,2.383c0.38,0.419,0.733,0.862,1.059,1.324
			c0.331,0.494,0.598,1.028,0.794,1.589c0.257,0.499,0.432,1.035,0.521,1.589c0.105,0.583,0.167,1.173,0.185,1.766
			c-0.014,0.593-0.076,1.183-0.185,1.766c-0.088,0.554-0.264,1.09-0.521,1.589c-0.197,0.561-0.464,1.095-0.794,1.589
			c-0.326,0.462-0.68,0.905-1.059,1.324C313.579,424.767,311.341,425.681,309.004,425.715z"/>
	</g>
	<path style="fill:#90BAE1;" d="M469.948,129.276c4.221,4.074,7.294,9.19,8.907,14.83c3.222,12.482,2.154,22.784-3.972,28.91
		c-15.625,15.625-58.262-1.615-95.258-38.612s-54.237-79.634-38.612-95.258c6.126-6.126,16.428-7.194,28.91-3.972
		c5.641,1.613,10.756,4.686,14.83,8.907"/>
	<path style="fill:#B19046;" d="M509.16,79.241l-44.623,44.623c-8.218,8.218-31.514-1.766-52.083-22.316
		c-20.568-20.551-30.535-43.838-22.316-52.083l44.623-44.623L509.16,79.241z"/>
	
		<ellipse transform="matrix(-0.7071 -0.7071 0.7071 -0.7071 776.0252 405.5593)" style="fill:#FDD7AD;" cx="472.007" cy="42.06" rx="52.586" ry="21.036"/>
</g>
<g>
</g>
<g>
</g>
<g>
</g>
<g>
</g>
<g>
</g>
<g>
</g>
<g>
</g>
<g>
</g>
<g>
</g>
<g>
</g>
<g>
</g>
<g>
</g>
<g>
</g>
<g>
</g>
<g>
</g>
</svg>
