<svg id="filled_outline" height="512" viewBox="0 0 512 512" width="512" xmlns="http://www.w3.org/2000/svg" data-name="filled outline"><path d="m168 264v40l-40 40 8 128h-104l8-136-16-32v-48h128v8z" fill="#eeaaa8"/><path d="m96 344-16-16v-64h88v40l-40 40z" fill="#da8583"/><path d="m104 264h64v32h-64z" fill="#eeaaa8"/><path d="m120 200h32v64h-32z" fill="#eeaaa8"/><path d="m88 208h32v56h-32z" fill="#eeaaa8"/><path d="m56 216h32v48h-32z" fill="#eeaaa8"/><path d="m24 216h32v48h-32z" fill="#eeaaa8"/><path d="m48 216h8v48h-8z" fill="#da8583"/><path d="m80 216h8v48h-8z" fill="#da8583"/><path d="m112 208h8v56h-8z" fill="#da8583"/><path d="m328 160v40l-40 40 8 128h-104l8-136-16-32v-48h128v8z" fill="#eeaaa8"/><path d="m240 224 16 16h32l40-40v-40h-88z" fill="#da8583"/><path d="m264 160h64v32h-64z" fill="#eeaaa8"/><path d="m280 96h32v64h-32z" fill="#eeaaa8"/><path d="m248 104h32v56h-32z" fill="#eeaaa8"/><path d="m216 112h32v48h-32z" fill="#eeaaa8"/><path d="m184 112h32v48h-32z" fill="#eeaaa8"/><path d="m208 112h8v48h-8z" fill="#da8583"/><path d="m240 112h8v48h-8z" fill="#da8583"/><path d="m272 104h8v56h-8z" fill="#da8583"/><path d="m488 264v40l-40 40 8 128h-104l8-136-16-32v-56h128v16z" fill="#eeaaa8"/><path d="m400 264v64l16 16h32l40-40v-40z" fill="#da8583"/><path d="m424 264h64v32h-64z" fill="#eeaaa8"/><path d="m440 200h32v64h-32z" fill="#eeaaa8"/><path d="m408 208h32v56h-32z" fill="#eeaaa8"/><path d="m376 216h32v48h-32z" fill="#eeaaa8"/><path d="m344 216h32v48h-32z" fill="#eeaaa8"/><path d="m368 216h8v48h-8z" fill="#da8583"/><path d="m400 216h8v48h-8z" fill="#da8583"/><path d="m432 208h8v56h-8z" fill="#da8583"/><path d="m114.174 119.696-26.109-4.887-18.828 18.738-3.42-26.342-23.638-12.116 23.995-11.393 4.218-26.225 18.25 19.3 26.246-4.092-12.716 23.321z" fill="#eb9840"/><path d="m394.892 120.994 26.11-4.887 18.827 18.737 3.42-26.341 23.639-12.116-23.996-11.393-4.218-26.225-18.25 19.3-26.245-4.092 12.716 23.321z" fill="#eb9840"/><g fill="#ecb347"><path d="m112 142.111h16v35.777h-16z" transform="matrix(.894 -.447 .447 .894 -58.885 70.557)"/><path d="m359.59 194.53-15.18-5.06a115.757 115.757 0 0 1 27.821-45.015l6.112-6.112 11.314 11.314-6.111 6.111a99.67 99.67 0 0 0 -23.956 38.762z"/><path d="m36 140.676h16.001v46.648h-16.001z" transform="matrix(.857 -.514 .514 .857 -78.107 46.009)"/><path d="m160.001 54.46h16v43.081h-16z" transform="matrix(.928 -.371 .371 .928 -16.21 67.826)"/><path d="m318.111 64h35.777v16h-35.777z" transform="matrix(.447 -.894 .894 .447 121.337 340.328)"/><path d="m441.373 144h45.255v16h-45.255z" transform="matrix(.707 -.707 .707 .707 28.432 372.636)"/><path d="m240 40h16v40h-16z"/></g><path d="m31.889 337.665-7.875 133.865a8 8 0 0 0 7.986 8.47h104a8 8 0 0 0 7.984-8.5l-7.774-124.4 37.447-37.447a8 8 0 0 0 2.343-5.653v-40a8 8 0 0 0 -8-8h-8v-56a8 8 0 0 0 -8-8h-32a8 8 0 0 0 -8 8h-24a8 8 0 0 0 -8 8h-56a8 8 0 0 0 -8 8v88a7.994 7.994 0 0 0 .845 3.578zm80.111-65.665h48v16h-48zm32-64v48h-16v-48zm-48 8h16v40h-16zm-32 8h16v32h-16zm24 48h8v24a8 8 0 0 0 8 8h52.686l-34.343 34.343a8 8 0 0 0 -2.327 6.156l7.468 119.501h-87l7.5-127.53a8 8 0 0 0 -.831-4.048l-15.153-30.311v-30.111zm-56-48h16v32h-16z"/><path d="m90.343 349.657 11.314-11.314-13.657-13.656v-20.687h-16v24a8 8 0 0 0 2.343 5.657z"/><path d="m336 200v-40a8 8 0 0 0 -8-8h-8v-56a8 8 0 0 0 -8-8h-32a8 8 0 0 0 -8 8h-24a8 8 0 0 0 -8 8h-56a8 8 0 0 0 -8 8v88a7.994 7.994 0 0 0 .845 3.578l15.044 30.087-7.875 133.865a8 8 0 0 0 7.986 8.47h104a8 8 0 0 0 7.984-8.5l-7.774-124.4 37.447-37.447a8 8 0 0 0 2.343-5.653zm-64-32h48v16h-48zm32-64v48h-16v-48zm-48 8h16v40h-16zm-32 8h16v32h-16zm-32 0h16v32h-16zm90.343 114.343a8 8 0 0 0 -2.327 6.156l7.468 119.501h-87l7.5-127.53a8 8 0 0 0 -.831-4.048l-15.153-30.311v-30.111h64v24a8 8 0 0 0 8 8h52.686z"/><path d="m248 200h-16v24a8 8 0 0 0 2.343 5.657l16 16 11.314-11.314-13.657-13.656z"/><path d="m488 256h-8v-56a8 8 0 0 0 -8-8h-32a8 8 0 0 0 -8 8h-24a8 8 0 0 0 -8 8h-56a8 8 0 0 0 -8 8v88a7.994 7.994 0 0 0 .845 3.578l15.044 30.087-7.875 133.865a8 8 0 0 0 7.986 8.47h104a8 8 0 0 0 7.984-8.5l-7.774-124.4 37.447-37.447a8 8 0 0 0 2.343-5.653v-40a8 8 0 0 0 -8-8zm-56 16h48v16h-48zm32-64v48h-16v-48zm-48 8h16v40h-16zm-32 8h16v32h-16zm-32 0h16v32h-16zm90.343 114.343a8 8 0 0 0 -2.327 6.156l7.468 119.501h-87l7.5-127.53a8 8 0 0 0 -.831-4.048l-15.153-30.311v-30.111h64v24a8 8 0 0 0 8 8h52.686z"/><path d="m408 304h-16v24a8 8 0 0 0 2.343 5.657l16 16 11.314-11.314-13.657-13.656z"/><path d="m66.65 141.116a8 8 0 0 0 8.231-1.9l15.846-15.771 21.973 4.115a8 8 0 0 0 8.609-11.478l-10.1-19.945 10.7-19.628a8 8 0 0 0 -8.256-11.734l-22.09 3.444-15.358-16.245a8 8 0 0 0 -13.711 4.226l-3.551 22.073-20.2 9.589a8 8 0 0 0 -.218 14.346l19.9 10.2 2.878 22.17a8 8 0 0 0 5.347 6.538zm-6.4-45.753 9.352-4.44a8 8 0 0 0 4.467-5.956l1.645-10.222 7.113 7.523a7.992 7.992 0 0 0 7.045 2.408l10.228-1.595-4.952 9.089a8 8 0 0 0 -.113 7.445l4.678 9.236-10.177-1.905a8 8 0 0 0 -7.115 2.193l-7.337 7.3-1.333-10.266a8 8 0 0 0 -4.284-6.089z"/><path d="m470.319 89.16-20.2-9.589-3.547-22.071a8 8 0 0 0 -13.711-4.226l-15.361 16.243-22.09-3.445a8 8 0 0 0 -8.256 11.734l10.7 19.629-10.1 19.944a8 8 0 0 0 8.608 11.478l21.976-4.113 15.846 15.771a8 8 0 0 0 13.577-4.641l2.878-22.17 19.9-10.2a8 8 0 0 0 -.218-14.346zm-30.719 12.224a8 8 0 0 0 -4.285 6.089l-1.333 10.266-7.336-7.3a8 8 0 0 0 -7.116-2.193l-10.176 1.9 4.677-9.235a8 8 0 0 0 -.113-7.445l-4.956-9.09 10.229 1.595a7.988 7.988 0 0 0 7.045-2.408l7.114-7.522 1.644 10.222a8 8 0 0 0 4.467 5.956l9.352 4.44z"/><path d="m112 142.111h16v35.777h-16z" transform="matrix(.894 -.447 .447 .894 -58.885 70.557)"/><path d="m383.546 155.768 6.111-6.111-11.314-11.314-6.112 6.112a115.757 115.757 0 0 0 -27.821 45.015l15.18 5.06a99.67 99.67 0 0 1 23.956-38.762z"/><path d="m36 140.676h16.001v46.648h-16.001z" transform="matrix(.857 -.514 .514 .857 -78.107 46.009)"/><path d="m160.001 54.46h16v43.081h-16z" transform="matrix(.928 -.371 .371 .928 -16.21 67.832)"/><path d="m318.111 64h35.777v16h-35.777z" transform="matrix(.447 -.894 .894 .447 121.337 340.328)"/><path d="m441.373 144h45.255v16h-45.255z" transform="matrix(.707 -.707 .707 .707 28.422 372.617)"/><path d="m240 40h16v40h-16z"/></svg>