<svg height="512pt" viewBox="0 -32 512.11336 512" width="512pt" xmlns="http://www.w3.org/2000/svg"><path d="m424.03125 208.058594c-45.839844-.007813-86.269531-30.023438-99.539062-73.902344-13.265626-43.878906 3.761718-91.269531 41.921874-116.671875 38.160157-25.402344 88.449219-22.824219 123.8125 6.347656l14.925782 12.335938-14.925782 12.335937c-16.589843 13.679688-26.199218 34.054688-26.199218 55.554688 0 21.496094 9.609375 41.871094 26.199218 55.550781l14.925782 12.335937-14.925782 12.335938c-18.644531 15.355469-42.039062 23.761719-66.195312 23.777344zm0 0" fill="#f7d260"/><path d="m432.03125 384.058594h-336c-46.84375.015625-86.859375-33.78125-94.683594-79.96875-7.824218-46.1875 18.832032-91.277344 63.070313-106.6875 4.636719-61.84375 48.351562-113.773438 108.496093-128.886719 60.148438-15.117187 123.21875 9.972656 156.542969 62.277344 7.390625-1.8125 14.96875-2.730469 22.574219-2.734375 53 .050781 95.949219 43 96 96v1.597656c40.28125 8.179688 67.808594 45.546875 63.675781 86.441406-4.128906 40.890625-38.574219 72-79.675781 71.960938zm0 0" fill="#f2ecda"/><path d="m432.03125 304.058594h-336c-37.417969-.042969-71.402344-21.828125-87.070312-55.808594-13.816407 29.652344-11.484376 64.316406 6.171874 91.859375 17.65625 27.539063 48.183594 44.125 80.898438 43.949219h336c28.660156.035156 55.140625-15.277344 69.40625-40.132813s14.125-55.449219-.363281-80.171875c-14.128907 24.835938-40.46875 40.210938-69.042969 40.304688zm0 0" fill="#eae2cc"/><path d="m368.03125 176.058594h32v32h-32zm0 0" fill="#fff"/><path d="m304.03125 176.058594h32v32h-32zm0 0" fill="#fff"/><path d="m114.320312 232.296875-62.558593-104.238281h64l-16.992188-28.320313c-9.105469-15.160156-4.1875-34.828125 10.976563-43.921875l62.558594 104.242188h-64l16.992187 28.316406c9.105469 15.160156 4.1875 34.828125-10.976563 43.921875zm0 0" fill="#f7d260"/><g fill="#1998f1"><path d="m98.714844 430.316406 64-96 26.625 17.75-64 96zm0 0"/><path d="m290.703125 430.308594 64-96 26.625 17.75-63.996094 96zm0 0"/><path d="m232.03125 431.929688-26.558594-17.746094 17.746094-26.621094 26.621094 17.742188zm35.503906-53.25-26.621094-17.742188 17.742188-26.625 26.6875 17.746094zm0 0"/></g></svg>