<svg id="Capa_1" enable-background="new 0 0 512 512" height="512" viewBox="0 0 512 512" width="512" xmlns="http://www.w3.org/2000/svg"><g><g><g><g><path d="m86.57 504.289 30.397-49.733c2.001-3.274 5.699-5.114 9.517-4.736l59.665 5.905 24.437-59.885c1.211-2.968 3.772-5.175 6.886-5.936l102.789-25.11c6.82-1.666 10.461 7.727 4.301 11.094l-91.705 50.119-17.462 53.272c-1.178 3.594-4.283 6.216-8.023 6.775l-44.367 6.637-.341 11.597h-76.094z" fill="#fcc16d"/></g><g><path d="m324.561 375.888-91.7 50.12-17.47 53.27c-1.17 3.59-4.28 6.22-8.02 6.78l-44.37 6.63-.34 11.6h-23.31l.16-15.69c.05-5.64 4.26-10.38 9.85-11.12l40.62-5.35c3.74-.56 6.84-3.18 8.02-6.78l15.51-47.32c1.25-3.82 3.91-7.02 7.44-8.95l66.24-36.2 33.07-8.08c6.82-1.67 10.46 7.72 4.3 11.09z" fill="#fca62f"/></g></g><g><g><path d="m7.501 241.025 49.733-30.397c3.274-2.001 5.114-5.699 4.736-9.517l-5.905-59.665 59.886-24.437c2.968-1.211 5.175-3.772 5.936-6.886l21.606-88.445c2.203-9.019-10.219-13.835-14.671-5.688l-43.04 78.748-53.271 17.462c-3.594 1.178-6.216 4.283-6.775 8.023l-6.638 44.367-11.597.341z" fill="#fcc16d"/></g><g><path d="m143.491 21.678-21.6 88.44c-.77 3.12-2.97 5.68-5.94 6.89l-59.89 24.44 5.91 59.66c.38 3.82-1.46 7.52-4.74 9.52l-49.73 30.4v-22.82l30.4-18.58c3.28-2 5.12-5.7 4.74-9.52l-5.13-51.83c-.46-4.65 2.19-9.04 6.51-10.81l52.6-21.46c2.97-1.21 5.18-3.77 5.94-6.89l15.49-63.43 10.77-19.7c4.45-8.15 16.87-3.33 14.67 5.69z" fill="#fca62f"/></g></g><g><g><g><path d="m7.501 504.498 205.641-188.384-26.235-26.235-179.406 164.362z" fill="#554e55"/></g><path d="m401.411 391.788c-37.55 37.55-86.041 57.498-135.194 59.857-3.307.159-6.073-2.476-6.108-5.787-.548-51.766-20.586-103.364-60.084-142.862-39.499-39.499-91.089-59.529-142.863-60.083-3.31-.035-5.945-2.801-5.786-6.108 2.359-49.154 22.307-97.645 59.857-135.195 37.544-37.544 86.028-57.498 135.197-59.857 3.306-.159 6.072 2.475 6.108 5.785.569 51.774 20.598 103.365 60.089 142.857 39.498 39.498 91.089 59.529 142.856 60.09 3.31.036 5.944 2.802 5.785 6.108-2.359 49.168-22.314 97.652-59.857 135.195z" fill="#554e55"/><g><path d="m304.371 181.638-140.26 26.82 12.6-32.47c1.17-3 3.76-5.23 6.92-5.92l81.42-17.84-18.1-56.16c-1.47-4.57.65-9.52 4.97-11.61l4-1.94c6.57 35.83 22.72 70.23 48.45 99.12z" fill="#433f43"/></g><path d="m375.551 233.378-19.21 35.15c-3.36 6.16-12.76 2.51-11.09-4.31l10.04-41.08c6.59 3.82 13.36 7.23 20.26 10.24z" fill="#433f43"/><g><path d="m417.201 374.078c-3.45 4.36-7.11 8.6-10.97 12.73l-140.23-24.76c-3.96-.7-7.07-3.78-7.8-7.73l-17.11-92.98-69.39-9.28c3.89-11.47 7.73-22.96 11.63-34.43l91.62 15.06c4.17.68 7.4 4.01 7.97 8.2l11.36 83.29z" fill="#433f43"/></g><path d="m401.415 391.789c-37.548 37.548-86.046 57.496-135.198 59.853-3.308.165-6.079-2.473-6.112-5.781-.248-23.802-4.615-47.555-13.101-70.117l7.568.107c35.158.471 68.223-12.96 93.084-37.821s38.292-57.926 37.821-93.101l-.099-7.559c22.562 8.486 46.307 12.86 70.101 13.117 3.308.033 5.946 2.804 5.789 6.104-2.357 49.168-22.314 97.658-59.853 135.198z" fill="#433f43"/><path d="m401.413 391.786c-37.55 37.55-86.04 57.498-135.194 59.857-3.311.159-6.074-2.483-6.11-5.797-.168-15.661-2.113-31.31-5.853-46.608 39.723.538 79.62-14.349 109.94-44.669 30.311-30.311 45.207-70.216 44.677-109.948 15.299 3.74 30.942 5.692 46.601 5.861 3.314.036 5.955 2.799 5.797 6.11-2.361 49.168-22.315 97.651-59.858 135.194z" fill="#918291"/><path d="m417.201 374.078c-3.45 4.36-7.11 8.6-10.97 12.73h-.01l-67.21-11.87c8.92-5.77 17.37-12.56 25.18-20.37.48-.48.95-.95 1.42-1.43z" fill="#7a6e79"/><path d="m401.415 391.789c-37.548 37.548-86.046 57.496-135.198 59.853-3.308.165-6.071-2.481-6.112-5.797-.066-5.26-.306-10.512-.769-15.755 44.437-5.086 87.543-24.671 121.626-58.754s53.667-77.189 58.754-121.642c5.235.472 10.495.72 15.755.786 3.316.041 5.963 2.804 5.797 6.112-2.357 49.167-22.314 97.657-59.853 135.197z" fill="#7a6e79"/><path d="m103.775 248.773c-15.298-3.74-30.942-5.692-46.601-5.861-3.314-.036-5.955-2.799-5.797-6.11 2.359-49.154 22.307-97.644 59.857-135.194 37.543-37.543 86.026-57.498 135.195-59.858 3.31-.159 6.074 2.482 6.11 5.796.171 15.661 2.128 31.31 5.861 46.601-39.731-.529-79.636 14.366-109.948 44.677-30.32 30.32-45.207 70.217-44.677 109.949z" fill="#918291"/><path d="m292.008 164.392 50.769-19.235c9.425-3.571 18.652 5.655 15.082 15.08l-19.23 50.776z" fill="#554e55"/><path d="m338.625 211.013-14.664-14.664 19.237-50.781c.075-.207.149-.414.207-.62 9.205-2.953 17.947 6.07 14.457 15.284z" fill="#433f43"/><path d="m206.143 332.097-35.219-35.219c-4.516-4.516-4.516-11.837 0-16.353l119.224-119.224c4.516-4.516 11.837-4.516 16.353 0l35.219 35.219c4.516 4.516 4.516 11.837 0 16.353l-119.223 119.224c-4.516 4.515-11.838 4.515-16.354 0z" fill="#a69ca7"/><g><path d="m304.591 181.598-42.95 8.21 28.51-28.51c4.51-4.51 11.83-4.51 16.35 0l3.73 3.73 1.42 3.13c2.59 5.71-.89 12.33-7.06 13.44z" fill="#918291"/></g><g fill="#918291"><path d="m286.611 267.978-37.41 37.42-8.11-44.06-44.97-6.01 30.57-30.57 48.26 7.93c4.17.68 7.4 4.01 7.97 8.2z"/><path d="m341.627 212.973-119.037 119.037c-4.565 4.565-11.976 4.565-16.541 0l-20.453-20.453c4.565 4.565 11.976 4.565 16.541 0l119.037-119.037c4.574-4.574 4.565-11.976 0-16.541l20.453 20.453c4.566 4.565 4.574 11.967 0 16.541z"/></g></g><g><g><path d="m462.759 368.02-144.699-58.743-11.356-83.296c-.571-4.188-3.807-7.513-7.977-8.199l-100.66-16.541 9.769-22.62 92.034-16.651c6.169-1.116 9.642-7.737 7.054-13.447l-27.767-61.259 90.272-71.125c4.524-3.565.104-10.624-5.079-8.112l-117.16 56.796c-4.318 2.093-6.435 7.047-4.963 11.615l18.095 56.162-81.422 17.84c-3.151.69-5.747 2.914-6.914 5.921l-41.069 105.858-26.339 20.007c-2.411 1.831-3.82 4.69-3.803 7.718l.203 37.517-93.477 40.95v102.239l138.79-127.378c2.392-2.195 3.516-5.448 2.99-8.651l-6.626-37.379 27.505-11.25c3.455-1.413 5.782-4.697 5.97-8.425l2.155-42.716 86.588 11.59 17.111 92.972c.728 3.953 3.835 7.039 7.794 7.737l170.335 30.071c5.685 1.003 7.996-7.029 2.646-9.201z" fill="#fcc16d"/></g><g><path d="m460.111 377.218-49.67-8.77-105.64-42.89c-3.45-1.4-5.89-4.55-6.39-8.25l-12.82-95.58c-.39-2.88-2.05-5.35-4.39-6.83l17.53 2.88c4.17.69 7.4 4.02 7.97 8.2l11.36 83.3 144.7 58.74c5.35 2.17 3.04 10.21-2.65 9.2z" fill="#fca62f"/></g><g><path d="m369.431 16.138-90.28 71.13 27.77 61.25c2.59 5.71-.88 12.34-7.05 13.45l-92.04 16.65-9.764 22.623-12.762-2.903c-4.232-.963-6.554-5.527-4.841-9.514l7.98-18.574c.951-2.201 2.916-3.8 5.264-4.283l78.643-16.189c6.17-1.12 9.64-7.74 7.05-13.45l-22.536-53.026c-1.31-3.082-.37-6.659 2.284-8.699l54.851-42.164 50.35-24.41c5.181-2.511 9.601 4.549 5.081 8.109z" fill="#fca62f"/></g><path d="m178.281 234.848-2.15 42.72c-.19 3.73-2.52 7.01-5.97 8.42l-27.51 11.25 6.63 37.38c.53 3.21-.6 6.46-2.99 8.65l-138.79 127.38v-34.8l113.29-107.21c2.4-2.19 3.52-5.44 3-8.65l-5.225-29.46c-.82-4.625 1.689-9.197 6.03-10.99l27.685-11.43c3.46-1.41 5.78-4.69 5.97-8.42l-.43-13.472c-.168-5.273 3.789-9.77 9.041-10.274z" fill="#fca62f"/></g></g><g><path d="m504.501 20.792-49.733 30.397c-3.274 2.001-5.114 5.699-4.736 9.517l5.905 59.665-59.886 24.437c-2.968 1.211-5.175 3.772-5.936 6.886l-25.11 102.789c-1.666 6.82 7.727 10.461 11.094 4.301l50.12-91.705 53.272-17.462c3.594-1.178 6.216-4.283 6.775-8.023l6.638-44.367 11.597-.341z" fill="#fcc16d"/><path d="m504.501 75.148v21.74l-11.6.34-6.63 44.37c-.56 3.74-3.19 6.84-6.78 8.02l-53.27 17.46-50.12 91.71c-3.37 6.16-12.76 2.51-11.09-4.31l7.81-32 37-67.69c1.22-2.24 3.25-3.92 5.66-4.71l49.51-16.23c3.6-1.18 6.22-4.28 6.78-8.02l5.4-42.1c.71-4.79 4.76-8.37 9.59-8.52z" fill="#fca62f"/></g></g><path d="m504.503 89.386c-.074 0-.149.001-.225.003l-11.598.341c-3.629.106-6.66 2.797-7.196 6.387l-6.637 44.367c-.142.941-.79 1.709-1.694 2.006l-53.271 17.462c-1.812.594-3.331 1.856-4.245 3.53l-44.631 81.66 22.394-91.67c.189-.774.743-1.417 1.483-1.719l59.885-24.437c3.073-1.254 4.956-4.379 4.63-7.683l-5.905-59.664c-.094-.949.37-1.882 1.184-2.379l49.732-30.397c3.534-2.16 4.648-6.776 2.488-10.311-2.16-3.534-6.776-4.648-10.31-2.488l-49.732 30.397c-5.692 3.478-8.946 10.016-8.289 16.656l5.354 54.095-54.704 22.323c-5.18 2.113-9.063 6.619-10.389 12.05l-17.193 70.381c-4.931-2.598-9.758-5.415-14.45-8.421 1.752-4.339 1.85-9.196.284-13.594l13.402-35.387c2.711-7.156 1.033-14.962-4.378-20.373-5.411-5.412-13.22-7.086-20.375-4.377l-25.513 9.666c-.231-.805-.501-1.604-.853-2.382l-25.339-55.908 85.657-67.489c5.029-3.962 6.214-10.778 2.816-16.205-3.396-5.427-10.045-7.34-15.807-4.547l-100.966 48.946c-.023-.923-.064-1.849-.074-2.768-.04-3.612-1.569-7.104-4.196-9.581-2.658-2.506-6.141-3.795-9.771-3.613-12.502.6-25.04 2.318-37.264 5.108-4.038.921-6.564 4.942-5.644 8.98.922 4.039 4.943 6.562 8.981 5.644 10.805-2.466 21.87-4.032 32.921-4.66.051 2.672.171 5.354.322 8.028l-1.467.711c-7.637 3.702-11.433 12.585-8.83 20.663l2.889 8.967c-35.798 4.121-69.201 20.19-94.829 45.818-28.578 28.578-44.95 65.901-46.708 105.937-12.29-2.433-24.808-3.785-37.482-4.021 2.75-48.52 23.157-94.103 57.579-128.525 18.909-18.91 40.968-33.541 65.563-43.487 3.84-1.553 5.694-5.925 4.142-9.765-1.554-3.84-5.925-5.697-9.765-4.142-12.938 5.232-25.217 11.676-36.771 19.263l11.072-45.325c1.892-7.747-1.979-15.171-9.415-18.054-7.435-2.882-15.299-.008-19.123 6.989l-41.616 76.145-50.45 16.537c-6.328 2.074-10.872 7.454-11.857 14.04l-5.708 38.164-5.329.157c-4.141.122-7.397 3.577-7.276 7.717.12 4.065 3.453 7.279 7.493 7.279.074 0 .149-.001.225-.003l11.598-.341c3.629-.106 6.66-2.797 7.196-6.387l6.637-44.367c.142-.94.79-1.709 1.694-2.005l53.271-17.462c1.812-.594 3.331-1.856 4.245-3.53l43.039-78.748c.1-.183.177-.271.151-.259.184-.048.612.12.696.225.004.028.006.145-.044.346l-15.347 62.822c-5.157 4.273-10.14 8.797-14.929 13.586-8.003 8.003-15.295 16.571-21.85 25.606l-30.849 12.588c-3.073 1.254-4.956 4.38-4.63 7.683l4.219 42.628c-2.304 7.59-4.19 15.323-5.637 23.168l-43.593 26.645c-3.534 2.16-4.648 6.776-2.488 10.31 1.414 2.314 3.88 3.59 6.406 3.59 1.333 0 2.684-.355 3.904-1.102l33.125-20.247c-.282 3.077-.504 6.166-.653 9.267-.173 3.592 1.145 7.154 3.613 9.773 2.478 2.627 5.972 4.157 9.584 4.195 21.501.23 42.535 3.886 62.669 10.867l-19.711 14.973c-4.265 3.24-6.794 8.372-6.767 13.73l.177 32.586-88.958 38.973c-3.794 1.662-5.522 6.085-3.86 9.879 1.233 2.814 3.986 4.492 6.874 4.492 1.005 0 2.026-.203 3.006-.632l93.476-40.951c2.741-1.201 4.506-3.917 4.49-6.91l-.203-37.515c-.004-.667.311-1.305.841-1.707l26.339-20.007c1.104-.838 1.953-1.967 2.455-3.259l17.916-46.177c1.498-3.862-.418-8.207-4.279-9.705-3.861-1.496-8.207.417-9.705 4.279l-13.603 35.061c-5.577-2.046-11.217-3.861-16.919-5.425.93-37.352 15.865-72.263 42.437-98.834 23.936-23.937 55.354-38.678 88.92-41.842l7.975 24.754-73.356 16.073c-5.621 1.231-10.219 5.17-12.301 10.535l-11.388 29.351c-1.498 3.862.418 8.207 4.279 9.705 3.859 1.497 8.206-.417 9.705-4.279l11.388-29.351c.259-.666.829-1.155 1.527-1.308l81.421-17.84c2.065-.453 3.843-1.755 4.896-3.588 1.054-1.833 1.285-4.025.637-6.038l-18.095-56.161c-.323-1.003.147-2.106 1.096-2.566l94.851-45.981-70.799 55.783c-2.71 2.135-3.614 5.845-2.189 8.987l27.767 61.258c.373.823.127 1.522-.054 1.866-.18.343-.615.943-1.504 1.104l-92.033 16.65c-2.472.447-4.555 2.102-5.551 4.407l-9.768 22.62c-.915 2.12-.803 4.544.305 6.57 1.107 2.026 3.086 3.43 5.365 3.804l100.659 16.541c.928.152 1.637.88 1.763 1.811l11.356 83.295c.363 2.662 2.122 4.926 4.61 5.936l20.573 8.352c.924.375 1.879.553 2.818.553 2.963 0 5.77-1.767 6.952-4.681 1.558-3.838-.29-8.212-4.128-9.77l-16.55-6.719-7.638-56.027 24.372-24.372c6.55 4.273 13.357 8.196 20.337 11.717l-4.256 17.423c-1.629 6.668 1.834 13.309 8.234 15.79 1.639.635 3.318.939 4.966.939 4.79 0 9.312-2.571 11.761-7.052l8.255-15.105c3.445 1.137 6.914 2.188 10.404 3.145-.67 26.905-8.647 52.673-23.243 75.134l-6.477-2.63c-3.837-1.558-8.213.291-9.77 4.128-1.558 3.838.29 8.212 4.128 9.77l70.441 28.596-145.338-25.654c-.87-.154-1.561-.84-1.722-1.709l-17.11-92.972c-.588-3.193-3.163-5.645-6.381-6.076l-86.587-11.59c-2.079-.279-4.178.327-5.79 1.667-1.612 1.341-2.59 3.295-2.695 5.389l-2.155 42.717c-.042.819-.559 1.549-1.318 1.86l-27.505 11.25c-3.27 1.337-5.162 4.773-4.546 8.251l6.609 37.284c.117.71-.13 1.425-.66 1.912l-138.789 127.377c-3.052 2.801-3.255 7.545-.454 10.597 1.479 1.611 3.5 2.429 5.527 2.429 1.812 0 3.629-.653 5.069-1.975l138.789-127.378c4.27-3.918 6.258-9.672 5.304-15.486l-.847-4.779 18.868-17.285 15.617 15.617-187.868 172.103c-3.054 2.798-3.262 7.542-.464 10.597 1.479 1.615 3.502 2.434 5.532 2.434 1.81 0 3.625-.651 5.064-1.97l188.357-172.55c3.591 3.549 8.341 5.507 13.395 5.507 2.511 0 4.946-.487 7.202-1.407 7.17 11.183 13.146 22.986 17.882 35.249l-23.711 5.793c-5.434 1.327-9.937 5.21-12.051 10.388l-22.323 54.704-54.096-5.354c-6.637-.657-13.176 2.596-16.654 8.289l-30.397 49.733c-2.16 3.534-1.046 8.15 2.488 10.31 1.221.746 2.57 1.102 3.904 1.102 2.526 0 4.992-1.276 6.406-3.59l30.397-49.733c.496-.813 1.424-1.275 2.379-1.184l59.665 5.906c3.295.334 6.428-1.556 7.683-4.63l24.437-59.885c.302-.74.945-1.294 1.722-1.484l25.035-6.116c1.749 5.826 3.228 11.737 4.431 17.718l-19.458 10.634c-1.674.915-2.937 2.433-3.53 4.245l-17.462 53.272c-.296.903-1.064 1.552-2.006 1.693l-44.367 6.638c-3.591.537-6.28 3.568-6.388 7.196l-.342 11.598c-.122 4.14 3.136 7.595 7.276 7.717.075.002.15.003.225.003 4.04 0 7.373-3.214 7.493-7.279l.156-5.328 38.165-5.71c6.587-.985 11.968-5.529 14.041-11.856l16.537-50.45 12.169-6.651c.839 7.075 1.304 14.224 1.38 21.424.039 3.613 1.567 7.106 4.195 9.584 2.466 2.326 5.768 3.63 9.145 3.63.209 0 .418-.005.627-.015 52.897-2.539 102.665-24.574 140.137-62.044 5.91-5.91 11.481-12.214 16.642-18.745l35.452 6.259c6.316 1.119 12.199-2.551 13.974-8.721 1.775-6.169-1.253-12.399-7.201-14.813l-24.038-9.759c16.235-28.738 25.625-61.19 27.217-94.358.176-3.644-1.107-7.115-3.612-9.772-2.478-2.628-5.97-4.157-9.583-4.197-19.547-.212-38.787-3.272-57.309-9.101l33.122-60.603 50.451-16.537c6.327-2.075 10.871-7.455 11.856-14.04l5.708-38.164 5.329-.157c4.141-.122 7.397-3.577 7.276-7.717-.12-4.069-3.453-7.283-7.493-7.283zm-434.342 54.409c-1.866 3.373-3.633 6.797-5.311 10.263l-.77-7.782zm275.273 8.376c2.292-.871 3.878.38 4.454.957s1.824 2.165.957 4.454l-10.289 27.168-22.286-22.286zm-136.674 43.228 4.366-10.112 51.802-9.372-24.662 24.662zm105.961 33.867-.586-4.296c-1.021-7.498-6.725-13.36-14.193-14.587l-41.456-6.812 32.342-32.342 10.376-1.877c.747-.135 1.473-.33 2.183-.556l33.029 33.029c.768.768 1.19 1.788 1.19 2.874 0 1.085-.423 2.105-1.19 2.873zm-162.004 81.764-1.62-9.14 11.031-4.512c.57 1.112 1.246 2.174 2.035 3.166zm32.648-67.666 10.683 1.43-11.326 11.326zm31.828 83.429c-.768.768-1.788 1.19-2.873 1.19s-2.105-.423-2.873-1.19l-35.219-35.219c-.079-.079-.135-.174-.207-.259 4.289-2.875 7.121-7.601 7.553-12.833l31.184-31.184 43.725 5.853 5.029 27.324zm16.002 5.212 33.613-33.613 7.799 42.377c1.288 6.997 6.86 12.529 13.866 13.766l53.279 9.406c-23.71 17.325-52.086 27.021-81.681 27.757-5.771-21.082-14.796-41.191-26.876-59.693zm162.911 54.479c-34.421 34.42-80.004 54.827-128.524 57.579-.234-12.681-1.587-25.211-4.008-37.475 36.153-1.615 70.501-15.331 97.84-39.176l44.981 7.941c-3.291 3.83-6.719 7.561-10.289 11.131zm57.579-128.526c-1.754 30.882-10.771 61.041-26.164 87.662l-35.289-14.326c14.578-23.335 22.778-49.772 23.994-77.365 12.3 2.437 24.817 3.792 37.459 4.029z"/></g></svg>