<svg id="Capa_1" enable-background="new 0 0 512 512" height="512" viewBox="0 0 512 512" width="512" xmlns="http://www.w3.org/2000/svg"><g><g><g><path d="m389.202 193.663-32.069-9.943c-46.308-14.357-82.565-50.614-96.922-96.922l-9.943-32.069c-.97-3.13-3.866-5.264-7.143-5.264-3.277 0-6.172 2.134-7.143 5.264l-9.943 32.069c-14.357 46.308-50.614 82.565-96.922 96.922l-32.069 9.943c-3.13.97-5.264 3.866-5.264 7.143 0 3.277 2.134 6.172 5.264 7.143l32.069 9.943c46.308 14.357 82.565 50.614 96.922 96.922l9.943 32.069c.97 3.13 3.866 5.264 7.143 5.264 3.277 0 6.172-2.134 7.143-5.264l9.943-32.069c14.357-46.308 50.614-82.565 96.922-96.922l32.069-9.943c3.13-.97 5.264-3.866 5.264-7.143 0-3.277-2.134-6.172-5.264-7.143z" fill="#ffe059"/><path d="m394.456 200.793c0 3.281-2.129 6.177-5.27 7.155l-32.039 9.947c-46.313 14.344-82.575 50.606-96.919 96.919l-9.947 32.074c-.977 3.141-3.874 5.27-7.155 5.27s-6.177-2.129-7.155-5.27l-9.947-32.074c-4.851-15.705-12.25-30.259-21.743-43.207 50.431-8.969 88.682-53.049 88.682-106.028 0-8.83-1.047-17.415-3.071-25.652 17.66 20.242 40.799 35.599 67.253 43.8l32.039 9.947c3.143.976 5.272 3.838 5.272 7.119z" fill="#ffc751"/></g><g><g><g><g><g><path d="m462.082 356.149c3.982-2.623 3.982-8.449 0-11.072-10.278-6.771-20.034-14.648-29.094-23.639s-16.998-18.673-23.82-28.872c-2.643-3.952-8.514-3.952-11.157 0-6.823 10.2-14.76 19.882-23.82 28.872-9.06 8.991-18.816 16.868-29.094 23.639-3.982 2.623-3.982 8.449 0 11.072 10.278 6.771 20.034 14.648 29.094 23.639s16.998 18.673 23.82 28.872c2.643 3.952 8.514 3.952 11.157 0 6.823-10.2 14.76-19.882 23.82-28.872s18.816-16.869 29.094-23.639z" fill="#dad2ff"/></g></g><g><g><path d="m462.084 356.144c-10.277 6.771-20.031 14.646-29.095 23.64-9.064 8.995-16.999 18.675-23.822 28.873-2.645 3.946-8.508 3.946-11.153 0-6.823-10.198-14.758-19.879-23.822-28.873-1.179-1.17-2.375-2.324-3.588-3.461 1.6.134 3.218.2 4.852.2 31.099 0 56.454-24.51 57.499-55.122.017.017.017.017.034.033 9.064 8.995 18.818 16.869 29.095 23.64 3.976 2.627 3.976 8.445 0 11.07z" fill="#c3b9f9"/></g></g></g></g></g></g><g><path d="m184.164 72.062-16.026-4.969c-23.142-7.175-41.261-25.294-48.436-48.436l-4.969-16.027c-.485-1.564-1.932-2.63-3.57-2.63-1.638 0-3.085 1.066-3.57 2.63l-4.969 16.026c-7.174 23.143-25.294 41.262-48.436 48.437l-16.026 4.969c-1.564.485-2.63 1.932-2.63 3.57 0 1.638 1.066 3.085 2.63 3.57l16.026 4.969c23.142 7.175 41.261 25.294 48.436 48.437l4.969 16.026c.485 1.564 1.932 2.63 3.57 2.63 1.638 0 3.085-1.066 3.57-2.63l4.969-16.026c7.175-23.142 25.294-41.261 48.436-48.437l16.026-4.969c1.564-.485 2.63-1.932 2.63-3.57.001-1.638-1.065-3.085-2.63-3.57z" fill="#dad2ff"/><path d="m186.79 75.625c0 1.639-1.064 3.087-2.634 3.575l-16.011 4.971c-23.145 7.169-41.266 25.29-48.435 48.435l-4.971 16.029c-.488 1.57-1.936 2.634-3.576 2.634s-3.087-1.064-3.575-2.634l-4.971-16.029c-2.424-7.849-6.122-15.122-10.866-21.592 25.203-4.482 44.319-26.511 44.319-52.987 0-4.413-.523-8.703-1.535-12.819 8.825 10.116 20.389 17.79 33.61 21.889l16.011 4.971c1.57.487 2.634 1.918 2.634 3.557z" fill="#c3b9f9"/></g><g><path d="m376.426 448.157-12.918-4.005c-18.653-5.783-33.258-20.388-39.041-39.041l-4.005-12.918c-.391-1.261-1.557-2.12-2.877-2.12-1.32 0-2.486.859-2.877 2.12l-4.005 12.918c-5.783 18.653-20.388 33.258-39.041 39.041l-12.918 4.005c-1.261.391-2.12 1.557-2.12 2.877 0 1.32.859 2.486 2.12 2.877l12.918 4.005c18.653 5.783 33.258 20.388 39.041 39.041l4.005 12.918c.391 1.261 1.557 2.12 2.877 2.12 1.32 0 2.486-.859 2.877-2.12l4.005-12.918c5.783-18.653 20.388-33.258 39.041-39.041l12.918-4.005c1.261-.391 2.12-1.557 2.12-2.877.001-1.319-.859-2.486-2.12-2.877z" fill="#ffe059"/><path d="m378.543 451.029c0 1.321-.858 2.488-2.123 2.882l-12.905 4.007c-18.655 5.778-33.262 20.384-39.04 39.04l-4.007 12.92c-.394 1.265-1.561 2.123-2.882 2.123s-2.488-.858-2.882-2.123l-4.007-12.92c-1.954-6.326-4.934-12.189-8.758-17.404 20.314-3.613 35.722-21.369 35.722-42.709 0-3.557-.422-7.015-1.237-10.333 7.113 8.154 16.434 14.339 27.09 17.643l12.905 4.007c1.266.393 2.124 1.546 2.124 2.867z" fill="#ffc751"/></g><g><path d="m376.426 137.047-12.918-4.005c-18.653-5.783-33.258-20.388-39.041-39.041l-4.005-12.918c-.391-1.261-1.557-2.12-2.877-2.12-1.32 0-2.486.859-2.877 2.12l-4.005 12.918c-5.783 18.653-20.388 33.258-39.041 39.041l-12.918 4.005c-1.261.391-2.12 1.557-2.12 2.877 0 1.32.859 2.486 2.12 2.877l12.918 4.005c18.653 5.783 33.258 20.388 39.041 39.041l4.005 12.918c.391 1.261 1.557 2.12 2.877 2.12 1.32 0 2.486-.859 2.877-2.12l4.005-12.918c5.783-18.653 20.388-33.258 39.041-39.041l12.918-4.005c1.261-.391 2.12-1.557 2.12-2.877.001-1.32-.859-2.486-2.12-2.877z" fill="#dad2ff"/><path d="m378.543 139.919c0 1.321-.858 2.488-2.123 2.882l-12.905 4.007c-18.655 5.778-33.262 20.384-39.04 39.04l-4.007 12.92c-.394 1.265-1.561 2.123-2.882 2.123s-2.488-.858-2.882-2.123l-4.007-12.92c-1.954-6.326-4.934-12.188-8.758-17.404 20.314-3.613 35.722-21.369 35.722-42.709 0-3.557-.422-7.015-1.237-10.333 7.113 8.154 16.434 14.339 27.09 17.643l12.905 4.007c1.266.393 2.124 1.545 2.124 2.867z" fill="#c3b9f9"/></g><g><g><g><g><g><path d="m485.706 251.742c2.405-1.585 2.405-5.104 0-6.688-6.208-4.09-12.102-8.848-17.574-14.279s-10.267-11.279-14.389-17.441c-1.597-2.387-5.143-2.387-6.739 0-4.121 6.161-8.916 12.01-14.389 17.441s-11.366 10.189-17.574 14.279c-2.405 1.585-2.405 5.104 0 6.688 6.208 4.09 12.102 8.848 17.574 14.279 5.473 5.431 10.268 11.279 14.389 17.441 1.597 2.387 5.143 2.387 6.739 0 4.121-6.161 8.916-12.01 14.389-17.441 5.472-5.431 11.366-10.19 17.574-14.279z" fill="#ffe059"/></g></g><g><g><path d="m485.708 251.739c-6.208 4.09-12.1 8.847-17.575 14.28s-10.268 11.281-14.39 17.441c-1.598 2.383-5.139 2.383-6.737 0-4.121-6.16-8.915-12.008-14.39-17.441-.712-.707-1.435-1.404-2.168-2.09.967.081 1.944.121 2.931.121 18.786 0 34.101-14.805 34.732-33.297l.02.02c5.475 5.433 11.367 10.19 17.575 14.28 2.403 1.586 2.403 5.1.002 6.686z" fill="#ffc751"/></g></g></g></g></g><g><g><g><g><g><path d="m96.959 405.688c2.405-1.585 2.405-5.104 0-6.688-6.208-4.09-12.102-8.848-17.574-14.279s-10.268-11.279-14.389-17.441c-1.597-2.387-5.143-2.387-6.739 0-4.121 6.161-8.916 12.01-14.389 17.441s-11.366 10.189-17.574 14.279c-2.405 1.585-2.405 5.104 0 6.688 6.208 4.09 12.102 8.848 17.574 14.279 5.473 5.431 10.267 11.279 14.389 17.441 1.597 2.387 5.143 2.387 6.739 0 4.121-6.161 8.916-12.01 14.389-17.441s11.366-10.189 17.574-14.279z" fill="#dad2ff"/></g></g><g><g><path d="m96.961 405.685c-6.208 4.09-12.1 8.847-17.575 14.28s-10.268 11.281-14.39 17.441c-1.598 2.383-5.139 2.383-6.737 0-4.121-6.16-8.915-12.008-14.39-17.441-.712-.707-1.435-1.404-2.168-2.09.967.081 1.944.121 2.931.121 18.786 0 34.101-14.805 34.732-33.297l.02.02c5.475 5.433 11.367 10.19 17.575 14.28 2.403 1.586 2.403 5.101.002 6.686z" fill="#c3b9f9"/></g></g></g></g></g><g><g><g><g><g><path d="m234.41 428.368c2.405-1.585 2.405-5.104 0-6.688-6.208-4.09-12.102-8.848-17.574-14.279-5.473-5.431-10.268-11.279-14.389-17.441-1.597-2.387-5.143-2.387-6.739 0-4.121 6.161-8.916 12.01-14.389 17.441s-11.366 10.189-17.574 14.279c-2.405 1.585-2.405 5.104 0 6.688 6.208 4.09 12.102 8.848 17.574 14.279 5.473 5.431 10.268 11.279 14.389 17.441 1.597 2.387 5.143 2.387 6.739 0 4.121-6.161 8.916-12.01 14.389-17.441s11.366-10.19 17.574-14.279z" fill="#ffe059"/></g></g><g><g><path d="m234.412 428.365c-6.208 4.09-12.1 8.847-17.575 14.28s-10.268 11.281-14.39 17.441c-1.598 2.383-5.139 2.383-6.737 0-4.121-6.16-8.915-12.008-14.39-17.441-.712-.707-1.435-1.404-2.168-2.09.967.081 1.944.121 2.931.121 18.786 0 34.101-14.805 34.732-33.297l.02.02c5.475 5.433 11.367 10.19 17.575 14.28 2.403 1.586 2.403 5.1.002 6.686z" fill="#ffc751"/></g></g></g></g></g></g><path d="m236.819 113.202c-.089-.066-.179-.132-.268-.198-7.927-5.862-19.255-3.63-24.258 4.865-11.577 19.654-27.566 36.333-46.654 48.724-6.043 3.923-9.071 11.138-7.508 18.171l.074.334c2.609 11.741 16.071 17.22 26.226 10.776 23.504-14.915 44.994-36.546 57.485-61.794 3.596-7.268 1.426-16.059-5.097-20.878z" fill="#fff370"/><path d="m188.747 148.007c-2.495 2.457-5.078 4.826-7.744 7.101-7.269 6.202-8.266 17.047-2.124 24.367.075.089.15.179.225.268 6.172 7.357 17.133 8.252 24.466 2.051 3.36-2.841 6.625-5.821 9.771-8.927 6.37-6.29 6.795-16.434 1.071-23.317-.081-.097-.161-.194-.241-.29-6.471-7.785-18.212-8.356-25.424-1.253z" fill="#fff7c7"/><g><g><path d="m364.078 353.414c3.961 1.739 8.546 1.22 12.014-1.364 4.819-3.591 11.012-8.174 15.707-12.87 4.786-4.786 9.556-11.079 13.293-15.982 2.696-3.537 3.215-8.269 1.354-12.309-3.686-8.003-14.472-9.475-20.109-2.703-3.797 4.562-7.846 8.986-12.148 13.254-4.171 4.139-8.491 8.043-12.941 11.712-6.903 5.692-5.362 16.664 2.83 20.262z" fill="#eae9ff"/></g></g><g><g><g><g><g><path d="m165.96 297.639c3.364-2.216 3.364-7.137 0-9.353-8.683-5.72-16.924-12.374-24.578-19.97-7.653-7.595-14.359-15.774-20.123-24.391-2.233-3.338-7.192-3.338-9.425 0-5.764 8.617-12.469 16.795-20.123 24.391s-15.895 14.25-24.578 19.97c-3.364 2.216-3.364 7.137 0 9.353 8.683 5.72 16.924 12.374 24.578 19.97 7.653 7.595 14.359 15.774 20.123 24.391 2.233 3.338 7.192 3.338 9.425 0 5.764-8.617 12.469-16.795 20.123-24.391 7.654-7.595 15.896-14.25 24.578-19.97z" fill="#ffe059"/></g></g><g><g><path d="m165.962 297.636c-8.681 5.72-16.922 12.372-24.578 19.971-7.657 7.599-14.36 15.776-20.124 24.391-2.234 3.333-7.187 3.333-9.421 0-5.764-8.615-12.467-16.793-20.124-24.391-.996-.989-2.007-1.963-3.031-2.923 1.352.113 2.718.169 4.099.169 26.272 0 47.691-20.705 48.573-46.565.014.014.014.014.029.028 7.657 7.599 15.897 14.251 24.578 19.971 3.358 2.216 3.358 7.131-.001 9.349z" fill="#ffc751"/></g></g></g></g></g><g><g><path d="m83.17 295.329c3.346 1.469 7.219 1.031 10.149-1.153 4.071-3.033 9.302-6.905 13.269-10.872 4.043-4.043 8.072-9.359 11.23-13.501 2.278-2.988 2.716-6.986 1.144-10.398-3.114-6.761-12.226-8.005-16.988-2.284-3.207 3.853-6.628 7.591-10.262 11.197-3.524 3.497-7.173 6.795-10.932 9.894-5.833 4.809-4.531 14.078 2.39 17.117z" fill="#fff370"/></g></g></svg>