<svg id="Capa_1" enable-background="new 0 0 512 512" height="512" viewBox="0 0 512 512" width="512" xmlns="http://www.w3.org/2000/svg"><g><g><g><g><path d="m93.751 497.562 1.324-64.763 78.041-78.041-1.438 70.292c-.068 3.348-1.429 6.54-3.797 8.908l-66.75 66.75c-2.753 2.754-7.459.748-7.38-3.146z" fill="#fca62f"/><path d="m168.075 433.757c-3.309-.623-6.257-3.131-6.892-7.05-2.075-12.844-6.831-28.892-17.178-42.84l29.112-29.112-1.435 70.291c-.061 3.26-1.355 6.373-3.607 8.711z" fill="#f98824"/><path d="m167.883 433.957-66.751 66.751c-2.753 2.753-7.46.745-7.38-3.144l.61-29.74c1.056 2.717 4.768 3.779 7.087 1.459l67.361-67.361c1.728-1.728 2.924-3.901 3.467-6.251l-.598 29.374c-.066 3.351-1.428 6.543-3.796 8.912z" fill="#f98824"/><path d="m146.747 455.096-24.458 24.458 1.541-75.513 24.458-24.458z" fill="#0f7a4f"/><path d="m146.744 455.096-24.454 24.454.647-31.755 24.454-24.454z" fill="#0c6842"/><path d="m14.437 418.247 64.763-1.324 78.041-78.041-70.292 1.438c-3.348.068-6.54 1.429-8.908 3.797l-66.75 66.75c-2.755 2.754-.749 7.46 3.146 7.38z" fill="#fca62f"/><path d="m157.239 338.877-29.112 29.112c-13.954-10.341-29.984-15.09-42.834-17.171-3.919-.635-6.422-3.577-7.05-6.892 2.338-2.253 5.451-3.547 8.711-3.608z" fill="#f98824"/><path d="m56.904 365.253-24.458 24.458 75.513-1.541 24.458-24.458z" fill="#0f7a4f"/><g><path d="m161.575 328.433-98.051 98.051c-6.062 6.062-6.062 15.89 0 21.951l.04.04c6.062 6.062 15.89 6.062 21.952 0l98.047-98.047c-7.344-7.318-14.67-14.653-21.988-21.995z" fill="#ffd496"/></g><g><path d="m161.577 328.435-37.039 37.039c4.23 2.79 8.32 6.049 12.129 9.859 3.809 3.809 7.069 7.899 9.858 12.129l37.035-37.035c-7.341-7.316-14.666-14.65-21.983-21.992z" fill="#fcb44d"/></g><path d="m122.188 411.796-36.66 36.66c-6.07 6.07-15.912 6.07-21.983 0l-.003-.003c-6.07-6.07-6.07-15.912 0-21.983l36.66-36.66z" fill="#a69ca7"/></g><g><path d="m47.3 289.438c.014.039.143-.01.362-.131-.247.047-.376.093-.362.131z" fill="#a3e440"/><path d="m250.255 496.776c10.987-38.277 11.678-70.277 10.689-88.704-.316-5.893 6.702-9.178 11.046-5.183l16.574 15.246c6.403 5.89 16.581-.338 14.155-8.693-12.033-41.45-43.469-86.441-78.596-121.567-35.122-35.122-80.112-66.557-121.561-78.59-8.355-2.425-14.583 7.752-8.693 14.155l15.245 16.574c3.995 4.344.71 11.363-5.183 11.046-18.427-.99-50.428-.299-88.706 10.685-9.387 2.694-7.713 16.529 2.045 16.911 27.973 1.097 61.932 6.66 88.077 24.174 3.765 2.522 3.898 8.017.276 10.739-2.616 1.966-5.728 4.299-8.928 6.685-6.095 4.544-3.774 14.22 3.731 15.435 15.57 2.52 35.82 8.968 51.368 24.516 15.552 15.552 22.002 35.804 24.522 51.375 1.215 7.505 10.891 9.825 15.435 3.73 2.386-3.2 4.719-6.313 6.685-8.929 2.722-3.623 8.217-3.489 10.739.276 17.513 26.145 23.075 60.102 24.171 88.074.38 9.758 14.214 11.432 16.909 2.045zm-66.28-168.754c-27.366-27.366-44.8-54.31-38.94-60.17 5.866-5.866 32.811 11.568 60.177 38.933 27.372 27.372 44.806 54.316 38.94 60.183-5.861 5.86-32.805-11.574-60.177-38.946z" fill="#8dcafc"/><path d="m233.345 494.73c-.378-9.706-1.306-20.132-3.07-30.711 2.576-.72 4.835-2.649 5.769-5.891 10.988-38.274 11.678-70.279 10.689-88.702-.317-5.897 6.703-9.181 11.043-5.183l16.579 15.249c5.323 4.896 13.271 1.404 14.388-4.719 5.909 11.635 10.67 23.282 13.973 34.666 2.436 8.357-7.746 14.583-14.15 8.693l-16.573-15.243c-4.346-3.992-11.366-.708-11.043 5.183.983 18.429.293 50.422-10.695 88.708-2.693 9.383-16.526 7.711-16.91-2.05z" fill="#64b9fc"/><path d="m148.077 390.216c.039.014.084-.115.131-.362-.12.219-.17.347-.131.362z" fill="#a3e440"/></g><g><path d="m333.768 200.227-138.532 138.532c-3.711-3.37-7.484-6.959-11.263-10.738s-7.368-7.551-10.731-11.256l138.532-138.532z" fill="#ffd496"/><path d="m333.768 200.218-35.558 35.558-4.157-17.831-17.831-4.157 35.558-35.558z" fill="#fcb44d"/><path d="m300.574 201.736-43.637-10.168c-4.262-.993-4.521-6.963-.362-8.322l99.102-32.377c3.365-1.099 6.553 2.089 5.453 5.453l-32.377 99.102c-1.359 4.16-7.329 3.9-8.322-.362l-10.168-43.637c-1.12-4.811-4.877-8.568-9.689-9.689z" fill="#e1dde1"/><path d="m320.43 255.065-5.079-21.792 25.321-77.501 15.011-4.902c3.357-1.099 6.544 2.088 5.451 5.451l-32.383 99.104c-1.356 4.164-7.326 3.895-8.321-.36z" fill="#cbc5cb"/><path d="m360.077 151.921-53.279 53.279c-1.685-1.685-3.821-2.906-6.226-3.467l-43.64-10.164c-4.255-.995-4.517-6.959-.36-8.32l99.11-32.377c1.673-.551 3.315-.032 4.395 1.049z" fill="#f2eff2"/></g><g><g><path d="m48.262 326.602c3.623-1.758 3.895-6.822.476-8.949-8.352-5.194-22.525-11.487-33.912-3.796-17.293 11.679-.78 27.91 16.216 20.582 7.484-3.226 13.184-5.879 17.22-7.837z" fill="#d9ecfd"/></g><g><path d="m185.398 463.738c1.758-3.623 6.822-3.895 8.949-.476 5.194 8.352 11.487 22.525 3.796 33.912-11.679 17.293-27.91.78-20.582-16.216 3.226-7.484 5.879-13.184 7.837-17.22z" fill="#d9ecfd"/></g></g><path d="m350.818 415.824c-2.32 9.669 10.858 14.97 15.849 6.37 19.741-34.016 62.989-136.209 61.118-193.497-1.149-35.182 1.876-138.579-2.014-142.468-3.887-3.887-107.286-.865-142.468-2.014-57.288-1.871-159.481 41.377-193.497 61.118-8.6 4.991-3.298 18.169 6.37 15.849 25.791-6.188 49.428-11.124 67.898-14.725 9.223-1.798 15.582 9.001 9.536 16.194-4.625 5.502-8.665 11.261-12.065 16.649-4.598 7.287 3.109 16.091 10.921 12.455 67.943-31.627 143.969-60.311 193.32-71.479 15.566-3.523 29.459 10.371 25.937 25.937-11.168 49.351-39.853 125.377-71.48 193.32-3.636 7.812 5.168 15.519 12.455 10.921 5.388-3.399 11.147-7.44 16.649-12.065 7.193-6.046 17.992.314 16.194 9.536-3.599 18.471-8.535 42.108-14.723 67.899z" fill="#8dcafc"/><path d="m350.817 415.825c4.084-17.013 7.618-33.073 10.585-47.345 21.744-44.708 41.918-101.118 40.185-154.251-.922-28.269.849-100.545-.433-129.906 13.894.232 23.49.781 24.619 1.911 3.889 3.889.861 107.284 2.014 142.463 1.869 57.282-41.38 159.483-61.117 193.495-4.994 8.607-18.173 3.302-15.853-6.367z" fill="#64b9fc"/><g><g><path d="m451.456 114.396 9.712 152.23c.326 5.107 6.031 7.973 10.323 5.185l21.31-13.845c9.796-6.365 14.062-18.541 10.378-29.627l-38.696-116.477c-2.473-7.444-13.527-5.292-13.027 2.534z" fill="#d9ecfd"/></g><g><path d="m397.604 60.544-152.23-9.712c-5.107-.326-7.973-6.031-5.185-10.323l13.845-21.31c6.365-9.796 18.541-14.062 29.627-10.378l116.477 38.696c7.444 2.473 5.292 13.527-2.534 13.027z" fill="#d9ecfd"/></g></g></g></g><g><path d="m245.255 299.348 63.095-63.095 4.78 20.514c1.219 5.227 5.641 8.896 11.003 9.128.18.008.358.012.536.012 5.139 0 9.605-3.222 11.216-8.153l32.379-99.107c1.39-4.257.286-8.868-2.881-12.034-3.165-3.165-7.775-4.269-12.032-2.878l-28.44 9.291c-3.938 1.287-6.086 5.521-4.8 9.459 1.286 3.937 5.522 6.088 9.458 4.801l6.734-2.2-30.51 30.513c-1.122-.484-2.294-.884-3.517-1.169l-32.564-7.588 28.811-9.413c3.938-1.287 6.086-5.521 4.8-9.459-1.285-3.937-5.518-6.086-9.458-4.801l-39.62 12.944c-5.103 1.667-8.374 6.39-8.141 11.753s3.902 9.785 9.13 11.003l20.514 4.78-63.1 63.1c-7.921-7.053-16.104-13.783-24.393-20.047-3.304-2.497-8.009-1.842-10.506 1.462-2.497 3.305-1.842 8.008 1.462 10.506 7.743 5.851 15.391 12.129 22.81 18.705l-8.384 8.384c-10.268-8.882-19.91-15.961-28.048-20.573-4.5-2.549-18.192-10.308-25.863-2.639-7.783 7.784-.293 21.648 6.017 31.4 7.635 11.798 19.327 25.783 32.924 39.38 13.6 13.6 27.587 25.295 39.385 32.93 6.78 4.387 15.546 9.345 22.875 9.344 3.214 0 6.153-.954 8.525-3.326 7.026-7.026 1.569-18.63-3.147-26.747-4.568-7.863-11.59-17.35-20.069-27.165l8.388-8.388c29.739 33.543 51.815 70.297 60.892 101.563.088.305.222.765-.479 1.199-.759.47-1.19.073-1.398-.118l-16.575-15.246c-4.239-3.898-10.344-4.831-15.558-2.375-5.201 2.451-8.363 7.743-8.055 13.481 1.031 19.205.062 49.757-10.409 86.237-.114.399-.253.896-1.212.78s-.979-.634-.996-1.05c-1.49-38.049-10.048-68.988-25.435-91.959-2.531-3.778-6.759-6.108-11.31-6.231-4.553-.114-8.917 1.979-11.657 5.624-1.971 2.623-4.31 5.743-6.701 8.951-.124.167-.455.609-1.202.425-.704-.172-.783-.662-.817-.871-2.542-15.708-9.225-38.084-26.623-55.482-17.395-17.395-39.769-24.076-55.475-26.617-.209-.034-.699-.113-.872-.817-.183-.748.259-1.077.425-1.201 3.208-2.392 6.329-4.731 8.951-6.702 3.645-2.739 5.748-7.096 5.624-11.656-.124-4.551-2.453-8.779-6.232-11.31-22.97-15.387-53.91-23.946-91.96-25.438-.417-.017-.934-.037-1.05-.996-.115-.955.381-1.097.78-1.212 36.486-10.47 67.036-11.438 86.239-10.406 5.747.304 11.029-2.854 13.481-8.056 2.456-5.212 1.524-11.319-2.375-15.558l-15.246-16.574c-.191-.208-.587-.639-.118-1.398.434-.701.895-.566 1.2-.479 16.485 4.785 34.175 12.947 52.577 24.257 3.529 2.17 8.148 1.065 10.317-2.463 2.169-3.529 1.066-8.148-2.463-10.317-19.548-12.014-38.473-20.723-56.25-25.883-6.999-2.033-14.285.774-18.132 6.982-3.869 6.242-3.134 14.061 1.827 19.455l13.747 14.944c-20.44-.897-51.834.427-88.942 11.076-7.762 2.227-12.505 9.393-11.535 17.428.97 8.037 7.284 13.871 15.355 14.188 34.129 1.339 62.83 9.008 83.116 22.196-2.379 1.787-5.095 3.821-7.877 5.895-5.21 3.884-7.576 10.476-6.03 16.794.15.614.344 1.208.561 1.79-5.29.122-10.262 2.245-14.005 5.989l-66.75 66.756c-3.432 3.431-4.419 8.533-2.517 12.998 1.871 4.388 6.12 7.188 10.873 7.188.082 0 .165-.001.248-.002l40.619-.831c-5.796 8.93-4.789 21.021 3.034 28.845 4.494 4.494 10.395 6.741 16.299 6.74 4.373 0 8.744-1.241 12.544-3.707l-.831 40.619c-.099 4.852 2.721 9.217 7.185 11.12 1.509.643 3.091.956 4.656.956 3.066 0 6.07-1.201 8.342-3.472l66.753-66.753c3.743-3.742 5.866-8.713 5.989-14.002.583.217 1.179.411 1.794.562 6.32 1.549 12.911-.819 16.795-6.029 2.074-2.782 4.108-5.498 5.895-7.878 13.188 20.286 20.856 48.985 22.193 83.112.315 8.07 6.149 14.385 14.186 15.356.697.084 1.387.125 2.067.125 7.173 0 13.328-4.571 15.362-11.659 10.65-37.103 11.976-68.496 11.079-88.942l14.945 13.747c5.393 4.961 13.211 5.697 19.455 1.828 6.207-3.848 9.013-11.134 6.981-18.132-9.884-34.048-32.777-72.242-64.668-108.011zm-50.213 28.999c-1.885-1.794-3.808-3.667-5.767-5.626-1.957-1.957-3.829-3.878-5.622-5.762l66.256-66.256 11.388 11.388zm71.026-93.802 11.388 11.387-5.551 5.552-11.388-11.387zm59.09 7.742-7.587-32.564c-.285-1.223-.685-2.394-1.169-3.516l30.514-30.517zm-26.284-33.249c2.045.477 3.611 2.043 4.087 4.089l1.38 5.92-16.278 16.278-11.388-11.387 16.279-16.279zm-115.873 87.36-9.422 9.422c-11.742-13.713-18.465-24.472-21.004-30.418 5.612 2.368 15.951 8.575 30.426 20.996zm53.618 63.037c-5.943-2.534-16.71-9.26-30.438-21.013l9.425-9.425c12.432 14.47 18.651 24.812 21.013 30.438zm-96.342 44.886-.971 47.611-9.143 9.143.972-47.611zm11.553-32.767-29.645 29.645-11.385-11.386 29.645-29.645c2.078 1.636 4.102 3.406 6.04 5.344 1.939 1.939 3.709 3.964 5.345 6.042zm-91.764 1.141 47.61-.971-9.143 9.143-47.611.972zm27.029-24.873 28.932-.592c3.745 1.264 7.586 2.831 11.402 4.74l-4.437 4.437-47.611.971 7.955-7.955c1.005-1.004 2.339-1.573 3.759-1.601zm-51.489 49.332 47.611-.972-13.438 13.438-47.613.974zm33.235 46.006c-3.139-3.14-3.139-8.248 0-11.388l31.352-31.352 11.385 11.386-31.354 31.354c-3.138 3.138-8.245 3.138-11.383 0zm32.564 46.673.974-47.613 13.439-13.439-.972 47.611zm61.171-61.171-7.953 7.953.972-47.611 4.436-4.436c1.908 3.815 3.476 7.654 4.74 11.398l-.592 28.937c-.031 1.42-.599 2.755-1.603 3.759z"/><path d="m22.379 343.807c3.702 0 7.64-.76 11.623-2.477 6.459-2.785 12.356-5.469 17.525-7.977 4.136-2.006 6.855-6.106 7.096-10.697.24-4.588-2.033-8.944-5.932-11.369-15.935-9.91-30.877-11.204-42.073-3.643-12.05 8.139-12.144 18.67-8.563 25.216 3.446 6.301 11.167 10.947 20.324 10.947zm-3.366-23.732c2.42-1.634 5.145-2.28 7.942-2.28 4.833 0 9.879 1.929 13.922 4.016-3.925 1.838-8.218 3.762-12.814 5.744-6.365 2.743-11.668.265-12.849-1.893-1.148-2.1 2.963-5.022 3.799-5.587z"/><path d="m189.345 453.377c-4.592.241-8.691 2.96-10.697 7.096-2.509 5.17-5.193 11.066-7.977 17.526-5.965 13.835-.378 27.109 8.47 31.948 2.288 1.252 5.063 2.054 8.053 2.054 5.564 0 11.87-2.779 17.164-10.617 7.561-11.196 6.268-26.138-3.642-42.073-2.427-3.9-6.778-6.162-11.371-5.934zm2.58 39.61c-.564.836-3.486 4.947-5.587 3.798-2.158-1.181-4.637-6.484-1.893-12.849 1.982-4.596 3.906-8.889 5.744-12.814 3.295 6.384 6.195 15.263 1.736 21.865z"/><path d="m435.014 205.439c-.003-4.141-3.36-7.495-7.5-7.495-.002 0-.004 0-.006 0-4.142.003-7.497 3.363-7.494 7.506.008 10.234.1 17.918.282 23.491 1.866 57.145-42.246 158.712-60.111 189.496-.228.389-.482.831-1.379.473-.921-.369-.793-.901-.69-1.329 5.288-22.043 10.266-44.994 14.794-68.215 1.437-7.365-1.814-14.585-8.281-18.393-6.465-3.807-14.357-3.149-20.102 1.68-4.678 3.932-10.002 7.789-15.825 11.463-.257.162-.734.461-1.383-.107-.624-.55-.403-1.023-.271-1.306 33.499-71.967 61.089-146.625 71.999-194.838 2.226-9.836-.698-19.962-7.823-27.086-7.124-7.125-17.252-10.048-27.087-7.823-48.216 10.911-122.874 38.499-194.838 71.998-.284.132-.756.351-1.306-.272-.57-.648-.269-1.126-.107-1.382 3.672-5.821 7.529-11.146 11.463-15.826 4.828-5.744 5.488-13.634 1.679-20.101-3.808-6.467-11.029-9.717-18.393-8.281-23.216 4.527-46.167 9.504-68.216 14.794-.427.104-.96.232-1.328-.691-.359-.896.083-1.152.473-1.378 30.783-17.866 132.382-61.98 189.496-60.111 13.273.434 35.697.283 59.438.124 27.883-.188 64.93-.436 76.993.683 1.119 12.062.87 49.09.684 76.955l-.022 3.267c-.027 4.142 3.308 7.522 7.451 7.55 4.182.014 7.523-3.309 7.55-7.45l.022-3.266c.544-80.914-.324-84.883-4.092-88.649-3.766-3.765-7.741-4.632-88.684-4.091-23.59.158-45.871.309-58.847-.116-32.851-1.073-76.974 11.85-108.222 22.879-38.189 13.479-72.365 29.426-89.293 39.251-7.093 4.116-9.918 12.31-6.871 19.926 3.054 7.631 10.766 11.621 18.755 9.705 21.841-5.24 44.581-10.171 67.587-14.657 1.412-.275 2.191.484 2.596 1.17.404.686.69 1.734-.236 2.838-4.371 5.199-8.633 11.079-12.667 17.473-3.859 6.116-3.243 13.871 1.534 19.298 4.765 5.412 12.358 7.003 18.896 3.96 69.99-32.58 145.283-60.436 191.818-70.967 4.856-1.099 9.656.286 13.169 3.799s4.898 8.313 3.798 13.169c-10.53 46.532-38.386 121.825-70.968 191.819-3.043 6.538-1.451 14.131 3.96 18.895 5.429 4.778 13.185 5.393 19.299 1.534 6.397-4.036 12.276-8.298 17.473-12.667 1.102-.925 2.15-.641 2.838-.236.686.404 1.444 1.182 1.169 2.596-4.487 23.012-9.418 45.751-14.657 67.586-1.917 7.989 2.073 15.702 9.704 18.756 2.052.821 4.145 1.216 6.19 1.216 5.544 0 10.729-2.904 13.736-8.086 9.826-16.93 25.773-51.106 39.252-89.294 11.029-31.248 23.951-75.389 22.879-108.221-.18-5.417-.27-12.944-.278-23.016z"/><path d="m510.307 225.972-38.698-116.482c-2.278-6.861-9.083-10.842-16.179-9.455-7.095 1.381-11.911 7.62-11.45 14.834l9.711 152.237c.324 5.087 3.238 9.49 7.794 11.778 2.036 1.022 4.215 1.53 6.385 1.53 2.684 0 5.352-.776 7.715-2.312l21.31-13.846c12.654-8.221 18.169-23.964 13.412-38.284zm-21.583 25.704-20.151 13.093-9.224-144.606 36.723 110.538c2.605 7.846-.416 16.471-7.348 20.975z"/><path d="m244.896 58.309 152.236 9.712c.319.02.635.03.949.03 6.806 0 12.565-4.7 13.885-11.482 1.381-7.096-2.596-13.9-9.456-16.179l-116.481-38.697c-14.324-4.757-30.062.758-38.283 13.41l-13.846 21.311c-2.777 4.275-3.069 9.546-.781 14.102s6.69 7.469 11.777 7.793zm15.428-35.033c4.503-6.933 13.13-9.954 20.975-7.347l110.537 36.723-144.604-9.225z"/><path d="m269.112 110.792-68.559 22.541c-3.935 1.294-6.076 5.533-4.783 9.468 1.038 3.158 3.972 5.16 7.124 5.16.776 0 1.566-.122 2.344-.377l68.56-22.541c3.935-1.294 6.076-5.533 4.782-9.468-1.294-3.936-5.529-6.076-9.468-4.783z"/><path d="m396.426 233.421c-3.937-1.291-8.174.848-9.468 4.783l-22.541 68.559c-1.294 3.935.848 8.174 4.782 9.468.778.255 1.567.377 2.344.377 3.152 0 6.086-2.003 7.124-5.16l22.541-68.559c1.294-3.935-.847-8.174-4.782-9.468z"/></g></g></svg>