<svg id="Capa_1" enable-background="new 0 0 512 512" height="512" viewBox="0 0 512 512" width="512" xmlns="http://www.w3.org/2000/svg"><g><g><path d="m372.91 425.143c101.467-145.556 79.307-279.426 66.248-327.487-3.282-12.08-12.734-21.49-24.834-24.696-47.594-12.609-179.385-33.578-325.044 64.943-8.18 5.533-2.819 18.294 6.851 16.29l67.398-13.965c3.358-.696 4.847 4.057 1.688 5.392-34.028 14.377-91.013 42.399-152.668 94.681-7.37 6.249-.985 18.144 8.311 15.506l181.681-51.572c64.174-18.217 123.442 41.051 105.225 105.225l-51.57 181.675c-2.639 9.296 9.259 15.681 15.507 8.309 50.184-59.206 77.938-114.173 92.241-149.134 1.295-3.166 6.054-1.745 5.412 1.615l-12.67 66.367c-1.82 9.532 10.675 14.812 16.224 6.851z" fill="#bcea73"/><path d="m372.91 425.14c-5.55 7.96-18.04 2.68-16.22-6.85l7.79-40.81c74.37-130.8 54.82-246.53 42.88-290.49-2.02-7.42-6.36-13.83-12.21-18.42 7.39 1.45 13.81 2.97 19.17 4.39 12.1 3.2 21.56 12.62 24.84 24.7 13.06 48.07 35.21 181.94-66.25 327.48z" fill="#99d53b"/><g><path d="m4.003 398.488h162.248v56.77h-162.248z" fill="#fca62f" transform="matrix(.707 -.707 .707 .707 -276.912 185.222)"/><path d="m13.959 422.537h162.253v28.595h-162.253z" fill="#f98824" transform="matrix(.707 -.707 .707 .707 -281.039 195.181)"/><g><path d="m162.562 389.581-31.23 31.23c-8.543-3.985-16.545-9.491-23.598-16.545s-12.56-15.055-16.545-23.598l31.23-31.23z" fill="#f98824"/></g></g><g><g><g><g><path d="m222.999 289.001-7.189-76.15c-.34-3.598 1.443-7.066 4.567-8.883l179.303-104.321c8.226-4.786 17.459 4.448 12.674 12.674l-104.322 179.303c-1.818 3.124-5.285 4.907-8.883 4.567z" fill="#2db181"/><path d="m299.147 296.196-14.679-1.388-20.434-46.839-46.839-20.421-1.388-14.692c-.337-3.597 1.445-7.072 4.571-8.887l179.298-104.323c8.231-4.781 17.461 4.45 12.674 12.674l-104.316 179.305c-1.82 3.12-5.29 4.908-8.887 4.571z" fill="#158f5e"/><path d="m299.147 296.196-76.147-7.193-2.273-24.069 64.727 6.111c3.603.344 7.072-1.445 8.887-4.571l92.832-159.558 12.502-7.27c8.231-4.781 17.461 4.45 12.674 12.674l-104.315 179.305c-1.82 3.12-5.29 4.908-8.887 4.571z" fill="#158f5e"/><path d="m304.35 295.146-26.572-60.918-60.931-26.559c.774-1.508 1.993-2.805 3.539-3.697l179.306-104.322c8.219-4.785 17.448 4.444 12.663 12.663l-104.322 179.306c-.904 1.534-2.176 2.753-3.683 3.527z" fill="#afdcc8"/><path d="m304.348 295.146-11.618-26.641c.624-.586 1.165-1.267 1.611-2.031l92.813-159.526 12.541-7.295c8.212-4.787 17.442 4.443 12.661 12.661l-104.328 179.305c-.898 1.534-2.171 2.756-3.68 3.527z" fill="#7cc9a7"/><g><path d="m242.196 387.258c-8.474 8.474-18.312 14.722-28.809 18.769-3.39 1.307-7.323.549-9.76-2.146-3.334-3.689-7.86-6.713-13.573-8.807-4.266-1.564-8.949-1.561-13.213.008-5.697 2.097-10.204 5.118-13.526 8.796-2.428 2.689-6.348 3.445-9.729 2.143-10.505-4.047-20.351-10.298-28.83-18.777s-14.73-18.324-18.776-28.828c-1.303-3.381-.546-7.303 2.143-9.732 3.679-3.323 6.7-7.831 8.797-13.53 1.57-4.266 1.571-8.949.005-13.216-2.096-5.711-5.12-10.234-8.807-13.567-2.695-2.436-3.452-6.367-2.146-9.756 4.047-10.498 10.296-20.338 18.77-28.812 8.523-8.523 18.437-14.805 29.016-18.845 3.33-1.272 7.149-.477 9.535 2.173 3.024 3.358 7.068 6.195 12.335 8.515 4.262 1.877 9.033 2.164 13.445.674 6.173-2.085 11.024-5.237 14.547-9.132 2.41-2.664 6.23-3.508 9.586-2.224 10.566 4.045 20.468 10.316 28.991 18.839 8.522 8.522 14.794 18.425 18.839 28.991 1.285 3.355.441 7.175-2.224 9.586-3.894 3.522-7.046 8.372-9.131 14.543-1.49 4.411-1.204 9.183.672 13.445 2.319 5.269 5.157 9.315 8.516 12.339 2.649 2.385 3.444 6.204 2.172 9.535-4.039 10.578-10.321 20.492-18.845 29.016z" fill="#cbc5cb"/></g><g><path d="m242.196 387.259c-8.476 8.475-18.312 14.714-28.805 18.773-3.402 1.303-7.322.542-9.767-2.157-3.333-3.678-7.864-6.711-13.572-8.798-4.267-1.568-8.948-1.568-13.215 0-5.696 2.099-10.193 5.12-13.526 8.798-2.422 2.698-6.354 3.448-9.732 2.145-10.505-4.047-20.353-10.297-28.828-18.772-4.912-4.912-9.075-10.297-12.511-15.994 4.128 2.468 8.418 4.543 12.823 6.25 3.379 1.303 7.311.554 9.732-2.145 3.333-3.678 7.83-6.7 13.526-8.798 4.267-1.569 8.948-1.568 13.215 0 5.708 2.087 10.24 5.12 13.572 8.798 2.444 2.698 6.365 3.46 9.767 2.157 10.493-4.059 20.329-10.297 28.805-18.773 8.521-8.521 14.817-18.438 18.842-29.012 1.28-3.333.484-7.149-2.168-9.548-3.355-3.01-6.204-7.057-8.522-12.327-1.868-4.267-2.156-9.029-.669-13.445 2.087-6.169 5.235-11.024 9.133-14.552 2.664-2.41 3.505-6.227 2.226-9.582-1.695-4.462-3.805-8.81-6.319-12.984 5.708 3.425 11.07 7.587 15.994 12.511 8.521 8.521 14.806 18.427 18.842 28.989 1.28 3.356.438 7.173-2.226 9.583-3.898 3.528-7.046 8.383-9.133 14.552-1.488 4.417-1.199 9.179.669 13.445 2.318 5.27 5.166 9.317 8.522 12.327 2.652 2.399 3.448 6.215 2.168 9.548-4.026 10.572-10.322 20.489-18.843 29.011z" fill="#b5adb6"/></g></g></g></g><g><g><g><circle cx="208.102" cy="303.899" fill="#685e67" r="12.506"/></g><g><circle cx="158.847" cy="353.153" fill="#685e67" r="12.506"/></g></g><g><g><circle cx="208.102" cy="353.153" fill="#685e67" r="12.506"/></g><g><circle cx="158.847" cy="303.899" fill="#685e67" r="12.506"/></g></g></g></g></g><g><path d="m446.397 95.696c-3.968-14.613-15.523-26.102-30.157-29.985-23.456-6.215-61.564-13.122-109.908-10.751-4.137.204-7.326 3.722-7.123 7.859s3.708 7.323 7.859 7.123c46.419-2.277 82.9 4.325 105.327 10.268 9.475 2.514 16.956 9.954 19.526 19.418 13.389 49.272 33.842 179.204-65.165 321.221-.223.319-.686.983-1.801.515-1.128-.475-.974-1.281-.9-1.669l12.671-66.363c1.014-5.324-2.023-10.31-7.221-11.854-5.192-1.539-10.451.975-12.508 5.991-14.336 35.048-41.764 89.022-91.02 147.121-.248.292-.763.9-1.809.342-1.087-.58-.853-1.404-.753-1.757l51.57-181.671c2.156-7.606 3.348-15.355 3.574-23.063l23.373-40.173c2.083-3.58.87-8.171-2.711-10.254-3.58-2.084-8.171-.869-10.254 2.71l-22.961 39.464-19.313-44.277 24.023-24.023c2.929-2.929 2.929-7.678 0-10.606-2.929-2.929-7.678-2.929-10.606 0l-24.024 24.024-44.291-19.306 171.656-99.871c.29-.169 1.175-.686 2.141.278.963.963.448 1.85.278 2.141l-60.472 103.937c-2.083 3.58-.87 8.171 2.711 10.254 3.579 2.083 8.171.87 10.254-2.711l60.472-103.936c3.884-6.676 2.824-14.829-2.637-20.291-5.461-5.461-13.615-6.521-20.29-2.637l-172.35 100.276c-7.707.226-15.459 1.418-23.066 3.575l-181.671 51.578c-.352.1-1.176.333-1.758-.757-.561-1.053.047-1.569.339-1.816 46.47-39.407 97.185-70.861 150.728-93.487 4.927-2.074 7.443-7.488 5.853-12.594-1.592-5.111-6.747-8.141-11.974-7.053l-67.405 13.961c-.421.088-1.202.25-1.676-.872-.489-1.156.218-1.635.554-1.862 57.472-38.869 118.661-62.851 181.868-71.278 4.106-.547 6.99-4.319 6.443-8.425-.548-4.106-4.321-6.99-8.425-6.443-65.528 8.736-128.878 33.539-188.294 73.724-6.624 4.487-9.076 12.764-5.961 20.128 3.105 7.344 10.734 11.336 18.538 9.716l28.075-5.815c-41.526 21.116-81.095 47.543-118.025 78.86-6.054 5.135-7.612 13.296-3.876 20.309 2.976 5.587 8.422 8.799 14.381 8.799 1.544 0 3.125-.216 4.704-.663l181.676-51.579c1.25-.354 2.505-.668 3.762-.961-.092 1.012-.103 2.039-.005 3.072l2.772 29.366c-4.859-.309-9.729 1.556-13.056 5.234-2.777 3.07-6.607 5.444-11.385 7.058-2.571.869-5.419.715-8.022-.432-4.214-1.856-7.414-4.038-9.785-6.669-4.39-4.876-11.538-6.549-17.784-4.161-11.911 4.549-22.557 11.462-31.643 20.548-9.021 9.02-15.907 19.591-20.465 31.417-2.445 6.343-.791 13.583 4.115 18.018 2.89 2.612 5.176 6.173 6.795 10.586.952 2.594.951 5.45-.003 8.042-1.619 4.399-3.902 7.95-6.785 10.554-4.902 4.427-6.556 11.658-4.115 17.994.106.275.23.541.338.815l-96.931 96.931c-2.929 2.929-2.929 7.678 0 10.606 1.464 1.464 3.384 2.197 5.303 2.197s3.839-.732 5.303-2.197l34.562-34.562 29.54 29.54-34.562 34.562c-2.929 2.929-2.929 7.678 0 10.606 1.464 1.464 3.384 2.197 5.303 2.197s3.839-.732 5.303-2.197l56.158-56.158c2.929-2.929 2.929-7.678 0-10.606-2.929-2.929-7.678-2.929-10.606 0l-10.99 10.99-29.54-29.54 48.251-48.251c3.669 5.943 8.009 11.471 13.04 16.501 5.03 5.03 10.558 9.37 16.501 13.039l-14.167 14.167c-2.929 2.929-2.929 7.678 0 10.606 1.464 1.464 3.384 2.197 5.303 2.197s3.839-.732 5.303-2.197l17.679-17.679c.275.109.541.233.817.339 6.338 2.443 13.566.786 17.991-4.115 2.604-2.884 6.154-5.166 10.551-6.785 2.59-.954 5.446-.956 8.041-.004 4.414 1.618 7.977 3.904 10.591 6.794 3.069 3.395 7.481 5.233 12.01 5.232 2.016 0 4.057-.364 6.011-1.118 6.308-2.432 12.408-5.632 18.132-9.513 3.428-2.325 4.323-6.988 1.999-10.416-2.324-3.429-6.989-4.324-10.416-1.999-4.781 3.242-9.864 5.91-15.109 7.932-.556.215-1.214.137-1.499-.178-4.263-4.715-9.833-8.355-16.556-10.819-5.931-2.174-12.46-2.17-18.385.012-6.7 2.466-12.252 6.102-16.502 10.809-.276.306-.922.381-1.466.17-9.867-3.801-18.689-9.548-26.222-17.082-7.534-7.533-13.281-16.355-17.081-26.221-.21-.547-.135-1.192.171-1.469 4.705-4.249 8.342-9.803 10.809-16.505 2.182-5.928 2.184-12.459.008-18.39-2.466-6.72-6.106-12.287-10.819-16.546-.313-.283-.391-.939-.177-1.495 3.8-9.859 9.545-18.676 17.075-26.206 7.583-7.583 16.462-13.351 26.388-17.142.483-.184 1.023-.106 1.285.186 3.82 4.242 8.689 7.631 14.886 10.36 6.039 2.659 12.739 2.984 18.867.917 7.234-2.443 13.193-6.213 17.709-11.206.307-.341.847-.442 1.342-.251 9.925 3.8 18.797 9.565 26.369 17.138 7.572 7.572 13.338 16.444 17.138 26.368.189.496.089 1.036-.251 1.344-4.991 4.515-8.761 10.472-11.205 17.704-2.07 6.126-1.745 12.827.914 18.866 2.729 6.199 6.118 11.069 10.362 14.891.291.263.369.804.185 1.286-1.907 4.993-4.385 9.826-7.365 14.366-2.273 3.463-1.309 8.113 2.154 10.386 3.463 2.272 8.112 1.308 10.386-2.154 3.572-5.443 6.546-11.245 8.838-17.246 2.385-6.247.713-13.393-4.161-17.784-2.634-2.371-4.815-5.573-6.671-9.787-1.146-2.604-1.299-5.453-.431-8.022 1.614-4.776 3.988-8.606 7.057-11.383 3.677-3.327 5.543-8.197 5.234-13.056l29.366 2.772c.523.049 1.045.074 1.565.074.506 0 1.007-.031 1.506-.077-.293 1.255-.606 2.509-.96 3.757l-51.568 181.667c-2.177 7.667 1.09 15.339 8.128 19.09 2.544 1.356 5.238 2.014 7.884 2.014 4.651 0 9.153-2.035 12.423-5.896 36.101-42.581 60.797-83.067 77.334-115.86l-5.433 28.454c-1.499 7.845 2.444 15.202 9.809 18.306 7.356 3.1 15.366.786 19.93-5.76 102.625-147.207 81.277-282.429 67.336-333.732zm-219.642 153.304-2.839-30.069 48.161 20.992 21.007 48.162-30.084-2.84c-4.123-7.579-9.292-14.536-15.5-20.744-6.208-6.209-13.165-11.378-20.745-15.501z"/><path d="m208.102 323.895c5.123 0 10.246-1.95 14.146-5.85 7.799-7.801 7.799-20.493 0-28.294-7.801-7.8-20.493-7.799-28.294 0-7.799 7.801-7.799 20.493 0 28.294 3.902 3.9 9.025 5.85 14.148 5.85zm-3.54-23.537c.976-.976 2.258-1.464 3.541-1.464 1.282 0 2.564.488 3.54 1.464 1.952 1.952 1.952 5.128 0 7.08-1.951 1.952-5.128 1.953-7.08 0-1.953-1.952-1.953-5.128-.001-7.08z"/><path d="m144.701 339.006c-3.779 3.779-5.86 8.803-5.86 14.147s2.081 10.368 5.859 14.146c3.779 3.779 8.803 5.86 14.147 5.86s10.368-2.081 14.146-5.859c3.778-3.779 5.859-8.803 5.859-14.146 0-5.344-2.081-10.368-5.859-14.146-3.779-3.779-8.803-5.86-14.147-5.86-5.343-.002-10.366 2.079-14.145 5.858zm19.153 14.146c0 1.337-.521 2.594-1.466 3.54-.945.946-2.202 1.466-3.54 1.466-1.337 0-2.594-.521-3.54-1.467-.946-.945-1.466-2.202-1.466-3.54 0-1.337.521-2.594 1.467-3.54.945-.946 2.202-1.466 3.54-1.466 1.337 0 2.594.521 3.54 1.467.944.946 1.465 2.203 1.465 3.54z"/><path d="m193.955 367.299c3.779 3.779 8.803 5.86 14.147 5.86s10.368-2.081 14.146-5.86c3.779-3.778 5.86-8.803 5.86-14.146 0-5.344-2.081-10.368-5.86-14.146-3.779-3.779-8.803-5.86-14.146-5.86-5.344 0-10.368 2.081-14.147 5.86-3.779 3.778-5.859 8.803-5.859 14.146s2.08 10.368 5.859 14.146zm10.607-17.687c.946-.946 2.203-1.466 3.541-1.466 1.337 0 2.594.521 3.54 1.466.945.945 1.466 2.203 1.466 3.54s-.521 2.595-1.466 3.54c-.946.946-2.203 1.466-3.54 1.466s-2.595-.521-3.541-1.466c-.945-.945-1.466-2.203-1.466-3.54s.52-2.594 1.466-3.54z"/><path d="m172.994 289.752c-3.778-3.779-8.803-5.86-14.146-5.86-5.344 0-10.368 2.081-14.146 5.86-3.779 3.779-5.86 8.803-5.86 14.146 0 5.344 2.081 10.368 5.86 14.147 3.778 3.779 8.803 5.859 14.146 5.859 5.344 0 10.368-2.081 14.146-5.859 3.779-3.779 5.86-8.803 5.86-14.147s-2.081-10.368-5.86-14.146zm-10.606 17.686c-.945.945-2.203 1.466-3.54 1.466s-2.595-.521-3.54-1.466c-.946-.946-1.466-2.203-1.466-3.54s.521-2.594 1.466-3.54c.945-.945 2.203-1.466 3.54-1.466s2.595.521 3.54 1.466c.946.946 1.466 2.203 1.466 3.54s-.521 2.595-1.466 3.54z"/><path d="m355.8 96.667c-.05-4.141-3.454-7.486-7.586-7.41-3.159.037-78.177 1.227-147.927 29.064-3.847 1.536-5.721 5.899-4.186 9.746 1.172 2.935 3.989 4.722 6.968 4.722.925 0 1.866-.172 2.778-.536 67.083-26.774 141.797-27.988 142.544-27.997 4.142-.05 7.459-3.447 7.409-7.589z"/><path d="m221.323 157.272-50.53 15.275c-3.965 1.199-6.207 5.384-5.009 9.35.98 3.241 3.956 5.331 7.176 5.331.719 0 1.45-.104 2.173-.323l50.53-15.275c3.965-1.199 6.207-5.384 5.009-9.35-1.197-3.964-5.381-6.207-9.349-5.008z"/><path d="m407.743 163.61c-.009.746-1.184 75.361-27.997 142.542-1.535 3.847.339 8.21 4.186 9.746.912.364 1.853.536 2.778.536 2.978 0 5.797-1.787 6.968-4.722 27.838-69.749 29.027-144.768 29.064-147.927.048-4.142-3.27-7.539-7.412-7.587-4.106-.071-7.538 3.27-7.587 7.412z"/><path d="m340.37 286.336-15.275 50.53c-1.199 3.965 1.044 8.151 5.009 9.35.724.219 1.455.323 2.173.323 3.22 0 6.196-2.09 7.176-5.332l15.275-50.53c1.199-3.965-1.044-8.151-5.009-9.35-3.963-1.196-8.15 1.045-9.349 5.009z"/><path d="m252.73 406.403c-4.024-.98-8.082 1.484-9.064 5.508-.117.48-11.911 48.436-29.514 89.641-1.627 3.809.142 8.216 3.951 9.843.961.411 1.96.605 2.943.605 2.913 0 5.684-1.708 6.9-4.556 18.101-42.371 29.803-89.972 30.292-91.978.982-4.023-1.484-8.081-5.508-9.063z"/><path d="m214.982 459.73c4.563-8.858 9.08-18.308 13.423-28.09 1.681-3.786-.025-8.217-3.811-9.898-3.787-1.682-8.218.025-9.898 3.811-4.227 9.518-8.617 18.706-13.048 27.307-1.897 3.682-.45 8.205 3.232 10.102 1.099.566 2.272.834 3.429.834 2.718 0 5.342-1.483 6.673-4.066z"/><path d="m477.059 143.137c-4.121.417-7.123 4.096-6.706 8.217.067.659 6.396 66.99-17.285 159.862-1.023 4.014 1.401 8.097 5.415 9.121.622.158 1.245.234 1.858.234 3.347 0 6.397-2.257 7.262-5.649 24.331-95.423 17.956-162.279 17.673-165.078-.417-4.121-4.1-7.117-8.217-6.707z"/><path d="m511.524 196.121c-.182-4.139-3.712-7.354-7.823-7.163-4.138.182-7.345 3.685-7.163 7.823.747 16.951.586 34.823-.479 53.12-.241 4.135 2.916 7.683 7.051 7.923.148.009.296.013.443.013 3.943 0 7.248-3.077 7.48-7.064 1.096-18.805 1.261-37.192.491-54.652z"/><path d="m105.597 259.27c-.982-4.023-5.042-6.49-9.063-5.508-2.006.489-49.607 12.191-91.978 30.292-3.809 1.627-5.578 6.034-3.951 9.843 1.217 2.848 3.987 4.556 6.9 4.556.983 0 1.982-.194 2.943-.605 41.205-17.603 89.161-29.397 89.641-29.514 4.024-.982 6.49-5.04 5.508-9.064z"/><path d="m80.36 283.596c-9.782 4.343-19.232 8.859-28.09 13.423-3.682 1.897-5.129 6.42-3.232 10.102 1.331 2.583 3.954 4.066 6.673 4.066 1.156 0 2.33-.268 3.429-.834 8.602-4.431 17.789-8.821 27.307-13.048 3.786-1.681 5.492-6.112 3.811-9.898s-6.114-5.492-9.898-3.811z"/><path d="m198.925 59.166c.613 0 1.237-.076 1.858-.234 92.488-23.583 158.962-17.372 159.862-17.285 4.124.421 7.8-2.585 8.217-6.706.417-4.122-2.585-7.8-6.707-8.217-2.8-.284-69.655-6.658-165.078 17.673-4.014 1.023-6.438 5.107-5.415 9.121.867 3.391 3.916 5.648 7.263 5.648z"/><path d="m261.656 15.953c.146 0 .294-.004.443-.013 18.297-1.065 36.169-1.227 53.12-.479 4.125.177 7.641-3.024 7.823-7.163.183-4.138-3.024-7.641-7.163-7.823-17.459-.77-35.847-.604-54.652.49-4.135.241-7.292 3.788-7.051 7.923.231 3.988 3.537 7.065 7.48 7.065z"/></g></g></svg>