<?xml version="1.0" encoding="iso-8859-1"?>
<!-- Generator: Adobe Illustrator 19.0.0, SVG Export Plug-In . SVG Version: 6.00 Build 0)  -->
<svg version="1.1" id="Capa_1" xmlns="http://www.w3.org/2000/svg" xmlns:xlink="http://www.w3.org/1999/xlink" x="0px" y="0px"
	 viewBox="0 0 511.999 511.999" style="enable-background:new 0 0 511.999 511.999;" xml:space="preserve">
<path style="fill:#BDF2DF;" d="M444.769,353.325c0,95.526-87.476,151.071-195.362,151.071c-19.851,0-39.01-1.881-57.053-5.549
	c-80.067-16.245-138.319-67.573-138.319-145.522c0-64.938,40.457-144.933,100.249-189.492H344.51
	C404.312,208.381,444.769,288.376,444.769,353.325z"/>
<path style="fill:#81DBBA;" d="M192.354,498.847c-80.067-16.245-138.319-67.573-138.319-145.522
	c0-64.938,40.457-144.933,100.249-189.492h51.38l4.474,8.092C210.139,171.924,76.16,383.231,192.354,498.847z"/>
<path style="fill:#BDF2DF;" d="M360.931,132.293c0,33.358-49.934,60.391-111.523,60.391c-18.58,0-36.107-2.46-51.514-6.81
	c-35.673-10.076-60.02-30.288-60.02-53.582c0-21.308,20.368-40.044,51.142-50.78h120.783
	C340.573,92.26,360.931,110.996,360.931,132.293z"/>
<path style="fill:#81DBBA;" d="M228.45,81.513l-6.944,51.019c0,0-47.236,11.471-23.613,53.333v0.01
	c-35.673-10.076-60.02-30.288-60.02-53.582c0-21.308,20.368-40.044,51.142-50.78C189.016,81.513,228.45,81.513,228.45,81.513z"/>
<path style="fill:#F9D366;" d="M309.799,26.071v90.081c0,10.199-27.044,18.467-60.391,18.467c-10.066,0-19.551-0.754-27.902-2.088
	c-19.314-3.079-32.5-9.26-32.5-16.379V26.071H309.799z"/>
<g>
	<path style="fill:#DD8833;" d="M221.506,26.071v106.46c-19.314-3.079-32.5-9.26-32.5-16.379V26.071H221.506z"/>
	<ellipse style="fill:#DD8833;" cx="249.4" cy="26.071" rx="60.396" ry="18.467"/>
</g>
<path style="fill:#56AB8F;" d="M444.769,353.325c0,95.526-87.476,151.071-195.362,151.071
	c-107.896,0-195.372-55.545-195.372-151.071c0-18.818,3.399-38.897,9.682-59.007h371.369
	C441.37,314.439,444.769,334.517,444.769,353.325z"/>
<ellipse style="fill:#81DBBA;" cx="249.4" cy="298.593" rx="185.78" ry="59.58"/>
<g>
	<path style="fill:#F9D366;" d="M457.553,302.551l19.718-3.998c9.308-1.887,9.308-15.191,0-17.078l-19.718-3.998
		c-19.43-3.939-34.616-19.126-38.555-38.555L415,219.205c-1.887-9.308-15.191-9.308-17.078,0l-3.998,19.718
		c-3.94,19.43-19.126,34.616-38.555,38.555l-19.718,3.998c-9.308,1.887-9.308,15.191,0,17.078l19.718,3.998
		c19.43,3.94,34.616,19.126,38.555,38.555l3.998,19.718c1.887,9.308,15.191,9.308,17.078,0l3.998-19.718
		C422.937,321.676,438.122,306.49,457.553,302.551z"/>
	<path style="fill:#F9D366;" d="M359.546,395.817l6.163-1.25c8.134-1.65,8.134-13.273,0-14.923l-6.163-1.25
		c-15.526-3.148-27.661-15.283-30.808-30.808l-1.25-6.163c-1.65-8.134-13.274-8.134-14.923,0l-1.25,6.163
		c-3.148,15.526-15.282,27.661-30.808,30.808l-6.163,1.25c-8.134,1.65-8.134,13.273,0,14.923l6.163,1.25
		c15.526,3.148,27.661,15.283,30.808,30.808l1.25,6.163c1.65,8.134,13.274,8.134,14.923,0l1.25-6.163
		C331.885,411.099,344.02,398.965,359.546,395.817z"/>
</g>
<path d="M64.949,164.545c4.199,0,7.604-3.405,7.604-7.604V136.79c0-4.199-3.405-7.604-7.604-7.604s-7.604,3.405-7.604,7.604v20.151
	C57.345,161.14,60.749,164.545,64.949,164.545z"/>
<path d="M64.949,218.795c4.199,0,7.604-3.405,7.604-7.604V191.04c0-4.199-3.405-7.604-7.604-7.604s-7.604,3.405-7.604,7.604v20.151
	C57.345,215.39,60.749,218.795,64.949,218.795z"/>
<path d="M81.999,181.595h20.151c4.199,0,7.604-3.405,7.604-7.604s-3.405-7.604-7.604-7.604H81.999c-4.199,0-7.604,3.405-7.604,7.604
	S77.799,181.595,81.999,181.595z"/>
<path d="M55.502,173.991c0-4.199-3.405-7.604-7.604-7.604H27.748c-4.199,0-7.604,3.405-7.604,7.604s3.405,7.604,7.604,7.604h20.151
	C52.098,181.595,55.502,178.191,55.502,173.991z"/>
<path d="M440.069,64.306c4.199,0,7.604-3.405,7.604-7.604V36.552c0-4.199-3.405-7.604-7.604-7.604c-4.199,0-7.604,3.405-7.604,7.604
	v20.151C432.465,60.902,435.87,64.306,440.069,64.306z"/>
<path d="M440.069,118.556c4.199,0,7.604-3.405,7.604-7.604v-20.15c0-4.199-3.405-7.604-7.604-7.604
	c-4.199,0-7.604,3.405-7.604,7.604v20.151C432.465,115.152,435.87,118.556,440.069,118.556z"/>
<path d="M457.119,81.356h20.151c4.199,0,7.604-3.405,7.604-7.604c0-4.199-3.405-7.604-7.604-7.604h-20.151
	c-4.199,0-7.604,3.405-7.604,7.604C449.515,77.952,452.92,81.356,457.119,81.356z"/>
<path d="M402.868,81.356h20.151c4.199,0,7.604-3.405,7.604-7.604c0-4.199-3.405-7.604-7.604-7.604h-20.151
	c-4.199,0-7.604,3.405-7.604,7.604C395.264,77.952,398.669,81.356,402.868,81.356z"/>
<path d="M61.643,353.329c0-10.717,1.18-21.876,3.393-33.221c26.542,29.808,107.429,45.669,184.366,45.669
	c8.274,0,16.604-0.174,24.758-0.517c4.196-0.176,7.454-3.722,7.277-7.917s-3.752-7.455-7.917-7.278
	c-7.942,0.335-16.056,0.504-24.118,0.504c-48.856,0-94.686-6.068-129.045-17.088c-30.765-9.866-49.132-22.908-49.132-34.888
	c0-7.222,7.056-15.226,19.87-22.539c14.342-8.186,35.218-15.22,60.368-20.342c4.115-0.838,6.772-4.853,5.934-8.969
	c-0.837-4.115-4.854-6.771-8.969-5.934c-26.734,5.444-48.257,12.78-63.796,21.486c13.201-27.418,31.444-53.421,53.073-74.351
	c3.018-2.92,3.097-7.734,0.176-10.752c-2.92-3.017-7.734-3.097-10.752-0.176c-23.924,23.151-44.209,52.109-58.66,83.742
	c-14.415,31.554-22.035,63.564-22.035,92.571c0,24.779,5.608,47.747,16.668,68.268c1.374,2.55,3.994,3.998,6.7,3.998
	c1.219,0,2.454-0.293,3.601-0.911c3.697-1.992,5.078-6.604,3.086-10.301C66.64,396.103,61.643,375.562,61.643,353.329z"/>
<path d="M443.648,332.723c-4.186,0.328-7.314,3.99-6.986,8.176c0.331,4.21,0.499,8.392,0.499,12.431
	c0,42.976-18.708,79.358-54.102,105.214c-33.764,24.665-81.229,38.248-133.653,38.248c-66.63,0-123.79-21.617-156.819-59.306
	c-2.768-3.158-7.572-3.475-10.731-0.707c-3.158,2.768-3.475,7.573-0.707,10.73c35.918,40.984,97.246,64.491,168.258,64.491
	c55.625,0,106.275-14.623,142.623-41.176c39.474-28.836,60.339-69.465,60.339-117.495c0-4.436-0.184-9.018-0.545-13.622
	C451.494,335.521,447.833,332.392,443.648,332.723z"/>
<path d="M358.597,175.118c-2.88,3.056-2.737,7.869,0.318,10.749c6.306,5.943,12.45,12.422,18.263,19.257
	c1.504,1.769,3.643,2.679,5.796,2.679c1.742,0,3.492-0.595,4.922-1.812c3.2-2.72,3.588-7.52,0.867-10.719
	c-6.172-7.259-12.706-14.147-19.417-20.472C366.289,171.919,361.477,172.062,358.597,175.118z"/>
<path d="M290.464,58.296c-2.539-6.014-11.29-6.167-13.966-0.17c-1.392,3.121-0.459,6.939,2.239,9.048
	c2.46,1.923,5.913,2.154,8.596,0.562C290.521,65.84,291.913,61.728,290.464,58.296z"/>
<path d="M256.429,63.426c-2.465-5.841-10.956-6.246-13.813-0.507c-1.491,2.997-0.84,6.718,1.626,8.998
	c2.449,2.264,6.203,2.647,9.067,0.943C256.526,70.945,257.806,66.874,256.429,63.426z"/>
<path d="M277.416,83.814c-1.261-2.988-4.331-4.92-7.584-4.671c-3.112,0.239-5.798,2.39-6.711,5.372
	c-1.996,6.525,5.336,12.196,11.162,8.737C277.469,91.363,278.866,87.242,277.416,83.814z"/>
<path d="M355.781,355.05c0.552,0,1.111-0.061,1.672-0.187c6.424-1.442,12.643-3.029,18.485-4.721
	c4.034-1.167,6.358-5.384,5.191-9.418c-1.167-4.033-5.383-6.359-9.419-5.19c-5.546,1.605-11.464,3.116-17.586,4.489
	c-4.098,0.92-6.674,4.987-5.755,9.084C349.162,352.646,352.301,355.05,355.781,355.05z"/>
<path d="M363.348,259.137c3.409,0,6.51-2.309,7.372-5.766c1.016-4.075-1.464-8.202-5.539-9.218
	c-33.432-8.337-73.468-12.743-115.779-12.743c-23.819,0-47.044,1.408-69.032,4.187c-4.166,0.526-7.117,4.331-6.59,8.497
	c0.527,4.167,4.327,7.116,8.497,6.591c21.357-2.699,43.941-4.068,67.125-4.068c41.09,0,79.853,4.25,112.1,12.292
	C362.12,259.063,362.739,259.137,363.348,259.137z"/>
<path d="M249.408,200.288c15.625,0,30.8-1.661,45.106-4.938c4.094-0.938,6.652-5.017,5.714-9.11c-0.938-4.093-5.016-6.65-9.11-5.714
	c-13.193,3.021-27.226,4.553-41.71,4.553c-56.336,0-103.931-24.175-103.931-52.789c0-14.86,13.516-29.514,35.93-39.588v22.213
	c-2.175-0.937-4.274-1.913-6.252-2.946c-3.722-1.945-8.317-0.503-10.26,3.219c-1.945,3.722-0.504,8.316,3.219,10.26
	c20.406,10.66,50.036,16.773,81.292,16.773c31.259,0,60.892-6.117,81.298-16.78c3.722-1.945,5.163-6.539,3.217-10.261
	c-1.945-3.722-6.539-5.163-10.261-3.217c-1.98,1.034-4.081,2.012-6.257,2.949V92.704c22.412,10.08,35.928,24.733,35.928,39.588
	c0,14.158-12.026,28.09-32.995,38.225c-3.781,1.827-5.365,6.374-3.537,10.155c1.312,2.715,4.026,4.297,6.852,4.297
	c1.11,0,2.238-0.244,3.303-0.759c26.427-12.774,41.586-31.696,41.586-51.917c0-22.806-19.009-43.508-51.136-56.069V26.071
	C317.401,5.491,274.659,0,249.404,0s-67.997,5.491-67.997,26.071v50.153c-32.128,12.554-51.138,33.255-51.138,56.068
	C130.269,170.42,182.6,200.288,249.408,200.288z M249.404,127.015c-1.46,0-2.911-0.023-4.361-0.052
	c-30.182-0.648-46.314-7.897-48.428-11.212V81.348c-0.001-0.04,0.001-0.078,0-0.118V43.518c14.748,6.511,37.129,8.624,52.789,8.624
	s38.041-2.113,52.789-8.624v72.234c-2.114,3.314-18.247,10.564-48.429,11.212C252.314,126.991,250.863,127.015,249.404,127.015z
	 M249.404,15.208c31.784,0,49.259,7.229,52.482,10.864c-3.223,3.634-20.699,10.863-52.482,10.863s-49.259-7.229-52.482-10.863
	C200.145,22.437,217.621,15.208,249.404,15.208z"/>
<path d="M478.78,274.023l-19.717-3.998c-16.472-3.34-29.274-16.142-32.614-32.614l-3.998-19.718
	c-1.561-7.698-8.136-13.075-15.992-13.075c-7.854,0-14.43,5.377-15.991,13.075l-3.998,19.717
	c-3.34,16.472-16.142,29.274-32.614,32.614l-19.717,3.998c-7.698,1.56-13.075,8.136-13.075,15.992s5.377,14.43,13.075,15.991
	l19.717,3.998c16.472,3.34,29.274,16.142,32.614,32.614l3.998,19.718c1.561,7.698,8.136,13.075,15.991,13.075
	c7.855,0,14.43-5.377,15.992-13.075l3.998-19.717c3.34-16.472,16.142-29.274,32.614-32.614l19.717-3.998
	c7.698-1.56,13.075-8.136,13.075-15.991C491.855,282.16,486.479,275.583,478.78,274.023z M475.759,291.1l-19.717,3.998
	c-22.474,4.556-39.94,22.022-44.497,44.496l-3.998,19.718c-0.076,0.375-0.18,0.888-1.087,0.888c-0.906,0-1.011-0.513-1.086-0.888
	l-3.998-19.718c-4.557-22.474-22.023-39.94-44.497-44.496l-19.717-3.998c-0.375-0.076-0.888-0.179-0.888-1.087
	c0-0.907,0.513-1.011,0.888-1.087l19.717-3.997c22.474-4.556,39.94-22.022,44.497-44.496l3.998-19.718
	c0.076-0.375,0.18-0.888,1.086-0.888c0.906,0,1.011,0.513,1.087,0.888l3.998,19.718c4.557,22.474,22.023,39.94,44.497,44.496
	l19.717,3.998c0.375,0.076,0.888,0.179,0.888,1.087C476.647,290.922,476.134,291.024,475.759,291.1z"/>
<path d="M336.19,346.076l-1.249-6.164c-1.456-7.179-7.588-12.194-14.914-12.194c-7.326,0-13.458,5.015-14.914,12.194l-1.25,6.164
	c-2.546,12.56-12.307,22.32-24.867,24.867l-6.164,1.25c-7.179,1.456-12.194,7.589-12.194,14.914c0,7.325,5.015,13.458,12.194,14.914
	l6.164,1.25c12.56,2.547,22.321,12.307,24.867,24.868l1.25,6.163c1.456,7.179,7.588,12.194,14.914,12.194
	c7.326,0,13.458-5.015,14.914-12.194l1.249-6.163c2.547-12.56,12.307-22.32,24.867-24.867l6.163-1.25
	c7.18-1.456,12.194-7.589,12.194-14.914s-5.014-13.458-12.194-14.914l-6.163-1.25C348.497,368.396,338.735,358.635,336.19,346.076z
	 M364.199,387.097c0.002,0,0.005,0.001,0.007,0.002c0,0.005,0,0.01,0,0.015c-0.002,0-0.005,0.001-0.007,0.002l-6.163,1.25
	c-18.562,3.763-32.987,18.188-36.751,36.75l-1.249,6.163c0,0.002-0.001,0.005-0.001,0.007c-0.005,0-0.01,0-0.015,0
	c0-0.002-0.001-0.005-0.001-0.008l-1.25-6.163c-3.762-18.562-18.188-32.987-36.751-36.75l-6.164-1.25
	c-0.002,0-0.005-0.001-0.007-0.001c0-0.005,0-0.01,0-0.015c0.002,0,0.004-0.001,0.007-0.001l6.164-1.249
	c18.562-3.763,32.987-18.189,36.751-36.75l1.25-6.164c0-0.002,0.001-0.005,0.001-0.007c0.005,0,0.01,0,0.015,0
	c0,0.002,0.001,0.005,0.001,0.007l1.249,6.164c3.763,18.562,18.189,32.986,36.751,36.75L364.199,387.097z"/>
<g>
</g>
<g>
</g>
<g>
</g>
<g>
</g>
<g>
</g>
<g>
</g>
<g>
</g>
<g>
</g>
<g>
</g>
<g>
</g>
<g>
</g>
<g>
</g>
<g>
</g>
<g>
</g>
<g>
</g>
</svg>
