<svg height="512pt" viewBox="0 -6 512 512" width="512pt" xmlns="http://www.w3.org/2000/svg"><path d="m260.714844 197.636719-107.742188-144.867188c9.976563-13.382812 13.40625-27.402343 7.730469-38.007812-10.078125-18.835938-45.050781-19.769531-78.113281-2.082031-33.066406 17.6875-51.699219 47.300781-41.621094 66.136718 5.675781 10.605469 19.238281 15.535156 35.910156 14.664063l60.714844 170.019531zm0 0" fill="#e5e5e5"/><path d="m175.550781 243.191406-37.960937 20.3125-60.707032-170.027344c-16.675781.867188-30.238281-4.054687-35.914062-14.660156-10.070312-18.839844 8.558594-48.449218 41.617188-66.140625-12.671876 6.78125-14.785157 27.554688-4.710938 46.394531 5.675781 10.605469 14 18.335938 22.464844 21.859376zm0 0" fill="#cbcbcb"/><path d="m393.855469 115.652344c-30.332031 15.875-50.789063 43.199218-58.851563 73.890625 29.816406 10.871093 63.925782 9.636719 94.257813-6.238281s50.789062-43.199219 58.847656-73.890626c-29.8125-10.871093-63.921875-9.636718-94.253906 6.238282zm0 0" fill="#5d895d"/><path d="m349.519531 96.203125c-18.484375 28.816406-22.71875 62.683594-14.515625 93.339844 31.285156-5.328125 60.304688-23.296875 78.789063-52.113281 18.480469-28.816407 22.714843-62.683594 14.515625-93.339844-31.285156 5.328125-60.304688 23.296875-78.789063 52.113281zm0 0" fill="#79a879"/><path d="m296.824219 103.140625c0 34.234375 14.722656 65.027344 38.179687 86.402344 23.457032-21.375 38.179688-52.167969 38.179688-86.402344s-14.722656-65.03125-38.179688-86.40625c-23.457031 21.375-38.179687 52.171875-38.179687 86.40625zm0 0" fill="#82d182"/><path d="m468.40625 269.640625c0 8.753906-.53125 17.398437-1.554688 25.871094-8.382812 68.964843-49.789062 127.726562-107.941406 159.996093l-102.910156 22.066407-102.910156-22.066407c-65.308594-36.238281-109.507813-105.890624-109.507813-185.867187l64.324219-13.980469 17.136719-3.71875 139.453125-30.304687 128.71875 30.304687zm0 0" fill="#5c5e71"/><g fill="#3b3d4d"><path d="m468.40625 269.640625-75.191406-17.699219h-203.914063l64.003907-28.453125-212.410157 46.152344c0 79.976563 44.199219 149.628906 109.507813 185.867187l102.902344 22.066407-50.292969-22.066407c-23.75-26.960937-41.777344-72.421874-49.457031-126.867187-2.464844-17.496094 11.144531-33.128906 28.816406-33.128906h284.480468c1.023438-8.472657 1.554688-17.117188 1.554688-25.871094zm0 0"/><path d="m258.8125 222.285156-5.507812 1.203125 4.15625-1.851562zm0 0"/><path d="m512 221.636719c0 13.25-5.371094 25.257812-14.0625 33.9375-8.683594 8.695312-20.691406 14.066406-33.941406 14.066406h-416.003906c-26.507813 0-47.992188-21.492187-47.992188-48.003906 0-13.25 5.371094-25.253907 14.054688-33.9375 8.683593-8.683594 20.675781-14.054688 33.9375-14.054688h416.003906c26.511718 0 48.003906 21.484375 48.003906 47.992188zm0 0"/></g><path d="m512 221.636719c0 13.25-5.371094 25.257812-14.0625 33.9375-8.683594 8.695312-20.691406 14.066406-33.941406 14.066406h-301.617188c-26.511718 0-48.003906-21.492187-48.003906-48.003906 0-13.25 5.371094-25.253907 14.0625-33.9375 8.683594-8.683594 20.691406-14.054688 33.941406-14.054688h301.617188c26.511718 0 48.003906 21.484375 48.003906 47.992188zm0 0" fill="#5c5e71"/><path d="m383.65625 477.574219c0 12.183593-9.875 22.058593-22.070312 22.058593h-211.183594c-6.089844 0-11.609375-2.464843-15.601563-6.457031-3.988281-3.992187-6.457031-9.507812-6.457031-15.601562 0-12.191407 9.875-22.066407 22.058594-22.066407h211.183594c6.09375 0 11.609374 2.464844 15.613281 6.457032 3.988281 3.992187 6.457031 9.507812 6.457031 15.609375zm0 0" fill="#5c5e71"/><path d="m191.988281 493.175781c3.992188 3.992188 9.511719 6.457031 15.601563 6.457031h-57.1875c-6.089844 0-11.609375-2.464843-15.601563-6.457031-3.988281-3.992187-6.457031-9.507812-6.457031-15.601562 0-12.191407 9.875-22.066407 22.058594-22.066407h57.1875c-12.183594 0-22.058594 9.875-22.058594 22.066407 0 6.09375 2.464844 11.609375 6.457031 15.601562zm0 0" fill="#3b3d4d"/></svg>