<svg id="Capa_1" enable-background="new 0 0 512 512" height="512" viewBox="0 0 512 512" width="512" xmlns="http://www.w3.org/2000/svg"><g><g><path d="m90 286h-15c-8.284 0-15 6.716-15 15v150h30v-60h60v-30h30v-75z" fill="#80564d"/><path d="m422 271-90 30v60h30v30h60v60h30v-150c0-16.567-13.429-30-29.995-30-.002 0-.003 0-.005 0z" fill="#66443d"/><g id="Altar_4_"><g><g><path d="m452 301h-392v-195h392z" fill="#f36a3d"/></g><path d="m256 106h196v195h-196z" fill="#ec4c36"/></g><g><path d="m392 256h-272v-90h272z" fill="#ec4c36"/></g><g><path d="m256 166h136v90h-136z" fill="#e62e2e"/></g></g></g><path d="m482 61c0 16.538-13.462 30-30 30h-392c-16.538 0-30-13.462-30-30h-30c0 33.091 26.909 60 60 60h392c33.091 0 60-26.909 60-60z" fill="#80564d"/><path d="m256 121h196c33.091 0 60-26.909 60-60h-30c0 16.538-13.462 30-30 30h-196z" fill="#66443d"/></g></svg>