<svg id="Capa_1" enable-background="new 0 0 512 512" height="512" viewBox="0 0 512 512" width="512" xmlns="http://www.w3.org/2000/svg"><g><g><path d="m504.5 342.983h-64.901c-9.143 0-16.554-7.412-16.554-16.554v-79.997c0-9.143 7.412-16.554 16.554-16.554h64.901z" fill="#fea613"/><path d="m482.35 229.881h22.15v113.1h-22.15z" fill="#fe9901"/><path d="m423.044 326.429h-33.527c-5.949 0-10.772-4.823-10.772-10.772v-58.454c0-5.949 4.823-10.772 10.772-10.772h33.527z" fill="#fd3581"/><path d="m400.89 246.431h22.15v80h-22.15z" fill="#fe0364"/><path d="m378.745 273.094v26.672h-108.583c-9.199 0-18.022 3.654-24.527 10.159l-43.453 43.453c-5.209 5.209-13.653 5.21-18.863.003-5.212-5.21-5.213-13.659-.002-18.869l51.268-51.261c6.505-6.504 15.327-10.158 24.525-10.158h119.635z" fill="#766e6e"/><path d="m252.13 299.761h18.03c-9.2 0-18.02 3.66-24.53 10.16l-43.45 43.46c-5.07 5.07-13.21 5.21-18.44.39.14-.13.28-.26.41-.39l43.45-43.46c6.5-6.5 15.33-10.16 24.53-10.16z" fill="#5b5555"/><path d="m360.71 273.091h18.04v26.67h-18.04z" fill="#5b5555"/><path d="m183.268 386.026h321.232v43.788h-321.232z" fill="#b9acac"/><path d="m482.35 386.021h22.15v43.79h-22.15z" fill="#9e9797"/><path d="m139.477 429.817h43.791v-43.791h-26.742c-9.416 0-17.049 7.633-17.049 17.049z" fill="#eaf6ff"/><path d="m161.37 386.021h21.9v43.8h-21.9z" fill="#c8effe"/></g><g><path d="m504.5 335.483h-64.901c-4.993 0-9.055-4.062-9.055-9.054v-79.997c0-4.993 4.062-9.055 9.055-9.055h64.901c4.143 0 7.5-3.357 7.5-7.5s-3.357-7.5-7.5-7.5h-64.901c-10.645 0-19.692 6.953-22.851 16.555h-27.23c-10.075 0-18.272 8.196-18.272 18.271v8.391h-94.324l39.583-61.754c2.235-3.487 1.22-8.126-2.268-10.361-3.486-2.234-8.125-1.22-10.361 2.268l-44.771 69.848c-11.265.002-21.855 4.389-29.822 12.353l-51.27 51.261c-3.937 3.938-6.104 9.172-6.104 14.74 0 5.567 2.169 10.802 6.106 14.737 4.062 4.061 9.396 6.09 14.733 6.09 5.336 0 10.673-2.031 14.735-6.093 2.93-2.929 2.93-7.678.001-10.606s-7.678-2.93-10.606-.001c-2.277 2.277-5.981 2.276-8.259.001-1.104-1.103-1.711-2.569-1.711-4.13-.001-1.561.607-3.028 1.71-4.131l51.269-51.261c5.135-5.134 11.961-7.961 19.223-7.961h112.135v11.672h-101.083c-11.27 0-21.863 4.389-29.831 12.356l-17.312 17.312c-2.929 2.93-2.929 7.678 0 10.607 2.93 2.928 7.678 2.928 10.607 0l17.312-17.313c5.134-5.135 11.961-7.963 19.224-7.963h101.083v8.391c0 10.075 8.197 18.272 18.272 18.272h27.23c3.159 9.601 12.206 16.554 22.851 16.554h64.902c4.143 0 7.5-3.357 7.5-7.5s-3.357-7.499-7.5-7.499zm-118.255-19.826v-58.453c0-1.804 1.468-3.271 3.272-3.271h26.026v64.997h-26.026c-1.804-.001-3.272-1.469-3.272-3.273z"/><path d="m504.5 393.526c4.143 0 7.5-3.357 7.5-7.5s-3.357-7.5-7.5-7.5h-347.974c-13.536 0-24.549 11.013-24.549 24.549v19.239h-124.477c-4.143 0-7.5 3.357-7.5 7.5s3.357 7.5 7.5 7.5h497c4.143 0 7.5-3.357 7.5-7.5s-3.357-7.5-7.5-7.5h-313.731v-28.788zm-357.522 28.788v-19.239c0-5.266 4.283-9.549 9.549-9.549h19.242v28.788z"/><path d="m193.353 256.677c4.143 0 7.5-3.357 7.5-7.5v-166.991c0-4.143-3.357-7.5-7.5-7.5s-7.5 3.357-7.5 7.5v166.991c0 4.143 3.357 7.5 7.5 7.5z"/><path d="m60.897 331.761 38.453 16.985c.985.436 2.014.642 3.026.642 2.879 0 5.626-1.668 6.864-4.472 1.674-3.789-.041-8.217-3.83-9.891l-38.453-16.985c-3.785-1.674-8.216.041-9.891 3.83-1.672 3.79.042 8.217 3.831 9.891z"/><path d="m12.944 310.58 16.111 7.117c.985.436 2.014.642 3.026.642 2.879 0 5.626-1.668 6.864-4.472 1.674-3.789-.041-8.217-3.83-9.891l-16.111-7.117c-3.785-1.673-8.217.04-9.891 3.83-1.673 3.789.042 8.217 3.831 9.891z"/><path d="m284.328 349.388c1.012 0 2.041-.206 3.026-.642l30.166-13.324c3.789-1.674 5.504-6.102 3.83-9.891-1.673-3.788-6.101-5.506-9.891-3.83l-30.166 13.324c-3.789 1.674-5.504 6.102-3.83 9.891 1.239 2.804 3.985 4.472 6.865 4.472z"/><path d="m133.37 302.389c1.433 2.234 3.852 3.454 6.321 3.454 1.386 0 2.787-.384 4.04-1.187 3.487-2.235 4.503-6.875 2.268-10.361l-56.364-87.934c-2.236-3.487-6.875-4.501-10.361-2.268-3.487 2.235-4.503 6.875-2.268 10.361z"/><circle cx="65.254" cy="182.224" r="7.5"/><circle cx="193.353" cy="282.619" r="7.5"/></g></g></svg>