<svg id="Capa_1" enable-background="new 0 0 511.74 511.74" height="512" viewBox="0 0 511.74 511.74" width="512" xmlns="http://www.w3.org/2000/svg"><g><g><path d="m367.662 470.811c-16.675-3.751-30.156-12.724-37.942-28.229-3.63-7.228-5.844-15.145-6.832-23.159-1.121-9.092-.278-19.615 2.888-28.273 5.888-16.098 15.15-29.495 26.397-42.278 13.074-14.86 22.098-32.026 22.23-52.296.064-9.81-1.613-19.911-5.975-28.767-1.61-3.268-4.148-7.442-6.888-11.5-3.028-4.485-10.008-2.735-10.542 2.65-.275 2.773-.744 5.527-1.35 8.222-3.751 16.675-12.724 30.156-28.229 37.942-7.228 3.63-15.145 5.844-23.159 6.832-.023.003-.048.006-.073.009-12.691 1.562-25.576-1.038-36.61-7.5-1.666-.976-3.108-1.889-4.176-2.643-7.63-5.391-14.449-10.861-21.446-17.017-14.86-13.074-32.026-22.098-52.296-22.23-9.81-.064-19.911 1.613-28.767 5.975-3.269 1.61-7.442 4.148-11.5 6.888-4.485 3.028-2.735 10.008 2.65 10.542 2.773.275 5.527.744 8.222 1.35 16.675 3.751 30.156 12.724 37.942 28.229 3.63 7.228 5.844 15.145 6.832 23.161 2.208 17.905-1.643 34.065-12.268 49.103-5.391 7.63-10.861 14.449-17.017 21.446-13.074 14.86-22.098 32.027-22.23 52.296-.064 9.81 1.613 19.911 5.975 28.767 1.61 3.269 4.148 7.442 6.888 11.5 3.028 4.485 10.008 2.735 10.542-2.65.275-2.773.744-5.527 1.35-8.222 3.751-16.675 12.724-30.156 28.229-37.942 7.228-3.63 15.145-5.844 23.159-6.832.022-.003.044-.005.068-.008 12.693-1.564 25.58 1.036 36.616 7.5 1.666.976 3.107 1.888 4.175 2.643 7.63 5.391 14.449 10.861 21.447 17.017 14.86 13.074 32.026 22.098 52.296 22.23 9.81.064 19.911-1.613 28.767-5.975 3.269-1.61 7.442-4.148 11.5-6.888 4.485-3.028 2.735-10.008-2.65-10.542-2.773-.275-5.527-.744-8.223-1.351z" fill="#7a8c98"/></g><g><path d="m480.654 224.566c-16.675-3.751-30.156-12.724-37.942-28.229-3.63-7.228-5.844-15.145-6.832-23.159-1.121-9.092-.278-19.615 2.888-28.273 5.888-16.098 15.15-29.495 26.397-42.278 13.074-14.86 22.098-32.026 22.23-52.296.064-9.81-1.613-19.911-5.975-28.767-1.61-3.268-4.148-7.442-6.888-11.5-3.028-4.485-10.008-2.735-10.542 2.65-.275 2.773-.744 5.527-1.35 8.222-3.751 16.675-12.724 30.156-28.229 37.942-7.228 3.63-15.145 5.844-23.159 6.832-.023.003-.048.006-.073.009-12.691 1.562-25.576-1.038-36.61-7.5-1.666-.976-3.108-1.889-4.176-2.643-7.63-5.391-14.449-10.861-21.446-17.017-14.86-13.074-32.026-22.098-52.296-22.23-9.81-.064-19.911 1.613-28.767 5.975-3.269 1.61-7.442 4.148-11.5 6.888-4.485 3.028-2.735 10.008 2.65 10.542 2.773.275 5.527.744 8.222 1.35 16.675 3.751 30.156 12.724 37.942 28.229 3.63 7.228 5.844 15.145 6.832 23.161 2.208 17.905-1.643 34.065-12.268 49.103-5.391 7.63-10.861 14.449-17.017 21.446-13.074 14.86-22.098 32.027-22.23 52.296-.064 9.81 1.613 19.911 5.975 28.767 1.61 3.269 4.148 7.442 6.888 11.5 3.028 4.485 10.008 2.735 10.542-2.65.275-2.773.744-5.527 1.35-8.222 3.751-16.675 12.724-30.156 28.229-37.942 7.228-3.63 15.145-5.844 23.159-6.832.022-.003.044-.005.068-.008 12.693-1.564 25.58 1.036 36.616 7.5 1.666.976 3.107 1.888 4.175 2.643 7.63 5.391 14.449 10.861 21.447 17.017 14.86 13.074 32.026 22.098 52.296 22.23 9.81.064 19.911-1.613 28.767-5.975 3.269-1.61 7.442-4.148 11.5-6.888 4.485-3.028 2.735-10.008-2.65-10.542-2.774-.275-5.528-.745-8.223-1.351z" fill="#7a8c98"/></g><g><path d="m491.523 236.457c-4.06 2.74-8.23 5.28-11.5 6.89-1.46.72-2.95 1.36-4.47 1.93.53-3.05-1.45-6.4-5.11-6.76-2.91-.29-5.62-.78-8.2-1.47-10.04-2.68-17.89-8.29-25.99-16.03-25.5-24.36-27.33-63.59-13.42-94.94 3.69-8.31 10.85-16.61 16.87-23.45 13.07-14.86 22.1-32.03 22.23-52.3.04-6.44-.67-13-2.4-19.25 1.28-3.22 2.31-6.61 3.11-10.14.6-2.7 1.07-5.45 1.35-8.22.53-5.39 7.51-7.14 10.54-2.65 2.74 4.05 5.28 8.23 6.89 11.5 4.36 8.85 6.03 18.95 5.97 28.76-.13 20.27-9.16 37.44-22.23 52.3-11.25 12.78-20.51 26.18-26.4 42.28-3.16 8.65-4 19.18-2.88 28.27.98 8.01 3.2 15.93 6.83 23.16 7.78 15.5 21.26 24.48 37.94 28.23 2.7.6 5.45 1.07 8.22 1.35 5.39.53 7.14 7.51 2.65 10.54z" fill="#596c76"/></g><g><path d="m378.531 482.702c-4.06 2.74-8.23 5.28-11.5 6.89-1.46.72-2.95 1.36-4.47 1.93.53-3.05-1.45-6.4-5.11-6.76-2.91-.29-5.62-.78-8.2-1.47-10.04-2.68-17.89-8.29-25.99-16.03-25.5-24.36-27.33-63.59-13.42-94.94 3.69-8.31 10.85-16.61 16.87-23.45 13.07-14.86 22.1-32.03 22.23-52.3.04-6.44-.67-13-2.4-19.25 1.28-3.22 2.31-6.61 3.11-10.14.6-2.7 1.07-5.45 1.35-8.22.53-5.39 7.51-7.14 10.54-2.65 2.74 4.05 5.28 8.23 6.89 11.5 4.36 8.85 6.03 18.95 5.97 28.76-.13 20.27-9.16 37.44-22.23 52.3-11.25 12.78-20.51 26.18-26.4 42.28-3.16 8.65-4 19.18-2.88 28.27.98 8.01 3.2 15.93 6.83 23.16 7.78 15.5 21.26 24.48 37.94 28.23 2.7.6 5.45 1.07 8.22 1.35 5.39.53 7.14 7.51 2.65 10.54z" fill="#596c76"/></g><g><circle cx="260.963" cy="379.07" fill="#f5f8f9" r="26.922"/></g><g><path d="m287.883 379.068c0 14.87-12.05 26.92-26.92 26.92-9.58 0-17.98-5-22.75-12.53 2.15.56 4.4.85 6.71.85 14.87 0 26.92-12.06 26.92-26.92 0-5.29-1.52-10.23-4.17-14.39 11.62 2.969 20.21 13.52 20.21 26.07z" fill="#e8edf2"/></g><g><circle cx="373.954" cy="132.825" fill="#f5f8f9" r="26.922"/></g><g><path d="m400.873 132.827c0 14.87-12.05 26.92-26.92 26.92-9.58 0-17.99-5-22.76-12.54 2.15.56 4.4.85 6.72.85 14.87 0 26.92-12.05 26.92-26.92 0-5.29-1.52-10.22-4.15-14.38 11.61 2.981 20.19 13.521 20.19 26.07z" fill="#e8edf2"/></g><g><path d="m260.963 344.648c-18.98 0-34.422 15.442-34.422 34.422s15.442 34.422 34.422 34.422 34.422-15.442 34.422-34.422-15.442-34.422-34.422-34.422zm0 53.844c-10.709 0-19.422-8.713-19.422-19.422s8.713-19.422 19.422-19.422 19.422 8.713 19.422 19.422-8.713 19.422-19.422 19.422z"/><path d="m376.626 464.698c-2.333-.231-4.795-.637-7.317-1.205-15.48-3.482-26.544-11.65-32.886-24.277-9.324-18.565-7.902-38.654 1.308-56.744 1.879-3.691.411-8.207-3.28-10.087-3.69-1.879-8.207-.412-10.087 3.28-2.142 4.206-4.036 8.549-5.63 12.908-3.424 9.362-4.623 20.94-3.288 31.767 1.141 9.258 3.689 17.874 7.573 25.607 8.336 16.6 23.205 27.728 42.998 32.18 1.501.338 2.992.63 4.462.875-2.555 1.603-4.907 2.949-6.758 3.861-7.037 3.466-15.833 5.258-25.404 5.203-16.438-.106-31.94-6.766-47.391-20.36-8.37-7.364-17.14-14.852-26.785-20.5-12.338-7.226-27.012-10.235-41.392-8.464-9.259 1.142-17.875 3.689-25.608 7.573-16.6 8.337-27.728 23.205-32.181 43-.338 1.502-.629 2.992-.874 4.461-1.602-2.554-2.949-4.906-3.861-6.758-3.466-7.036-5.265-15.821-5.203-25.404.106-16.438 6.767-31.939 20.361-47.391 6.641-7.549 12.206-14.563 17.512-22.073 11.623-16.45 16.067-34.228 13.586-54.349-1.142-9.259-3.69-17.875-7.574-25.609-8.337-16.6-23.206-27.728-42.999-32.18-1.502-.338-2.992-.629-4.461-.874 2.555-1.603 4.907-2.949 6.757-3.861 7.037-3.466 15.826-5.252 25.404-5.203 16.438.106 31.94 6.766 47.391 20.36 7.548 6.641 14.561 12.205 22.071 17.51 13.191 9.32 29.948 13.443 45.992 11.468.014-.002.1-.012.114-.014 9.259-1.142 17.875-3.689 25.607-7.574 16.601-8.336 27.728-23.205 32.181-42.998.338-1.502.629-2.992.874-4.461 1.603 2.555 2.95 4.908 3.861 6.758 3.466 7.036 5.265 15.82 5.203 25.403-.106 16.438-6.766 31.94-20.365 47.396-.384.437-.766.875-1.146 1.313-2.713 3.129-2.376 7.866.753 10.58 3.13 2.713 7.867 2.376 10.58-.753.359-.415.72-.828 1.079-1.236 16.085-18.282 23.968-36.993 24.099-57.202.079-12.072-2.191-22.882-6.747-32.129-1.668-3.387-4.296-7.784-7.399-12.383-3.172-4.698-8.771-6.838-14.268-5.45-5.488 1.387-9.396 5.923-9.954 11.557-.231 2.328-.636 4.79-1.205 7.316-3.482 15.479-11.65 26.544-24.278 32.886-6.194 3.111-13.162 5.16-20.782 6.099-12.392 1.527-25.338-1.615-35.543-8.825-7.065-4.992-13.68-10.241-20.819-16.522-18.282-16.085-36.993-23.968-57.202-24.099-12.065-.058-22.882 2.191-32.13 6.747-3.387 1.668-7.785 4.296-12.382 7.399-4.699 3.172-6.838 8.772-5.45 14.268 1.386 5.488 5.922 9.395 11.556 9.954 16.692 1.655 32.482 10.106 40.202 25.482 10.366 20.643 8.469 45.705-4.859 64.57-4.992 7.065-10.242 13.681-16.522 20.82-7.561 8.594-14.108 18.2-18.43 28.839-7.566 18.626-7.875 42.318 1.078 60.493 1.67 3.391 4.298 7.787 7.399 12.382 6.826 10.113 23.02 6.008 24.222-6.106 1.656-16.698 10.107-32.48 25.482-40.202 6.193-3.11 13.162-5.16 20.777-6.098 11.064-1.363 22.395.956 31.912 6.53 8.719 5.108 16.822 12.101 24.455 18.817 18.282 16.085 36.993 23.968 57.202 24.099 12.06.062 22.88-2.191 32.13-6.747 3.387-1.668 7.785-4.296 12.382-7.399 4.699-3.172 6.838-8.772 5.45-14.268-1.385-5.49-5.921-9.397-11.553-9.956z"/><path d="m373.954 167.247c18.98 0 34.422-15.442 34.422-34.422s-15.442-34.422-34.422-34.422-34.422 15.442-34.422 34.422 15.441 34.422 34.422 34.422zm0-53.844c10.709 0 19.422 8.713 19.422 19.422s-8.713 19.422-19.422 19.422-19.422-8.713-19.422-19.422 8.712-19.422 19.422-19.422z"/><path d="m501.172 228.407c-1.386-5.488-5.922-9.395-11.556-9.954-2.329-.231-4.791-.636-7.316-1.205-15.48-3.482-26.544-11.65-32.886-24.277-16.034-31.927.218-61.336 21.382-85.391 16.085-18.282 23.968-36.993 24.099-57.202.079-12.072-2.191-22.882-6.747-32.129-1.668-3.387-4.296-7.784-7.399-12.383-3.172-4.698-8.771-6.837-14.268-5.45-5.488 1.387-9.395 5.923-9.954 11.557-1.658 16.725-10.12 32.487-25.482 40.202-17.55 8.814-39.995 8.809-56.326-2.727-6.252-4.418-12.041-8.948-18.216-14.258-3.14-2.701-7.876-2.343-10.577.797-2.7 3.141-2.343 7.876.797 10.577 6.544 5.627 12.69 10.436 19.34 15.135 12.959 9.155 30.072 13.742 45.992 11.467.014-.002.1-.012.114-.014 9.259-1.142 17.875-3.689 25.607-7.574 16.601-8.336 27.728-23.205 32.181-42.998.338-1.502.629-2.992.875-4.46 6.181 9.854 9.138 20.447 9.063 32.16-.106 16.438-6.766 31.94-20.36 47.391-13.401 15.232-22.238 29.422-27.81 44.656-3.424 9.362-4.623 20.94-3.288 31.767 1.141 9.258 3.689 17.874 7.573 25.607 8.336 16.6 23.205 27.728 42.998 32.18 1.502.338 2.993.63 4.462.875-2.554 1.603-4.907 2.95-6.757 3.861-7.038 3.466-15.822 5.253-25.404 5.203-16.438-.106-31.94-6.766-47.391-20.36-8.369-7.364-17.167-14.868-26.785-20.5-12.338-7.226-27.012-10.234-41.392-8.464-9.259 1.142-17.875 3.689-25.608 7.573-16.6 8.337-27.728 23.205-32.181 43-.338 1.502-.629 2.992-.874 4.461-1.602-2.554-2.949-4.906-3.861-6.758-3.466-7.036-5.265-15.821-5.203-25.404.106-16.438 6.767-31.939 20.361-47.391 6.641-7.549 12.206-14.563 17.512-22.073 11.623-16.45 16.067-34.228 13.586-54.349-1.142-9.259-3.69-17.875-7.574-25.609-8.337-16.6-23.206-27.727-42.999-32.18-1.502-.338-2.992-.629-4.461-.875 9.881-6.198 20.46-9.144 32.161-9.063 7.854.051 15.636 1.643 23.129 4.731 3.831 1.579 8.214-.247 9.792-4.076 1.579-3.83-.247-8.214-4.076-9.792-9.285-3.827-18.957-5.799-28.748-5.863-12.056-.064-22.882 2.191-32.13 6.747-3.387 1.668-7.785 4.296-12.382 7.399-4.699 3.172-6.838 8.772-5.45 14.268 1.386 5.488 5.922 9.395 11.556 9.954 2.328.231 4.79.636 7.316 1.204 15.48 3.483 26.544 11.651 32.886 24.278 3.11 6.194 5.16 13.163 6.09 20.713 2.003 16.248-1.578 30.594-10.95 43.857-4.992 7.065-10.242 13.681-16.522 20.82-16.085 18.283-23.968 36.994-24.099 57.202-.078 12.072 2.192 22.882 6.747 32.13 1.67 3.391 4.298 7.788 7.399 12.382 2.53 3.748 6.604 5.867 10.939 5.867 6.793 0 12.603-5.124 13.283-11.975 1.648-16.653 10.084-32.468 25.482-40.201 6.193-3.11 13.162-5.16 20.777-6.098 11.063-1.362 22.396.956 31.91 6.529 8.758 5.127 16.823 12.101 24.457 18.818 18.282 16.085 36.993 23.968 57.201 24.099 12.962.084 27.147-3.429 38.4-10.229 6.778-4.094 13.873-9.048 11.565-18.185z"/><path d="m226.69 174.471c0-4.142-3.358-7.5-7.5-7.5h-201.566c-4.142 0-7.5 3.358-7.5 7.5s3.358 7.5 7.5 7.5h201.566c4.142 0 7.5-3.358 7.5-7.5z"/><path d="m133.349 140.325h119.293c4.142 0 7.5-3.358 7.5-7.5s-3.358-7.5-7.5-7.5h-119.293c-4.142 0-7.5 3.358-7.5 7.5s3.358 7.5 7.5 7.5z"/><path d="m164.445 358.038c0-4.142-3.358-7.5-7.5-7.5h-121.892c-4.142 0-7.5 3.358-7.5 7.5s3.358 7.5 7.5 7.5h121.893c4.141 0 7.499-3.358 7.499-7.5z"/><path d="m128.885 391.066h-51.628c-4.142 0-7.5 3.358-7.5 7.5s3.358 7.5 7.5 7.5h51.628c4.142 0 7.5-3.358 7.5-7.5s-3.358-7.5-7.5-7.5z"/></g></g></svg>