<svg id="Capa_1" enable-background="new 0 0 512.013 512.013" height="512" viewBox="0 0 512.013 512.013" width="512" xmlns="http://www.w3.org/2000/svg"><g><g><path d="m80.976 494.506c6.254 0 12.139-2.958 15.87-7.978l154.567-207.945c1.716-2.308 4.059-4.074 6.75-5.088l107.427-40.475c1.595-.601 2.938-1.727 3.807-3.194l96.5-162.776c2.382-4.152-2.791-10.011-2.791-10.011-6.642-4.351-15.524-2.774-20.259 3.599l-101.377 136.387-98.654 27.291c-5.614 1.553-10.654 4.707-14.506 9.076l-217.02 246.195c-2.069 2.347-3.226 5.021-3.618 7.724 3.208 6.161 9.883 7.195 12.87 7.195z" fill="#fcf5c7"/><path d="m463.107 57.039s-.872 2.68-2.209 5.011l-96.5 162.776c-.869 1.466-2.212 2.593-3.807 3.194l-107.427 40.475c-2.691 1.014-5.034 2.78-6.75 5.088l-154.568 207.946c-3.731 5.019-9.616 7.978-15.87 7.978h-60.434c-2.987 0-5.645-.822-7.87-2.195-1.226 8.451 5.086 17.195 14.87 17.195h55.294c9.488 0 18.417-4.488 24.077-12.103l155.689-209.454 104.133-39.235c6.394-2.409 11.775-6.929 15.251-12.812l90.911-153.852c3.95-6.887 1.851-15.66-4.79-20.012z" fill="#f8e883"/><path d="m350.609 7.506c-5.765 0-9.785 43.713-14.183 48.112-4.398 4.398-35.073 8.514-35.073 14.279s30.674 9.88 35.073 14.279c4.398 4.398 8.419 48.112 14.183 48.112 5.765 0 9.785-43.713 14.184-48.112 4.398-4.398 35.073-8.514 35.073-14.279s-30.674-9.88-35.073-14.279c-4.398-4.398-8.419-48.112-14.184-48.112z" fill="#bd96e4"/><path d="m462.864 172.925c-4.856 0-8.243 36.825-11.948 40.53s-29.546 7.172-29.546 12.029c0 4.856 25.84 8.323 29.546 12.029 3.705 3.705 7.092 40.53 11.948 40.53s8.243-36.825 11.948-40.53 29.546-7.172 29.546-12.029c0-4.856-25.84-8.323-29.546-12.029-3.705-3.705-7.092-40.53-11.948-40.53z" fill="#bd96e4"/><g fill="#ecc3df"><circle cx="489.513" cy="22.506" r="15"/><circle cx="301.353" cy="144.354" r="15"/><circle cx="360.255" cy="300.455" r="15"/></g><path d="m224.145 303.543c9.408 7.621-16.228 42.109-25.635 34.488l-36.426-29.508c-6.665-5.399 21.751-37.635 28.416-32.236z" fill="#ffd064"/><path d="m235.474 312.719c6.665 5.399-18.971 39.887-25.635 34.488l-11.328-9.177c6.665 5.399 32.3-29.09 25.635-34.488z" fill="#ebb044"/></g><g><path d="m77.836 512.006h-55.294c-8.961 0-16.819-5.073-20.507-13.24s-2.298-17.416 3.628-24.138l57.369-65.081c2.739-3.107 7.479-3.406 10.585-.667 3.107 2.739 3.406 7.478.667 10.585l-57.369 65.081c-2.971 3.371-1.677 7.011-1.209 8.046.468 1.036 2.342 4.414 6.836 4.414h55.294c7.082 0 13.833-3.394 18.058-9.077l103.634-139.422-36.575-29.628-68.198 77.366c-2.739 3.107-7.479 3.406-10.585.667-3.107-2.739-3.406-7.478-.667-10.585l70.093-79.516c-.119-2.222.34-4.944 1.784-8.246 2.036-4.654 5.446-9.312 7.948-12.401 4.211-5.198 9.119-9.998 13.468-13.168 4.33-3.158 7.902-4.498 10.811-4.768l35.079-39.794c4.827-5.476 11.097-9.399 18.132-11.345l96.171-26.604 99.841-134.32c7.093-9.544 20.442-11.914 30.388-5.399 9.947 6.518 13.103 19.703 7.187 30.017l-54.53 92.286c-2.105 3.567-6.706 4.749-10.272 2.642s-4.749-6.706-2.642-10.272l54.481-92.202c1.924-3.355.872-7.75-2.443-9.923-3.315-2.171-7.765-1.38-10.129 1.799l-101.381 136.387c-.996 1.34-2.411 2.309-4.02 2.754l-98.653 27.291c-4.222 1.168-7.983 3.521-10.88 6.807l-32.641 37.028 32.823 26.589 17.464-23.495c.858-1.154 2.029-2.037 3.375-2.544l104.133-39.234c4.778-1.8 8.841-5.212 11.438-9.609l20.798-35.198c2.107-3.566 6.708-4.748 10.272-2.642 3.566 2.107 4.749 6.706 2.642 10.272l-20.798 35.198c-4.33 7.327-11.101 13.015-19.063 16.015l-102.072 38.458-18.35 24.687c.34 2.901-.229 6.673-2.421 11.565-2.199 4.912-5.875 10.711-10.086 15.909-7.621 9.408-13.61 13.108-18.211 13.852l-105.306 141.675c-7.042 9.473-18.293 15.128-30.097 15.128zm91.284-207.435 43.123 34.933c2.005-1.454 5.51-4.704 9.544-10.171 4.203-5.695 6.267-10.128 6.981-12.393l-41.007-33.218c-2.067 1.17-5.975 4.109-10.674 9.402-4.509 5.081-6.96 9.184-7.967 11.447zm165.495 42.883c-4.411 0-8-3.589-8-8s3.589-8 8-8 8 3.589 8 8-3.588 8-8 8zm25.64-24.499c-12.406 0-22.5-10.093-22.5-22.5s10.094-22.5 22.5-22.5 22.5 10.093 22.5 22.5-10.094 22.5-22.5 22.5zm0-30c-4.136 0-7.5 3.365-7.5 7.5 0 4.136 3.364 7.5 7.5 7.5s7.5-3.364 7.5-7.5-3.364-7.5-7.5-7.5zm102.609-7.413c-7.523 0-9.877-8.544-11.008-12.65-1.246-4.521-2.367-10.262-3.451-15.813-.906-4.64-2.216-11.345-3.157-14.225-2.104-.842-6.409-2.022-9.421-2.848-12.268-3.362-21.957-6.017-21.957-14.522s9.689-11.161 21.957-14.523c3.012-.825 7.316-2.005 9.421-2.847.941-2.88 2.251-9.585 3.157-14.225 1.084-5.551 2.205-11.292 3.451-15.813 1.131-4.106 3.484-12.65 11.008-12.65s9.877 8.544 11.008 12.65c1.246 4.521 2.367 10.262 3.451 15.813.906 4.64 2.216 11.346 3.157 14.225 2.104.843 6.409 2.022 9.421 2.848 12.268 3.362 21.957 6.017 21.957 14.522s-9.689 11.161-21.957 14.522c-3.012.825-7.316 2.005-9.421 2.848-.941 2.879-2.251 9.585-3.157 14.225-1.084 5.551-2.205 11.292-3.451 15.813-1.131 4.106-3.484 12.65-11.008 12.65zm-23.277-60.059c.069.019.138.038.205.056 8.832 2.42 13.574 3.816 16.427 6.669 2.883 2.883 4.114 7.771 6.646 20.652 2.531-12.881 3.763-17.769 6.645-20.651 2.854-2.853 7.595-4.249 16.428-6.669.067-.019.136-.037.204-.056-.068-.019-.137-.038-.204-.056-8.833-2.42-13.574-3.816-16.428-6.67-2.882-2.882-4.113-7.77-6.645-20.651-2.531 12.881-3.763 17.769-6.645 20.651-2.854 2.854-7.596 4.249-16.428 6.669-.067.019-.136.037-.205.056zm6.6-17.81c-.001.001-.001 0 0 0zm-169.615-15.744c-4.411 0-8-3.589-8-8s3.589-8 8-8 8 3.589 8 8-3.588 8-8 8zm210.177-22.017c-4.143 0-7.5-3.358-7.5-7.5v-15h-10.263c-4.143 0-7.5-3.358-7.5-7.5s3.357-7.5 7.5-7.5h10.263v-15c0-4.142 3.357-7.5 7.5-7.5s7.5 3.358 7.5 7.5v15h10.264c4.143 0 7.5 3.358 7.5 7.5s-3.357 7.5-7.5 7.5h-10.264v15c0 4.142-3.357 7.5-7.5 7.5zm-185.395-3.058c-12.406 0-22.5-10.093-22.5-22.5s10.094-22.5 22.5-22.5 22.5 10.093 22.5 22.5-10.094 22.5-22.5 22.5zm0-30c-4.136 0-7.5 3.364-7.5 7.5s3.364 7.5 7.5 7.5 7.5-3.364 7.5-7.5-3.365-7.5-7.5-7.5zm49.256 2.933c-9.409 0-11.674-11.598-15.786-32.653-1.15-5.888-2.833-14.505-4.002-17.668-2.352-1.057-8.028-2.612-11.936-3.683-13.985-3.833-25.032-6.86-25.032-15.886 0-9.027 11.048-12.054 25.034-15.887 3.906-1.071 9.582-2.626 11.934-3.683 1.169-3.164 2.852-11.78 4.002-17.668 4.112-21.055 6.377-32.653 15.786-32.653s11.674 11.598 15.786 32.653c1.15 5.888 2.833 14.504 4.002 17.668 2.352 1.057 8.027 2.612 11.934 3.683 13.986 3.833 25.034 6.86 25.034 15.887 0 9.026-11.047 12.053-25.032 15.886-3.907 1.071-9.584 2.626-11.936 3.683-1.169 3.163-2.852 11.78-4.002 17.668-4.113 21.055-6.377 32.653-15.786 32.653zm-32.853-69.89c1.824.523 3.605 1.012 5.094 1.419 10.249 2.809 15.743 4.42 18.879 7.556 3.26 3.26 4.656 9.211 7.815 25.386.314 1.612.676 3.459 1.064 5.39.389-1.931.75-3.778 1.064-5.39 3.159-16.175 4.556-22.126 7.816-25.387 3.135-3.135 8.629-4.747 18.878-7.556 1.488-.408 3.27-.896 5.094-1.419-1.824-.524-3.606-1.012-5.095-1.42-10.248-2.808-15.742-4.42-18.877-7.555-3.261-3.261-4.657-9.211-7.816-25.387-.314-1.612-.676-3.459-1.064-5.39-.389 1.931-.75 3.778-1.064 5.39-3.159 16.176-4.556 22.126-7.815 25.387-3.136 3.135-8.63 4.747-18.878 7.555-1.489.409-3.271.897-5.095 1.421zm171.756-24.891c-12.406 0-22.5-10.093-22.5-22.5s10.094-22.5 22.5-22.5 22.5 10.093 22.5 22.5-10.094 22.5-22.5 22.5zm0-30c-4.136 0-7.5 3.364-7.5 7.5s3.364 7.5 7.5 7.5 7.5-3.364 7.5-7.5-3.364-7.5-7.5-7.5zm-68.297 10.157c-4.411 0-8-3.589-8-8s3.589-8 8-8 8 3.589 8 8-3.589 8-8 8z"/></g></g></svg>