<svg height="512" viewBox="0 0 64 64" width="512" xmlns="http://www.w3.org/2000/svg"><g id="Knife"><path d="m15 47a2.015 2.015 0 0 0 -2 2v3.27a22.552 22.552 0 0 0 4-.83v-2.44a2.006 2.006 0 0 0 -2-2z" fill="#d1d3d4"/><path d="m13 52.27a22.552 22.552 0 0 0 4-.83v-2a22.552 22.552 0 0 1 -4 .83z" fill="#bcbec0"/><path d="m34.83 20.69-13.83 13.83v15.31a23.688 23.688 0 0 0 6.05-4.39l16.26-16.27z" fill="#d1d3d4"/><path d="m34.83 20.69-2 2 3.652 3.652a4 4 0 0 1 0 5.656l-13.432 13.442a23.853 23.853 0 0 1 -2.05 1.8v2.59a23.688 23.688 0 0 0 6.05-4.39l16.26-16.27z" fill="#bcbec0"/><path d="m6.69 52.22a22.525 22.525 0 0 0 2.31.21v-5.91l-5.28 5.28z" fill="#d1d3d4"/><path d="m5.472 50.048-1.752 1.752 2.97.42a22.525 22.525 0 0 0 2.31.21v-2a22.525 22.525 0 0 1 -2.31-.21z" fill="#bcbec0"/><path d="m13 59v-10a2.015 2.015 0 0 1 2-2 2.006 2.006 0 0 1 2 2v2a2.015 2.015 0 0 0 2 2 2.006 2.006 0 0 0 2-2v-16.48l-12 12v12.48a2.015 2.015 0 0 0 2 2 2.006 2.006 0 0 0 2-2z" fill="#d80027"/><path d="m36.95 17.151a2 2 0 1 0 -2.829 2.828l12.728 12.728a2 2 0 0 0 2.829-2.828l-4.95-4.95-7.071-7.071z" fill="#ffcd00"/><path d="m38.556 10.029h18v10h-18z" fill="#8b5e3c" transform="matrix(.707 -.707 .707 .707 3.302 38.029)"/><path d="m41.092 16.151h18v2.828h-18z" fill="#754c29" transform="matrix(.707 -.707 .707 .707 2.251 40.565)"/><path d="m58.163 4.423a5 5 0 0 0 -7.071 0l-.707.707 7.071 7.07.707-.707a5 5 0 0 0 0-7.07z" fill="#ff9811"/><path d="m58.163 4.423a4.924 4.924 0 0 0 -1.163-.839 4.984 4.984 0 0 1 -.839 5.91l-.707.707 2 2 .707-.707a5 5 0 0 0 .002-7.071z" fill="#ee8700"/><path d="m20 56s-2 1.9-2 3a2 2 0 0 0 4 0c0-1.1-2-3-2-3z" fill="#d80027"/><g fill="#231f20"><path d="m58.87 3.716a6.006 6.006 0 0 0 -8.485 0l-12.728 12.728a3 3 0 1 0 -4.243 4.242l-30.4 30.4a1 1 0 0 0 .567 1.7l2.969.42c.48.069.966.118 1.451.157v5.637a3.015 3.015 0 0 0 3 3 3 3 0 0 0 3-3v-5.878a23.628 23.628 0 0 0 2.467-.516 2.8 2.8 0 0 0 .407.5 2.944 2.944 0 0 0 2.125.894 3 3 0 0 0 3-3v-.583a24.7 24.7 0 0 0 5.757-4.27l15.554-15.564 2.832 2.831a3 3 0 1 0 4.242-4.242l-4.243-4.243 12.728-12.729a6.007 6.007 0 0 0 0-8.484zm-52.04 47.514-.986-.14 2.156-2.156v2.429c-.391-.034-.782-.078-1.17-.133zm9.17-.567q-1.014.27-2 .436v-2.099a.978.978 0 0 1 .306-.712.957.957 0 0 1 .694-.288 1 1 0 0 1 1 1zm3 1.337a.978.978 0 0 1 -.713-.306.965.965 0 0 1 -.287-.694v-2a3 3 0 0 0 -3-3 3.017 3.017 0 0 0 -3 3v10a1 1 0 0 1 -1 1 .978.978 0 0 1 -.713-.306.965.965 0 0 1 -.287-.694v-12.066l10-10v14.066a1 1 0 0 1 -1 1zm7.343-7.267a22.7 22.7 0 0 1 -4.343 3.395v-13.194l12.83-12.834 7.07 7.07zm22.921-13.44a.993.993 0 0 1 -.293.707 1.022 1.022 0 0 1 -1.413 0l-12.73-12.729a1 1 0 0 1 1.415-1.413l12.728 12.728a.993.993 0 0 1 .293.707zm-10.193-13.435 11.314-11.314 5.657 5.656-11.314 11.315zm18.385-7.071-5.656-5.657a4 4 0 0 1 5.657 5.657z"/><path d="m33.414 26.343-8.606 8.607a1 1 0 1 0 1.414 1.414l8.606-8.607a1 1 0 0 0 -1.414-1.414z"/><path d="m20.687 55.274a1 1 0 0 0 -1.375 0c-.542.514-2.312 2.302-2.312 3.726a3 3 0 0 0 6 0c0-1.424-1.77-3.212-2.313-3.726zm-.687 4.726a1 1 0 0 1 -1-1 4.3 4.3 0 0 1 1-1.553 4.289 4.289 0 0 1 1 1.553 1 1 0 0 1 -1 1z"/></g></g></svg>