<svg id="icons" enable-background="new 0 0 64 64" height="512" viewBox="0 0 64 64" width="512" xmlns="http://www.w3.org/2000/svg"><g><g><path d="m22.8 41.2c.76.76 1.99.78 2.771.05l-21.161 21.16c-.78.79-2.04.79-2.82 0-.79-.78-.79-2.04 0-2.82l21.16-21.16c-.73.78-.71 2.01.05 2.77z" fill="#844747"/></g><g><g><path d="m40.43 26.39-2.069 2.07c-.78.79-2.04.79-2.82 0-.79-.78-.79-2.04 0-2.82l2.07-2.069c-.73.79-.71 2.01.05 2.77s1.979.779 2.769.049z" fill="#ccd1d9"/></g><g><path d="m27.7 39.12-2.07 2.08-.06.05c-.78.73-2.011.71-2.771-.05s-.78-1.99-.05-2.771l2.13-2.13c-.729.78-.71 2.01.05 2.771.761.76 1.991.78 2.771.05z" fill="#ccd1d9"/></g><g><path d="m27.05 36.95c-.76-.76-.78-1.99-.05-2.771l2.12-2.12c-.73.78-.71 2.011.05 2.771s1.99.78 2.771.05l-2.061 2.07-.06.05c-.78.73-2.01.71-2.77-.05z" fill="#ccd1d9"/></g><g><path d="m36.18 30.64-2.06 2.07-.061.05c-.779.73-2.01.71-2.77-.05s-.78-1.99-.05-2.77l2.12-2.12c-.73.779-.71 2 .05 2.77.771.76 1.991.78 2.771.05z" fill="#ccd1d9"/></g></g><g><g><path d="m34.06 32.76-2.06 2.07-.06.05c-.78.73-2.011.71-2.771-.05s-.78-1.99-.05-2.771l2.12-2.119c-.73.779-.71 2.01.05 2.77s1.991.78 2.771.05z" fill="#e6e9ed"/></g><g><path d="m33.36 27.82 2.18-2.181c-.79.78-.79 2.04 0 2.82.78.79 2.04.79 2.82 0l-2.12 2.13-.061.05c-.779.73-2 .71-2.77-.05-.759-.769-.779-1.989-.049-2.769z" fill="#e6e9ed"/></g><g><path d="m27 34.18c-.73.78-.71 2.011.05 2.771s1.99.78 2.771.05l-2.061 2.07-.06.05c-.78.729-2.01.71-2.771-.05-.76-.761-.779-1.99-.05-2.771z" fill="#e6e9ed"/></g><g><path d="m42.55 24.27-2.06 2.07-.061.05c-.79.73-2.01.71-2.77-.05s-.78-1.979-.05-2.77l2.12-2.12c-.73.78-.711 2.01.05 2.77s1.991.78 2.771.05z" fill="#e6e9ed"/></g></g><g><path d="m59.59 4.41c.78.79 2.04.79 2.82 0l-19.8 19.81-.061.05c-.78.73-2.01.711-2.77-.05-.761-.76-.78-1.989-.05-2.77l19.861-19.86c-.79.78-.79 2.04 0 2.82z" fill="#844747"/></g><g><path d="m62.41 4.41c-.78.79-2.04.79-2.82 0-.79-.78-.79-2.04 0-2.82.78-.79 2.04-.79 2.82 0 .79.78.79 2.04 0 2.82z" fill="#965353"/></g></g></svg>