<svg height="512pt" viewBox="0 -23 512.00101 512" width="512pt" xmlns="http://www.w3.org/2000/svg"><path d="m477.945312 0h-443.886718c-18.8125 0-34.058594 15.25-34.058594 34.058594v397.550781c0 18.808594 15.246094 34.058594 34.058594 34.058594h443.886718c18.808594 0 34.054688-15.25 34.054688-34.058594v-397.550781c0-18.808594-15.246094-34.058594-34.054688-34.058594zm0 0" fill="#ff8c57"/><path d="m37.085938 431.609375v-397.550781c0-18.808594 15.25-34.058594 34.058593-34.058594h-37.085937c-18.8125 0-34.058594 15.25-34.058594 34.058594v397.550781c0 18.808594 15.246094 34.058594 34.058594 34.058594h37.085937c-18.808593 0-34.058593-15.25-34.058593-34.058594zm0 0" fill="#ec6a34"/><g fill="#3a484a"><path d="m188.925781 67.230469c-4.265625 0-7.726562-3.460938-7.726562-7.726563v-12.140625c0-4.265625 3.460937-7.726562 7.726562-7.726562s7.726563 3.460937 7.726563 7.726562v12.140625c0 4.265625-3.460938 7.726563-7.726563 7.726563zm0 0"/><path d="m323.074219 67.230469c-4.265625 0-7.726563-3.460938-7.726563-7.726563v-12.140625c0-4.265625 3.460938-7.726562 7.726563-7.726562s7.726562 3.460937 7.726562 7.726562v12.140625c0 4.265625-3.460937 7.726563-7.726562 7.726563zm0 0"/><path d="m256 73.707031c-8.679688 0-16.835938-3.628906-22.371094-9.964843-2.808594-3.210938-2.480468-8.09375.730469-10.902344 3.214844-2.808594 8.09375-2.480469 10.902344.734375 2.601562 2.976562 6.515625 4.683593 10.738281 4.683593s8.136719-1.707031 10.738281-4.683593c2.808594-3.214844 7.691407-3.539063 10.902344-.734375 3.210937 2.808594 3.539063 7.691406.730469 10.902344-5.535156 6.335937-13.691406 9.964843-22.371094 9.964843zm0 0"/></g><path d="m512 124.144531v-15.453125h-132.035156v-108.691406h-15.453125v108.691406h-217.023438v-108.691406h-15.453125v108.691406h-132.035156v15.453125h62.152344v100.964844h-62.152344v15.449219h132.035156v100.964844h-132.035156v15.453124h62.152344v108.691407h15.453125v-108.691407h170.667969v108.691407h15.453124v-108.691407h170.667969v108.691407h15.453125v-108.691407h62.152344v-15.453124h-132.035156v-100.964844h132.035156v-15.449219h-62.152344v-100.964844zm-434.394531 0h170.667969v100.964844h-170.667969zm286.90625 217.378907h-217.023438v-100.964844h217.023438zm69.882812-116.414063h-170.667969v-100.964844h170.667969zm0 0" fill="#efedee"/><path d="m0 108.691406h37.085938v15.453125h-37.085938zm0 0" fill="#d4d2d3"/><path d="m0 225.109375h37.085938v15.449219h-37.085938zm0 0" fill="#d4d2d3"/><path d="m0 341.523438h37.085938v15.453124h-37.085938zm0 0" fill="#d4d2d3"/></svg>