<svg id="Capa_1" enable-background="new 0 0 511.999 511.999" height="512" viewBox="0 0 511.999 511.999" width="512" xmlns="http://www.w3.org/2000/svg"><g><path d="m470.936 154.116c-4.74-3.365-5.774-9.88-2.673-14.797 3.29-5.216 5.195-11.393 5.195-18.017 0-17.392-12.963-31.234-29.064-33.524-5.636-.802-9.804-5.656-9.403-11.335 1.319-18.69-13.39-36.208-33.801-36.208-3.344 0-6.574.486-9.624 1.391-5.424 1.61-11.243-1.31-13.163-6.633-4.714-13.064-17.231-22.337-31.837-22.337-6.471 0-12.518 1.816-17.659 4.966-4.879 2.99-11.34 1.731-14.59-2.979-6.102-8.846-16.304-14.643-27.864-14.643-8.911 0-17.018 3.445-23.061 9.074-4.158 3.874-10.626 3.874-14.784 0-6.044-5.629-14.15-9.074-23.062-9.074-11.56 0-21.762 5.797-27.865 14.642-3.25 4.71-9.711 5.969-14.59 2.979-5.141-3.15-11.188-4.966-17.658-4.966-14.587 0-27.124 9.261-31.84 22.341-1.919 5.321-7.739 8.238-13.162 6.629-3.05-.905-6.279-1.391-9.622-1.391-20.449 0-35.137 17.555-33.797 36.248.406 5.66-3.756 10.5-9.374 11.295-16.079 2.276-29.097 16.063-29.097 33.525 0 6.624 1.905 12.801 5.195 18.017 3.102 4.917 2.068 11.432-2.673 14.797-8.637 6.131-14.274 16.209-14.274 27.608 0 14.448 9.068 26.837 21.888 31.672 5.467 2.062 8.152 8.08 6.332 13.632-1.086 3.314-1.674 6.853-1.674 10.53 0 27.712 29.862 41.413 50.647 29.511 5.412-3.099 12.207-1.108 15.183 4.374 5.932 10.929 17.706 18.224 31.134 17.692 16.186-.641 29.685-12.92 32.083-28.709l5.787-4.647h136.241l5.205 4.647c2.465 16.268 16.503 28.737 33.458 28.737 12.9 0 24.111-7.217 29.82-17.834 2.93-5.448 9.751-7.336 15.12-4.262 20.783 11.901 50.649-1.793 50.649-29.509 0-3.678-.588-7.217-1.674-10.53-1.819-5.552.865-11.57 6.332-13.632 12.821-4.834 21.888-17.225 21.888-31.672.002-11.399-5.635-21.478-14.272-27.608z" fill="#92df93"/><g><path d="m137.428 244.355c0-4.396.702-8.626 2-12.587 2.175-6.637-1.034-13.831-7.569-16.295-15.324-5.779-26.164-20.588-26.164-37.858 0-13.625 6.738-25.673 17.062-33.001 5.667-4.023 6.902-11.811 3.195-17.688-3.933-6.235-6.21-13.619-6.21-21.536 0-20.873 15.561-37.353 34.781-40.073 6.716-.951 11.69-6.736 11.205-13.501-.983-13.707 5.253-26.894 15.858-35.047-4.803-2.615-10.301-4.112-16.154-4.112-14.587 0-27.124 9.261-31.84 22.341-1.919 5.321-7.739 8.238-13.162 6.629-3.05-.905-6.279-1.391-9.622-1.391-20.449 0-35.137 17.555-33.797 36.248.406 5.66-3.756 10.5-9.374 11.295-16.079 2.276-29.097 16.063-29.097 33.525 0 6.624 1.905 12.801 5.195 18.017 3.102 4.917 2.068 11.432-2.673 14.797-8.637 6.131-14.274 16.209-14.274 27.608 0 14.448 9.068 26.837 21.888 31.672 5.467 2.062 8.152 8.08 6.332 13.632-1.086 3.314-1.674 6.853-1.674 10.53 0 27.712 29.862 41.413 50.647 29.511 5.412-3.099 12.207-1.108 15.183 4.374 5.932 10.929 17.706 18.224 31.134 17.692 6.404-.254 12.384-2.335 17.425-5.729-16.446-4.291-30.295-18.421-30.295-39.053z" fill="#73d578"/></g><path d="m381.789 191.929h-.711c-6.134 0-11.442 4.039-13.333 9.874-1.261 3.891-3.873 8.023-9.158 10.536-24.199 11.507-52.701 31.891-71.254 28.845-10.182-1.672 15.553-28.365 21.598-62.337 1.257-7.063-4.165-13.553-11.339-13.553-4.651 0-8.855 2.792-10.631 7.091-3.79 9.173-11.128 25.235-19.916 35.894-5.744 6.967-16.346 6.967-22.09 0-8.789-10.66-16.127-26.724-19.917-35.896-1.776-4.298-5.978-7.09-10.629-7.089h-.002c-7.174 0-12.596 6.49-11.339 13.553 6.046 33.972 31.781 60.665 21.598 62.337-18.552 3.046-47.055-17.338-71.254-28.845-5.285-2.513-7.897-6.645-9.158-10.536-1.891-5.835-7.199-9.874-13.333-9.874h-.711c-7.953 0-14.539 6.366-14.592 14.32-.05 7.465 2.558 16.588 12.738 24.14 21.29 15.796 95.463 39.834 95.463 81.727 0 41.894.504 118.009-40.36 139.299-29.025 15.122-11.211 24.621-34.028 50.756-3.347 3.834-.608 9.828 4.482 9.828h204.297c5.102 0 7.834-6.017 4.464-9.847-22.979-26.123-5.064-35.591-34.135-50.737-40.864-21.29-40.36-97.405-40.36-139.299s74.173-65.931 95.463-81.727c10.18-7.553 12.788-16.675 12.738-24.14-.052-7.954-6.638-14.32-14.591-14.32z" fill="#938493"/><g><path d="m189.96 501.764c22.012-27.22 4.826-37.113 32.828-52.862 39.422-22.174 38.936-101.447 38.936-145.079 0-32.018-38.533-54.022-67.162-69.968-13.454-6.316-27.942-15.235-41.15-21.516-5.285-2.513-7.897-6.645-9.158-10.536-1.891-5.835-7.199-9.874-13.333-9.874h-.711c-7.954 0-14.539 6.366-14.592 14.32-.05 7.465 2.558 16.588 12.738 24.14 21.29 15.796 95.463 39.834 95.463 81.727 0 41.894.504 118.009-40.36 139.299-29.025 15.122-11.211 24.621-34.028 50.756-3.347 3.834-.608 9.828 4.482 9.828h40.371c-4.91 0-7.552-6.242-4.324-10.235z" fill="#7b6c79"/></g></g></svg>