<svg id="Layer_1" height="512" viewBox="0 0 512 512" width="512" xmlns="http://www.w3.org/2000/svg" data-name="Layer 1"><path d="m400.997 174.414-8.639 8.459 8.638-8.459z" fill="#d4e1f4"/><path d="m486.08 494.67c-16.52-5.652-22.468-23.217-22.727-45.133-16.65-38.253-5.6-99.24 3.155-121.814a87.781 87.781 0 0 0 3.71-12.13 85.894 85.894 0 0 0 1.88-12.44c.11-1.36.17-3.58.12-4.94-2.2-54.15-38.93-95.82-79.69-115.17l-.009-.009-.161-.161-.1.1a10.941 10.941 0 0 1 -15.31.01l-12.689-12.422-14.087 13.939 12.778 12.51a10.941 10.941 0 0 0 15.31-.01l.1-.1.17.17c40.76 19.35 77.49 61.02 79.69 115.17.05 1.36-.01 3.58-.12 4.94a85.894 85.894 0 0 1 -1.88 12.44 87.781 87.781 0 0 1 -3.71 12.13c-10.83 27.94-25.2 114.73 13.81 144.42a48.139 48.139 0 0 0 19.68 8.8.155.155 0 0 0 .08-.3z" fill="#d4e1f4"/><path d="m328.312 122.365a10.986 10.986 0 0 1 .886-1.092c-15.3-43.63-54.21-79.26-114.32-82.27-1.38-.07-3.64-.04-5.02.05a90.124 90.124 0 0 0 -12.66 1.68 91.824 91.824 0 0 0 -12.37 3.49c-22.84 8.231-84.037 18.177-122.728 1.883-20.132-.406-36.669-5.291-43.93-18.086a.624.624 0 0 0 -1.14.49 45.641 45.641 0 0 0 10.72 18.14c32.47 33.91 115.58 21.51 143.08 11.6a91.824 91.824 0 0 1 12.37-3.49 90.124 90.124 0 0 1 12.66-1.68c1.38-.09 3.64-.12 5.02-.05 60.11 3.01 99.02 38.64 114.32 82.27a10.942 10.942 0 0 0 .34 15.3l11.825 11.576 14.087-13.941-11.914-11.662a10.939 10.939 0 0 1 -1.226-14.208z" fill="#d4e1f4"/><path d="m213.908 244.464-13.429 13.43a6 6 0 1 0 8.485 8.484l13.43-13.43a6 6 0 0 0 -8.486-8.484z" fill="#1ae5be"/><path d="m233.366 238.634a5.979 5.979 0 0 0 4.242-1.758l43.568-43.567a6 6 0 0 0 -8.485-8.485l-43.568 43.568a6 6 0 0 0 4.243 10.242z" fill="#1ae5be"/><path d="m297.006 177.479 3.4-3.4a6 6 0 0 0 -8.486-8.484l-3.4 3.4a6 6 0 1 0 8.486 8.484z" fill="#1ae5be"/><path d="m416.412 172.89-7.663-2.517a17.2 17.2 0 0 0 .143-2.113 16.816 16.816 0 0 0 -5.111-12.11l-16.709-16.3-8.381 8.59 16.71 16.3a4.943 4.943 0 0 1 .007 7.069l-21.342 20.908a4.972 4.972 0 0 1 -6.92 0l-17.064-16.7-8.394 8.576 17.064 16.7a17.021 17.021 0 0 0 20.136 2.644 141.589 141.589 0 0 1 49.128 41.244 120.984 120.984 0 0 1 24.206 67.3c.041 1.018-.006 2.993-.1 4.228a80.454 80.454 0 0 1 -5.209 22.864c-4.375 11.29-10.073 33.846-11.736 60.258-1.309 20.773-.356 50.154 11.61 72.153.906 1.667 1.871 3.251 2.873 4.782l-322.46-69.596a27.715 27.715 0 0 1 -21.26-21.328l-68.947-324.542c1.349.78 2.729 1.538 4.172 2.254 39.435 19.559 105.235 9.875 131.701.346a84.187 84.187 0 0 1 23.362-4.83c1.255-.077 3.289-.1 4.354-.044 50.872 2.548 90.955 30.65 107.891 75.375a16.922 16.922 0 0 0 2.867 20.485l16.37 16.025 8.4-8.574-16.371-16.026a4.941 4.941 0 0 1 -.012-7.051l21.2-20.9a4.971 4.971 0 0 1 6.924-.016l16.59 16.186 8.38-8.59-16.59-16.186a16.878 16.878 0 0 0 -11.663-4.771l-2.806-8.871c-7.384-24.234-25.271-46.364-50.365-62.31-23.744-15.087-52.397-23.376-78.597-22.741q-1.82.042-3.646.141a122.071 122.071 0 0 0 -30.1 5.442c-16.9 5.325-52.08 16.407-85.57 21.217-26.5 3.806-60.172 4.676-70.089-12.8a6.623 6.623 0 0 0 -12.082 5.246 51.594 51.594 0 0 0 10.911 19.225l71.981 338.8a39.717 39.717 0 0 0 30.467 30.568l339.791 73.343a54.5 54.5 0 0 0 20.294 8.6 6.157 6.157 0 0 0 3.269-11.849c-16.693-5.711-22.265-28.236-16.562-66.952 5-33.978 17.364-70.284 23.3-87.732a117.173 117.173 0 0 0 5.951-29.622q.125-1.8.195-3.593c1-25.845-7.032-54.207-22.05-77.817-15.847-24.922-38.06-42.827-62.448-50.388zm-233.757-144.801a110.038 110.038 0 0 1 27.141-4.9q1.646-.09 3.288-.128c51.369-1.2 103.954 33.1 117.213 76.612l2.987 9.443c-.264.23-.534.451-.786.7l-15.023 14.809c-19.787-46.112-62.587-74.894-116.292-77.583-1.728-.087-4.22-.038-5.689.051a96.118 96.118 0 0 0 -26.694 5.513c-24.01 8.65-86.546 17.933-122.3.2a59.366 59.366 0 0 1 -5.321-2.979c36.285 8.519 95.221-7.168 141.476-21.738zm306.268 272.537q-.063 1.611-.175 3.228a105.155 105.155 0 0 1 -5.34 26.586c-6.054 17.785-18.651 54.791-23.815 89.851q-4.491 30.486.023 49.816-1.194-1.839-2.289-3.852c-19.009-34.945-8.687-97.926.773-122.341a92.426 92.426 0 0 0 5.984-26.274 56.361 56.361 0 0 0 .128-5.641 132.932 132.932 0 0 0 -26.56-73.969 151.45 151.45 0 0 0 -49.186-42.622l14.576-14.279 9.72 3.191c43.958 13.632 78.123 65.807 76.161 116.306z" fill="#0635c9"/><path d="m474.321 39.925a7.82 7.82 0 0 0 -8.774-1.577l-77.8 34.8-.039.017a7.833 7.833 0 0 0 1.517 14.775l10.715 2.417-237.064 234.608-13.768-1.242a11.887 11.887 0 0 0 -8.841 3.431l-43.293 42.966a11.717 11.717 0 0 0 5.331 19.662l13.584 3.582 2.89 17.328a11.758 11.758 0 0 0 7.855 9.2 11.889 11.889 0 0 0 11.948-2.572l48.513-45.4a11.667 11.667 0 0 0 3.7-9.273l-3.059-17.4 235.764-233.311 3.677 13.129a7.879 7.879 0 0 0 7.025 5.714c.185.014.37.02.554.02a7.888 7.888 0 0 0 7.211-4.7l34.026-77.459a7.768 7.768 0 0 0 -1.672-8.715zm-343.76 368.467-2.861-17.166a11.8 11.8 0 0 0 -8.639-9.436l-13.279-3.5 14.687-14.59 27.283 28.608zm25.951-24.287-27.53-28.867 3.713-3.689 27.664 28.956zm12.609-11.8-27.911-29.214 7.419-7.37 20.759 1.885a6.424 6.424 0 0 1 5.731 5.259l3.637 20.424zm14.221-39.6a18.529 18.529 0 0 0 -6.11-5.069l236.597-234.146 4.811 1.085 1.16 4.142zm252.28-222-5.977-21.342a8.624 8.624 0 0 0 -6.365-6.051l-19.206-4.334 56.6-25.315z" fill="#1ae5be"/><g fill="none"><path d="m128.982 355.238 27.53 28.867 3.847-3.6-27.664-28.956z"/><path d="m169.388 337.606-20.759-1.885-7.419 7.37 27.911 29.215 9.635-9.017-3.637-20.424a6.424 6.424 0 0 0 -5.731-5.259z"/><path d="m429.645 89.372 5.977 21.342 25.054-57.042-56.6 25.315 19.206 4.334a8.624 8.624 0 0 1 6.363 6.051z"/><path d="m177.232 327.641a18.529 18.529 0 0 1 6.11 5.069l158.258-156.604-5.653-5.534z"/><path d="m105.78 378.287 13.279 3.5a11.8 11.8 0 0 1 8.639 9.436l2.863 17.166 17.189-16.087-27.283-28.602z"/><path d="m419.8 98.717-1.16-4.142-4.811-1.085-63.801 63.141 5.654 5.535z"/></g></svg>