<svg id="Capa_1" enable-background="new 0 0 512 512" height="512" viewBox="0 0 512 512" width="512" xmlns="http://www.w3.org/2000/svg"><g><g><path d="m125.492 407.038c4.438-12.184-6.684-16.233-2.246-28.417 4.438-12.185 15.56-8.136 19.998-20.321 4.438-12.186-6.683-16.235-2.245-28.42s15.56-8.136 19.998-20.322c4.439-12.186-6.683-16.235-2.244-28.421 4.439-12.188 15.561-8.138 20-20.326s-6.682-16.237-2.243-28.425h158.98c4.439 12.188-6.682 16.237-2.243 28.425s15.561 8.138 20 20.326c4.439 12.186-6.683 16.235-2.244 28.421 4.438 12.185 15.56 8.136 19.998 20.322s-6.683 16.235-2.245 28.42 15.56 8.136 19.998 20.321c4.438 12.184-6.684 16.233-2.246 28.417z" fill="#335e80"/><path d="m388.754 378.621c-4.438-12.185-15.56-8.136-19.998-20.321-4.438-12.186 6.683-16.235 2.245-28.42s-15.56-8.136-19.998-20.322 6.683-16.235 2.245-28.421c-4.439-12.188-15.561-8.138-20-20.326s6.682-16.237 2.243-28.425h-30c4.439 12.188-6.682 16.237-2.243 28.425s15.561 8.138 20 20.326c4.439 12.186-6.683 16.235-2.245 28.421 4.438 12.185 15.56 8.136 19.998 20.322s-6.683 16.235-2.245 28.42 15.56 8.136 19.998 20.321c4.438 12.184-6.684 16.233-2.246 28.417h30c-4.438-12.184 6.683-16.233 2.246-28.417z" fill="#235170"/><g><circle cx="346" cy="292.731" fill="#ffe179" r="21.731"/><path d="m346 271c-4.119 0-7.971 1.147-11.253 3.137 6.281 3.809 10.478 10.711 10.478 18.594s-4.197 14.784-10.478 18.594c3.282 1.991 7.134 3.137 11.253 3.137 12.002 0 21.731-9.729 21.731-21.731s-9.729-21.731-21.731-21.731z" fill="#fbd268"/><circle cx="166" cy="292.731" fill="#ffe179" r="21.731"/><path d="m166 271c-4.295 0-8.295 1.251-11.666 3.401 6.049 3.858 10.065 10.623 10.065 18.33s-4.015 14.471-10.065 18.33c3.371 2.15 7.371 3.401 11.666 3.401 12.002 0 21.731-9.729 21.731-21.731s-9.729-21.731-21.731-21.731z" fill="#fbd268"/></g><path d="m342.333 279.603h-9.732v-40.536h9.732c11.194 0 20.268 9.074 20.268 20.268 0 11.193-9.074 20.268-20.268 20.268z" fill="#8fd8fa"/><path d="m169.667 279.603h9.732v-40.536h-9.732c-11.194 0-20.268 9.074-20.268 20.268 0 11.193 9.074 20.268 20.268 20.268z" fill="#8fd8fa"/><path d="m256 7.5c-75.233 0-136.221 60.988-136.221 136.221s60.988 136.221 136.221 136.221 136.221-60.988 136.221-136.221-60.988-136.221-136.221-136.221zm0 236.835c-55.567 0-100.614-45.046-100.614-100.614 0-55.567 45.046-100.614 100.614-100.614s100.614 45.046 100.614 100.614c0 55.567-45.047 100.614-100.614 100.614z" fill="#ffe179"/><g><path d="m256 7.5c-5.07 0-10.073.286-15 .826 68.174 7.469 121.221 65.233 121.221 135.395s-53.047 127.927-121.221 135.395c4.927.54 9.93.826 15 .826 75.233 0 136.221-60.988 136.221-136.221s-60.988-136.221-136.221-136.221z" fill="#fbd268"/></g><path d="m446 502v-33.805c0-25.068-15.584-47.493-39.078-56.234l-65.566-24.393-29.104-7.246c-2.329-.867-5.227-6.016-7.023-7.593-4.241-3.725-6.805-9.161-6.805-15.031v-48.471h-84.846v48.471c0 5.909-2.598 11.378-6.889 15.104-1.777 1.543-6.043 7.62-8.336 8.473l-27.789 6.324-65.485 24.363c-23.495 8.74-39.079 31.166-39.079 56.233v33.805c0 5.523 4.477 10 10 10h360c5.523 0 10-4.477 10-10z" fill="#8fd8fa"/><g><path d="m406.922 411.961-65.567-24.394-29.104-7.246c-2.329-.867-5.227-6.017-7.023-7.593-4.241-3.725-6.805-9.161-6.805-15.031v-48.471h-30v63.471c0 8.356 5.195 15.831 13.026 18.745l95.472 35.52c23.495 8.74 39.079 31.166 39.079 56.233v28.805h20c5.523 0 10-4.477 10-10v-33.805c0-25.067-15.584-47.493-39.078-56.234z" fill="#68cbf2"/></g><path d="m256 360.152c-15.69 0-30.279.269-42.424-7.825-20.603-13.73-34.177-37.175-34.177-63.79v-79.471l83.382-30 69.821 30-3.569 40.325 3.569 30.211v8.935c0 26.883-13.848 50.531-34.799 64.201-12.021 7.842-41.803 7.414-41.803 7.414z" fill="#8fd8fa"/><path d="m262.78 179.067-16.328 5.875 56.149 24.125v79.471c.233 4.791.966 29.7-17.63 48.885-17.622 18.181-45.614 24.012-71.395 14.903 8.2 5.236 20.014 10.936 34.817 12.435 2.641.267 5.181.381 7.606.378 42.306 0 76.601-34.296 76.601-76.601v-79.471z" fill="#68cbf2"/><path d="m256 125.867c-42.306 0-76.601 34.296-76.601 76.601v21.599l18.67-7.312c37.244-14.586 78.619-14.586 115.863 0l18.67 7.312v-21.599c-.001-42.306-34.296-76.601-76.602-76.601z" fill="#ffe179"/><g><path d="m256 125.867c-5.135 0-10.148.515-15 1.478 35.122 6.974 61.601 37.952 61.601 75.123v10.343c3.812 1.17 7.593 2.48 11.33 3.943l18.67 7.312v-21.599c0-42.305-34.295-76.6-76.601-76.6z" fill="#fbd268"/></g><path d="m302.5 146.867h-93c-9.941 0-18-8.059-18-18 0-9.941 8.059-18 18-18h93c9.941 0 18 8.059 18 18 0 9.941-8.059 18-18 18z" fill="#fff8bf"/><path d="m302.5 110.867h-30c9.941 0 18 8.059 18 18s-8.059 18-18 18h30c9.941 0 18-8.059 18-18s-8.059-18-18-18z" fill="#fcea9d"/><path d="m287.5 110.867h-63c-9.941 0-18-8.059-18-18 0-9.941 8.059-18 18-18h63c9.941 0 18 8.059 18 18 0 9.941-8.059 18-18 18z" fill="#ffe179"/><path d="m287.5 74.867h-30c9.941 0 18 8.059 18 18s-8.059 18-18 18h30c9.941 0 18-8.059 18-18s-8.059-18-18-18z" fill="#fbd268"/><path d="m277.45 74.867h-42.9v-21.105c0-5.224 2.55-10.118 6.831-13.112l12.327-8.62c1.377-.963 3.208-.963 4.585 0l12.327 8.62c4.281 2.994 6.831 7.888 6.831 13.112v21.105z" fill="#fff8bf"/><path d="m270.619 40.65-12.327-8.62c-1.377-.963-3.208-.963-4.585 0l-9.993 6.988 2.334 1.632c4.281 2.994 6.831 7.888 6.831 13.112v21.105h24.571v-21.105c0-5.224-2.55-10.119-6.831-13.112z" fill="#fcea9d"/><path d="m446 502v-33.805c0-25.068-15.584-47.493-39.078-56.234l-18.755-6.978-94.426 107.017h142.259c5.523 0 10-4.477 10-10z" fill="#f58a97"/><path d="m406.922 411.961-18.755-6.978-17.378 19.696 6.133 2.282c23.494 8.741 39.078 31.167 39.078 56.234v28.805h20c5.523 0 10-4.477 10-10v-33.805c0-25.067-15.584-47.493-39.078-56.234z" fill="#f07281"/><path d="m211.77 451.842 44.188 24.448 44.188-24.448c23.797-13.165 39.195-37.418 41.21-64.274l-29.906-11.126c-2.329-.867-4.418-2.145-6.214-3.721v8.832c0 15.999-8.688 30.736-22.688 38.482l-26.59 14.711-26.589-14.711c-13.999-7.745-22.688-22.483-22.688-38.482v-8.761c-1.777 1.543-3.836 2.797-6.129 3.65l-29.987 11.156c2.022 26.845 17.418 51.083 41.205 64.244z" fill="#ffe179"/><path d="m305.235 372.72v8.832c0 6.089-1.266 11.993-3.597 17.4l34.092 12.684c3.071-7.6 4.997-15.708 5.624-24.069l-29.906-11.126c-2.27-.847-4.393-2.125-6.213-3.721z" fill="#fbd268"/><circle cx="256" cy="483.59" fill="#f58a97" r="20.91"/><path d="m256 462.681c-3.813 0-7.377 1.037-10.455 2.82 6.244 3.617 10.455 10.355 10.455 18.09s-4.211 14.473-10.455 18.09c3.078 1.783 6.642 2.82 10.455 2.82 11.548 0 20.91-9.362 20.91-20.91s-9.362-20.91-20.91-20.91z" fill="#f07281"/><path d="m253.172 152.573-22.778-22.778c-1.562-1.562-1.562-4.095 0-5.657l22.778-22.778c1.562-1.562 4.095-1.562 5.657 0l22.778 22.778c1.562 1.562 1.562 4.095 0 5.657l-22.778 22.778c-1.563 1.562-4.095 1.562-5.657 0z" fill="#f58a97"/><path d="m281.607 124.138-22.778-22.778c-1.562-1.562-4.095-1.562-5.657 0l-10.561 10.561 12.218 12.218c1.562 1.562 1.562 4.095 0 5.657l-12.218 12.218 10.561 10.561c1.562 1.562 4.095 1.562 5.657 0l22.778-22.778c1.562-1.564 1.562-4.097 0-5.659z" fill="#f07281"/></g><path d="m409.535 404.931-16.182-6.021c.278-.922.685-1.947 1.214-3.232 1.876-4.56 4.447-10.806 1.231-19.621-3.209-8.824-9.196-11.956-13.567-14.242-3.701-1.936-5.25-2.851-6.425-6.082-1.178-3.235-.58-4.931 1.01-8.794 1.876-4.56 4.446-10.806 1.231-19.625-2.833-7.781-7.819-11.133-11.955-13.383 5.621-5.33 9.138-12.86 9.138-21.2 0-7.735-3.078-15.03-8.339-20.416 2.096-3.95 3.209-8.38 3.209-12.984 0-7.298-2.784-14.062-7.605-19.116 23.7-26.152 37.225-60.409 37.225-96.494 0-79.248-64.472-143.721-143.72-143.721s-143.72 64.473-143.72 143.72c0 36.085 13.525 70.342 37.225 96.494-4.821 5.053-7.605 11.818-7.605 19.116 0 4.606 1.114 9.037 3.208 12.985-5.26 5.386-8.338 12.68-8.338 20.415 0 8.34 3.517 15.87 9.138 21.2-4.137 2.25-9.122 5.603-11.954 13.382-3.216 8.822-.646 15.067 1.23 19.627 1.59 3.863 2.188 5.559 1.008 8.797-1.174 3.228-2.723 4.142-6.423 6.078-4.371 2.287-10.357 5.418-13.564 14.235-3.218 8.822-.648 15.068 1.229 19.628.529 1.285.936 2.311 1.214 3.233l-16.181 6.02c-26.299 9.781-43.967 35.207-43.967 63.27v36.3c0 4.142 3.358 7.5 7.5 7.5s7.5-3.358 7.5-7.5v-36.3c0-21.828 13.742-41.604 34.195-49.211l56.687-21.091c2.035 10.689 6.047 20.995 11.828 30.237 2.217 3.545 6.869 4.549 10.335 2.381 3.512-2.196 4.578-6.824 2.381-10.335-5.249-8.392-8.738-17.84-10.243-27.604l20.609-7.667c1.137 17.412 11.051 33.17 26.446 41.681l26.59 14.72c1.13.625 2.381.938 3.632.938s2.502-.313 3.632-.938l26.586-14.718c15.407-8.518 25.324-24.289 26.451-41.712l20.606 7.667c-3.376 22.273-16.803 41.713-36.717 52.729l-25.588 14.158c-4.342-2.694-9.457-4.254-14.931-4.254-5.491 0-10.62 1.57-14.97 4.279l-25.63-14.182c-1.398-.773-2.783-1.6-4.118-2.458-3.484-2.239-8.125-1.23-10.364 2.255-2.239 3.484-1.23 8.125 2.255 10.364 1.61 1.035 3.281 2.032 4.965 2.964l22.483 12.441c-1.935 3.836-3.032 8.165-3.032 12.747 0 15.665 12.745 28.41 28.41 28.41s28.41-12.745 28.41-28.41c0-4.596-1.104-8.937-3.05-12.782l22.421-12.405c23.101-12.779 38.963-34.956 43.764-60.531l27.777 10.334-80.586 91.332c-2.74 3.106-2.444 7.845.662 10.586 3.095 2.731 7.836 2.454 10.586-.662l84.398-95.653 13.924 5.181c20.453 7.606 34.194 27.383 34.194 49.21v36.3c0 4.142 3.358 7.5 7.5 7.5s7.5-3.358 7.5-7.5v-36.3c.002-28.064-17.666-53.49-43.963-63.27zm-153.535 92.069c-7.394 0-13.41-6.016-13.41-13.41s6.016-13.41 13.41-13.41 13.41 6.016 13.41 13.41-6.016 13.41-13.41 13.41zm-128.72-353.28c0-70.976 57.743-128.72 128.72-128.72s128.72 57.744 128.72 128.72c0 37.667-16.453 73.112-44.619 97.431v-29.538c15.489-19.173 24.008-43.159 24.008-67.894 0-14.751-2.919-29.052-8.676-42.505-1.63-3.809-6.039-5.573-9.846-3.944-3.808 1.629-5.574 6.038-3.944 9.846 4.954 11.578 7.466 23.893 7.466 36.604 0 15.058-3.664 29.796-10.518 42.975-2.762-14.389-9.256-27.891-18.837-39.051 5.267-4.848 8.245-11.635 8.245-18.774 0-11.388-7.505-21.054-17.828-24.318 1.846-3.572 2.829-7.552 2.829-11.682 0-14.061-11.439-25.5-25.5-25.5h-2.55v-12.166c14.788 4.806 28.091 13.237 38.943 24.795 2.84 3.024 7.587 3.164 10.601.333 3.02-2.835 3.169-7.582.333-10.601-15.155-16.139-34.433-27.033-55.89-31.656-1.189-1.326-2.531-2.53-4.021-3.572l-12.329-8.622c-3.94-2.754-9.236-2.754-13.18.001l-12.327 8.62c-1.494 1.044-2.839 2.252-4.03 3.582-49.514 10.685-85.163 54.64-85.163 105.635 0 24.744 8.52 48.723 24.008 67.876v29.555c-28.162-24.317-44.615-59.762-44.615-97.43zm215.05 143.38c5.094 0 9.974-1.361 14.223-3.904 2.329 2.577 3.677 5.961 3.677 9.534 0 7.846-6.383 14.23-14.23 14.23-2.709 0-5.273-.756-7.494-2.144 1.093-5.664 1.717-11.745 1.596-17.716zm-2.228-15v-11.84c4.099-2.961 8.01-6.123 11.735-9.457 2.07 2.293 3.263 5.294 3.263 8.526 0 3.414-1.327 6.617-3.75 9.034-2.403 2.41-5.606 3.736-9.02 3.736h-2.228zm-170.432 15h2.229c-.206 5.795.522 12.167 1.596 17.716-2.221 1.387-4.785 2.144-7.494 2.144-7.847 0-14.23-6.384-14.23-14.23 0-3.574 1.349-6.958 3.678-9.536 4.252 2.546 9.13 3.906 14.221 3.906zm-12.77-27.77c0-3.232 1.193-6.234 3.263-8.526 3.725 3.334 7.636 6.496 11.735 9.457v11.84h-2.229c-3.414 0-6.617-1.327-9.034-3.75-2.408-2.404-3.735-5.607-3.735-9.021zm16.509-72.637c-6.854-13.171-10.518-27.908-10.518-42.973 0-40.706 26.362-76.211 64.16-88.517v12.167h-2.55c-13.965-.079-25.5 11.587-25.5 25.5 0 4.204 1.029 8.17 2.838 11.669-10.48 3.251-17.839 13.334-17.839 24.331 0 7.416 3.184 14.1 8.254 18.764-9.585 11.162-16.082 24.667-18.845 39.059zm114.091-104.323c5.79 0 10.5 4.71 10.5 10.5 0 5.687-4.8 10.529-10.5 10.5h-16.055l-7.314-7.314c-4.483-4.482-11.778-4.482-16.263.001l-7.313 7.313h-16.055c-5.79 0-10.5-4.71-10.5-10.5 0-5.718 4.782-10.527 10.5-10.5zm-45.45-15.003v-13.605c0-2.773 1.357-5.377 3.629-6.966l10.321-7.218 10.321 7.217c2.272 1.589 3.629 4.193 3.629 6.966v13.605h-27.9zm44.395 51.003h16.055c5.79 0 10.5 4.71 10.5 10.5 0 5.687-4.8 10.529-10.5 10.5h-19.862l4.271-4.271c2.173-2.172 3.37-5.061 3.37-8.133-.001-3.297-1.399-6.374-3.834-8.596zm-12.617 8.597-14.58 14.58c-.014.014-.028.028-.042.042l-3.206 3.206-3.208-3.208c-.013-.013-.026-.027-.04-.04l-14.581-14.582 17.829-17.827zm-48.738 8.131 4.272 4.272h-19.862c-5.79 0-10.5-4.71-10.5-10.5 0-5.718 4.782-10.527 10.5-10.5h16.055c-2.392 2.328-3.833 5.225-3.833 8.596 0 3.073 1.196 5.961 3.368 8.132zm-38.19 67.372c0-18.032 7.127-35.419 19.667-48.274.963.111 1.941.174 2.933.174h34.862l3.506 3.506s0 0 .001.001c2.242 2.241 5.186 3.361 8.13 3.361s5.89-1.121 8.132-3.362l3.506-3.506h34.863c.988 0 1.967-.062 2.934-.173 12.54 12.855 19.666 30.241 19.666 48.273v10.604l-8.436-3.308c-39.12-15.316-82.208-15.316-121.333.001l-8.432 3.306v-10.603zm11.035 166.941-65.215 24.264c-.453-1.362-.959-2.596-1.415-3.705-1.588-3.858-2.186-5.552-1.006-8.786 1.174-3.228 2.723-4.142 6.423-6.078 4.371-2.287 10.357-5.418 13.565-14.239 3.215-8.828.645-15.075-1.232-19.636-1.588-3.859-2.186-5.554-1.008-8.785 1.177-3.233 2.726-4.147 6.428-6.082 2.231-1.166 4.821-2.525 7.269-4.718 1.39.204 2.81.313 4.256.313 4.098 0 8.121-.877 11.811-2.508 5.844 14.726 15.715 27.427 28.269 36.718.32 5.622-2.611 11.242-8.145 13.242zm99.805 12.139c0 13.269-7.211 25.499-18.823 31.918l-22.958 12.709-22.961-12.711c-11.608-6.417-18.819-18.646-18.819-31.916v-5.7c2.826-3.215 4.895-7.063 5.992-11.245 10.877 5.144 23.019 8.034 35.828 8.034s24.951-2.89 35.828-8.034c1.087 4.143 3.127 7.958 5.912 11.155v5.79zm-41.74-23.911c-38.103 0-69.102-30.999-69.102-69.102v-59.351l13.906-5.452c35.593-13.936 74.797-13.936 110.388-.001l13.909 5.453v59.351c.001 38.103-30.998 69.102-69.101 69.102zm124.696 32.33c-.456 1.109-.962 2.343-1.415 3.705l-65.218-24.265c-1.52-.565-2.884-1.412-4.041-2.467-.004-.003-.007-.006-.01-.009-3.052-2.579-4.405-6.701-4.091-10.763 12.554-9.291 22.426-21.992 28.269-36.718 3.69 1.631 7.713 2.508 11.811 2.508 1.446 0 2.866-.109 4.256-.313 2.448 2.193 5.039 3.552 7.269 4.718 3.702 1.935 5.25 2.848 6.429 6.083 1.177 3.229.579 4.923-1.009 8.783-1.877 4.561-4.447 10.808-1.233 19.632 3.209 8.824 9.196 11.956 13.567 14.242 3.701 1.936 5.25 2.851 6.426 6.085 1.175 3.227.578 4.921-1.01 8.779zm-239.696 78.683c-4.142 0-7.5 3.358-7.5 7.5v28.348c0 4.142 3.358 7.5 7.5 7.5s7.5-3.358 7.5-7.5v-28.348c0-4.142-3.358-7.5-7.5-7.5zm123.24-149.744c-2.184 1.178-4.521 1.866-6.947 2.046-4.135.305-7.481-.951-9.562-2.062-3.653-1.95-8.197-.568-10.147 3.087-1.95 3.654-.568 8.198 3.087 10.147 3.427 1.828 8.739 3.875 15.349 3.875 5.329 0 10.604-1.337 15.34-3.89 3.646-1.966 5.008-6.515 3.042-10.161-1.968-3.647-6.519-5.008-10.162-3.042zm-19.839-53.968c-1.966-3.646-6.515-5.008-10.161-3.042-2.185 1.178-4.521 1.866-6.947 2.046-4.134.305-7.481-.951-9.562-2.062-3.653-1.949-8.197-.568-10.147 3.087-1.95 3.654-.568 8.198 3.087 10.147 3.427 1.829 8.739 3.875 15.348 3.875 5.33 0 10.603-1.336 15.34-3.89 3.646-1.965 5.008-6.515 3.042-10.161zm49.839-3.042c-2.185 1.178-4.521 1.866-6.947 2.046-4.132.305-7.481-.951-9.562-2.062-3.653-1.949-8.197-.568-10.147 3.087-1.95 3.654-.568 8.198 3.087 10.147 3.427 1.829 8.739 3.875 15.348 3.875 5.329 0 10.603-1.336 15.34-3.89 3.646-1.966 5.008-6.515 3.042-10.161-1.965-3.646-6.515-5.008-10.161-3.042zm-38.24-5.898c10.641 0 19.298-8.657 19.298-19.298v-8.767c0-4.142-3.358-7.5-7.5-7.5s-7.5 3.358-7.5 7.5v8.767c0 2.37-1.928 4.298-4.298 4.298s-4.298-1.928-4.298-4.298v-8.767c0-4.142-3.358-7.5-7.5-7.5s-7.5 3.358-7.5 7.5v8.767c0 10.641 8.657 19.298 19.298 19.298z"/></g></svg>