<?xml version="1.0" encoding="iso-8859-1"?>
<!-- Generator: Adobe Illustrator 19.0.0, SVG Export Plug-In . SVG Version: 6.00 Build 0)  -->
<svg version="1.1" id="Capa_1" xmlns="http://www.w3.org/2000/svg" xmlns:xlink="http://www.w3.org/1999/xlink" x="0px" y="0px"
	 viewBox="0 0 464 464" style="enable-background:new 0 0 464 464;" xml:space="preserve">
<path style="fill:#A38563;" d="M128,256H72c-17.68,0-32,14.32-32,32v176h88v-32V256z"/>
<polygon style="fill:#806749;" points="288,432 288,400 176,400 176,432 128,432 128,464 336,464 336,432 "/>
<path style="fill:#A38563;" d="M392,256h-56v176v32h88V288C424,270.32,409.68,256,392,256z"/>
<rect x="376" y="40" style="fill:#E6E6E6;" width="32" height="216"/>
<rect x="352" y="56" style="fill:#999999;" width="24" height="16"/>
<rect x="392" y="40" style="fill:#CCCCCC;" width="16" height="216"/>
<path style="fill:#A38563;" d="M287.36,256c-10.96,19.12-31.68,32-55.36,32s-44.4-12.88-55.36-32H176v56v88h112v-88v-56H287.36z"/>
<g>
	<polygon style="fill:#CA7300;" points="176,432 176,400 176,312 176,256 128,256 128,432 	"/>
	<polygon style="fill:#CA7300;" points="288,400 288,432 336,432 336,256 288,256 288,312 	"/>
</g>
<polygon style="fill:#806749;" points="152,256 152,336 184,304 232,352 280,304 312,336 312,256 "/>
<polygon style="fill:#D7CABB;" points="208,280 232,328 256,280 "/>
<g>
	<rect x="144" y="392" style="fill:#FFD422;" width="16" height="16"/>
	<rect x="304" y="392" style="fill:#FFD422;" width="16" height="16"/>
</g>
<polygon style="fill:#FE946F;" points="336,336 336,304 352,304 376,336 "/>
<rect x="336" y="336" style="fill:#FFB398;" width="88" height="128"/>
<g>
	<rect x="336" y="424" style="fill:#FE946F;" width="32" height="16"/>
	<rect x="336" y="392" style="fill:#FE946F;" width="32" height="16"/>
	<rect x="336" y="360" style="fill:#FE946F;" width="32" height="16"/>
</g>
<path style="fill:#D4C8B8;" d="M128.64,144L128.64,144c-13.255,0-24,10.745-24,24v32H80v16c0,13.255,10.745,24,24,24h0v0
	c0,8.837,7.163,16,16,16h40.64H296h40.64c8.837,0,16-7.163,16-16v0h0c13.255,0,24-10.745,24-24v-16H352v-32
	c0-13.255-10.745-24-24-24h0H128.64z"/>
<path style="fill:#EBE5DD;" d="M296,128v96c0,11.68-3.12,22.64-8.64,32c-10.96,19.12-31.68,32-55.36,32s-44.4-12.88-55.36-32
	c-5.52-9.36-8.64-20.32-8.64-32v-96H296z"/>
<g>
	<path style="fill:#D4C8B8;" d="M216,232h-24v-16h24c4.41,0,8-3.59,8-8v-16h16v16C240,221.234,229.234,232,216,232z"/>
	<path style="fill:#D4C8B8;" d="M272,232h-24c-13.234,0-24-10.766-24-24v-16h16v16c0,4.41,3.59,8,8,8h24V232z"/>
</g>
<rect x="200" y="128" style="fill:#FFB398;" width="64" height="64"/>
<path style="fill:#EE8700;" d="M232,168h-16v-16h8v-24h16v32C240,164.418,236.418,168,232,168z"/>
<path style="fill:#806749;" d="M328,128H136V88c0-8.837,7.163-16,16-16h160c8.837,0,16,7.163,16,16V128z"/>
<path style="fill:#EE8700;" d="M152,72l27.777-62.498C182.345,3.724,188.075,0,194.398,0h13.039c5.35,0,10.345,2.674,13.313,7.125
	l0.424,0.636c5.601,8.401,17.487,9.578,24.627,2.439l5.513-5.513C254.314,1.686,258.384,0,262.627,0h13.84
	c6.887,0,13.001,4.407,15.179,10.94L312,72H152z"/>
<path style="fill:#68533B;" d="M312,72h-24h-8c8.836,0,16,7.163,16,16v40h32V88C328,79.163,320.836,72,312,72z"/>
<path style="fill:#CA7300;" d="M267.647,10.94L288,72h24l-20.353-61.06C289.469,4.407,283.355,0,276.468,0h-13.84
	c-1.727,0-3.403,0.347-5.012,0.88C262.255,2.462,266.035,6.106,267.647,10.94z"/>
<g>
	<path style="fill:#FE946F;" d="M136,128h32v48h-16c-8.837,0-16-7.163-16-16V128z"/>
	<path style="fill:#FE946F;" d="M328,128h-32v48h16c8.837,0,16-7.163,16-16V128z"/>
</g>
<g>
</g>
<g>
</g>
<g>
</g>
<g>
</g>
<g>
</g>
<g>
</g>
<g>
</g>
<g>
</g>
<g>
</g>
<g>
</g>
<g>
</g>
<g>
</g>
<g>
</g>
<g>
</g>
<g>
</g>
</svg>
