<svg id="Capa_1" enable-background="new 0 0 512 512" height="512" viewBox="0 0 512 512" width="512" xmlns="http://www.w3.org/2000/svg"><g id="XMLID_1675_"><path id="XMLID_1712_" d="m459.793 73.311c-56.276-56.276-147.517-56.276-203.793 0-56.276-56.276-147.517-56.276-203.793 0-56.276 56.276-56.276 147.517 0 203.793l203.793 203.793 203.793-203.793c56.276-56.276 56.276-147.518 0-203.793z" fill="#ff9eb1"/><path id="XMLID_1681_" d="m233.343 195.098 154.228 154.228 72.222-72.222c56.276-56.276 56.276-147.517 0-203.793-56.276-56.276-147.517-56.276-203.793 0l56.401 56.401z" fill="#f1c6dd"/><g id="XMLID_1711_"><path id="XMLID_633_" d="m256 490.896c-2.559 0-5.119-.977-7.071-2.929l-203.793-203.792c-29.106-29.107-45.136-67.806-45.136-108.968 0-41.163 16.03-79.861 45.136-108.968 29.106-29.106 67.805-45.136 108.967-45.136 37.912 0 73.734 13.599 101.896 38.487 28.162-24.889 63.985-38.487 101.896-38.487 41.163 0 79.861 16.029 108.968 45.136s45.137 67.805 45.137 108.968c0 41.162-16.03 79.861-45.136 108.968l-203.793 203.793c-1.952 1.952-4.512 2.928-7.071 2.928zm-101.896-449.792c-35.82 0-69.497 13.949-94.825 39.278-25.33 25.328-39.279 59.005-39.279 94.825s13.949 69.496 39.278 94.825l196.722 196.722 196.722-196.722c25.329-25.329 39.278-59.005 39.278-94.825s-13.949-69.497-39.278-94.825c-25.329-25.329-59.005-39.278-94.825-39.278s-69.497 13.949-94.826 39.278c-1.875 1.875-4.419 2.929-7.071 2.929s-5.196-1.054-7.071-2.929c-25.329-25.329-59.005-39.278-94.825-39.278z" fill="#ff5d7d"/></g><g id="XMLID_1561_"><path id="XMLID_1569_" d="m425.59 236.554-105.124 105.125c-19.394 19.394-50.838 19.394-70.232 0-19.394-19.394-19.394-50.838 0-70.232l105.125-105.125c19.394-19.394 50.838-19.394 70.232 0 19.393 19.394 19.393 50.838-.001 70.232z" fill="#ffda8f"/><path id="XMLID_1565_" d="m373.028 289.116c-15.857 15.857-41.565 15.857-57.422 0l-12.811-12.811c-15.857-15.857-15.857-41.565 0-57.422 15.857-15.857 41.565-15.857 57.422 0l12.811 12.811c15.856 15.857 15.856 41.566 0 57.422z" fill="#fff"/><g id="XMLID_1564_"><path id="XMLID_632_" d="m402.689 213.755c-2.559 0-5.119-.977-7.071-2.929l-14.532-14.532c-3.905-3.905-3.905-10.237 0-14.143 3.905-3.904 10.237-3.904 14.143 0l14.532 14.532c3.905 3.905 3.905 10.237 0 14.143-1.953 1.952-4.513 2.929-7.072 2.929z" fill="#fff"/></g><g id="XMLID_1563_"><path id="XMLID_631_" d="m287.667 328.777c-2.559 0-5.119-.977-7.071-2.929l-14.532-14.532c-3.905-3.905-3.905-10.237 0-14.143 3.905-3.904 10.237-3.904 14.143 0l14.532 14.532c3.905 3.905 3.905 10.237 0 14.143-1.954 1.953-4.513 2.929-7.072 2.929z" fill="#fff"/></g><g id="XMLID_1493_"><path id="XMLID_628_" d="m285.349 366.196c-15.278 0-30.556-5.815-42.187-17.446-11.269-11.269-17.475-26.252-17.475-42.188 0-15.937 6.206-30.919 17.475-42.188l105.125-105.124c23.263-23.262 61.113-23.262 84.375 0 11.269 11.27 17.475 26.252 17.475 42.188 0 15.937-6.206 30.919-17.475 42.188l-105.125 105.124c-11.632 11.631-26.91 17.446-42.188 17.446zm105.125-204.401c-10.158 0-20.313 3.865-28.045 11.598l-105.125 105.125c-7.491 7.49-11.617 17.45-11.617 28.045 0 10.594 4.125 20.554 11.617 28.045 15.464 15.465 40.627 15.464 56.09 0l105.125-105.125c7.491-7.49 11.616-17.45 11.616-28.045 0-10.594-4.125-20.554-11.617-28.045-7.73-7.732-17.889-11.598-28.044-11.598z" fill="#ff5d7d"/></g></g></g></svg>