<svg height="512pt" viewBox="0 0 512 512" width="512pt" xmlns="http://www.w3.org/2000/svg" xmlns:xlink="http://www.w3.org/1999/xlink"><linearGradient id="a" gradientTransform="matrix(1 0 0 -1 0 -14446)" gradientUnits="userSpaceOnUse" x1="0" x2="512" y1="-14702" y2="-14702"><stop offset="0" stop-color="#00f38d"/><stop offset="1" stop-color="#009eff"/></linearGradient><path d="m512 256c0 141.386719-114.613281 256-256 256s-256-114.613281-256-256 114.613281-256 256-256 256 114.613281 256 256zm0 0" fill="url(#a)"/><g fill="#fff"><path d="m382.652344 88.5h-253.304688c-22.523437 0-40.847656 18.324219-40.847656 40.847656v253.304688c0 22.523437 18.324219 40.847656 40.847656 40.847656h253.304688c22.523437 0 40.847656-18.324219 40.847656-40.847656v-253.304688c0-22.523437-18.324219-40.847656-40.847656-40.847656zm-253.304688 30h242.292969l-253.140625 253.140625v-242.292969c0-5.980468 4.867188-10.847656 10.847656-10.847656zm253.304688 275h-243.585938l254.433594-254.433594v243.585938c0 5.980468-4.867188 10.847656-10.847656 10.847656zm0 0"/><path d="m172.503906 232.089844h30v-30.230469h30.234375v-30h-30.234375v-30.234375h-30v30.234375h-30.234375v30h30.234375zm0 0"/><path d="m279.261719 309.496094h90.46875v30h-90.46875zm0 0"/></g></svg>