<svg height="512" viewBox="0 0 256 256" width="512" xmlns="http://www.w3.org/2000/svg"><path d="m208.625 110h-89a2.5 2.5 0 0 1 0-5h89a2.5 2.5 0 0 1 0 5z" fill="#f9b087"/><path d="m208.625 130.5h-89a2.5 2.5 0 0 1 0-5h89a2.5 2.5 0 0 1 0 5z" fill="#f9b087"/><path d="m151.708 151h-32.083a2.5 2.5 0 0 1 0-5h32.083a2.5 2.5 0 0 1 0 5z" fill="#f9b087"/><path d="m151.708 178.5a16.269 16.269 0 0 1 -16.25-16.25 2.5 2.5 0 0 1 5 0 11.25 11.25 0 1 0 11.25-11.25 2.5 2.5 0 1 1 0-5 16.25 16.25 0 0 1 0 32.5z" fill="#f9b087"/><path d="m208.625 158a16.269 16.269 0 0 1 -16.25-16.25 2.5 2.5 0 0 1 5 0 11.25 11.25 0 1 0 11.25-11.25 2.5 2.5 0 0 1 0-5 16.25 16.25 0 0 1 0 32.5z" fill="#f9b087"/><path d="m208.625 110a2.5 2.5 0 0 1 0-5 11.25 11.25 0 1 0 -11.25-11.25 2.5 2.5 0 0 1 -5 0 16.25 16.25 0 1 1 16.25 16.25z" fill="#f9b087"/><g fill="#846f75"><path d="m119.625 36h-25a2.5 2.5 0 0 0 -2.5 2.5v66.5h-3.5a2.5 2.5 0 0 0 0 5h3.5v14.752h-3.5a2.5 2.5 0 1 0 0 5h3.5v14.748h-3.5a2.5 2.5 0 0 0 0 5h3.5v68a2.5 2.5 0 0 0 2.5 2.5h25a2.5 2.5 0 0 0 2.5-2.5v-179a2.5 2.5 0 0 0 -2.5-2.5zm-2.5 179h-20v-174h20z"/><path d="m58.024 105h-10.2a2.5 2.5 0 1 0 0 5h10.2a2.5 2.5 0 0 0 0-5z"/><path d="m78.425 105h-10.2a2.5 2.5 0 0 0 0 5h10.2a2.5 2.5 0 1 0 0-5z"/><path d="m37.625 105h-6a2.5 2.5 0 0 0 0 5h6a2.5 2.5 0 0 0 0-5z"/><path d="m58.024 124.752h-10.2a2.5 2.5 0 1 0 0 5h10.2a2.5 2.5 0 0 0 0-5z"/><path d="m78.425 124.752h-10.2a2.5 2.5 0 1 0 0 5h10.2a2.5 2.5 0 1 0 0-5z"/><path d="m37.625 124.752h-6a2.5 2.5 0 1 0 0 5h6a2.5 2.5 0 0 0 0-5z"/><path d="m78.425 144.5h-10.2a2.5 2.5 0 0 0 0 5h10.2a2.5 2.5 0 1 0 0-5z"/><path d="m58.024 144.5h-10.2a2.5 2.5 0 1 0 0 5h10.2a2.5 2.5 0 0 0 0-5z"/><path d="m37.625 144.5h-6a2.5 2.5 0 0 0 0 5h6a2.5 2.5 0 0 0 0-5z"/></g></svg>