<?xml version="1.0" encoding="iso-8859-1"?>
<!-- Generator: Adobe Illustrator 21.0.0, SVG Export Plug-In . SVG Version: 6.00 Build 0)  -->
<svg xmlns="http://www.w3.org/2000/svg" xmlns:xlink="http://www.w3.org/1999/xlink" version="1.1" id="Capa_1" x="0px" y="0px" viewBox="0 0 512 512" style="enable-background:new 0 0 512 512;" xml:space="preserve" width="512" height="512">
<g>
	<path style="fill:#7C8388;" d="M134.842,440.798L47.777,508.77c-5.939,4.668-14.425,4.243-19.728-1.06L4.29,483.951   c-5.303-5.303-5.728-13.789-1.06-19.728l67.973-87.065L134.842,440.798z"/>
	<path style="fill:#32393F;" d="M103.022,408.978l31.82,31.82L47.777,508.77c-5.939,4.668-14.425,4.243-19.728-1.06l-11.879-11.879   L103.022,408.978z"/>
	<path style="fill:#C6715A;" d="M230.301,472.617l-21.213,21.213c-5.939,5.939-15.273,5.94-21.213,0L18.169,324.125   c-5.94-5.94-5.939-15.274,0-21.213l21.213-21.213c5.94-5.94,15.273-5.94,21.213,0l169.706,169.706   C236.242,457.345,236.242,466.677,230.301,472.617z"/>
	<path style="fill:#99503D;" d="M230.301,472.617l-21.213,21.213c-5.939,5.939-15.273,5.94-21.213,0l-84.853-84.853l42.426-42.426   l84.853,84.853C236.242,457.345,236.242,466.677,230.301,472.617z"/>
	<path style="fill:#C5D3DD;" d="M506.043,154.025L195.087,389.885c-6.787,5.091-16.121,3.818-21.212-2.969l-49.002-49.002   c-6.576-4.88-7.849-14.214-2.758-21.001L357.975,5.957c1.059-1.908,2.969-3.394,5.091-4.242l147.218,147.218   C509.437,151.056,507.952,152.966,506.043,154.025z"/>
	<path style="fill:#9FACBA;" d="M506.043,154.025L195.087,389.885c-6.787,5.091-16.121,3.818-21.212-2.969l-24.396-24.396   L436.676,75.324l73.609,73.609C509.437,151.056,507.952,152.966,506.043,154.025z"/>
	<path style="fill:#DEECF1;" d="M510.285,148.934L402.31,122.417c-3.394-0.423-6.365-2.121-8.486-4.242   c-2.121-2.121-3.818-5.092-4.242-8.486L363.066,1.715c2.121-1.274,4.243-1.697,6.788-1.697l127.279,0   c4.029-0.212,7.848,1.485,10.605,4.243s4.455,6.576,4.243,10.605v127.279C511.982,144.691,511.559,146.813,510.285,148.934z"/>
	<path style="fill:#C5D3DD;" d="M402.31,122.417c-3.394-0.423-6.365-2.121-8.486-4.242L507.739,4.261   c2.758,2.758,4.455,6.576,4.243,10.605v127.279c0,2.545-0.423,4.668-1.697,6.788L402.31,122.417z"/>
	<path style="fill:#FFDA2D;" d="M177.268,440.798c-29.274,29.274-76.792,29.274-106.066,0s-29.274-76.792,0-106.066   s76.792-29.274,106.066,0S206.543,411.523,177.268,440.798z"/>
	<path style="fill:#FDBF00;" d="M177.268,440.798c-29.274,29.274-76.792,29.274-106.066,0l106.066-106.066   C206.543,364.006,206.543,411.523,177.268,440.798z"/>
	<path style="fill:#FDBF00;" d="M156.055,419.584c-17.606,17.606-46.032,17.607-63.64,0c-17.607-17.607-17.606-46.034,0-63.64   c17.607-17.607,46.032-17.607,63.64,0S173.663,401.977,156.055,419.584z"/>
	<path style="fill:#FF9100;" d="M156.055,419.584c-17.606,17.606-46.032,17.607-63.64,0l63.64-63.64   C173.663,373.552,173.663,401.977,156.055,419.584z"/>
	<path style="fill:#FFDA2D;" d="M134.842,398.371c-5.939,5.939-15.273,5.94-21.213,0c-5.94-5.94-5.939-15.274,0-21.213   c5.94-5.94,15.273-5.94,21.213,0S140.782,392.431,134.842,398.371z"/>
	<path style="fill:#FDBF00;" d="M134.842,398.371c-5.939,5.939-15.273,5.94-21.213,0l21.213-21.213   C140.782,383.098,140.782,392.431,134.842,398.371z"/>
</g>















</svg>
